<?xml version="1.0" encoding="UTF-8" standalone="no"?>
<!-- Created with Inkscape (http://www.inkscape.org/) -->

<svg
   width="110.0305mm"
   height="110.10914mm"
   viewBox="0 0 110.03051 110.10914"
   version="1.1"
   id="svg138"
   inkscape:version="1.1.1 (3bf5ae0d25, 2021-09-20)"
   sodipodi:docname="localstack-logo-icon-square.svg"
   inkscape:export-filename="/home/localstack/Downloads/localstack-logo-icon-square.png"
   inkscape:export-xdpi="1767.46"
   inkscape:export-ydpi="1767.46"
   xmlns:inkscape="http://www.inkscape.org/namespaces/inkscape"
   xmlns:sodipodi="http://sodipodi.sourceforge.net/DTD/sodipodi-0.dtd"
   xmlns:xlink="http://www.w3.org/1999/xlink"
   xmlns="http://www.w3.org/2000/svg"
   xmlns:svg="http://www.w3.org/2000/svg">
  <sodipodi:namedview
     id="namedview140"
     pagecolor="#ffffff"
     bordercolor="#666666"
     borderopacity="1.0"
     inkscape:pageshadow="2"
     inkscape:pageopacity="0.0"
     inkscape:pagecheckerboard="0"
     inkscape:document-units="mm"
     showgrid="false"
     fit-margin-top="0"
     fit-margin-left="0"
     fit-margin-right="0"
     fit-margin-bottom="0"
     inkscape:zoom="2.7865881"
     inkscape:cx="106.04366"
     inkscape:cy="251.74155"
     inkscape:window-width="3790"
     inkscape:window-height="2096"
     inkscape:window-x="0"
     inkscape:window-y="0"
     inkscape:window-maximized="1"
     inkscape:current-layer="layer1" />
  <defs
     id="defs135">
    <linearGradient
       inkscape:collect="always"
       id="linearGradient261">
      <stop
         style="stop-color:#2c245e;stop-opacity:1;"
         offset="0"
         id="stop257" />
      <stop
         style="stop-color:#241f52;stop-opacity:1"
         offset="0"
         id="stop299" />
      <stop
         style="stop-color:#322864;stop-opacity:1"
         offset="1"
         id="stop259" />
    </linearGradient>
    <linearGradient
       id="paint0_linear_21_62"
       x1="72.297997"
       y1="11.4474"
       x2="13.4424"
       y2="69.721199"
       gradientUnits="userSpaceOnUse">
      <stop
         stop-color="#4D29B4"
         id="stop8" />
      <stop
         offset="1"
         stop-color="#836FFF"
         id="stop10" />
    </linearGradient>
    <linearGradient
       id="paint1_linear_21_62"
       x1="46.8368"
       y1="34.241199"
       x2="87.571999"
       y2="-5.7718401"
       gradientUnits="userSpaceOnUse">
      <stop
         stop-color="#70FFE5"
         id="stop13" />
      <stop
         offset="1"
         stop-color="#6295E1"
         id="stop15" />
    </linearGradient>
    <linearGradient
       id="paint2_linear_21_62"
       x1="68.903"
       y1="18.237101"
       x2="30.592699"
       y2="54.612999"
       gradientUnits="userSpaceOnUse">
      <stop
         offset="0.00747511"
         stop-color="#654FEC"
         id="stop18" />
      <stop
         offset="1"
         stop-color="#71B2FF"
         id="stop20" />
    </linearGradient>
    <linearGradient
       inkscape:collect="always"
       xlink:href="#linearGradient261"
       id="linearGradient263"
       x1="35.126873"
       y1="124.54396"
       x2="145.15738"
       y2="14.434821"
       gradientUnits="userSpaceOnUse" />
  </defs>
  <g
     inkscape:label="Layer 1"
     inkscape:groupmode="layer"
     id="layer1"
     transform="translate(-35.126873,-14.434821)">
    <rect
       style="fill:url(#linearGradient263);fill-opacity:1;stroke-width:0.264583"
       id="rect225"
       width="110.0305"
       height="110.10914"
       x="35.126873"
       y="14.434821" />
    <g
       style="fill:none"
       id="g171"
       transform="matrix(0.90640964,0,0,0.90640964,50.628631,34.195479)">
      <g
         id="g32">
        <path
           fill-rule="evenodd"
           clip-rule="evenodd"
           d="m 71.1818,57.5936 c 0.9282,0 1.3931,1.1222 0.7367,1.7785 l -22.576,22.5744 c -0.6564,0.6563 -1.7787,0.1915 -1.7787,-0.7367 V 58.6354 c 0,-0.5754 0.4665,-1.0418 1.0419,-1.0418 z M 1.56578,36.3218 c -0.928241,0 -1.3931,-1.1222 -0.736735,-1.7785 L 23.4051,11.9689 c 0.6564,-0.6563 1.7786,-0.1915 1.7786,0.7367 V 35.28 c 0,0.5754 -0.4664,1.0418 -1.0419,1.0418 z"
           fill="url(#paint0_linear_21_62)"
           id="path2"
           style="fill:url(#paint0_linear_21_62)" />
        <path
           d="m 50.7103,32.6168 h 30.2424 c 0.5754,0 1.0419,-0.4664 1.0419,-1.0418 V 1.33484 c 0,-0.575389 -0.4665,-1.041829 -1.0419,-1.041829 l -30.2424,-3e-6 c -0.5754,0 -1.0419,0.46644 -1.0419,1.041822 V 31.575 c 0,0.5754 0.4665,1.0418 1.0419,1.0418 z"
           fill="url(#paint1_linear_21_62)"
           id="path4"
           style="fill:url(#paint1_linear_21_62)" />
        <path
           d="M 73.1113,52.3844 H 31.4351 c -0.5754,0 -1.0419,-0.4664 -1.0419,-1.0418 V 9.66945 c 0,-0.57538 0.4665,-1.04182 1.0419,-1.04182 H 43.417 c 0.5754,0 1.0419,0.46644 1.0419,1.04182 V 36.757 c 0,0.5754 0.4665,1.0418 1.0419,1.0418 h 27.6105 c 0.5754,0 1.0419,0.4665 1.0419,1.0419 v 12.5019 c 0,0.5754 -0.4665,1.0418 -1.0419,1.0418 z"
           fill="url(#paint2_linear_21_62)"
           id="path6"
           style="fill:url(#paint2_linear_21_62)" />
      </g>
    </g>
  </g>
</svg>
