<svg width="180" height="43" viewBox="0 0 180 43" fill="none" xmlns="http://www.w3.org/2000/svg">
<g clip-path="url(#clip0_642_2725)">
<path d="M56.6264 25.3214H61.8916V28.015H53.4219V11.0757H56.6264V25.3214Z" fill="white"/>
<path d="M65.8354 27.1655C64.8113 26.6002 64.0074 25.7982 63.4228 24.7616C62.8382 23.7251 62.5469 22.5297 62.5469 21.1736C62.5469 19.8174 62.8473 18.6231 63.4472 17.5865C64.047 16.5499 64.8671 15.749 65.9074 15.1827C66.9478 14.6174 68.1079 14.3332 69.3878 14.3332C70.6676 14.3332 71.8278 14.6164 72.8681 15.1827C73.9084 15.749 74.7285 16.5499 75.3284 17.5865C75.9282 18.6231 76.2287 19.8195 76.2287 21.1736C76.2287 22.5277 75.9201 23.7251 75.304 24.7616C74.6879 25.7982 73.8557 26.5992 72.8072 27.1655C71.7587 27.7318 70.5864 28.015 69.2903 28.015C67.9942 28.015 66.8575 27.7318 65.8333 27.1655H65.8354ZM71.0087 24.6544C71.5446 24.3592 71.9729 23.9172 72.2926 23.3266C72.6123 22.737 72.7727 22.019 72.7727 21.1736C72.7727 19.9145 72.4408 18.9457 71.777 18.2681C71.1132 17.5906 70.3012 17.2518 69.3411 17.2518C68.3809 17.2518 67.5771 17.5906 66.9285 18.2681C66.2799 18.9457 65.9562 19.9145 65.9562 21.1736C65.9562 22.4326 66.2718 23.4025 66.9041 24.08C67.5365 24.7576 68.3322 25.0964 69.2924 25.0964C69.9003 25.0964 70.4728 24.9487 71.0087 24.6534V24.6544Z" fill="white"/>
<path d="M78.385 17.5744C78.9534 16.5459 79.7402 15.749 80.7474 15.1827C81.7535 14.6174 82.9069 14.3332 84.2055 14.3332C85.8779 14.3332 87.262 14.7438 88.3577 15.5649C89.4534 16.3861 90.1877 17.538 90.5615 19.0205H86.884C86.6894 18.4461 86.3609 17.9961 85.8975 17.6694C85.4351 17.3428 84.8625 17.179 84.1808 17.179C83.2066 17.179 82.4352 17.5258 81.8668 18.2196C81.2983 18.9133 81.0141 19.8973 81.0141 21.1736C81.0141 22.4498 81.2983 23.4095 81.8668 24.1033C82.4352 24.797 83.2066 25.1439 84.1808 25.1439C85.5607 25.1439 86.4618 24.5382 86.884 23.3266H90.5615C90.1877 24.7616 89.4493 25.9014 88.3454 26.7468C87.2414 27.5923 85.8614 28.015 84.2045 28.015C82.9048 28.015 81.7525 27.7318 80.7463 27.1655C79.7392 26.6002 78.9524 25.8023 78.3839 24.7738C77.8155 23.7453 77.5312 22.5459 77.5312 21.1746C77.5312 19.8033 77.8155 18.6039 78.3839 17.5754L78.385 17.5744Z" fill="white"/>
<path d="M92.005 17.5627C92.5344 16.526 93.2533 15.729 94.1627 15.1707C95.071 14.6123 96.0867 14.3332 97.2096 14.3332C98.1892 14.3332 99.0474 14.5324 99.7824 14.931C100.517 15.3295 101.106 15.8321 101.549 16.438V14.5486H104.893V27.8006H101.549V25.8626C101.122 26.4847 100.533 26.9985 99.7824 27.4051C99.0314 27.8117 98.1661 28.015 97.1856 28.015C96.0787 28.015 95.071 27.7277 94.1627 27.1542C93.2533 26.5797 92.5344 25.7706 92.005 24.7268C91.4756 23.683 91.2109 22.4824 91.2109 21.1271C91.2109 19.7717 91.4756 18.5995 92.005 17.5627ZM101.075 19.0819C100.758 18.5003 100.332 18.0533 99.7944 17.7428C99.257 17.4323 98.6795 17.2765 98.0639 17.2765C97.4483 17.2765 96.8778 17.4282 96.3564 17.7306C95.835 18.0341 95.4119 18.4761 95.0881 19.0587C94.7642 19.6412 94.6018 20.331 94.6018 21.1281C94.6018 21.9251 94.7642 22.623 95.0881 23.2207C95.4119 23.8185 95.8391 24.2777 96.3684 24.5963C96.8978 24.9159 97.4633 25.0747 98.0639 25.0747C98.6644 25.0747 99.257 24.919 99.7944 24.6084C100.332 24.2969 100.758 23.8509 101.075 23.2693C101.391 22.6877 101.549 21.9898 101.549 21.1766C101.549 20.3634 101.391 19.6655 101.075 19.0839V19.0819Z" fill="white"/>
<path d="M111.41 10.4241V28.015H108.152V10.4241H111.41Z" fill="white"/>
<path d="M117.135 27.4191C116.181 27.0244 115.426 26.4555 114.872 25.7133C114.318 24.9711 114.032 24.0947 114.016 23.0841H117.684C117.733 23.7632 117.982 24.3 118.43 24.6947C118.878 25.0893 119.494 25.2866 120.277 25.2866C121.06 25.2866 121.703 25.1013 122.16 24.7297C122.616 24.3591 122.845 23.8733 122.845 23.2734C122.845 22.7846 122.69 22.3809 122.381 22.0654C122.07 21.7499 121.683 21.5005 121.219 21.3192C120.755 21.1379 120.115 20.9366 119.299 20.7153C118.19 20.3997 117.289 20.0872 116.596 19.7797C115.903 19.4722 115.307 19.0065 114.811 18.3825C114.313 17.7585 114.065 16.9261 114.065 15.8834C114.065 14.9049 114.318 14.0515 114.823 13.3253C115.328 12.5991 116.038 12.0422 116.952 11.6556C117.865 11.269 118.909 11.0757 120.082 11.0757C121.844 11.0757 123.274 11.4904 124.376 12.3197C125.476 13.149 126.083 14.3059 126.198 15.7903H122.431C122.398 15.2214 122.15 14.7516 121.686 14.381C121.221 14.0104 120.605 13.8241 119.838 13.8241C119.169 13.8241 118.636 13.9904 118.236 14.3219C117.836 14.6535 117.638 15.1352 117.638 15.7673C117.638 16.21 117.789 16.5766 118.091 16.869C118.393 17.1615 118.767 17.3989 119.216 17.5802C119.664 17.7615 120.295 17.9708 121.112 18.2082C122.22 18.5247 123.125 18.8402 123.826 19.1557C124.528 19.4722 125.131 19.946 125.636 20.577C126.141 21.209 126.394 22.0374 126.394 23.064C126.394 23.9485 126.158 24.7698 125.685 25.528C125.211 26.2862 124.519 26.8902 123.606 27.3399C122.693 27.7897 121.608 28.015 120.353 28.015C119.163 28.015 118.091 27.8177 117.137 27.4231L117.135 27.4191Z" fill="white"/>
<path d="M132.588 17.2532V23.8224C132.588 24.2806 132.694 24.6112 132.907 24.8154C133.12 25.0196 133.477 25.1222 133.982 25.1222H135.516V28.015H133.438C130.651 28.015 129.258 26.6096 129.258 23.7986V17.2532H127.699V14.4339H129.258V11.0757H132.588V14.4339H135.517V17.2532H132.588Z" fill="white"/>
<path d="M137.648 17.5627C138.203 16.526 138.956 15.729 139.909 15.1707C140.86 14.6123 141.924 14.3332 143.101 14.3332C144.127 14.3332 145.026 14.5324 145.796 14.931C146.566 15.3295 147.182 15.8321 147.647 16.438V14.5486H151.15V27.8006H147.647V25.8626C147.199 26.4847 146.583 26.9985 145.796 27.4051C145.009 27.8117 144.103 28.015 143.076 28.015C141.916 28.015 140.86 27.7277 139.909 27.1542C138.956 26.5797 138.203 25.7706 137.648 24.7268C137.094 23.683 136.816 22.4824 136.816 21.1271C136.816 19.7717 137.094 18.5995 137.648 17.5627ZM147.15 19.0819C146.818 18.5003 146.372 18.0533 145.809 17.7428C145.246 17.4323 144.641 17.2765 143.996 17.2765C143.351 17.2765 142.753 17.4282 142.207 17.7306C141.661 18.0341 141.217 18.4761 140.878 19.0587C140.539 19.6412 140.369 20.331 140.369 21.1281C140.369 21.9251 140.539 22.623 140.878 23.2207C141.217 23.8185 141.665 24.2777 142.219 24.5963C142.774 24.9159 143.366 25.0747 143.996 25.0747C144.625 25.0747 145.246 24.919 145.809 24.6084C146.372 24.2969 146.818 23.8509 147.15 23.2693C147.481 22.6877 147.647 21.9898 147.647 21.1766C147.647 20.3634 147.481 19.6655 147.15 19.0839V19.0819Z" fill="white"/>
<path d="M153.959 17.5744C154.528 16.5459 155.314 15.749 156.322 15.1827C157.328 14.6174 158.481 14.3332 159.78 14.3332C161.452 14.3332 162.836 14.7438 163.932 15.5649C165.028 16.3861 165.762 17.538 166.136 19.0205H162.458C162.264 18.4461 161.935 17.9961 161.472 17.6694C161.009 17.3428 160.437 17.179 159.755 17.179C158.781 17.179 158.009 17.5258 157.441 18.2196C156.873 18.9133 156.588 19.8973 156.588 21.1736C156.588 22.4498 156.873 23.4095 157.441 24.1033C158.009 24.797 158.781 25.1439 159.755 25.1439C161.135 25.1439 162.036 24.5382 162.458 23.3266H166.136C165.762 24.7616 165.024 25.9014 163.92 26.7468C162.816 27.5923 161.436 28.015 159.779 28.015C158.479 28.015 157.327 27.7318 156.321 27.1655C155.313 26.6002 154.527 25.8023 153.958 24.7738C153.39 23.7453 153.105 22.5459 153.105 21.1746C153.105 19.8033 153.39 18.6039 153.958 17.5754L153.959 17.5744Z" fill="white"/>
<path d="M175.399 28.015L170.836 22.4053V28.015H167.438V10.4241H170.836V20.4323L175.351 14.8457H179.768L173.845 21.4545L179.816 28.015H175.399Z" fill="white"/>
<path d="M42.3979 0H26.0133C25.6802 0 25.4102 0.270024 25.4102 0.603115V16.9878C25.4102 17.3208 25.6802 17.5909 26.0133 17.5909H42.3979C42.731 17.5909 43.001 17.3208 43.001 16.9878V0.603115C43.001 0.270024 42.731 0 42.3979 0Z" fill="url(#paint0_radial_642_2725)"/>
<path d="M15.5925 28.0152H37.1793C37.5147 28.0152 37.7874 27.7426 37.7874 27.4071V21.0223C37.7874 20.6868 37.5147 20.4142 37.1793 20.4142H23.1934C22.858 20.4142 22.5854 20.1416 22.5854 19.8061V5.8203C22.5854 5.48484 22.3127 5.21222 21.9773 5.21222H15.5925C15.257 5.21222 14.9844 5.48484 14.9844 5.8203V27.4071C14.9844 27.7426 15.257 28.0152 15.5925 28.0152Z" fill="url(#paint1_linear_642_2725)"/>
<path fill-rule="evenodd" clip-rule="evenodd" d="M13.0303 7.04117V18.369C13.0303 18.6591 12.7832 18.8938 12.4778 18.8938H0.553779C0.0617655 18.8938 -0.185283 18.3284 0.162878 17.9976L12.0869 6.66981C12.4351 6.33906 13.0303 6.57375 13.0303 7.04117Z" fill="url(#paint2_linear_642_2725)"/>
<path fill-rule="evenodd" clip-rule="evenodd" d="M24.1055 42.4739V31.1461C24.1055 30.8559 24.3402 30.6212 24.6303 30.6212H35.9581C36.4256 30.6212 36.6602 31.1867 36.3295 31.5174L25.0017 42.8452C24.6709 43.176 24.1055 42.9413 24.1055 42.4739Z" fill="url(#paint3_linear_642_2725)"/>
</g>
<defs>
<radialGradient id="paint0_radial_642_2725" cx="0" cy="0" r="1" gradientUnits="userSpaceOnUse" gradientTransform="translate(22.1976 20.712) scale(38.1772)">
<stop offset="0.07" stop-color="#1B58F4"/>
<stop offset="0.71" stop-color="#74FFE6"/>
</radialGradient>
<linearGradient id="paint1_linear_642_2725" x1="47.167" y1="-3.65459" x2="13.6963" y2="28.9901" gradientUnits="userSpaceOnUse">
<stop offset="0.32" stop-color="#4979F6"/>
<stop offset="0.99" stop-color="#4D33BD"/>
</linearGradient>
<linearGradient id="paint2_linear_642_2725" x1="16.2565" y1="9.11481" x2="2.94885" y2="23.1239" gradientUnits="userSpaceOnUse">
<stop offset="0.22" stop-color="#4D29B4"/>
<stop offset="0.36" stop-color="#4C33BC"/>
<stop offset="0.58" stop-color="#4B4ED2"/>
<stop offset="0.87" stop-color="#4979F6"/>
</linearGradient>
<linearGradient id="paint3_linear_642_2725" x1="33.5151" y1="27.9247" x2="21.4436" y2="39.9962" gradientUnits="userSpaceOnUse">
<stop offset="0.22" stop-color="#4D29B4"/>
<stop offset="0.36" stop-color="#4C33BC"/>
<stop offset="0.58" stop-color="#4B4ED2"/>
<stop offset="0.87" stop-color="#4979F6"/>
</linearGradient>
<clipPath id="clip0_642_2725">
<rect width="179.817" height="43" fill="white"/>
</clipPath>
</defs>
</svg>
