<?xml version="1.0" encoding="UTF-8" standalone="no"?>
<!-- Created with Inkscape (http://www.inkscape.org/) -->

<svg
   xmlns:dc="http://purl.org/dc/elements/1.1/"
   xmlns:cc="http://creativecommons.org/ns#"
   xmlns:rdf="http://www.w3.org/1999/02/22-rdf-syntax-ns#"
   xmlns:svg="http://www.w3.org/2000/svg"
   xmlns="http://www.w3.org/2000/svg"
   xmlns:xlink="http://www.w3.org/1999/xlink"
   xmlns:sodipodi="http://sodipodi.sourceforge.net/DTD/sodipodi-0.dtd"
   xmlns:inkscape="http://www.inkscape.org/namespaces/inkscape"
   width="32mm"
   height="32mm"
   viewBox="0 0 32 32"
   version="1.1"
   id="svg4452"
   inkscape:version="0.92.5 (2060ec1f9f, 2020-04-08)"
   sodipodi:docname="tools.svg">
  <defs
     id="defs4446">
    <linearGradient
       id="linearGradient1408"
       inkscape:collect="always">
      <stop
         id="stop1404"
         offset="0"
         style="stop-color:#654fec;stop-opacity:1" />
      <stop
         id="stop1406"
         offset="1"
         style="stop-color:#6fa9fd;stop-opacity:1" />
    </linearGradient>
    <marker
       inkscape:isstock="true"
       style="overflow:visible"
       id="marker7818"
       refX="0"
       refY="0"
       orient="auto"
       inkscape:stockid="TriangleOutM">
      <path
         transform="scale(0.4)"
         style="fill:#000000;fill-opacity:1;fill-rule:evenodd;stroke:#000000;stroke-width:1.00000003pt;stroke-opacity:1"
         d="M 5.77,0 -2.88,5 V -5 Z"
         id="path7816"
         inkscape:connector-curvature="0" />
    </marker>
    <linearGradient
       inkscape:collect="always"
       xlink:href="#linearGradient1408"
       id="linearGradient1093"
       x1="1.6129016"
       y1="50.46714"
       x2="112.32719"
       y2="50.46714"
       gradientUnits="userSpaceOnUse" />
  </defs>
  <sodipodi:namedview
     id="base"
     pagecolor="#ffffff"
     bordercolor="#666666"
     borderopacity="1.0"
     inkscape:pageopacity="0.0"
     inkscape:pageshadow="2"
     inkscape:zoom="0.70000001"
     inkscape:cx="-124.33519"
     inkscape:cy="74.562312"
     inkscape:document-units="mm"
     inkscape:current-layer="layer1"
     showgrid="false"
     fit-margin-top="0"
     fit-margin-left="0"
     fit-margin-right="0"
     fit-margin-bottom="0"
     inkscape:window-width="1920"
     inkscape:window-height="1030"
     inkscape:window-x="1920"
     inkscape:window-y="406"
     inkscape:window-maximized="1" />
  <metadata
     id="metadata4449">
    <rdf:RDF>
      <cc:Work
         rdf:about="">
        <dc:format>image/svg+xml</dc:format>
        <dc:type
           rdf:resource="http://purl.org/dc/dcmitype/StillImage" />
        <dc:title />
      </cc:Work>
    </rdf:RDF>
  </metadata>
  <g
     inkscape:label="Layer 1"
     inkscape:groupmode="layer"
     id="layer1"
     transform="translate(-105.70833,-231.10715)">
    <g
       transform="translate(69.673502,134.62517)"
       id="layer1-9"
       inkscape:label="Layer 1">
      <path
         transform="matrix(0.26458333,0,0,0.26458333,37.075158,97.73867)"
         id="rect924"
         d="M 111.56916,22.667284 V 78.86657 c 0,3.077934 -2.4779,5.55583 -5.55584,5.55583 H 7.0676523 c -3.0779339,0 -5.5558375,-2.477896 -5.5558375,-5.55583 V 22.667283"
         style="opacity:1;fill:url(#linearGradient1093);fill-opacity:1;stroke:#000000;stroke-width:3.02362204;stroke-linecap:round;stroke-linejoin:round;stroke-miterlimit:4;stroke-dasharray:none;stroke-dashoffset:0;stroke-opacity:1"
         inkscape:connector-curvature="0" />
      <path
         sodipodi:nodetypes="csccsscc"
         inkscape:connector-curvature="0"
         transform="matrix(0.26458333,0,0,0.26458333,37.075158,97.73867)"
         id="path2697"
         d="M 1.5118148,22.667283 V 7.0676561 c 0,-3.0779339 2.4779036,-5.5558375 5.5558375,-5.5558375 v 0 H 106.01332 c 3.07794,0 5.55584,2.4779036 5.55584,5.5558375 V 22.667284 Z"
         style="opacity:1;fill:#ececec;fill-opacity:1;stroke:#1a1a1a;stroke-width:3.02362204;stroke-linecap:round;stroke-linejoin:round;stroke-miterlimit:4;stroke-dasharray:none;stroke-dashoffset:0;stroke-opacity:1" />
      <circle
         r="0.96885204"
         cy="100.96864"
         cx="40.850159"
         id="path928"
         style="opacity:1;fill:#74ffe6;fill-opacity:1;stroke:#1a1a1a;stroke-width:0.80000001;stroke-linecap:round;stroke-linejoin:round;stroke-miterlimit:4;stroke-dasharray:none;stroke-dashoffset:0;stroke-opacity:1" />
      <circle
         r="0.96885204"
         cy="100.96864"
         cx="44.553162"
         id="path928-7"
         style="opacity:1;fill:#74ffe6;fill-opacity:1;stroke:#1a1a1a;stroke-width:0.80000001;stroke-linecap:round;stroke-linejoin:round;stroke-miterlimit:4;stroke-dasharray:none;stroke-dashoffset:0;stroke-opacity:1" />
      <circle
         r="0.96885204"
         cy="100.93524"
         cx="48.296097"
         id="path928-7-5"
         style="opacity:1;fill:#74ffe6;fill-opacity:1;stroke:#1a1a1a;stroke-width:0.80000001;stroke-linecap:round;stroke-linejoin:round;stroke-miterlimit:4;stroke-dasharray:none;stroke-dashoffset:0;stroke-opacity:1" />
      <path
         sodipodi:nodetypes="cccccccccccccc"
         inkscape:connector-curvature="0"
         id="path966-5"
         d="m 50.456208,120.31984 v -5.17589 l 2.23371,-2.03581 v -3.38773 l -2.54737,-2.5791 v 4.26624 l -1.54701,1.02082 v 0 l -1.54701,-1.02082 v -4.26624 l -2.54738,2.5791 v 3.38773 l 2.23371,2.03581 v 4.76956"
         style="fill:#b3b3b3;fill-opacity:1;stroke:#1a1a1a;stroke-width:0.80000001;stroke-linecap:round;stroke-linejoin:round;stroke-miterlimit:4;stroke-dasharray:none;stroke-opacity:1" />
      <path
         sodipodi:nodetypes="cccccccccccccc"
         inkscape:connector-curvature="0"
         id="path998-6"
         d="m 59.197778,119.87474 v -5.81611 h -1.2048 v -3.37817 l 0.82683,-0.82682 -0.90553,-3.37945 h -0.7245 -0.10022 -0.7245 l -0.90552,3.37945 0.82682,0.82682 v 3.37817 h -1.2048 v 5.55152"
         style="fill:#b3b3b3;fill-opacity:1;stroke:#1a1a1a;stroke-width:0.80000001;stroke-linecap:round;stroke-linejoin:round;stroke-miterlimit:4;stroke-dasharray:none;stroke-opacity:1" />
      <path
         sodipodi:nodetypes="cccccccccccccccccccccccccccccccccccc"
         inkscape:connector-curvature="0"
         id="path2059"
         d="m 39.346358,126.82529 v -1.50224 l 2.65845,-0.95522 0.15282,0.0124 2.30752,0.4633 1.11238,-2.68546 -1.95929,-1.30409 -0.11678,-0.0993 -1.20438,-2.55525 1.41458,-1.41459 2.55527,1.20437 0.0993,0.11679 1.30409,1.95929 2.68546,-1.11237 -0.4633,-2.30753 -0.0124,-0.15282 0.95522,-2.65845 h 2.00053 l 0.95522,2.65845 -0.0124,0.15282 -0.4633,2.30753 2.68546,1.11237 1.30408,-1.95929 0.0993,-0.11679 2.55527,-1.20437 1.41458,1.41459 -1.20438,2.55525 -0.11678,0.0993 -1.95929,1.30409 1.11238,2.68546 v 0 l 2.30752,-0.4633 0.15282,-0.0124 2.65845,0.95521 v 1.50225 z"
         style="fill:#e6e6e6;stroke:#1a1a1a;stroke-width:0.80000001;stroke-miterlimit:4;stroke-dasharray:none" />
      <path
         id="path2062"
         d="m 47.901218,126.44191 a 3.9361856,3.9361856 0 0 1 -0.002,-0.11859 3.9361856,3.9361856 0 0 1 3.93619,-3.93619 3.9361856,3.9361856 0 0 1 3.93618,3.93619 v 0 a 3.9361856,3.9361856 0 0 1 -0.002,0.11857"
         style="fill:#f9f9f9;stroke:#1a1a1a;stroke-width:0.80000001;stroke-miterlimit:4;stroke-dasharray:none"
         inkscape:connector-curvature="0" />
    </g>
    <rect
       style="opacity:1;fill:none;fill-opacity:1;stroke:none;stroke-width:0.85140848;stroke-linecap:round;stroke-linejoin:round;stroke-miterlimit:4;stroke-dasharray:none;stroke-dashoffset:3.62834644;stroke-opacity:1"
       id="rect1497"
       width="32"
       height="32"
       x="105.70833"
       y="231.10715" />
  </g>
</svg>
