<svg height="2500" width="2500" xmlns="http://www.w3.org/2000/svg" viewBox="0 0 64 64"><linearGradient id="a" x1="0%" y1="100%" y2="0%"><stop offset="0" stop-color="#b0084d"/><stop offset="1" stop-color="#ff4f8b"/></linearGradient><g fill="none" fill-rule="evenodd"><path d="M0 0h64v64H0z" fill="url(#a)"/><path d="M37 34h15v-4H37zm16-6H36a1 1 0 0 0-1 1v6a1 1 0 0 0 1 1h17a1 1 0 0 0 1-1v-6a1 1 0 0 0-1-1zM34.5 49.5c0 1.378-1.121 2.5-2.5 2.5s-2.5-1.122-2.5-2.5S30.621 47 32 47s2.5 1.122 2.5 2.5zM12 38v-3h13v3h-7zm0-9v-3h13v3zm17.5-14.5c0-1.378 1.121-2.5 2.5-2.5s2.5 1.122 2.5 2.5S33.379 17 32 17s-2.5-1.122-2.5-2.5zM44 42H20v-2h6a1 1 0 0 0 1-1v-5a1 1 0 0 0-1-1h-6v-2h6a1 1 0 0 0 1-1v-5a1 1 0 0 0-1-1h-6v-2h24v4h2v-5a1 1 0 0 0-1-1H33v-1.121c2-.457 3.5-2.242 3.5-4.379 0-2.481-2.019-4.5-4.5-4.5s-4.5 2.019-4.5 4.5c0 2.137 1.5 3.922 3.5 4.379V20H19a1 1 0 0 0-1 1v3h-7a1 1 0 0 0-1 1v5a1 1 0 0 0 1 1h7v2h-7a1 1 0 0 0-1 1v5a1 1 0 0 0 1 1h7v3a1 1 0 0 0 1 1h12v1.121c-2 .457-3.5 2.242-3.5 4.379 0 2.481 2.019 4.5 4.5 4.5s4.5-2.019 4.5-4.5c0-2.137-1.5-3.922-3.5-4.379V44h12a1 1 0 0 0 1-1v-5h-2z" fill="#fff"/></g></svg>