<?xml version="1.0" standalone="no"?>
<!DOCTYPE svg PUBLIC "-//W3C//DTD SVG 1.1//EN" "http://www.w3.org/Graphics/SVG/1.1/DTD/svg11.dtd">
<svg xmlns="http://www.w3.org/2000/svg">
<defs >
<font id="Exo" horiz-adv-x="533" ><font-face
    font-family="Exo Black"
    units-per-em="1000"
    panose-1="0 0 0 0 0 0 0 0 0 0"
    ascent="1002"
    descent="-327"
    alphabetic="0" />
<glyph unicode=" " horiz-adv-x="250" />
<glyph unicode="!" horiz-adv-x="277" d="M64 206L41 742H235L208 206H64ZM78 -2Q54 -2 54 21V138Q54 163 78 163H191Q216 163 216 138V21Q216 8 209 3T191 -2H78Z" />
<glyph unicode="&quot;" horiz-adv-x="476" d="M42 491L31 692V759H216V692L206 491H42ZM262 491L251 692V759H436V692L426 491H262Z" />
<glyph unicode="#" horiz-adv-x="749" d="M116 0L153 191H11L31 323H178L194 409H45L66 541H220L257 732H389L352 541H440L476 732H608L572 541H739L720 409H552L536 323H704L686 191H506L469 0H337L374 191H285L248 0H116ZM310 323H404L420 409H326L310 323Z" />
<glyph unicode="$" horiz-adv-x="609" d="M233 718V824H341V718H233ZM233 -90V12H341V-90H233ZM288 -6Q255 -6 224 -4T162 2T103 11T49 23V177Q83 174 122 172T202 169T278 168Q311 168 333 173T366 189T377 219V231Q377 253 362 264T325 275H272Q156 275 96 326T36
497V530Q36 640 102 694T292 749Q339 749 380 745T458 734T524 720V566Q478 570 421 572T316 575Q288 575 266 571T232 555T220 520V510Q220 485 236 472T285 459H351Q421 459 467 433T537 361T561 257V224Q561 129 528 79T434 12T288 -6Z" />
<glyph unicode="%" horiz-adv-x="968" d="M192 0L646 732H770L323 0H192ZM161 349Q88 349 56 384T24 484V597Q24 661 55 696T163 732H264Q338 732 369 697T401 597V484Q401 420 370 385T262 349H161ZM186 474H237Q263 474 269 486T276 514V567Q276 592 267 599T239
607H188Q172 607 161 600T149 567V514Q149 498 155 486T186 474ZM704 3Q631 3 600 38T568 138V251Q568 315 599 350T706 386H808Q882 386 913 351T945 251V138Q945 74 914 39T806 3H704ZM730 128H780Q806 128 813 140T820 168V221Q820 246 811 253T782 261H732Q716
261 705 254T693 221V168Q693 152 699 140T730 128Z" />
<glyph unicode="&amp;" horiz-adv-x="715" d="M226 -5Q170 -5 126 20T56 91T31 195Q31 251 54 298T119 381L175 429L165 445Q134 495 129 525T123 583Q123 639 149 673T220 723T321 739Q359 739 399 735T474 725T531 710V568H359Q336 568 327 559T317 535Q317
522 328 503T362 453L461 317L600 438L670 350L603 242L554 194L700 0H502L433 85L393 51Q357 21 318 8T226 -5ZM261 171Q275 171 287 175T312 192L332 213L267 297L239 270Q225 256 220 245T215 218Q215 199 227 185T261 171Z" />
<glyph unicode="&apos;" horiz-adv-x="256" d="M42 491L31 692V759H216V692L206 491H42Z" />
<glyph unicode="(" horiz-adv-x="413" d="M231 -210Q182 -158 139 -86T69 87T42 326Q42 457 70 558T141 734T231 860H402Q361 795 323 715T261 538T236 326Q236 213 256 123T314 -48T402 -210H231Z" />
<glyph unicode=")" horiz-adv-x="413" d="M11 -210Q52 -144 90 -64T152 112T177 324Q177 438 157 528T100 698T11 860H182Q231 809 274 737T344 564T371 324Q371 194 343 93T272 -83T182 -210H11Z" />
<glyph unicode="*" horiz-adv-x="418" d="M289 498L230 571L349 652L390 595L289 498ZM143 397L76 418L101 556L192 532L143 397ZM172 561L28 566V636L167 655L172 561ZM299 393L176 459L227 538L341 449L299 393ZM197 584L157 722L224 744L285 618L197 584Z" />
<glyph unicode="+" horiz-adv-x="609" d="M227 132V580H381V132H227ZM80 279V433H528V279H80Z" />
<glyph unicode="," horiz-adv-x="257" d="M115 -97Q90 -97 72 -93T53 -88V-26Q69 -26 76 -22T84 -5V14H73Q63 14 56 20T48 39V136Q48 163 73 163H184Q198 163 203 155T208 136V-11Q208 -46 194 -65T158 -90T115 -97Z" />
<glyph unicode="-" horiz-adv-x="354" d="M20 213V367H334V213H20Z" />
<glyph unicode="." horiz-adv-x="257" d="M72 -2Q48 -2 48 21V138Q48 163 72 163H185Q210 163 210 138V21Q210 8 203 3T185 -2H72Z" />
<glyph unicode="/" horiz-adv-x="502" d="M11 -72L292 770H491L210 -72H11Z" />
<glyph unicode="0" horiz-adv-x="641" d="M243 -6Q175 -6 130 18T62 87T40 196V537Q40 606 63 653T133 724T244 749H406Q469 749 512 725T578 653T601 537V196Q601 102 551 48T405 -6H243ZM291 168H351Q378 168 392 181T407 226V517Q407 552 393 563T359 575H284Q258
575 246 561T234 517V227Q234 195 248 182T291 168Z" />
<glyph unicode="1" horiz-adv-x="379" d="M140 0V565H22V689L162 749H334V0H140Z" />
<glyph unicode="2" horiz-adv-x="582" d="M40 0V154L271 390Q293 412 308 431T331 468T340 505Q340 526 332 539T308 559T265 565H52V719Q101 730 161 739T302 749Q390 749 440 725T512 654T534 539Q534 490 521 450T484 375T424 305L296 174H554V0H40Z" />
<glyph unicode="3" horiz-adv-x="575" d="M328 -6Q248 -6 173 1T34 21V177H252Q291 177 312 181T342 194T350 219V238Q350 256 341 267T315 283T273 290L95 298V448L264 459Q304 462 323 471T342 503V512Q342 541 322 553T248 565H44V721Q109 732 181 741T327
749Q391 748 437 728T509 666T534 560V510Q534 485 530 464T515 425T489 394T450 373Q474 366 491 351T520 314T538 267T544 210V181Q544 90 487 42T328 -6Z" />
<glyph unicode="4" horiz-adv-x="635" d="M364 0V137H55L21 224L236 743H434L252 301H364V411L401 507H558V301H618V167L558 137V0H364Z" />
<glyph unicode="5" horiz-adv-x="592" d="M298 -6Q242 -6 175 0T43 14V168H307Q338 168 350 178T364 203T366 228V259Q366 284 357 298T320 312H276Q252 312 242 303T229 277H45L66 743H529V569H232L227 456Q244 469 268 472T316 476H392Q450 476 487 452T542
387T560 295V186Q560 118 532 76T445 14T298 -6Z" />
<glyph unicode="6" horiz-adv-x="597" d="M271 -6Q212 -6 168 10T95 67T52 177T37 355Q37 470 56 546T114 667T206 730T329 749Q382 749 431 745T521 729V575H352Q284 575 258 541T231 445Q250 454 268 458T312 464T374 466Q452 466 493 442T550 377T565 286V178Q565
113 542 73T475 13T374 -6H271ZM311 168H328Q345 168 354 174T367 191T371 219V247Q371 269 367 280T351 297T317 302H231Q231 262 235 236T248 195T273 174T311 168Z" />
<glyph unicode="7" horiz-adv-x="561" d="M100 0L294 549H17V743H498L545 665L316 0H100Z" />
<glyph unicode="8" horiz-adv-x="618" d="M248 -6Q210 -6 173 0T107 25T60 76T42 165V264Q42 288 49 312T72 355T116 380Q86 396 74 416T59 460T57 510V594Q57 651 82 685T149 734T238 749H380Q428 749 469 734T535 685T561 594V510Q561 500 559 482T551 445T533
411T501 394Q536 386 551 362T571 310T576 264V165Q576 92 549 56T478 7T383 -6H248ZM283 158H335Q368 158 375 170T382 204V251Q382 271 371 284T337 298H283Q271 298 262 295T248 285T239 270T236 251V204Q236 178 246 168T283 158ZM283 462H335Q353 462 360
467T370 485T372 515V546Q372 575 361 580T335 585H283Q265 585 256 580T246 546V515Q246 479 254 471T283 462Z" />
<glyph unicode="9" horiz-adv-x="597" d="M270 -6Q217 -6 168 -1T78 14V168H247Q315 168 341 202T368 298Q350 290 331 285T287 279T225 277Q147 277 106 301T50 366T34 457V565Q34 630 57 670T124 730T225 749H328Q387 749 431 733T504 676T547 566T562 388Q562
273 543 197T485 76T393 13T270 -6ZM282 441H368Q368 481 364 507T351 548T326 569T288 575H271Q255 575 246 569T232 552T228 524V496Q228 475 232 463T249 446T282 441Z" />
<glyph unicode=":" horiz-adv-x="257" d="M72 -2Q48 -2 48 21V138Q48 163 72 163H185Q210 163 210 138V21Q210 8 203 3T185 -2H72ZM72 376Q48 376 48 399V516Q48 541 72 541H185Q210 541 210 516V399Q210 386 203 381T185 376H72Z" />
<glyph unicode=";" horiz-adv-x="257" d="M72 376Q48 376 48 399V516Q48 541 72 541H185Q210 541 210 516V399Q210 386 203 381T185 376H72ZM115 -97Q90 -97 72 -93T53 -88V-26Q69 -26 76 -22T84 -5V14H73Q63 14 56 20T48 39V136Q48 163 73 163H184Q198 163 203
155T208 136V-11Q208 -46 194 -65T158 -90T115 -97Z" />
<glyph unicode="&lt;" horiz-adv-x="609" d="M511 130L96 266V436L511 566V396L286 353L511 300V130Z" />
<glyph unicode="=" horiz-adv-x="609" d="M80 415V569H528V415H80ZM80 399V553H528V399H80Z" />
<glyph unicode="&gt;" horiz-adv-x="609" d="M98 130V300L323 353L98 396V566L513 436V266L98 130Z" />
<glyph unicode="?" horiz-adv-x="528" d="M134 206V430H216Q248 430 268 441T289 487V502Q289 536 264 550T193 565Q154 565 117 557T41 535V679Q76 702 129 720T253 739Q326 739 377 713T456 640T483 534V483Q483 387 432 337T278 286V206H134ZM149 -2Q125 -2
125 21V138Q125 163 149 163H262Q287 163 287 138V21Q287 8 280 3T262 -2H149Z" />
<glyph unicode="@" horiz-adv-x="888" d="M275 -198Q229 -198 187 -186T110 -147T57 -74T37 40V308Q37 346 45 379T70 441T115 489T182 521T275 532H448Q484 532 518 528T580 507T624 456T641 362V20H523L499 74Q498 74 490 65T465 43T423 21T363 11Q316 11 288
33T248 90T235 158V191Q235 265 277 299T394 334H497V350Q497 375 487 381T453 388H275Q251 388 230 382T195 357T181 298V60Q181 15 196 -9T233 -43T275 -53H594Q656 -53 676 -22T697 60V472Q697 530 669 560T594 591H190V708Q214 713 265 719T381 730T508 735H594Q637
735 680 723T760 680T819 600T841 472V60Q841 -34 813 -90T731 -172T604 -198H275ZM424 155Q439 155 453 158T478 168T497 189V232L426 226Q412 225 404 223T393 215T389 197V185Q389 169 396 162T424 155Z" />
<glyph unicode="A" horiz-adv-x="692" d="M5 0L225 743H467L687 0H486L456 118H233L204 0H5ZM278 292H411L344 578L278 292Z" />
<glyph unicode="B" horiz-adv-x="643" d="M55 0V743H363Q483 743 535 690T588 545Q588 502 577 470T543 416T486 386Q512 379 535 365T575 328T601 274T611 204Q611 131 585 86T507 21T378 0H55ZM249 174H372Q390 174 402 182T420 204T427 239Q427 259 421 273T402
296T372 304H249V174ZM249 451H361Q383 451 393 468T404 510Q404 544 391 556T361 569H249V451Z" />
<glyph unicode="C" horiz-adv-x="589" d="M309 -6Q246 -6 196 9T110 64T55 179T36 374Q36 490 56 564T112 678T199 734T309 750Q371 750 418 744T499 728T553 710V559Q534 563 504 567T436 573T352 576Q318 576 295 569T257 541T237 480T230 372Q230 312 235 272T253
210T290 178T354 168Q430 168 477 170T553 177V26Q528 16 495 9T416 -2T309 -6Z" />
<glyph unicode="D" horiz-adv-x="688" d="M55 0V743H383Q464 743 516 715T598 635T640 517T652 371Q652 240 623 159T534 39T383 0H55ZM249 174H363Q400 174 420 194T449 257T458 371Q458 437 452 476T433 536T403 562T363 569H249V174Z" />
<glyph unicode="E" horiz-adv-x="604" d="M251 -6Q227 -6 194 -1T129 21T76 73T55 171V559Q55 613 72 649T116 705T176 734T240 743Q324 743 384 741T489 735T568 728V564H300Q275 564 262 553T249 520V458L518 448V294L249 284V228Q249 210 254 199T270 182T292
176H568V12Q525 6 470 2T358 -4T251 -6Z" />
<glyph unicode="F" horiz-adv-x="593" d="M55 0V559Q55 613 72 649T116 705T176 734T240 743Q271 743 326 743T445 739T568 727V564H296Q271 564 260 551T249 522V438L518 428V274L249 264V0H55Z" />
<glyph unicode="G" horiz-adv-x="675" d="M259 -5Q190 -5 147 24T79 105T46 225T36 370Q36 456 47 526T89 646T177 723T325 750Q384 750 426 746T506 733T583 713V562Q561 566 527 569T451 574T362 576Q304 576 276 559T239 496T230 370Q230 308 235 270T251 210T281
181T324 173Q361 173 390 176T434 183V279H331V433Q353 436 383 438T446 441T506 443Q542 443 569 443T620 441V0H474L448 49Q424 33 373 14T259 -5Z" />
<glyph unicode="H" horiz-adv-x="718" d="M55 0V743H249V457H469V743H663V0H469V283H249V0H55Z" />
<glyph unicode="I" horiz-adv-x="304" d="M55 0V743H249V0H55Z" />
<glyph unicode="J" horiz-adv-x="417" d="M153 -6Q117 -6 83 -1T26 12V168Q46 168 66 168T107 168Q129 168 142 175T162 194T168 225V743H362V195Q362 131 342 86T275 18T153 -6Z" />
<glyph unicode="K" horiz-adv-x="672" d="M55 0V743H249V454H326L445 743H651L480 369L660 0H454L326 280H249V0H55Z" />
<glyph unicode="L" horiz-adv-x="537" d="M248 0Q181 0 138 20T75 83T55 193V743H249V226Q249 209 254 197T272 180T301 174H517V0H248Z" />
<glyph unicode="M" horiz-adv-x="915" d="M35 0L123 743H305L458 221L611 743H791L880 0H693L636 478L664 477L547 0H365L247 477L278 478L222 0H35Z" />
<glyph unicode="N" horiz-adv-x="719" d="M55 0V743H209L470 329V743H664V0H510L249 414V0H55Z" />
<glyph unicode="O" horiz-adv-x="708" d="M354 -6Q275 -6 216 9T116 65T56 179T36 372Q36 490 56 564T116 679T215 734T354 750Q433 750 492 735T592 679T652 565T672 372Q672 254 652 180T592 65T493 10T354 -6ZM354 168Q392 168 416 177T453 208T472 270T478
372Q478 437 473 477T454 538T416 568T354 576Q317 576 293 568T255 539T236 477T230 372Q230 310 235 270T254 208T292 177T354 168Z" />
<glyph unicode="P" horiz-adv-x="633" d="M55 0V743H381Q419 743 459 735T532 700T586 620T607 477Q607 387 587 333T535 251T466 214T392 204Q373 204 353 206T313 211T277 218T249 224V0H55ZM249 378H361Q381 378 392 389T408 421T413 475Q413 506 408 527T391
558T361 569H249V378Z" />
<glyph unicode="Q" horiz-adv-x="708" d="M519 -215Q464 -215 414 -197T332 -139T299 -38H433Q436 -61 458 -70T508 -79Q526 -79 543 -75T576 -68V-208Q561 -209 547 -212T519 -215ZM354 -6Q275 -6 216 9T116 65T56 179T36 372Q36 490 56 564T116 679T215 734T354
750Q433 750 492 735T592 679T652 565T672 372Q672 254 652 180T592 65T493 10T354 -6ZM354 168Q392 168 416 177T453 208T472 270T478 372Q478 437 473 477T454 538T416 568T354 576Q317 576 293 568T255 539T236 477T230 372Q230 310 235 270T254 208T292 177T354
168Z" />
<glyph unicode="R" horiz-adv-x="640" d="M55 0V743H372Q421 743 462 731T533 691T579 614T596 493Q596 447 588 413T567 356T535 316T495 288L624 0H427L323 256Q314 256 305 256T286 256T268 256T249 256V0H55ZM249 410H337Q353 410 365 414T385 429T398 454T402
492Q402 514 398 529T386 552T365 565T337 569H249V410Z" />
<glyph unicode="S" horiz-adv-x="597" d="M288 -6Q255 -6 224 -4T162 2T103 11T49 23V177Q83 174 122 172T202 169T278 168Q311 168 333 173T366 189T377 219V231Q377 253 362 264T325 275H272Q156 275 96 326T36 497V530Q36 640 102 694T292 749Q339 749 380
745T458 734T524 720V566Q478 570 421 572T316 575Q288 575 266 571T232 555T220 520V510Q220 485 236 472T285 459H351Q421 459 467 433T537 361T561 257V224Q561 129 528 79T434 12T288 -6Z" />
<glyph unicode="T" horiz-adv-x="600" d="M203 0V569H16V743H584V569H397V0H203Z" />
<glyph unicode="U" horiz-adv-x="692" d="M346 -5Q285 -5 231 5T134 42T69 118T45 245V743H239V246Q239 220 251 203T288 178T346 169Q380 169 404 177T440 203T453 246V743H647V245Q647 167 624 118T558 42T462 5T346 -5Z" />
<glyph unicode="V" horiz-adv-x="692" d="M225 0L5 743H206L347 211L488 743H687L467 0H225Z" />
<glyph unicode="W" horiz-adv-x="991" d="M175 0L5 743H206L298 291L409 743H583L693 291L785 743H986L816 0H622L496 454L369 0H175Z" />
<glyph unicode="X" horiz-adv-x="690" d="M466 0L5 743H219L680 0H466ZM8 0L261 417L361 254L222 0H8ZM426 318L327 478L471 743H685L426 318Z" />
<glyph unicode="Y" horiz-adv-x="634" d="M220 0V211L5 743H206L321 409L436 743H629L414 211V0H220Z" />
<glyph unicode="Z" horiz-adv-x="583" d="M35 0V154L312 569H35V743H548V589L271 174H548V0H35Z" />
<glyph unicode="[" horiz-adv-x="344" d="M244 -210Q181 -210 142 -190T83 -136T55 -64T48 12V640Q48 690 59 727T93 790T154 829T244 842H334V688H304Q276 688 259 672T242 610V22Q242 -8 249 -25T271 -49T304 -56H334V-210H244Z" />
<glyph unicode="\" horiz-adv-x="502" d="M292 -72L11 770H210L491 -72H292Z" />
<glyph unicode="]" horiz-adv-x="344" d="M11 -210V-56H41Q60 -56 74 -49T95 -25T103 22V610Q103 655 87 671T41 688H11V842H101Q153 842 190 829T251 791T286 728T297 640V12Q297 -25 290 -64T263 -136T203 -189T101 -210H11Z" />
<glyph unicode="^" horiz-adv-x="378" d="M28 531L128 671H259L350 531H239L190 582L140 531H28Z" />
<glyph unicode="_" horiz-adv-x="609" d="M0 -211V-57H609V-211H0Z" />
<glyph unicode="`" horiz-adv-x="244" d="M119 631L11 774H165L233 631H119Z" />
<glyph unicode="a" horiz-adv-x="554" d="M165 -6Q103 -6 65 31T26 131V186Q26 246 70 286T210 326H318V343Q318 363 311 374T283 390T215 395H58V506Q100 523 154 534T288 545Q356 545 406 530T484 474T512 357V0H358L328 54Q318 44 304 34T269 15T223 0T165
-6ZM267 126Q272 126 278 127T290 129T301 132T311 136T318 139V236L277 230Q249 226 235 216T220 183V163Q220 150 225 142T241 130T267 126Z" />
<glyph unicode="b" horiz-adv-x="590" d="M380 -6Q346 -6 322 1T278 20T238 49L208 0H44V763H238V509Q265 523 300 535T370 548Q442 548 483 518T542 426T560 263Q560 168 540 109T480 22T380 -6ZM304 151Q319 151 333 159T356 193T366 273Q366 330 357 355T333
386T304 393Q285 393 266 386T238 373V166Q249 160 265 156T304 151Z" />
<glyph unicode="c" horiz-adv-x="490" d="M263 -6Q212 -6 169 7T95 52T47 135T30 266Q30 348 45 402T91 489T166 534T269 548Q323 548 366 541T463 517V406H332Q289 406 266 395T233 354T224 269Q224 213 232 185T264 148T334 139H470V30Q445 20 410 12T336 -1T263 -6Z" />
<glyph unicode="d" horiz-adv-x="588" d="M222 -6Q161 -6 118 19T53 104T30 263Q30 363 47 425T109 518T232 548Q264 548 295 542T352 527V763H546V0H382L352 49Q333 32 312 20T269 1T222 -6ZM293 149Q313 149 328 155T352 169V387Q343 392 328 398T298 404Q271
404 255 395T231 358T224 273Q224 218 230 192T252 157T293 149Z" />
<glyph unicode="e" horiz-adv-x="535" d="M285 -5Q193 -5 137 18T56 100T30 268Q30 379 53 439T129 524T276 548Q362 548 412 532T483 475T505 357Q505 298 482 265T417 217T318 203H222Q225 179 234 165T267 144T338 138H485V25Q450 15 402 5T285 -5ZM220 316H297Q317
316 326 325T335 356Q335 375 329 387T310 404T276 410Q257 410 245 402T226 374T220 316Z" />
<glyph unicode="f" horiz-adv-x="409" d="M87 0V385H15V509L87 539V558Q87 634 108 680T172 748T282 769Q317 769 349 763T399 751V612H322Q308 612 299 608T286 595T281 569V539H399V385H281V0H87Z" />
<glyph unicode="g" horiz-adv-x="586" d="M188 -250Q139 -250 99 -235T36 -192T12 -123V-112Q12 -71 36 -41T100 5T184 22L245 -34Q228 -34 217 -39T201 -52T196 -72V-77Q196 -93 207 -104T245 -116H333Q355 -116 369 -107T383 -81V-69Q383 -57 377 -50T359 -38T333
-34H241Q133 -34 84 4T34 97Q34 138 57 168T121 208Q93 226 76 250T50 302T42 361Q42 419 66 458T141 518T277 539H571V433L514 415Q521 405 525 392T532 361T535 320Q535 270 515 233T451 176T338 155H236Q220 155 208 150T196 131Q196 118 208 114T236 110H366Q427
110 472 94T542 41T567 -61V-70Q567 -154 517 -202T357 -250H188ZM261 299H316Q333 299 343 304T357 320T361 348Q361 365 357 375T343 390T316 395H261Q236 395 226 385T216 348Q216 323 226 311T261 299Z" />
<glyph unicode="h" horiz-adv-x="600" d="M44 0V762H238V487Q261 509 304 528T392 548Q456 548 492 524T543 456T558 350V0H364V324Q364 344 357 355T337 370T311 374Q298 374 284 370T258 358T238 343V0H44Z" />
<glyph unicode="i" horiz-adv-x="282" d="M66 607Q42 607 42 630V741Q42 766 66 766H218Q229 766 234 759T240 741V630Q240 607 218 607H66ZM44 0V539H238V0H44Z" />
<glyph unicode="j" horiz-adv-x="282" d="M65 607Q41 607 41 630V741Q41 766 65 766H217Q228 766 233 759T239 741V630Q239 607 217 607H65ZM44 -237V539H238V-4Q238 -61 226 -125T192 -237H44Z" />
<glyph unicode="k" horiz-adv-x="586" d="M44 0V763H238V370H292L380 539H575L436 283L593 0H399L291 196H238V0H44Z" />
<glyph unicode="l" horiz-adv-x="326" d="M231 -3Q167 -3 126 17T64 76T44 175V763H238V205Q238 186 242 173T256 153T281 143L314 138V-3H231Z" />
<glyph unicode="m" horiz-adv-x="920" d="M44 0V539H206L238 487Q270 512 306 530T404 548Q454 548 486 528T536 475Q557 491 584 508T642 536T706 548Q775 548 812 524T864 453T878 340V0H684V322Q684 343 677 354T659 369T631 374Q611 374 591 365T558 343Q558
337 558 331T558 318V0H364V322Q364 343 357 354T339 369T311 374Q298 374 284 370T259 359T238 343V0H44Z" />
<glyph unicode="n" horiz-adv-x="600" d="M44 0V539H206L238 487Q263 510 305 529T390 548Q460 548 496 522T545 450T558 348V0H364V322Q364 343 357 354T339 369T311 374Q298 374 284 370T259 359T238 343V0H44Z" />
<glyph unicode="o" horiz-adv-x="574" d="M287 -5Q215 -5 166 10T86 58T43 143T30 271Q30 352 43 405T87 490T166 535T287 548Q359 548 408 534T487 489T530 404T544 271Q544 193 532 140T490 55T411 9T287 -5ZM287 149Q306 149 318 152T337 168T347 205T350 272Q350
314 347 338T337 375T318 390T287 394Q268 394 256 391T237 375T227 339T224 272Q224 230 227 205T237 168T256 153T287 149Z" />
<glyph unicode="p" horiz-adv-x="590" d="M44 -237V539H208L238 490Q258 507 277 520T318 540T370 548Q418 548 454 531T513 480T548 392T560 268Q560 184 545 122T488 26T370 -8Q336 -8 301 -2T238 17V-237H44ZM304 151Q318 151 332 159T356 193T366 268Q366
318 359 345T339 383T305 393Q284 393 266 387T238 373V166Q248 159 266 155T304 151Z" />
<glyph unicode="q" horiz-adv-x="588" d="M352 -237V49Q330 28 297 11T231 -6Q155 -6 111 22T49 111T30 268Q30 378 52 439T121 524T239 548Q287 548 343 544T453 534T546 522V-237H352ZM290 149Q302 149 323 156T352 169V404H302Q273 404 256 393T231 353T224
275Q224 219 230 192T251 157T290 149Z" />
<glyph unicode="r" horiz-adv-x="430" d="M44 0V539H195L238 464Q262 497 293 522T370 547Q378 547 389 546T410 542V343Q393 345 376 346T344 347Q320 347 300 343T265 329T238 305V0H44Z" />
<glyph unicode="s" horiz-adv-x="508" d="M247 -6Q218 -6 189 -4T133 1T81 11T38 25V138H288Q301 138 307 140T316 147T318 158V171Q318 181 312 186T281 192H191Q146 192 109 207T49 256T26 347V380Q26 432 46 468T117 524T260 544Q297 544 335 540T405 528T456
513V400H219Q204 400 197 396T190 380V367Q190 359 193 355T206 348T230 346H323Q411 346 446 306T482 198V143Q482 89 456 56T378 9T247 -6Z" />
<glyph unicode="t" horiz-adv-x="403" d="M267 0Q198 0 157 18T98 81T82 203L88 385H5V509L96 539L120 690H274V539H383V385H274V204Q274 191 276 182T282 166T294 156T310 151L379 144V0H267Z" />
<glyph unicode="u" horiz-adv-x="600" d="M192 -6Q122 -6 82 38T42 156V539H236V217Q236 186 251 176T289 165Q304 165 327 174T362 196V539H556V0H394L362 52Q328 30 285 12T192 -6Z" />
<glyph unicode="v" horiz-adv-x="582" d="M174 0L8 539H208L290 179L376 539H574L398 0H174Z" />
<glyph unicode="w" horiz-adv-x="845" d="M137 0L8 539H208L263 179L349 539H507L593 179L637 539H837L711 0H497L424 261L347 0H137Z" />
<glyph unicode="x" horiz-adv-x="564" d="M369 0L0 539H195L564 0H369ZM0 0L212 332L281 148L196 0H0ZM352 205L271 369L368 539H564L352 205Z" />
<glyph unicode="y" horiz-adv-x="587" d="M228 -237L280 0Q222 0 184 20T123 76T91 156L8 539H209L270 195Q272 183 276 176T287 164T300 158T313 156L382 539H579L442 -138L392 -237H228Z" />
<glyph unicode="z" horiz-adv-x="512" d="M41 0V138L258 385H30V539H482V401L265 154H482V0H41Z" />
<glyph unicode="{" horiz-adv-x="322" d="M311 -210Q245 -210 199 -201T125 -171T83 -117T70 -38V192Q70 209 64 221T44 240T11 245V422Q28 424 41 429T63 445T71 475V656Q71 716 97 757T176 820T311 842V688Q290 688 280 679T268 646T265 576V440Q265 385 237
362T160 334Q209 324 236 299T264 231V32Q264 -17 270 -41T311 -66V-210Z" />
<glyph unicode="|" horiz-adv-x="250" d="M48 -72V770H202V-72H48Z" />
<glyph unicode="}" horiz-adv-x="322" d="M11 -210V-66Q46 -66 52 -42T58 32V231Q58 274 85 299T162 334Q113 338 85 361T57 440V576Q57 622 55 646T42 679T11 688V842Q93 842 146 821T225 758T251 656V475Q251 456 259 445T281 429T311 422V245Q291 247 278 241T259
222T252 192V-38Q252 -84 239 -117T198 -170T123 -200T11 -210Z" />
<glyph unicode="~" horiz-adv-x="404" d="M264 531Q248 531 231 536T196 548T164 560T138 566Q116 566 97 558T55 531L28 598Q47 625 78 648T151 672Q168 672 183 667T214 655T242 643T267 637Q290 637 312 648T350 677L376 603Q360 578 331 555T264 531Z" />
<glyph unicode="&#xa0;" horiz-adv-x="250" />
<glyph unicode="&#xa1;" horiz-adv-x="277" d="M213 333L236 -203H42L69 333H213ZM199 541Q223 541 223 518V401Q223 376 199 376H86Q61 376 61 401V518Q61 532 68 536T86 541H199Z" />
<glyph unicode="&#xa2;" horiz-adv-x="485" d="M212 -95V-5Q172 -4 138 9T77 54T37 137T22 266Q22 344 36 396T77 479T138 523T216 536V634H324V534Q354 531 387 523T456 500V386Q456 386 415 389T306 392Q281 392 264 388T236 370T221 331T216 264Q216 226 220
202T234 164T261 145T306 139Q352 139 387 141T442 145T462 147V33Q430 13 394 4T320 -6V-95H212Z" />
<glyph unicode="&#xa3;" horiz-adv-x="609" d="M54 0V149L136 174V304L54 317V412L136 439V482Q136 576 162 634T246 721T397 749Q453 749 497 744T570 733V576H405Q378 576 362 570T338 548T330 504V439L491 422V317L330 304V174H569V0H54Z" />
<glyph unicode="&#xa4;" horiz-adv-x="609" d="M304 171Q253 171 212 196T145 263T120 356Q120 407 145 449T211 516T304 541Q355 541 397 516T464 449T489 356Q489 306 464 264T397 196T304 171ZM134 109L57 186L165 294L242 217L134 109ZM161 422L57 526L134
603L238 499L161 422ZM474 109L368 215L445 292L551 186L474 109ZM304 265Q329 265 349 277T382 310T395 356Q395 381 383 401T350 434T304 447Q280 447 260 435T227 402T215 356Q215 331 227 311T259 278T304 265ZM445 420L368 497L474 603L551 526L445 420Z"
/>
<glyph unicode="&#xa5;" horiz-adv-x="609" d="M77 261V355H531V261H77ZM77 114V208H531V114H77ZM197 0V211L-18 743H183L298 409L413 743H606L391 211V0H197Z" />
<glyph unicode="&#xa6;" horiz-adv-x="250" d="M48 429V770H202V429H48ZM48 -72V256H202V-72H48Z" />
<glyph unicode="&#xa7;" horiz-adv-x="532" d="M314 -6Q284 -6 252 -6T188 -3T126 2T68 11V148H272Q287 148 295 149T306 155T309 167V179Q309 186 307 190T298 197T281 200H201Q151 200 113 210T54 248T32 323V355Q32 397 49 420T106 459Q68 478 55 512T41 590V638Q41
678 60 711T120 764T231 784Q257 784 288 783T351 780T413 774T465 764V630H261Q247 630 239 627T228 619T225 606V600Q225 593 229 584T253 575H330Q387 575 425 563T483 523T503 450V418Q503 389 486 360T431 315Q453 308 468 293T490 255T498 203V160Q498 96
475 60T411 9T314 -6ZM251 344H281Q294 344 302 346T314 354T319 374V403Q319 412 315 418T303 427T281 430H251Q232 430 224 423T216 401V373Q216 364 220 358T233 348T251 344Z" />
<glyph unicode="&#xa8;" horiz-adv-x="390" d="M249 627Q225 627 225 650V761Q225 786 249 786H339Q350 786 356 779T362 761V650Q362 627 339 627H249ZM52 627Q28 627 28 650V761Q28 786 52 786H142Q153 786 159 779T165 761V650Q165 627 142 627H52Z" />
<glyph unicode="&#xa9;" horiz-adv-x="792" d="M308 0Q250 0 205 17T127 66T73 143T42 245T31 368Q31 441 42 506T83 623T167 703T308 732H508Q569 732 612 715T685 666T731 589T755 489T762 368Q762 271 744 201T692 87T612 21T508 0H308ZM374 147Q332 147 295
164T235 229T211 365Q211 446 231 493T287 562T375 583Q394 583 423 581T484 574T543 559V467Q516 471 492 473T449 477T415 479Q381 479 361 470T333 435T325 362Q325 299 346 275T412 251Q453 251 487 256T549 267V175Q512 155 467 151T374 147ZM308 104H498Q543
104 577 127T629 208T648 368Q648 413 645 459T628 543T586 604T508 628H308Q275 628 246 618T194 579T158 500T145 368Q145 308 154 260T184 177T234 123T308 104Z" />
<glyph unicode="&#xaa;" horiz-adv-x="412" d="M20 248V336H392V248H20ZM168 481Q168 474 171 470T181 464T196 462Q200 462 203 462T210 463T215 465T218 466V523L196 519Q183 517 176 511T168 494V481ZM15 499Q15 542 46 563T143 585H218V603Q218 620 208 624T150
629H36V723Q68 737 110 746T215 756Q266 756 305 745T366 704T388 615V360H252L227 398Q218 390 208 383T184 369T154 360T118 356Q72 356 44 381T15 448V499Z" />
<glyph unicode="&#xab;" horiz-adv-x="626" d="M259 56L28 284L254 507L351 412L221 284L352 154L259 56ZM509 56L278 284L504 507L601 412L471 284L602 154L509 56Z" />
<glyph unicode="&#xac;" horiz-adv-x="609" d="M374 159V467H528V159H374ZM80 399V553H528V399H80Z" />
<glyph unicode="&#xad;" horiz-adv-x="354" d="M20 213V367H334V213H20Z" />
<glyph unicode="&#xae;" horiz-adv-x="792" d="M308 0Q250 0 205 17T127 66T73 143T42 245T31 368Q31 441 42 506T83 623T167 703T308 732H508Q569 732 612 715T685 666T731 589T755 489T762 368Q762 271 744 201T692 87T612 21T508 0H308ZM308 104H498Q543 104
577 127T629 208T648 368Q648 413 645 459T628 543T586 604T508 628H308Q275 628 246 618T194 579T158 500T145 368Q145 308 154 260T184 177T234 123T308 104ZM237 153V580H424Q457 580 488 569T538 528T558 442Q558 413 555 391T543 354T523 328T494 311L578
153H464L387 315H351V153H237ZM351 399H420Q431 399 437 406T444 441Q444 462 438 469T420 476H351V399Z" />
<glyph unicode="&#xaf;" horiz-adv-x="348" d="M28 631V745H320V631H28Z" />
<glyph unicode="&#xb0;" horiz-adv-x="311" d="M156 470Q91 470 48 512T4 622Q4 668 24 702T78 755T156 775Q224 775 265 733T307 622Q307 554 266 512T156 470ZM156 557Q185 557 202 574T220 622Q220 652 203 670T156 688Q127 688 109 670T91 622Q91 592 109
575T156 557Z" />
<glyph unicode="&#xb1;" horiz-adv-x="609" d="M80 79V233H528V79H80ZM227 282V730H381V282H227ZM80 429V583H528V429H80Z" />
<glyph unicode="&#xb2;" horiz-adv-x="450" d="M39 280V402L187 568Q204 588 217 608T230 642Q230 652 226 658T214 666T196 669H45V799Q80 807 123 815T228 824Q294 824 332 807T386 755T402 668Q402 633 394 607T367 554T318 493L263 427H415V280H39Z" />
<glyph unicode="&#xb3;" horiz-adv-x="450" d="M241 276Q185 276 135 282T37 298V430H183Q210 430 223 432T241 440T246 450V454Q246 463 241 468T226 477T199 481L80 487V614L191 623Q217 625 228 628T240 642V646Q240 660 228 664T181 669H41V801Q92 812 142
819T247 824Q318 823 362 791T407 684V650Q407 628 403 609T387 575T350 551Q376 543 389 526T408 487T413 440V424Q413 353 367 315T241 276Z" />
<glyph unicode="&#xb4;" horiz-adv-x="244" d="M11 631L79 774H233L125 631H11Z" />
<glyph unicode="&#xb5;" horiz-adv-x="600" d="M266 -6Q233 -6 195 6T121 43T64 105T42 191V539H236V217Q236 196 243 185T262 170T289 165Q312 165 331 174T362 196V539H556V0H394L372 52Q354 24 330 9T266 -6ZM42 -270V255H236V-270H42Z" />
<glyph unicode="&#xb6;" horiz-adv-x="574" d="M232 -270V319Q225 314 208 308T164 302Q114 302 83 322T37 374T22 446V603Q22 651 41 682T96 728T178 743H584V617H534V0H410V619H356V-270H232ZM188 426H232V619H188Q158 619 152 610T146 569V466Q146 451 148
443T156 432T170 427T188 426Z" />
<glyph unicode="&#xb7;" horiz-adv-x="257" d="M72 265Q48 265 48 288V405Q48 430 72 430H185Q210 430 210 405V288Q210 275 203 270T185 265H72Z" />
<glyph unicode="&#xb8;" horiz-adv-x="238" d="M28 -203V-124L43 -121Q60 -118 67 -111T75 -94Q75 -84 68 -76T43 -62L118 -47Q148 -47 174 -63T200 -117Q200 -157 173 -180T87 -203H28ZM43 -62L93 20H179L129 -62H43Z" />
<glyph unicode="&#xb9;" horiz-adv-x="450" d="M150 280V667H56V788L169 824H320V280H150ZM48 280V427H421V280H48Z" />
<glyph unicode="&#xba;" horiz-adv-x="424" d="M24 248V336H400V248H24ZM186 558Q186 521 187 504T195 483T212 478Q223 478 228 482T236 504T238 558Q238 595 236 611T229 632T212 637Q201 637 195 633T188 612T186 558ZM16 557Q16 635 34 679T95 741T212 759Q287
759 329 740T390 677T408 557Q408 484 392 440T333 377T212 357Q137 357 94 378T34 443T16 557Z" />
<glyph unicode="&#xbb;" horiz-adv-x="626" d="M121 56L28 154L159 284L29 412L126 507L352 284L121 56ZM371 56L278 154L409 284L279 412L376 507L602 284L371 56Z" />
<glyph unicode="&#xbc;" horiz-adv-x="1275" d="M389 0L755 770H886L520 0H389ZM1039 0V89H825L807 192L935 540H1104L995 227H1039V257L1078 365H1199V227H1234V114L1199 89V0H1039ZM150 280V667H56V788L169 824H320V280H150ZM48 280V427H421V280H48Z" />
<glyph unicode="&#xbd;" horiz-adv-x="1275" d="M389 0L755 770H886L520 0H389ZM834 0V122L982 288Q999 308 1012 328T1025 362Q1025 372 1021 378T1009 386T991 389H840V519Q875 527 918 535T1023 544Q1089 544 1127 527T1181 475T1197 388Q1197 353 1189 327T1162
274T1113 213L1058 147H1210V0H834ZM150 280V667H56V788L169 824H320V280H150ZM48 280V427H421V280H48Z" />
<glyph unicode="&#xbe;" horiz-adv-x="1275" d="M389 0L755 770H886L520 0H389ZM1039 0V89H825L807 192L935 540H1104L995 227H1039V257L1078 365H1199V227H1234V114L1199 89V0H1039ZM251 276Q195 276 145 282T47 298V430H193Q220 430 233 432T251 440T256 450V454Q256
463 251 468T236 477T209 481L90 487V614L201 623Q227 625 238 628T250 642V646Q250 660 238 664T191 669H51V801Q102 812 152 819T257 824Q328 823 372 791T417 684V650Q417 628 413 609T397 575T360 551Q386 543 399 526T418 487T423 440V424Q423 353 377 315T251
276Z" />
<glyph unicode="&#xbf;" horiz-adv-x="528" d="M394 333V109H312Q281 109 260 98T239 52V37Q239 3 264 -11T335 -26Q374 -26 411 -18T487 4V-140Q452 -163 399 -181T275 -200Q202 -200 151 -174T72 -101T45 5V56Q45 152 96 202T250 253V333H394ZM379 541Q403 541
403 518V401Q403 376 379 376H266Q241 376 241 401V518Q241 532 248 536T266 541H379Z" />
<glyph unicode="&#xc0;" horiz-adv-x="692" d="M5 0L225 743H467L687 0H486L456 118H233L204 0H5ZM278 292H411L344 578L278 292ZM312 791L204 934H358L426 791H312Z" />
<glyph unicode="&#xc1;" horiz-adv-x="692" d="M5 0L225 743H467L687 0H486L456 118H233L204 0H5ZM278 292H411L344 578L278 292ZM294 791L362 934H516L408 791H294Z" />
<glyph unicode="&#xc2;" horiz-adv-x="692" d="M5 0L225 743H467L687 0H486L456 118H233L204 0H5ZM278 292H411L344 578L278 292ZM182 791L282 937H413L504 791H393L344 852L294 791H182Z" />
<glyph unicode="&#xc3;" horiz-adv-x="692" d="M5 0L225 743H467L687 0H486L456 118H233L204 0H5ZM278 292H411L344 578L278 292ZM146 777Q150 831 165 862T204 908T257 922Q283 922 302 917T336 904T366 891T397 885Q412 885 419 896T428 929H524Q520 852 493
816T416 779Q391 779 371 784T335 797T304 810T275 816Q259 816 252 805T242 777H146Z" />
<glyph unicode="&#xc4;" horiz-adv-x="692" d="M5 0L225 743H467L687 0H486L456 118H233L204 0H5ZM278 292H411L344 578L278 292ZM392 787Q368 787 368 810V921Q368 946 392 946H482Q493 946 499 939T505 921V810Q505 787 482 787H392ZM195 787Q171 787 171 810V921Q171
946 195 946H285Q296 946 302 939T308 921V810Q308 787 285 787H195Z" />
<glyph unicode="&#xc5;" horiz-adv-x="692" d="M5 0L225 743H467L687 0H486L456 118H233L204 0H5ZM278 292H411L344 578L278 292ZM345 770Q281 770 247 795T213 887Q213 953 247 979T345 1005Q410 1005 443 979T476 887Q476 821 444 796T345 770ZM345 839Q368
839 378 849T388 887Q388 914 378 925T345 936Q323 936 312 925T301 887Q301 860 312 850T345 839Z" />
<glyph unicode="&#xc6;" horiz-adv-x="992" d="M659 -6Q569 -6 522 18T464 111L463 118H261L194 0H5L269 514Q315 603 367 653T488 723T649 743Q743 743 825 738T956 727V564H689Q660 564 649 552T637 516V458L906 448V294L637 284V228Q637 202 646 191T670 178T699
176H956V14Q893 6 821 0T659 -6ZM346 282H463V527L346 282Z" />
<glyph unicode="&#xc7;" horiz-adv-x="589" d="M309 -6Q246 -6 196 9T110 64T55 179T36 374Q36 490 56 564T112 678T199 734T309 750Q371 750 418 744T499 728T553 710V559Q534 563 504 567T436 573T352 576Q318 576 295 569T257 541T237 480T230 372Q230 312
235 272T253 210T290 178T354 168Q430 168 477 170T553 177V26Q528 16 495 9T416 -2T309 -6ZM261 -203V-124L276 -121Q293 -118 300 -111T308 -94Q308 -84 301 -76T276 -62L351 -47Q381 -47 407 -63T433 -117Q433 -157 406 -180T320 -203H261ZM276 -62L326 20H412L362
-62H276Z" />
<glyph unicode="&#xc8;" horiz-adv-x="604" d="M251 -6Q227 -6 194 -1T129 21T76 73T55 171V559Q55 613 72 649T116 705T176 734T240 743Q324 743 384 741T489 735T568 728V564H300Q275 564 262 553T249 520V458L518 448V294L249 284V228Q249 210 254 199T270
182T292 176H568V12Q525 6 470 2T358 -4T251 -6ZM282 791L174 934H328L396 791H282Z" />
<glyph unicode="&#xc9;" horiz-adv-x="604" d="M251 -6Q227 -6 194 -1T129 21T76 73T55 171V559Q55 613 72 649T116 705T176 734T240 743Q324 743 384 741T489 735T568 728V564H300Q275 564 262 553T249 520V458L518 448V294L249 284V228Q249 210 254 199T270
182T292 176H568V12Q525 6 470 2T358 -4T251 -6ZM264 791L332 934H486L378 791H264Z" />
<glyph unicode="&#xca;" horiz-adv-x="604" d="M251 -6Q227 -6 194 -1T129 21T76 73T55 171V559Q55 613 72 649T116 705T176 734T240 743Q324 743 384 741T489 735T568 728V564H300Q275 564 262 553T249 520V458L518 448V294L249 284V228Q249 210 254 199T270
182T292 176H568V12Q525 6 470 2T358 -4T251 -6ZM152 791L252 937H383L474 791H363L314 852L264 791H152Z" />
<glyph unicode="&#xcb;" horiz-adv-x="604" d="M251 -6Q227 -6 194 -1T129 21T76 73T55 171V559Q55 613 72 649T116 705T176 734T240 743Q324 743 384 741T489 735T568 728V564H300Q275 564 262 553T249 520V458L518 448V294L249 284V228Q249 210 254 199T270
182T292 176H568V12Q525 6 470 2T358 -4T251 -6ZM362 787Q338 787 338 810V921Q338 946 362 946H452Q463 946 469 939T475 921V810Q475 787 452 787H362ZM165 787Q141 787 141 810V921Q141 946 165 946H255Q266 946 272 939T278 921V810Q278 787 255 787H165Z"
/>
<glyph unicode="&#xcc;" horiz-adv-x="304" d="M55 0V743H249V0H55ZM120 791L12 934H166L234 791H120Z" />
<glyph unicode="&#xcd;" horiz-adv-x="304" d="M55 0V743H249V0H55ZM102 791L170 934H324L216 791H102Z" />
<glyph unicode="&#xce;" horiz-adv-x="304" d="M55 0V743H249V0H55ZM-10 791L90 937H221L312 791H201L152 852L102 791H-10Z" />
<glyph unicode="&#xcf;" horiz-adv-x="304" d="M55 0V743H249V0H55ZM200 787Q176 787 176 810V921Q176 946 200 946H290Q301 946 307 939T313 921V810Q313 787 290 787H200ZM3 787Q-21 787 -21 810V921Q-21 946 3 946H93Q104 946 110 939T116 921V810Q116 787 93 787H3Z" />
<glyph unicode="&#xd0;" horiz-adv-x="688" d="M10 311V435H334V311H10ZM55 0V743H383Q464 743 516 715T598 635T640 517T652 371Q652 240 623 159T534 39T383 0H55ZM249 174H363Q400 174 420 194T449 257T458 371Q458 437 452 476T433 536T403 562T363 569H249V174Z" />
<glyph unicode="&#xd1;" horiz-adv-x="719" d="M55 0V743H209L470 329V743H664V0H510L249 414V0H55ZM146 777Q150 831 165 862T204 908T257 922Q283 922 302 917T336 904T366 891T397 885Q412 885 419 896T428 929H524Q520 852 493 816T416 779Q391 779 371 784T335
797T304 810T275 816Q259 816 252 805T242 777H146Z" />
<glyph unicode="&#xd2;" horiz-adv-x="708" d="M354 -6Q275 -6 216 9T116 65T56 179T36 372Q36 490 56 564T116 679T215 734T354 750Q433 750 492 735T592 679T652 565T672 372Q672 254 652 180T592 65T493 10T354 -6ZM354 168Q392 168 416 177T453 208T472 270T478
372Q478 437 473 477T454 538T416 568T354 576Q317 576 293 568T255 539T236 477T230 372Q230 310 235 270T254 208T292 177T354 168ZM322 791L214 934H368L436 791H322Z" />
<glyph unicode="&#xd3;" horiz-adv-x="708" d="M354 -6Q275 -6 216 9T116 65T56 179T36 372Q36 490 56 564T116 679T215 734T354 750Q433 750 492 735T592 679T652 565T672 372Q672 254 652 180T592 65T493 10T354 -6ZM354 168Q392 168 416 177T453 208T472 270T478
372Q478 437 473 477T454 538T416 568T354 576Q317 576 293 568T255 539T236 477T230 372Q230 310 235 270T254 208T292 177T354 168ZM304 791L372 934H526L418 791H304Z" />
<glyph unicode="&#xd4;" horiz-adv-x="708" d="M354 -6Q275 -6 216 9T116 65T56 179T36 372Q36 490 56 564T116 679T215 734T354 750Q433 750 492 735T592 679T652 565T672 372Q672 254 652 180T592 65T493 10T354 -6ZM354 168Q392 168 416 177T453 208T472 270T478
372Q478 437 473 477T454 538T416 568T354 576Q317 576 293 568T255 539T236 477T230 372Q230 310 235 270T254 208T292 177T354 168ZM192 791L292 937H423L514 791H403L354 852L304 791H192Z" />
<glyph unicode="&#xd5;" horiz-adv-x="708" d="M354 -6Q275 -6 216 9T116 65T56 179T36 372Q36 490 56 564T116 679T215 734T354 750Q433 750 492 735T592 679T652 565T672 372Q672 254 652 180T592 65T493 10T354 -6ZM354 168Q392 168 416 177T453 208T472 270T478
372Q478 437 473 477T454 538T416 568T354 576Q317 576 293 568T255 539T236 477T230 372Q230 310 235 270T254 208T292 177T354 168ZM156 777Q160 831 175 862T214 908T267 922Q293 922 312 917T346 904T376 891T407 885Q422 885 429 896T438 929H534Q530 852
503 816T426 779Q401 779 381 784T345 797T314 810T285 816Q269 816 262 805T252 777H156Z" />
<glyph unicode="&#xd6;" horiz-adv-x="708" d="M354 -6Q275 -6 216 9T116 65T56 179T36 372Q36 490 56 564T116 679T215 734T354 750Q433 750 492 735T592 679T652 565T672 372Q672 254 652 180T592 65T493 10T354 -6ZM354 168Q392 168 416 177T453 208T472 270T478
372Q478 437 473 477T454 538T416 568T354 576Q317 576 293 568T255 539T236 477T230 372Q230 310 235 270T254 208T292 177T354 168ZM402 787Q378 787 378 810V921Q378 946 402 946H492Q503 946 509 939T515 921V810Q515 787 492 787H402ZM205 787Q181 787 181
810V921Q181 946 205 946H295Q306 946 312 939T318 921V810Q318 787 295 787H205Z" />
<glyph unicode="&#xd7;" horiz-adv-x="609" d="M408 143L91 460L200 569L517 252L408 143ZM200 143L91 252L408 569L517 460L200 143Z" />
<glyph unicode="&#xd8;" horiz-adv-x="708" d="M45 0L539 743H664L170 0H45ZM354 -6Q275 -6 216 9T116 65T56 179T36 372Q36 490 56 564T116 679T215 734T354 750Q433 750 492 735T592 679T652 565T672 372Q672 254 652 180T592 65T493 10T354 -6ZM354 168Q392
168 416 177T453 208T472 270T478 372Q478 437 473 477T454 538T416 568T354 576Q317 576 293 568T255 539T236 477T230 372Q230 310 235 270T254 208T292 177T354 168Z" />
<glyph unicode="&#xd9;" horiz-adv-x="692" d="M346 -5Q285 -5 231 5T134 42T69 118T45 245V743H239V246Q239 220 251 203T288 178T346 169Q380 169 404 177T440 203T453 246V743H647V245Q647 167 624 118T558 42T462 5T346 -5ZM302 791L194 934H348L416 791H302Z" />
<glyph unicode="&#xda;" horiz-adv-x="692" d="M346 -5Q285 -5 231 5T134 42T69 118T45 245V743H239V246Q239 220 251 203T288 178T346 169Q380 169 404 177T440 203T453 246V743H647V245Q647 167 624 118T558 42T462 5T346 -5ZM284 791L352 934H506L398 791H284Z" />
<glyph unicode="&#xdb;" horiz-adv-x="692" d="M346 -5Q285 -5 231 5T134 42T69 118T45 245V743H239V246Q239 220 251 203T288 178T346 169Q380 169 404 177T440 203T453 246V743H647V245Q647 167 624 118T558 42T462 5T346 -5ZM172 791L272 937H403L494 791H383L334
852L284 791H172Z" />
<glyph unicode="&#xdc;" horiz-adv-x="692" d="M346 -5Q285 -5 231 5T134 42T69 118T45 245V743H239V246Q239 220 251 203T288 178T346 169Q380 169 404 177T440 203T453 246V743H647V245Q647 167 624 118T558 42T462 5T346 -5ZM382 787Q358 787 358 810V921Q358
946 382 946H472Q483 946 489 939T495 921V810Q495 787 472 787H382ZM185 787Q161 787 161 810V921Q161 946 185 946H275Q286 946 292 939T298 921V810Q298 787 275 787H185Z" />
<glyph unicode="&#xdd;" horiz-adv-x="634" d="M220 0V211L5 743H206L321 409L436 743H629L414 211V0H220ZM271 791L339 934H493L385 791H271Z" />
<glyph unicode="&#xde;" horiz-adv-x="603" d="M55 0V743H249V633H351Q389 633 429 625T502 591T556 514T577 377Q577 290 557 238T505 159T436 123T362 114Q347 114 331 116T300 122T271 129T249 134V0H55ZM249 288H331Q351 288 362 298T378 327T383 375Q383
403 378 421T361 449T331 459H249V288Z" />
<glyph unicode="&#xdf;" horiz-adv-x="620" d="M411 -6Q368 -6 331 -2T270 10V141Q291 140 314 139T359 138Q381 138 394 140T413 147T420 156V162Q420 170 412 178T390 196T361 219T332 248T310 285T301 333Q301 361 308 384T327 429T350 469T368 506T376 542Q376
583 358 596T306 610Q261 610 245 586T228 506V0H34V527Q34 595 62 648T151 733T307 764Q397 764 452 738T534 664T560 554Q560 525 553 500T534 455T512 419T493 391T485 370Q485 361 493 351T515 330T544 305T573 273T595 232T604 179V152Q604 104 584 73T534
25T470 1T411 -6Z" />
<glyph unicode="&#xe0;" horiz-adv-x="554" d="M165 -6Q103 -6 65 31T26 131V186Q26 246 70 286T210 326H318V343Q318 363 311 374T283 390T215 395H58V506Q100 523 154 534T288 545Q356 545 406 530T484 474T512 357V0H358L328 54Q318 44 304 34T269 15T223 0T165
-6ZM267 126Q272 126 278 127T290 129T301 132T311 136T318 139V236L277 230Q249 226 235 216T220 183V163Q220 150 225 142T241 130T267 126ZM238 631L130 774H284L352 631H238Z" />
<glyph unicode="&#xe1;" horiz-adv-x="554" d="M165 -6Q103 -6 65 31T26 131V186Q26 246 70 286T210 326H318V343Q318 363 311 374T283 390T215 395H58V506Q100 523 154 534T288 545Q356 545 406 530T484 474T512 357V0H358L328 54Q318 44 304 34T269 15T223 0T165
-6ZM267 126Q272 126 278 127T290 129T301 132T311 136T318 139V236L277 230Q249 226 235 216T220 183V163Q220 150 225 142T241 130T267 126ZM220 631L288 774H442L334 631H220Z" />
<glyph unicode="&#xe2;" horiz-adv-x="554" d="M165 -6Q103 -6 65 31T26 131V186Q26 246 70 286T210 326H318V343Q318 363 311 374T283 390T215 395H58V506Q100 523 154 534T288 545Q356 545 406 530T484 474T512 357V0H358L328 54Q318 44 304 34T269 15T223 0T165
-6ZM267 126Q272 126 278 127T290 129T301 132T311 136T318 139V236L277 230Q249 226 235 216T220 183V163Q220 150 225 142T241 130T267 126ZM108 631L208 777H339L430 631H319L270 692L220 631H108Z" />
<glyph unicode="&#xe3;" horiz-adv-x="554" d="M165 -6Q103 -6 65 31T26 131V186Q26 246 70 286T210 326H318V343Q318 363 311 374T283 390T215 395H58V506Q100 523 154 534T288 545Q356 545 406 530T484 474T512 357V0H358L328 54Q318 44 304 34T269 15T223 0T165
-6ZM267 126Q272 126 278 127T290 129T301 132T311 136T318 139V236L277 230Q249 226 235 216T220 183V163Q220 150 225 142T241 130T267 126ZM82 617Q86 671 101 702T140 748T193 762Q219 762 238 757T272 744T302 731T333 725Q348 725 355 736T364 769H460Q456
692 429 656T352 619Q327 619 307 624T271 637T240 650T211 656Q195 656 188 645T178 617H82Z" />
<glyph unicode="&#xe4;" horiz-adv-x="554" d="M165 -6Q103 -6 65 31T26 131V186Q26 246 70 286T210 326H318V343Q318 363 311 374T283 390T215 395H58V506Q100 523 154 534T288 545Q356 545 406 530T484 474T512 357V0H358L328 54Q318 44 304 34T269 15T223 0T165
-6ZM267 126Q272 126 278 127T290 129T301 132T311 136T318 139V236L277 230Q249 226 235 216T220 183V163Q220 150 225 142T241 130T267 126ZM318 627Q294 627 294 650V761Q294 786 318 786H408Q419 786 425 779T431 761V650Q431 627 408 627H318ZM121 627Q97
627 97 650V761Q97 786 121 786H211Q222 786 228 779T234 761V650Q234 627 211 627H121Z" />
<glyph unicode="&#xe5;" horiz-adv-x="554" d="M165 -6Q103 -6 65 31T26 131V186Q26 246 70 286T210 326H318V343Q318 363 311 374T283 390T215 395H58V506Q100 523 154 534T288 545Q356 545 406 530T484 474T512 357V0H358L328 54Q318 44 304 34T269 15T223 0T165
-6ZM267 126Q272 126 278 127T290 129T301 132T311 136T318 139V236L277 230Q249 226 235 216T220 183V163Q220 150 225 142T241 130T267 126ZM271 580Q207 580 173 605T139 697Q139 763 173 789T271 815Q336 815 369 789T402 697Q402 631 370 606T271 580ZM271
649Q294 649 304 659T314 697Q314 724 304 735T271 746Q249 746 238 735T227 697Q227 670 238 660T271 649Z" />
<glyph unicode="&#xe6;" horiz-adv-x="832" d="M175 -6Q120 -6 88 15T43 68T30 133V184Q30 222 47 254T106 306T216 326H322V347Q322 367 313 377T285 391T232 395H62V506Q109 525 154 535T253 545Q309 545 352 532T422 501Q450 518 487 533T581 548Q656 548 702
531T770 471T792 349Q792 267 741 235T594 203H511Q512 181 520 168T545 149T585 140T642 138H773V25Q721 6 663 0T542 -6Q508 -6 474 3T411 29T367 70Q349 52 321 35T255 6T175 -6ZM271 126Q288 126 303 133T329 147Q325 160 322 184T319 236L256 224Q239 221
232 209T224 185V166Q224 149 230 141T248 129T271 126ZM511 322H588Q602 322 608 327T617 339T619 354Q619 375 612 386T593 400T565 404Q542 404 531 396T515 369T511 322Z" />
<glyph unicode="&#xe7;" horiz-adv-x="490" d="M263 -6Q212 -6 169 7T95 52T47 135T30 266Q30 348 45 402T91 489T166 534T269 548Q323 548 366 541T463 517V406H332Q289 406 266 395T233 354T224 269Q224 213 232 185T264 148T334 139H470V30Q445 20 410 12T336
-1T263 -6ZM191 -203V-124L206 -121Q223 -118 230 -111T238 -94Q238 -84 231 -76T206 -62L281 -47Q311 -47 337 -63T363 -117Q363 -157 336 -180T250 -203H191ZM206 -62L256 20H342L292 -62H206Z" />
<glyph unicode="&#xe8;" horiz-adv-x="535" d="M285 -5Q193 -5 137 18T56 100T30 268Q30 379 53 439T129 524T276 548Q362 548 412 532T483 475T505 357Q505 298 482 265T417 217T318 203H222Q225 179 234 165T267 144T338 138H485V25Q450 15 402 5T285 -5ZM220
316H297Q317 316 326 325T335 356Q335 375 329 387T310 404T276 410Q257 410 245 402T226 374T220 316ZM238 631L130 774H284L352 631H238Z" />
<glyph unicode="&#xe9;" horiz-adv-x="535" d="M285 -5Q193 -5 137 18T56 100T30 268Q30 379 53 439T129 524T276 548Q362 548 412 532T483 475T505 357Q505 298 482 265T417 217T318 203H222Q225 179 234 165T267 144T338 138H485V25Q450 15 402 5T285 -5ZM220
316H297Q317 316 326 325T335 356Q335 375 329 387T310 404T276 410Q257 410 245 402T226 374T220 316ZM220 631L288 774H442L334 631H220Z" />
<glyph unicode="&#xea;" horiz-adv-x="535" d="M285 -5Q193 -5 137 18T56 100T30 268Q30 379 53 439T129 524T276 548Q362 548 412 532T483 475T505 357Q505 298 482 265T417 217T318 203H222Q225 179 234 165T267 144T338 138H485V25Q450 15 402 5T285 -5ZM220
316H297Q317 316 326 325T335 356Q335 375 329 387T310 404T276 410Q257 410 245 402T226 374T220 316ZM108 631L208 777H339L430 631H319L270 692L220 631H108Z" />
<glyph unicode="&#xeb;" horiz-adv-x="535" d="M285 -5Q193 -5 137 18T56 100T30 268Q30 379 53 439T129 524T276 548Q362 548 412 532T483 475T505 357Q505 298 482 265T417 217T318 203H222Q225 179 234 165T267 144T338 138H485V25Q450 15 402 5T285 -5ZM220
316H297Q317 316 326 325T335 356Q335 375 329 387T310 404T276 410Q257 410 245 402T226 374T220 316ZM318 627Q294 627 294 650V761Q294 786 318 786H408Q419 786 425 779T431 761V650Q431 627 408 627H318ZM121 627Q97 627 97 650V761Q97 786 121 786H211Q222
786 228 779T234 761V650Q234 627 211 627H121Z" />
<glyph unicode="&#xec;" horiz-adv-x="282" d="M44 0V539H238V0H44ZM365 631L257 774H411L479 631H365Z" />
<glyph unicode="&#xed;" horiz-adv-x="282" d="M44 0V539H238V0H44ZM91 631L159 774H313L205 631H91Z" />
<glyph unicode="&#xee;" horiz-adv-x="282" d="M44 0V539H238V0H44ZM235 631L335 777H466L557 631H446L397 692L347 631H235Z" />
<glyph unicode="&#xef;" horiz-adv-x="282" d="M44 0V539H238V0H44ZM189 627Q165 627 165 650V761Q165 786 189 786H279Q290 786 296 779T302 761V650Q302 627 279 627H189ZM-8 627Q-32 627 -32 650V761Q-32 786 -8 786H82Q93 786 99 779T105 761V650Q105 627 82 627H-8Z" />
<glyph unicode="&#xf0;" horiz-adv-x="574" d="M287 -5Q215 -5 166 9T86 55T43 138T30 261Q30 339 45 390T90 471T162 513T259 525Q299 525 331 517T385 493T418 459Q444 430 473 406T523 350T544 271Q544 193 532 140T490 55T411 9T287 -5ZM287 149Q306 149 318
152T337 167T347 200T350 262Q350 301 347 323T337 356T318 370T287 374Q268 374 256 371T237 357T227 324T224 262Q224 223 227 201T237 167T256 153T287 149ZM544 272L370 345Q370 432 357 490T315 584T236 634T114 649V763Q239 763 322 738T454 655T523 504T544
272ZM138 536L115 596L509 747L532 686L138 536Z" />
<glyph unicode="&#xf1;" horiz-adv-x="600" d="M44 0V539H206L238 487Q263 510 305 529T390 548Q460 548 496 522T545 450T558 348V0H364V322Q364 343 357 354T339 369T311 374Q298 374 284 370T259 359T238 343V0H44ZM112 617Q116 671 131 702T170 748T223 762Q249
762 268 757T302 744T332 731T363 725Q378 725 385 736T394 769H490Q486 692 459 656T382 619Q357 619 337 624T301 637T270 650T241 656Q225 656 218 645T208 617H112Z" />
<glyph unicode="&#xf2;" horiz-adv-x="574" d="M287 -5Q215 -5 166 10T86 58T43 143T30 271Q30 352 43 405T87 490T166 535T287 548Q359 548 408 534T487 489T530 404T544 271Q544 193 532 140T490 55T411 9T287 -5ZM287 149Q306 149 318 152T337 168T347 205T350
272Q350 314 347 338T337 375T318 390T287 394Q268 394 256 391T237 375T227 339T224 272Q224 230 227 205T237 168T256 153T287 149ZM255 631L147 774H301L369 631H255Z" />
<glyph unicode="&#xf3;" horiz-adv-x="574" d="M287 -5Q215 -5 166 10T86 58T43 143T30 271Q30 352 43 405T87 490T166 535T287 548Q359 548 408 534T487 489T530 404T544 271Q544 193 532 140T490 55T411 9T287 -5ZM287 149Q306 149 318 152T337 168T347 205T350
272Q350 314 347 338T337 375T318 390T287 394Q268 394 256 391T237 375T227 339T224 272Q224 230 227 205T237 168T256 153T287 149ZM237 631L305 774H459L351 631H237Z" />
<glyph unicode="&#xf4;" horiz-adv-x="574" d="M287 -5Q215 -5 166 10T86 58T43 143T30 271Q30 352 43 405T87 490T166 535T287 548Q359 548 408 534T487 489T530 404T544 271Q544 193 532 140T490 55T411 9T287 -5ZM287 149Q306 149 318 152T337 168T347 205T350
272Q350 314 347 338T337 375T318 390T287 394Q268 394 256 391T237 375T227 339T224 272Q224 230 227 205T237 168T256 153T287 149ZM125 631L225 777H356L447 631H336L287 692L237 631H125Z" />
<glyph unicode="&#xf5;" horiz-adv-x="574" d="M287 -5Q215 -5 166 10T86 58T43 143T30 271Q30 352 43 405T87 490T166 535T287 548Q359 548 408 534T487 489T530 404T544 271Q544 193 532 140T490 55T411 9T287 -5ZM287 149Q306 149 318 152T337 168T347 205T350
272Q350 314 347 338T337 375T318 390T287 394Q268 394 256 391T237 375T227 339T224 272Q224 230 227 205T237 168T256 153T287 149ZM99 617Q103 671 118 702T157 748T210 762Q236 762 255 757T289 744T319 731T350 725Q365 725 372 736T381 769H477Q473 692 446
656T369 619Q344 619 324 624T288 637T257 650T228 656Q212 656 205 645T195 617H99Z" />
<glyph unicode="&#xf6;" horiz-adv-x="574" d="M287 -5Q215 -5 166 10T86 58T43 143T30 271Q30 352 43 405T87 490T166 535T287 548Q359 548 408 534T487 489T530 404T544 271Q544 193 532 140T490 55T411 9T287 -5ZM287 149Q306 149 318 152T337 168T347 205T350
272Q350 314 347 338T337 375T318 390T287 394Q268 394 256 391T237 375T227 339T224 272Q224 230 227 205T237 168T256 153T287 149ZM335 627Q311 627 311 650V761Q311 786 335 786H425Q436 786 442 779T448 761V650Q448 627 425 627H335ZM138 627Q114 627 114
650V761Q114 786 138 786H228Q239 786 245 779T251 761V650Q251 627 228 627H138Z" />
<glyph unicode="&#xf7;" horiz-adv-x="609" d="M248 493Q224 493 224 516V613Q224 638 248 638H360Q385 638 385 613V516Q385 503 378 498T360 493H248ZM248 74Q224 74 224 97V194Q224 219 248 219H360Q385 219 385 194V97Q385 84 378 79T360 74H248ZM80 279V433H528V279H80Z"
/>
<glyph unicode="&#xf8;" horiz-adv-x="574" d="M13 0L475 539H561L99 0H13ZM287 -5Q215 -5 166 10T86 58T43 143T30 271Q30 352 43 405T87 490T166 535T287 548Q359 548 408 534T487 489T530 404T544 271Q544 193 532 140T490 55T411 9T287 -5ZM287 149Q306 149
318 152T337 168T347 205T350 272Q350 314 347 338T337 375T318 390T287 394Q268 394 256 391T237 375T227 339T224 272Q224 230 227 205T237 168T256 153T287 149Z" />
<glyph unicode="&#xf9;" horiz-adv-x="600" d="M192 -6Q122 -6 82 38T42 156V539H236V217Q236 186 251 176T289 165Q304 165 327 174T362 196V539H556V0H394L362 52Q328 30 285 12T192 -6ZM266 631L158 774H312L380 631H266Z" />
<glyph unicode="&#xfa;" horiz-adv-x="600" d="M192 -6Q122 -6 82 38T42 156V539H236V217Q236 186 251 176T289 165Q304 165 327 174T362 196V539H556V0H394L362 52Q328 30 285 12T192 -6ZM248 631L316 774H470L362 631H248Z" />
<glyph unicode="&#xfb;" horiz-adv-x="600" d="M192 -6Q122 -6 82 38T42 156V539H236V217Q236 186 251 176T289 165Q304 165 327 174T362 196V539H556V0H394L362 52Q328 30 285 12T192 -6ZM136 631L236 777H367L458 631H347L298 692L248 631H136Z" />
<glyph unicode="&#xfc;" horiz-adv-x="600" d="M192 -6Q122 -6 82 38T42 156V539H236V217Q236 186 251 176T289 165Q304 165 327 174T362 196V539H556V0H394L362 52Q328 30 285 12T192 -6ZM346 627Q322 627 322 650V761Q322 786 346 786H436Q447 786 453 779T459
761V650Q459 627 436 627H346ZM149 627Q125 627 125 650V761Q125 786 149 786H239Q250 786 256 779T262 761V650Q262 627 239 627H149Z" />
<glyph unicode="&#xfd;" horiz-adv-x="587" d="M228 -237L280 0Q222 0 184 20T123 76T91 156L8 539H209L270 195Q272 183 276 176T287 164T300 158T313 156L382 539H579L442 -138L392 -237H228ZM230 631L298 774H452L344 631H230Z" />
<glyph unicode="&#xfe;" horiz-adv-x="590" d="M44 -237V763H238V490Q258 507 277 520T318 540T370 548Q415 548 450 531T509 480T547 392T560 268Q560 184 543 122T484 26T370 -8Q336 -8 301 -2T238 17V-237H44ZM304 151Q318 151 332 158T356 189T366 258Q366
313 359 342T339 382T305 393Q284 393 266 387T238 373V166Q248 159 266 155T304 151Z" />
<glyph unicode="&#xff;" horiz-adv-x="587" d="M228 -237L280 0Q222 0 184 20T123 76T91 156L8 539H209L270 195Q272 183 276 176T287 164T300 158T313 156L382 539H579L442 -138L392 -237H228ZM328 627Q304 627 304 650V761Q304 786 328 786H418Q429 786 435
779T441 761V650Q441 627 418 627H328ZM131 627Q107 627 107 650V761Q107 786 131 786H221Q232 786 238 779T244 761V650Q244 627 221 627H131Z" />
<glyph unicode="&#x2013;" horiz-adv-x="513" d="M20 212V367H493V212H20Z" />
<glyph unicode="&#x2014;" horiz-adv-x="736" d="M20 212V367H716V212H20Z" />
<glyph unicode="&#x2018;" horiz-adv-x="250" d="M69 480Q56 480 51 488T45 507V667Q45 710 65 731T113 760T167 768Q185 768 195 767T210 764V692Q188 692 184 681T179 661V646H190Q201 646 208 640T215 621V507Q215 480 190 480H69Z" />
<glyph unicode="&#x2019;" horiz-adv-x="250" d="M83 472Q65 472 57 473T40 476V548Q63 548 67 560T71 579V594H60Q50 594 43 600T35 619V733Q35 760 60 760H181Q195 760 200 752T205 733V573Q205 530 185 509T137 480T83 472Z" />
<glyph unicode="&#x201a;" horiz-adv-x="250" d="M83 -128Q65 -128 53 -126T40 -124V-52Q63 -52 67 -40T71 -21V-6H60Q50 -6 43 0T35 19V133Q35 160 60 160H181Q195 160 200 152T205 133V-27Q205 -70 185 -91T137 -120T83 -128Z" />
<glyph unicode="&#x201c;" horiz-adv-x="450" d="M69 480Q56 480 51 488T45 507V667Q45 710 65 731T113 760T167 768Q185 768 195 767T210 764V692Q188 692 184 681T179 661V646H190Q201 646 208 640T215 621V507Q215 480 190 480H69ZM269 480Q256 480 251 488T245
507V667Q245 710 265 731T313 760T367 768Q385 768 395 767T410 764V692Q388 692 384 681T379 661V646H390Q401 646 408 640T415 621V507Q415 480 390 480H269Z" />
<glyph unicode="&#x201d;" horiz-adv-x="450" d="M83 472Q65 472 57 473T40 476V548Q63 548 67 560T71 579V594H60Q50 594 43 600T35 619V733Q35 760 60 760H181Q195 760 200 752T205 733V573Q205 530 185 509T137 480T83 472ZM283 472Q265 472 257 473T240 476V548Q263
548 267 560T271 579V594H260Q250 594 243 600T235 619V733Q235 760 260 760H381Q395 760 400 752T405 733V573Q405 530 385 509T337 480T283 472Z" />
<glyph unicode="&#x201e;" horiz-adv-x="450" d="M83 -128Q65 -128 53 -126T40 -124V-52Q63 -52 67 -40T71 -21V-6H60Q50 -6 43 0T35 19V133Q35 160 60 160H181Q195 160 200 152T205 133V-27Q205 -70 185 -91T137 -120T83 -128ZM283 -128Q265 -128 253 -126T240
-124V-52Q263 -52 267 -40T271 -21V-6H260Q250 -6 243 0T235 19V133Q235 160 260 160H381Q395 160 400 152T405 133V-27Q405 -70 385 -91T337 -120T283 -128Z" />
<glyph unicode="&#x2022;" horiz-adv-x="307" d="M81 274Q48 274 48 306V456Q48 472 56 481T81 491H225Q260 491 260 456V306Q260 288 250 281T225 274H81Z" />
<glyph unicode="&#x2039;" horiz-adv-x="376" d="M259 56L28 284L254 507L351 412L221 284L352 154L259 56Z" />
<glyph unicode="&#x203a;" horiz-adv-x="376" d="M121 56L28 154L159 284L29 412L126 507L352 284L121 56Z" />
</font>
</defs>
</svg>
