<?xml version="1.0" standalone="no"?>
<!DOCTYPE svg PUBLIC "-//W3C//DTD SVG 1.1//EN" "http://www.w3.org/Graphics/SVG/1.1/DTD/svg11.dtd">
<svg xmlns="http://www.w3.org/2000/svg">
<defs >
<font id="Exo" horiz-adv-x="531" ><font-face
    font-family="Exo Thin"
    units-per-em="1000"
    panose-1="0 0 0 0 0 0 0 0 0 0"
    ascent="1002"
    descent="-327"
    alphabetic="0" />
<glyph unicode=" " horiz-adv-x="234" />
<glyph unicode="!" horiz-adv-x="260" d="M151 196L232 731H256L167 196H151ZM121 0Q111 0 111 10Q111 11 111 11T111 12L121 74Q123 86 135 86H146Q156 86 156 77Q156 76 156 76T156 74L146 12Q145 6 141 3T132 0H121Z" />
<glyph unicode="&quot;" horiz-adv-x="193" d="M133 515L151 673L161 740H186L176 673L145 515H133ZM213 515L231 673L241 740H266L256 673L225 515H213Z" />
<glyph unicode="#" horiz-adv-x="654" d="M166 0L244 249H67L71 261H249L314 467H135L140 479H318L399 732H411L330 479H516L596 732H608L528 479H706L702 467H523L458 261H636L632 249H454L376 0H364L442 249H256L178 0H166ZM261 261H446L511 467H326L261 261Z" />
<glyph unicode="$" horiz-adv-x="609" d="M421 732L403 733L417 824H435L421 732ZM273 -88L287 3L305 2L291 -88H273ZM297 -6Q265 -6 225 -5T146 -1T79 6L81 22Q121 19 182 18T302 16Q355 16 398 26T470 68T508 158L518 224Q520 234 520 243T521 261Q521 311 493
334T400 357H288Q222 357 188 381T154 464Q154 481 157 502L167 568Q178 639 207 675T280 725T380 738Q396 738 424 737T483 733T543 728T589 722L587 706Q556 708 517 710T441 713T382 714Q327 714 288 703T224 660T191 568L181 502Q180 492 179 483T178 466Q178
417 206 399T290 381H404Q477 381 511 353T545 265Q545 247 542 224L532 158Q522 90 488 55T404 7T297 -6Z" />
<glyph unicode="%" horiz-adv-x="954" d="M242 0L796 732H817L263 0H242ZM239 349Q178 349 154 370T129 434Q129 453 132 474L153 607Q164 671 195 701T302 732H403Q464 732 489 711T514 647Q514 638 513 628T510 607L489 474Q479 410 448 380T340 349H239ZM242
365H343Q401 365 432 386T473 474L494 607Q496 618 496 627T497 644Q497 682 475 699T400 716H299Q240 716 210 695T169 607L148 474Q147 464 146 455T145 438Q145 395 169 380T242 365ZM668 3Q607 3 583 24T558 88Q558 107 561 128L582 261Q592 325 623 355T731
386H832Q893 386 918 365T943 301Q943 292 942 282T939 261L918 128Q908 64 877 34T769 3H668ZM671 19H772Q830 19 861 40T902 128L923 261Q925 272 926 281T927 298Q927 336 905 353T830 370H729Q670 370 640 349T598 261L577 128Q576 118 575 109T574 92Q574
49 598 34T671 19Z" />
<glyph unicode="&amp;" horiz-adv-x="653" d="M218 -6Q148 -6 105 36T61 152Q61 206 75 248T123 325T213 395L283 437L265 469Q246 503 238 535T229 595Q229 642 251 672T315 717T410 732Q445 732 467 731T507 729T541 726L538 710H408Q340 710 297 686T253 597Q253
571 260 543T286 481L480 144L660 295L668 286L585 201L493 125L567 0H538L474 111L439 83Q374 31 322 13T218 -6ZM223 18Q267 18 313 33T418 95L461 130L293 418L231 383Q172 350 141 317T98 244T86 154Q86 91 122 55T223 18Z" />
<glyph unicode="&apos;" horiz-adv-x="113" d="M133 515L151 673L161 740H186L176 673L145 515H133Z" />
<glyph unicode="(" horiz-adv-x="315" d="M227 -210Q196 -149 177 -85T150 48T141 184Q141 252 150 322T180 462T230 602T302 736T396 860H423Q358 787 310 706T230 538T182 364T166 192Q166 87 187 -15T255 -210H227Z" />
<glyph unicode=")" horiz-adv-x="314" d="M-6 -210Q62 -127 111 -43T191 127T237 298T252 469Q252 569 233 663T163 860H190Q224 793 242 730T269 603T277 474Q277 405 268 337T240 199T190 62T118 -75T21 -210H-6Z" />
<glyph unicode="*" horiz-adv-x="483" d="M363 533L348 552L473 635L480 623L363 533ZM406 424L295 495L311 518L416 435L406 424ZM203 405L191 409L245 543L270 539L203 405ZM139 592L141 606L284 610L281 586L139 592ZM334 593L298 723L312 727L359 604L334 593Z" />
<glyph unicode="+" horiz-adv-x="609" d="M314 132L384 580H408L338 132H314ZM135 344L139 368H587L583 344H135Z" />
<glyph unicode="," horiz-adv-x="172" d="M67 -69Q64 -69 62 -69T60 -68L61 -62Q70 -62 74 -59T80 -47L87 0H81Q71 0 71 10Q71 11 71 11T71 13L81 73Q82 86 95 86H105Q115 86 115 77Q115 76 115 75T115 73L97 -37Q95 -51 90 -58T79 -67T67 -69Z" />
<glyph unicode="-" horiz-adv-x="331" d="M68 278L72 302H356L352 278H68Z" />
<glyph unicode="." horiz-adv-x="172" d="M81 0Q71 0 71 10Q71 11 71 11T71 12L81 74Q83 86 95 86H106Q116 86 116 77Q116 76 116 76T116 74L106 12Q105 6 101 3T92 0H81Z" />
<glyph unicode="/" horiz-adv-x="354" d="M16 -72L430 770H449L35 -72H16Z" />
<glyph unicode="0" horiz-adv-x="662" d="M266 0Q226 0 192 12T138 52T117 126Q117 134 118 143T120 162L185 576Q194 630 223 666T294 720T383 738H517Q596 738 629 703T662 613Q662 604 662 595T659 576L594 162Q580 73 527 37T400 0H266ZM269 22H403Q481 22
520 60T570 162L635 576Q637 585 637 593T638 609Q638 661 607 688T513 716H379Q312 716 266 679T209 576L144 162Q143 154 142 147T141 132Q141 78 175 50T269 22Z" />
<glyph unicode="1" horiz-adv-x="354" d="M222 0L334 705L156 644L159 660L338 732H362L246 0H222Z" />
<glyph unicode="2" horiz-adv-x="598" d="M61 0L64 22L380 295Q487 388 533 463T579 598Q579 632 564 658T509 700T400 716H207L210 732Q254 734 307 736T412 738Q483 738 525 720T585 671T603 598Q603 536 553 456T394 281L101 24H545L541 0H61Z" />
<glyph unicode="3" horiz-adv-x="590" d="M301 -6Q222 -6 157 -5T48 0L51 16H303Q348 16 389 28T460 71T501 161Q507 193 510 216T514 247Q514 288 493 311T440 344T378 356L185 363L188 377L383 383Q444 385 488 412T543 504Q550 544 552 563T555 589T556 601Q556
655 518 685T405 716H193L196 732Q233 735 287 736T415 738Q474 738 510 721T563 673T580 605Q580 600 580 592T577 564T567 504Q561 465 543 440T503 399T461 378T429 370Q441 368 459 361T495 340T525 304T538 249Q538 240 534 217T525 161Q512 79 454 37T301
-6Z" />
<glyph unicode="4" horiz-adv-x="575" d="M404 2L438 212H73L66 235L452 732H477L91 234H441L479 472L495 527H511L465 234H585L583 218L462 212L428 2H404Z" />
<glyph unicode="5" horiz-adv-x="649" d="M356 -4Q291 -4 233 -3T133 2L136 18H358Q409 18 455 34T533 84T573 168L589 273Q591 282 591 291T592 307Q592 360 558 389T453 419H358Q301 419 263 394T205 312H183L270 732H665L661 710H288L219 375Q232 399 269 420T364
441H457Q534 441 575 405T616 309Q616 301 616 293T614 275L596 166Q588 111 553 73T467 16T356 -4Z" />
<glyph unicode="6" horiz-adv-x="636" d="M276 -1Q234 -1 202 16T151 78T132 204Q132 283 143 360T178 505T239 626T329 708T450 738Q488 738 538 736T628 732L625 716H437Q380 716 326 680T232 571T173 385Q209 387 254 388T341 390T406 391Q462 391 505 382T573
349T598 279Q598 272 598 265T595 249L579 148Q571 92 543 60T476 13T395 -1H276ZM279 21H398Q434 21 467 30T524 67T556 146L572 249Q574 257 574 263T575 276Q575 315 554 335T494 362T403 369H170Q163 318 159 277T155 201Q155 131 170 92T213 37T279 21Z" />
<glyph unicode="7" horiz-adv-x="535" d="M178 0L578 708H162L166 732H594L606 709L206 0H178Z" />
<glyph unicode="8" horiz-adv-x="655" d="M267 0Q220 0 187 12T137 48T120 108Q120 114 120 120T122 134L139 243Q146 285 168 311T218 351T263 369Q226 386 209 414T192 475Q192 481 192 487T194 499L207 584Q216 639 241 672T303 721T384 737H520Q578 737 607
712T637 629Q637 619 636 608T633 584L620 499Q617 479 609 460T587 425T556 396T519 377Q557 370 577 343T597 277Q597 271 597 265T595 252L576 134Q569 91 547 61T488 16T402 0H267ZM270 22H405Q469 22 506 49T552 131L570 246Q572 256 572 264T573 280Q573
325 545 343T452 362H323Q306 362 281 357T232 338T188 303T164 246L146 131Q145 126 145 121T144 111Q144 63 180 43T270 22ZM327 384H456Q500 384 529 402T575 445T595 494L609 582Q611 594 612 604T613 625Q613 673 589 694T516 715H380Q311 715 277 683T231
582L217 494Q216 490 216 486T216 476Q216 439 242 412T327 384Z" />
<glyph unicode="9" horiz-adv-x="636" d="M476 735Q519 735 551 718T601 656T620 530Q620 451 609 374T574 229T513 108T423 26T302 -4Q265 -4 214 -2T124 2L127 18H315Q373 18 426 54T520 163T579 349Q543 347 498 346T411 344T346 343Q291 343 248 352T179 385T154
455Q154 462 155 469T157 485L173 586Q182 642 209 674T276 721T357 735H476ZM473 713H354Q318 713 285 704T228 667T196 588L180 485Q179 478 178 471T177 458Q177 419 198 399T258 372T349 365H582Q590 416 593 457T597 533Q597 603 582 642T539 697T473 713Z"
/>
<glyph unicode=":" horiz-adv-x="172" d="M81 0Q71 0 71 10Q71 11 71 11T71 12L81 74Q83 86 95 86H106Q116 86 116 77Q116 76 116 76T116 74L106 12Q105 6 101 3T92 0H81ZM152 445Q142 445 142 455Q142 456 142 456T142 457L152 519Q154 531 166 531H177Q187 531
187 522Q187 521 187 521T187 519L177 457Q176 451 172 448T163 445H152Z" />
<glyph unicode=";" horiz-adv-x="172" d="M152 445Q142 445 142 455Q142 456 142 456T142 457L152 519Q154 531 166 531H177Q187 531 187 522Q187 521 187 521T187 519L177 457Q176 451 172 448T163 445H152ZM67 -69Q64 -69 62 -69T60 -68L61 -62Q70 -62 74 -59T80
-47L87 0H81Q71 0 71 10Q71 11 71 11T71 13L81 73Q82 86 95 86H105Q115 86 115 77Q115 76 115 75T115 73L97 -37Q95 -51 90 -58T79 -67T67 -69Z" />
<glyph unicode="&lt;" horiz-adv-x="609" d="M528 200L134 336L138 360L574 496L571 476L156 347L531 220L528 200Z" />
<glyph unicode="=" horiz-adv-x="609" d="M372 480L376 504H824L820 480H372ZM154 464L158 488H606L602 464H154Z" />
<glyph unicode="&gt;" horiz-adv-x="609" d="M146 200L149 220L564 349L189 476L192 496L586 360L582 336L146 200Z" />
<glyph unicode="?" horiz-adv-x="532" d="M218 195L238 321H273Q343 321 387 334T455 378T487 463L500 544Q503 561 504 575T505 602Q505 664 473 690T372 717Q316 717 266 708T154 675L156 689Q221 719 276 729T382 739Q465 739 497 705T530 608Q530 579 524
544L511 463Q498 378 439 338T256 297L240 195H218ZM196 0Q186 0 186 10Q186 11 186 11T186 12L196 74Q198 86 210 86H221Q231 86 231 77Q231 76 231 76T231 74L221 12Q220 6 216 3T207 0H196Z" />
<glyph unicode="@" horiz-adv-x="901" d="M211 -179Q165 -179 132 -160T80 -105T61 -26Q61 -18 62 -9T64 9L146 521Q152 556 165 587T202 644T262 684T350 699H745Q793 699 825 683T872 637T888 564Q888 544 885 521L832 167Q830 154 821 127T791 71T735 21T647
0H618L620 63Q606 48 580 36T523 14T460 -1T404 -6Q360 -6 323 10T265 66T243 176Q243 293 278 375T373 501T504 545Q562 545 616 530T704 482L637 22Q655 22 680 26T732 44T780 88T808 167L861 521Q863 533 864 543T865 564Q865 629 831 652T744 675H350Q290 675
253 654T196 598T170 521L88 9Q85 -9 85 -26Q85 -89 122 -122T217 -155H601L599 -169Q574 -172 530 -174T429 -178T309 -179H211ZM402 18Q450 18 507 27T621 79L680 479Q631 505 591 514T506 523Q442 523 388 482T300 365T267 179Q267 112 287 78T338 31T402 18Z"
/>
<glyph unicode="A" horiz-adv-x="660" d="M45 0L435 732H469L615 0H590L539 254H206L70 0H45ZM218 276H535L448 706L218 276Z" />
<glyph unicode="B" horiz-adv-x="597" d="M80 0L196 732H429Q486 732 523 716T577 670T595 597Q595 585 594 573T591 548Q580 476 542 436T455 384Q474 379 499 362T542 313T561 233Q561 223 560 210T555 179Q538 96 485 48T333 0H80ZM107 22H337Q400 22 438 42T499
100T532 185Q535 199 536 211T537 233Q537 298 497 335T395 372H163L107 22ZM166 394H396Q466 394 508 433T566 545Q569 559 570 571T572 596Q572 657 534 683T425 710H216L166 394Z" />
<glyph unicode="C" horiz-adv-x="589" d="M302 -6Q202 -6 158 48T114 210Q114 250 119 295T130 376Q148 491 183 572T275 695T418 738Q488 738 539 731T632 716L628 700Q577 708 528 712T416 716Q359 716 317 695T243 630T191 520T154 366Q148 331 144 288T139
211Q139 108 177 62T307 16Q386 16 433 19T521 30L518 14Q470 4 413 -1T302 -6Z" />
<glyph unicode="D" horiz-adv-x="663" d="M80 0L196 732H448Q528 732 574 704T641 619T661 478Q661 447 658 416T649 355Q638 283 615 219T555 106T465 28T339 0H80ZM107 22H338Q406 22 455 49T539 125T595 234T626 364Q631 396 634 426T637 481Q637 555 621 606T562
683T443 710H216L107 22Z" />
<glyph unicode="E" horiz-adv-x="565" d="M216 -6Q191 -6 168 -1T127 18T101 59T100 128L176 607Q184 656 206 683T259 722T322 732Q396 731 470 730T619 726L616 710H319Q273 710 241 687T199 602L163 375L522 369L519 353L159 351L124 123Q117 77 128 54T164
24T220 16H508L505 0Q433 -1 361 -2T216 -6Z" />
<glyph unicode="F" horiz-adv-x="544" d="M80 0L175 598Q184 655 206 684T258 723T321 732Q395 731 470 730T619 726L616 710H316Q267 710 238 686T199 602L163 375L522 369L519 353L160 351L104 0H80Z" />
<glyph unicode="G" horiz-adv-x="636" d="M304 -6Q202 -6 159 48T115 217Q115 252 119 292T130 377Q147 484 180 565T273 693T427 740Q501 740 554 731T651 710L649 694Q603 704 546 711T423 718Q340 718 287 676T202 555T154 368Q139 275 139 209Q139 108 178
62T308 16Q336 16 370 21T438 35T499 53T543 69L587 347H373L375 363Q402 368 443 368T546 369Q557 369 568 369T590 368T614 366L556 0H540L542 53Q530 47 504 38T443 18T373 1T304 -6Z" />
<glyph unicode="H" horiz-adv-x="646" d="M80 0L196 732H220L162 365H600L658 732H682L566 0H542L596 343H158L104 0H80Z" />
<glyph unicode="I" horiz-adv-x="184" d="M80 0L196 732H220L104 0H80Z" />
<glyph unicode="J" horiz-adv-x="319" d="M130 -6Q97 -6 72 1T31 19L34 35Q57 25 83 21T131 17Q185 17 221 52T271 165L361 732H385L295 165Q281 77 240 36T130 -6Z" />
<glyph unicode="K" horiz-adv-x="561" d="M80 0L196 732H220L164 378H319L603 732H631L339 367L526 0H499L318 356H160L104 0H80Z" />
<glyph unicode="L" horiz-adv-x="517" d="M211 0Q159 0 128 18T97 91Q97 101 98 109T100 126L196 732H220L124 126Q123 117 122 109T121 91Q121 47 147 35T209 22H495L492 0H211Z" />
<glyph unicode="M" horiz-adv-x="770" d="M71 0L268 732H290L407 50L742 732H764L732 0H708L740 682L412 0H390L277 682L96 0H71Z" />
<glyph unicode="N" horiz-adv-x="649" d="M80 0L196 732H218L551 41L661 732H685L569 0H547L214 692L104 0H80Z" />
<glyph unicode="O" horiz-adv-x="678" d="M336 -6Q282 -6 241 2T171 33T127 95T112 199Q112 234 116 275T128 368Q146 482 173 555T240 667T333 722T457 738Q509 738 550 729T621 695T665 630T680 524Q680 490 676 448T664 354Q646 240 618 169T550 60T457 8T336
-6ZM342 16Q406 16 454 29T537 77T597 181T640 361Q648 411 651 451T655 525Q655 606 631 647T561 702T452 716Q389 716 341 702T257 651T196 543T152 361Q145 312 141 272T136 199Q136 122 158 83T226 30T342 16Z" />
<glyph unicode="P" horiz-adv-x="592" d="M80 0L196 732H462Q504 732 537 719T591 674T611 587Q611 575 609 556T605 522Q595 454 572 411T518 345T452 312T383 303Q332 303 270 305T153 309L104 0H80ZM155 325H385Q429 325 468 341T538 400T581 522Q583 537 585
555T587 586Q587 654 553 682T458 710H216L155 325Z" />
<glyph unicode="Q" horiz-adv-x="678" d="M482 -151Q446 -151 418 -139T372 -101T352 -33H368Q379 -86 408 -107T483 -129Q500 -129 517 -126T548 -118L545 -140Q514 -151 482 -151ZM336 -6Q282 -6 241 2T171 33T127 95T112 199Q112 234 116 275T128 368Q146 482
173 555T240 667T333 722T457 738Q509 738 550 729T621 695T665 630T680 524Q680 490 676 448T664 354Q646 240 618 169T550 60T457 8T336 -6ZM342 16Q406 16 454 29T537 77T597 181T640 361Q648 411 651 451T655 525Q655 606 631 647T561 702T452 716Q389 716
341 702T257 651T196 543T152 361Q145 312 141 272T136 199Q136 122 158 83T226 30T342 16Z" />
<glyph unicode="R" horiz-adv-x="604" d="M80 0L196 732H452Q477 732 504 726T556 704T596 656T611 575Q611 562 610 548T606 518Q596 456 576 419T529 362T476 335T425 326L534 0H510L401 325Q381 325 350 326T282 327T212 329T156 331L104 0H80ZM159 347H401Q439
347 475 359T540 408T581 522Q583 536 584 549T585 573Q585 632 564 661T511 700T448 710H216L159 347Z" />
<glyph unicode="S" horiz-adv-x="565" d="M297 -6Q265 -6 225 -5T146 -1T79 6L81 22Q121 19 182 18T302 16Q355 16 398 26T470 68T508 158L518 224Q520 234 520 243T521 261Q521 311 493 334T400 357H288Q222 357 188 381T154 464Q154 481 157 502L167 568Q178
639 207 675T280 725T380 738Q396 738 424 737T483 733T543 728T589 722L587 706Q556 708 517 710T441 713T382 714Q327 714 288 703T224 660T191 568L181 502Q180 492 179 483T178 466Q178 417 206 399T290 381H404Q477 381 511 353T545 265Q545 247 542 224L532
158Q522 90 488 55T404 7T297 -6Z" />
<glyph unicode="T" horiz-adv-x="602" d="M284 0L396 710H142L146 732H678L674 710H420L308 0H284Z" />
<glyph unicode="U" horiz-adv-x="667" d="M333 -6Q230 -6 175 36T119 186Q119 212 122 248T131 320L196 732H220L155 320Q149 283 146 247T142 185Q142 88 191 52T331 16Q387 16 432 26T512 67T572 158T614 320L679 732H703L638 320Q621 214 593 149T527 51T440
6T333 -6Z" />
<glyph unicode="V" horiz-adv-x="660" d="M307 0L161 732H186L328 26L706 732H731L341 0H307Z" />
<glyph unicode="W" horiz-adv-x="980" d="M277 0L161 732H186L297 25L588 732H622L678 26L1025 732H1051L691 0H657L601 702L311 0H277Z" />
<glyph unicode="X" horiz-adv-x="586" d="M508 0L340 354L161 732H189L357 374L536 0H508ZM48 0L337 375L349 346L79 0H48ZM359 354L347 379L626 732H657L359 354Z" />
<glyph unicode="Y" horiz-adv-x="590" d="M273 0L314 260L146 732H173L329 292L647 732H676L338 260L297 0H273Z" />
<glyph unicode="Z" horiz-adv-x="553" d="M45 0L48 22L582 710H157L161 732H614L610 710L76 22H511L508 0H45Z" />
<glyph unicode="[" horiz-adv-x="327" d="M218 -210Q172 -210 148 -191T114 -144T105 -86Q105 -73 106 -61T109 -38L221 670Q225 693 234 722T261 778T309 824T384 842H434L431 820H381Q332 820 295 785T245 670L133 -38Q132 -49 131 -60T129 -82Q129 -128 150
-158T221 -188H271L268 -210H218Z" />
<glyph unicode="\" horiz-adv-x="354" d="M297 -72L149 770H168L316 -72H297Z" />
<glyph unicode="]" horiz-adv-x="327" d="M-6 -210L-3 -188H47Q89 -188 116 -168T160 -113T183 -38L295 670Q297 683 298 694T299 716Q299 771 274 795T207 820H157L160 842H210Q257 842 281 823T314 776T323 718Q323 705 322 693T319 670L207 -38Q203 -60 194
-89T167 -146T119 -192T44 -210H-6Z" />
<glyph unicode="^" horiz-adv-x="407" d="M152 531L305 661H325L424 531H406L312 646L170 531H152Z" />
<glyph unicode="_" horiz-adv-x="609" d="M-22 -141L-19 -117H590L587 -141H-22Z" />
<glyph unicode="`" horiz-adv-x="201" d="M260 631L148 764H174L274 631H260Z" />
<glyph unicode="a" horiz-adv-x="559" d="M259 -6Q212 -6 174 12T114 69T92 171Q92 194 95 220T102 268Q116 361 147 420T232 508T369 537Q398 537 432 532T499 515T555 481L479 0H463L465 59Q451 50 417 35T340 7T259 -6ZM258 16Q318 16 367 34T467 75L530 476Q510
488 468 501T367 515Q287 515 239 489T165 406T125 258Q121 230 119 210T116 172Q116 90 156 53T258 16Z" />
<glyph unicode="b" horiz-adv-x="561" d="M302 -6Q268 -6 233 3T166 27T113 57L96 0H80L201 763H225L179 472Q232 504 292 520T393 537Q461 537 506 495T551 365Q551 341 549 313T541 254Q529 178 498 119T418 27T302 -6ZM303 16Q397 16 447 80T517 261Q522 290
524 315T527 363Q527 445 488 480T390 515Q338 515 285 499T176 456L116 73Q153 53 198 35T303 16Z" />
<glyph unicode="c" horiz-adv-x="485" d="M275 -6Q222 -6 181 9T117 64T93 180Q93 199 96 222T103 273Q118 368 151 426T234 510T349 537Q384 537 431 535T516 531L512 515H347Q294 515 250 494T174 419T126 262Q122 238 120 218T117 180Q117 113 135 78T190 29T279
16H447L445 0Q414 -2 371 -4T275 -6Z" />
<glyph unicode="d" horiz-adv-x="560" d="M253 -6Q186 -6 140 36T93 165Q93 220 103 271Q118 351 144 411T222 504T368 537Q416 537 456 528T535 498L577 763H601L480 0H464L466 59Q442 45 408 30T335 5T253 -6ZM252 16Q311 16 364 33T468 75L531 476Q495 496
457 505T366 515Q283 515 236 487T166 403T127 263Q123 237 120 214T117 171Q117 115 135 81T184 32T252 16Z" />
<glyph unicode="e" horiz-adv-x="548" d="M315 -6Q239 -6 190 13T118 72T95 171Q95 203 98 233T106 291Q117 367 147 423T231 510T370 541Q414 541 447 534T503 510T538 468T550 406Q550 355 528 322T468 270T383 244T287 236Q232 236 188 242T124 254Q121 234
120 214T119 173Q119 91 164 54T317 16H471L468 0Q443 -1 401 -3T315 -6ZM269 258Q342 258 400 269T492 313T526 404Q526 468 487 493T368 519Q287 519 238 490T163 405T126 270Q153 265 191 262T269 258Z" />
<glyph unicode="f" horiz-adv-x="360" d="M120 0L200 507H113L116 523L204 531L218 616Q221 636 226 662T244 712T284 753T358 769Q385 769 416 768T473 764L471 748H355Q313 748 291 732T259 685T242 616L228 531H416L412 507H224L144 0H120Z" />
<glyph unicode="g" horiz-adv-x="559" d="M218 -237L63 -232L66 -216H222Q274 -216 321 -201T402 -153T445 -66L466 59Q428 36 389 22T314 1T244 -6Q206 -6 172 12T116 69T94 164Q94 190 97 218T104 275Q114 338 132 387T181 469T259 519T377 537Q441 537 489
533T563 524L469 -68Q460 -121 432 -155T366 -207T289 -231T218 -237ZM247 16Q303 16 353 30T468 75L536 508Q496 510 456 512T375 515Q297 519 247 493T170 412T128 271Q124 241 121 215T118 166Q118 89 156 53T247 16Z" />
<glyph unicode="h" horiz-adv-x="564" d="M80 0L201 763H225L178 469Q227 500 286 520T409 540Q477 540 511 507T546 412Q546 393 543 370L484 0H460L517 363Q519 376 520 387T521 409Q521 468 490 493T402 518Q336 518 286 502T176 453L104 0H80Z" />
<glyph unicode="i" horiz-adv-x="184" d="M188 640Q183 640 180 643T178 652L188 714Q190 726 202 726H213Q219 726 221 723T222 714L212 652Q211 640 199 640H188ZM80 0L164 531H188L104 0H80Z" />
<glyph unicode="j" horiz-adv-x="184" d="M188 640Q183 640 180 643T178 652L188 714Q190 726 202 726H213Q219 726 221 723T222 714L212 652Q211 640 199 640H188ZM42 -237L164 531H188L103 -4Q94 -61 84 -120T58 -237H42Z" />
<glyph unicode="k" horiz-adv-x="497" d="M80 0L201 763H225L151 297Q222 297 281 318T386 391T459 531H483Q463 461 432 415T365 340T289 297L457 0H429L265 290Q237 283 204 279T148 275L104 0H80Z" />
<glyph unicode="l" horiz-adv-x="269" d="M195 0Q149 0 124 24T99 96Q99 119 102 140T108 179L201 763H225L132 179Q131 169 129 156T125 128T123 97Q123 58 141 42T190 22L253 16L250 0H195Z" />
<glyph unicode="m" horiz-adv-x="943" d="M80 0L164 531H180L178 469Q227 498 286 519T406 540Q470 540 499 517T541 458Q592 493 656 516T785 540Q849 540 887 510T926 409Q926 402 925 390T922 370L863 0H839L898 370Q900 378 901 388T902 409Q902 518 781 518Q711
518 657 497T544 442Q546 426 546 406T541 359L484 0H460L517 359Q519 375 520 385T522 410Q522 456 496 487T402 518Q336 518 286 501T176 453L104 0H80Z" />
<glyph unicode="n" horiz-adv-x="564" d="M80 0L164 531H180L178 469Q227 500 286 520T406 540Q459 540 489 523T533 476T546 411Q546 401 545 386T537 332L484 0H460L512 331Q518 370 520 384T522 409Q522 455 496 486T402 518Q336 518 286 502T176 453L104 0H80Z" />
<glyph unicode="o" horiz-adv-x="560" d="M279 -6Q226 -6 184 10T118 64T94 170Q94 192 96 215T102 265Q115 345 135 397T187 480T261 524T365 537Q431 537 471 517T531 456T550 356Q550 333 547 307T540 251Q525 154 495 98T412 18T279 -6ZM284 16Q333 16 371
25T437 60T484 134T516 258Q521 287 523 311T525 356Q525 442 488 478T360 515Q308 515 270 504T204 466T158 388T126 258Q122 233 120 211T118 170Q118 106 139 73T198 28T284 16Z" />
<glyph unicode="p" horiz-adv-x="560" d="M42 -237L164 529Q199 533 254 535T385 537Q463 537 507 495T551 361Q551 335 548 309T541 261Q529 182 502 122T424 28T293 -6Q241 -6 198 2T109 33L66 -237H42ZM294 16Q366 16 410 45T479 131T517 268Q520 287 523 311T527
360Q527 436 493 476T384 515L184 513L111 49Q150 37 177 30T230 19T294 16Z" />
<glyph unicode="q" horiz-adv-x="560" d="M418 -237L465 59Q406 23 345 9T243 -6Q176 -6 135 42T94 166Q94 192 97 219T104 275Q114 338 132 387T182 469T264 519T388 537Q431 537 481 533T563 524L442 -237H418ZM248 16Q304 16 356 32T468 75L536 508Q500 510
464 512T392 515Q306 519 253 493T171 412T128 269Q124 241 121 215T118 166Q118 93 154 55T248 16Z" />
<glyph unicode="r" horiz-adv-x="376" d="M80 0L164 531H180L178 469Q213 495 258 516T355 537Q377 537 396 536T430 529L426 505Q410 509 392 511T351 513Q301 513 258 495T176 453L104 0H80Z" />
<glyph unicode="s" horiz-adv-x="502" d="M278 -6Q262 -6 232 -6T169 -5T107 -3T67 0L70 16H282Q346 16 386 37T435 113L443 162Q444 167 444 171T444 179Q444 252 354 252H241Q197 252 169 260T128 285T115 329Q115 338 116 348T119 369L127 415Q134 453 152
480T204 522T294 537Q318 537 355 536T430 534T491 531L487 515H290Q222 515 191 490T151 415L143 369Q141 354 140 345T139 329Q139 299 163 288T243 276H355Q405 276 437 252T469 178Q469 173 469 168T467 156L459 107Q449 45 402 20T278 -6Z" />
<glyph unicode="t" horiz-adv-x="366" d="M258 0Q201 0 173 28T145 107Q145 130 148 149T154 188L207 509H121L123 525L208 531L240 680H256L232 531H407L404 509H229L178 188Q175 169 172 148T169 107Q169 68 189 47T251 22L317 16L314 0H258Z" />
<glyph unicode="u" horiz-adv-x="564" d="M243 -6Q173 -6 138 27T102 116Q102 131 103 144T106 167L164 531H188L130 162Q129 153 128 143T126 121Q126 72 153 44T246 16Q311 16 361 32T472 78L544 531H568L484 0H468L470 62Q438 43 404 28T330 3T243 -6Z" />
<glyph unicode="v" horiz-adv-x="529" d="M239 0L104 531H128L254 29L485 427Q501 454 510 481T525 539H541Q541 511 532 480T503 414L263 0H239Z" />
<glyph unicode="w" horiz-adv-x="798" d="M216 0L104 531H128L233 32L447 531H473L562 30L764 443Q770 454 776 470T787 505T795 539H811Q811 523 807 504T797 466T781 427L571 0H544L457 499L242 0H216Z" />
<glyph unicode="x" horiz-adv-x="506" d="M436 0L289 254L129 531H154L305 271L461 0H436ZM45 0L287 274L294 250L73 0H45ZM305 259L298 282L517 531H545L305 259Z" />
<glyph unicode="y" horiz-adv-x="543" d="M97 -237V-215Q136 -205 189 -157T293 0Q274 3 253 9T215 38T187 110L104 531H128L210 116Q218 78 232 59T265 34T305 25L510 454Q518 471 527 494T538 539H554Q554 517 550 495T533 446L320 1Q281 -81 245 -130T172 -204T97
-237Z" />
<glyph unicode="z" horiz-adv-x="497" d="M65 1L68 22L480 509H131L134 531H510L507 509L95 23H450Q450 23 450 21T449 15T448 9T447 3T446 1H65Z" />
<glyph unicode="{" horiz-adv-x="304" d="M267 -210Q210 -210 180 -194T139 -151T128 -94Q128 -80 133 -44T147 39T163 130T176 210T182 254Q182 289 163 304T101 320L105 347Q122 349 144 355T184 376T207 420L244 656Q253 714 272 755T329 819T434 842L430 820Q386
820 354 809T301 763T268 656L231 420Q225 384 198 362T137 334Q173 330 190 308T207 259Q207 252 203 227T193 166T180 90T167 13T157 -50T153 -87Q153 -145 182 -166T270 -188L267 -210Z" />
<glyph unicode="|" horiz-adv-x="254" d="M104 -72L237 770H261L128 -72H104Z" />
<glyph unicode="}" horiz-adv-x="304" d="M-3 -210L0 -188Q46 -188 78 -175T131 -129T161 -38L204 231Q209 263 232 286T296 314Q268 318 249 337T229 386Q229 400 233 433T245 508T259 592T270 667T275 711Q275 772 245 796T160 820L164 842Q217 842 246 825T287
779T299 714Q299 708 296 684T287 626T276 553T265 479T257 420T253 388Q253 364 266 352T298 334T332 327L328 300Q294 300 264 284T227 227L185 -38Q181 -67 172 -97T143 -153T88 -194T-3 -210Z" />
<glyph unicode="~" horiz-adv-x="473" d="M386 541Q370 541 355 552T326 577T297 603T271 614Q243 614 217 599T161 564L159 572Q188 595 216 612T274 630Q289 630 304 619T333 594T362 568T388 557Q408 557 428 566T466 588T497 610L502 603Q473 578 446 560T386 541Z" />
<glyph unicode="&#xa0;" horiz-adv-x="234" />
<glyph unicode="&#xa1;" horiz-adv-x="260" d="M193 335L112 -200H88L177 335H193ZM223 531Q233 531 233 521Q233 520 233 520T233 519L223 457Q222 445 209 445H198Q188 445 188 454Q188 455 188 455T188 457L198 519Q199 525 203 528T212 531H223Z" />
<glyph unicode="&#xa2;" horiz-adv-x="488" d="M239 -82L251 -5Q206 -5 169 8T109 59T87 164Q87 236 105 303T156 422T236 505T337 536L350 618H368L355 535Q390 533 432 526T508 510L506 496Q465 504 424 509T335 514Q285 514 244 486T173 408T127 296T111 164Q111
104 128 72T177 29T250 17Q288 17 317 20T376 28T440 40L438 24Q386 10 350 5T269 -4L257 -82H239Z" />
<glyph unicode="&#xa3;" horiz-adv-x="609" d="M68 0L71 16L193 22L245 348L124 351L126 367L249 370L275 535Q288 618 319 660T396 717T494 732Q529 732 566 730T629 726L626 710H492Q439 710 400 697T336 647T299 535L273 370L512 367L510 351L269 348L217 22H535L532
0H68Z" />
<glyph unicode="&#xa4;" horiz-adv-x="609" d="M339 201Q301 201 271 219T223 267T205 335Q205 387 228 426T292 488T383 511Q422 511 452 493T500 445T518 377Q518 326 494 286T430 224T339 201ZM127 139L112 156L237 264L252 247L127 139ZM527 139L437 245L457
262L546 156L527 139ZM340 225Q383 225 417 242T473 294T494 376Q494 423 463 455T382 487Q340 487 306 468T251 415T230 336Q230 290 261 258T340 225ZM263 452L176 556L195 573L283 469L263 452ZM487 450L473 467L595 573L610 556L487 450Z" />
<glyph unicode="&#xa5;" horiz-adv-x="609" d="M90 260L94 284H543L539 260H90ZM72 144L76 168H525L521 144H72ZM262 0L303 260L135 732H162L318 292L636 732H665L327 260L286 0H262Z" />
<glyph unicode="&#xa6;" horiz-adv-x="254" d="M183 429L237 770H261L207 429H183ZM104 -72L156 256H180L128 -72H104Z" />
<glyph unicode="&#xa7;" horiz-adv-x="559" d="M316 -6Q300 -6 271 -6T210 -4T150 -2T111 0L114 16H320Q381 16 413 28T460 62T478 110Q486 158 489 180T493 212Q493 238 473 246T393 255H244Q177 255 148 273T118 328Q118 334 119 343T122 367L130 415Q138 465
158 483T209 506Q184 514 176 530T167 568Q167 574 167 581T169 599L179 660Q187 709 208 736T264 773T348 784Q365 784 396 784T463 783T528 781T571 778L569 762H345Q307 762 278 755T230 726T203 660Q196 617 193 598T190 571Q190 537 215 528T286 518H455Q518
518 541 503T564 450Q564 434 561 416L551 354Q544 308 528 290T476 267Q501 260 509 247T517 215Q517 207 516 197T511 163L502 110Q496 67 473 42T410 5T316 -6ZM248 277H397Q451 277 476 281T512 302T527 354L537 416Q539 424 539 431T540 444Q540 476 521 486T452
496H283Q216 496 189 480T154 414L144 353Q143 348 143 344T142 334Q142 307 164 292T248 277Z" />
<glyph unicode="&#xa8;" horiz-adv-x="424" d="M399 666Q389 666 389 676Q389 677 389 679T392 695T399 740Q401 752 414 752H425Q435 752 435 743Q435 743 435 740T432 723T424 678Q423 666 410 666H399ZM191 666Q181 666 181 676Q181 677 181 679T184 695T191
740Q193 752 206 752H217Q227 752 227 743Q227 743 227 740T224 723T216 678Q215 666 202 666H191Z" />
<glyph unicode="&#xa9;" horiz-adv-x="864" d="M315 0Q260 0 223 25T164 91T133 181T123 279Q123 349 140 415T188 539T258 639T342 707T431 732H687Q752 732 790 699T844 611T861 495Q861 398 837 310T772 151T679 41T571 0H315ZM417 147Q385 147 359 158T317
200T301 285Q301 350 316 404T357 499T417 561T486 583Q507 583 537 581T601 575T662 566L660 557Q630 562 595 564T531 568T484 569Q450 569 420 546T366 482T330 391T317 287Q317 226 340 194T419 161Q473 161 521 165T606 177L605 168Q555 155 511 151T417 147ZM317
14H573Q627 14 675 54T762 161T823 315T845 492Q845 558 829 609T778 689T685 718H429Q380 718 329 684T235 589T166 449T139 279Q139 229 147 182T176 96T231 36T317 14Z" />
<glyph unicode="&#xaa;" horiz-adv-x="406" d="M100 271L103 291H415L412 271H100ZM238 356Q185 356 149 386T112 486Q112 503 114 522T120 558Q136 661 181 708T320 756Q353 756 394 747T462 715L406 360H390L391 403Q380 396 355 385T298 365T238 356ZM239 375Q283
375 319 388T393 418L439 709Q424 717 393 727T319 737Q260 737 225 718T171 658T141 551Q134 512 134 488Q134 429 163 402T239 375Z" />
<glyph unicode="&#xab;" horiz-adv-x="604" d="M278 70L101 278L339 481L353 465L131 276L295 85L278 70ZM528 70L351 278L589 481L603 465L381 276L545 85L528 70Z" />
<glyph unicode="&#xac;" horiz-adv-x="609" d="M540 224L582 488H606L564 224H540ZM154 464L158 488H606L602 464H154Z" />
<glyph unicode="&#xad;" horiz-adv-x="331" d="M68 278L72 302H356L352 278H68Z" />
<glyph unicode="&#xae;" horiz-adv-x="864" d="M315 0Q260 0 223 25T164 91T133 181T123 279Q123 349 140 415T188 539T258 639T342 707T431 732H687Q752 732 790 699T844 611T861 495Q861 398 837 310T772 151T679 41T571 0H315ZM309 153L377 580H554Q583 580
607 573T646 547T661 490Q661 452 644 420T598 369T530 346L610 153H597L517 345L354 350L323 153H309ZM317 14H573Q627 14 675 54T762 161T823 315T845 492Q845 558 829 609T778 689T685 718H429Q380 718 329 684T235 589T166 449T139 279Q139 229 147 182T176
96T231 36T317 14ZM356 359H524Q560 359 587 377T631 424T647 486Q647 531 623 548T558 566H389L356 359Z" />
<glyph unicode="&#xaf;" horiz-adv-x="387" d="M177 691L180 706H432L429 691H177Z" />
<glyph unicode="&#xb0;" horiz-adv-x="338" d="M251 510Q204 510 175 538T146 610Q146 654 164 686T215 737T290 755Q337 755 364 727T392 654Q392 610 374 578T324 528T251 510ZM253 524Q308 524 343 560T378 652Q378 691 354 716T287 741Q232 741 196 704T160
613Q160 574 185 549T253 524Z" />
<glyph unicode="&#xb1;" horiz-adv-x="609" d="M103 144L107 168H555L551 144H103ZM338 282L408 730H432L362 282H338ZM159 494L163 518H611L607 494H159Z" />
<glyph unicode="&#xb2;" horiz-adv-x="421" d="M108 355L110 374L335 554Q403 609 428 656T453 750Q453 783 429 804T335 826H204L206 841Q236 843 273 844T345 846Q417 846 446 820T475 753Q475 704 449 652T351 542L146 376H437L434 355H108Z" />
<glyph unicode="&#xb3;" horiz-adv-x="421" d="M272 351Q219 351 174 352T99 356L102 371H272Q302 371 329 378T376 406T401 464L408 504Q409 509 409 512T410 520Q410 546 396 561T362 582T321 589L190 594L193 608L324 612Q365 614 394 631T430 690L437 734Q438
739 438 743T438 752Q438 787 413 806T338 826H194L197 841Q223 843 260 844T348 846Q407 846 434 821T461 757Q461 752 461 747T459 735L452 690Q447 656 429 637T391 610T360 601Q371 599 388 591T419 566T433 521Q433 517 433 513T431 503L424 463Q416 408 377
380T272 351Z" />
<glyph unicode="&#xb4;" horiz-adv-x="201" d="M127 631L269 764H295L141 631H127Z" />
<glyph unicode="&#xb5;" horiz-adv-x="582" d="M254 -6Q217 -6 191 4T148 32T123 75T115 130Q115 142 116 154T119 179L175 532H199L140 159Q139 149 138 139T137 120Q137 60 172 38T264 16Q326 16 374 31T483 76L555 532H579L495 0H481V62Q433 34 374 14T254
-6ZM49 -268L126 219H150L73 -268H49Z" />
<glyph unicode="&#xb6;" horiz-adv-x="572" d="M251 -270L345 325Q337 320 313 318T260 315Q187 315 152 351T116 441Q116 448 116 455T118 469L138 592Q146 640 175 671T244 717T326 732H661L657 706H568L456 0H432L544 708H430L275 -270H251ZM264 339H348L406
708H322Q254 708 212 674T161 590L143 471Q142 464 141 458T140 445Q140 398 159 376T207 346T264 339Z" />
<glyph unicode="&#xb7;" horiz-adv-x="281" d="M149 364Q144 364 141 367T139 376L141 388Q143 400 155 400H167Q178 400 176 388L174 376Q173 370 170 367T161 364H149Z" />
<glyph unicode="&#xb8;" horiz-adv-x="267" d="M39 -183L41 -173L67 -171Q93 -169 109 -158T134 -132T143 -108Q143 -91 128 -80T67 -68L83 -58Q125 -58 141 -70T158 -105Q158 -119 147 -137T114 -169T59 -183H39ZM67 -68L133 10H147L81 -68H67Z" />
<glyph unicode="&#xb9;" horiz-adv-x="421" d="M262 355L336 824L204 785L207 800L341 847H362L284 355H262ZM129 355L132 375H420L417 355H129Z" />
<glyph unicode="&#xba;" horiz-adv-x="435" d="M100 271L103 291H415L412 271H100ZM254 356Q214 356 182 367T132 407T114 486Q114 502 115 519T120 556Q133 634 156 677T218 738T318 756Q368 756 398 741T443 696T458 622Q458 605 456 586T451 545Q440 473 417
432T355 374T254 356ZM258 375Q307 375 340 388T395 439T429 550Q432 571 433 589T435 622Q435 684 408 710T313 737Q262 737 229 722T175 667T141 550Q139 531 138 516T136 486Q136 440 151 416T195 384T258 375Z" />
<glyph unicode="&#xbb;" horiz-adv-x="604" d="M80 70L67 86L288 274L124 468L141 481L318 273L80 70ZM330 70L317 86L538 274L374 468L391 481L568 273L330 70Z" />
<glyph unicode="&#xbc;" horiz-adv-x="1145" d="M347 0L855 770H875L367 0H347ZM1006 1L1029 138H783L778 156L1036 487H1061L805 158H1031L1056 312L1068 350H1084L1053 158H1133L1131 143L1051 138L1028 1H1006ZM272 355L346 824L214 785L217 800L351 847H372L294
355H272ZM139 355L142 375H430L427 355H139Z" />
<glyph unicode="&#xbd;" horiz-adv-x="1145" d="M347 0L855 770H875L367 0H347ZM753 0L755 19L980 199Q1048 254 1073 301T1098 395Q1098 428 1074 449T980 471H849L851 486Q881 488 918 489T990 491Q1062 491 1091 465T1120 398Q1120 349 1094 297T996 187L791
21H1082L1079 0H753ZM272 355L346 824L214 785L217 800L351 847H372L294 355H272ZM139 355L142 375H430L427 355H139Z" />
<glyph unicode="&#xbe;" horiz-adv-x="1145" d="M347 0L855 770H875L367 0H347ZM1006 1L1029 138H783L778 156L1036 487H1061L805 158H1031L1056 312L1068 350H1084L1053 158H1133L1131 143L1051 138L1028 1H1006ZM282 351Q229 351 184 352T109 356L112 371H282Q312
371 339 378T386 406T411 464L418 504Q419 509 419 512T420 520Q420 546 406 561T372 582T331 589L200 594L203 608L334 612Q375 614 404 631T440 690L447 734Q448 739 448 743T448 752Q448 787 423 806T348 826H204L207 841Q233 843 270 844T358 846Q417 846 444
821T471 757Q471 752 471 747T469 735L462 690Q457 656 439 637T401 610T370 601Q381 599 398 591T429 566T443 521Q443 517 443 513T441 503L434 463Q426 408 387 380T282 351Z" />
<glyph unicode="&#xbf;" horiz-adv-x="532" d="M380 336L360 210H325Q255 210 211 197T144 153T111 68L98 -13Q95 -29 94 -43T93 -71Q93 -133 125 -159T226 -186Q282 -186 332 -176T444 -144L442 -158Q378 -188 322 -198T216 -208Q134 -208 101 -174T68 -77Q68
-47 74 -13L87 68Q101 153 159 193T342 234L358 336H380ZM402 531Q412 531 412 521Q412 520 412 520T412 519L402 457Q401 445 388 445H377Q367 445 367 454Q367 455 367 455T367 457L377 519Q378 525 382 528T391 531H402Z" />
<glyph unicode="&#xc0;" horiz-adv-x="660" d="M45 0L435 732H469L615 0H590L539 254H206L70 0H45ZM218 276H535L448 706L218 276ZM468 791L356 924H382L482 791H468Z" />
<glyph unicode="&#xc1;" horiz-adv-x="660" d="M45 0L435 732H469L615 0H590L539 254H206L70 0H45ZM218 276H535L448 706L218 276ZM435 791L577 924H603L449 791H435Z" />
<glyph unicode="&#xc2;" horiz-adv-x="660" d="M45 0L435 732H469L615 0H590L539 254H206L70 0H45ZM218 276H535L448 706L218 276ZM309 791L462 921H482L581 791H563L469 906L327 791H309Z" />
<glyph unicode="&#xc3;" horiz-adv-x="660" d="M45 0L435 732H469L615 0H590L539 254H206L70 0H45ZM218 276H535L448 706L218 276ZM315 821Q323 871 354 890T417 910Q440 910 459 899T496 874T532 848T572 837Q603 837 626 855T655 910H669Q663 871 637 846T568
821Q546 821 528 832T492 857T455 883T412 894Q384 894 360 878T329 821H315Z" />
<glyph unicode="&#xc4;" horiz-adv-x="660" d="M45 0L435 732H469L615 0H590L539 254H206L70 0H45ZM218 276H535L448 706L218 276ZM537 826Q527 826 527 836Q527 837 527 839T530 855T537 900Q539 912 552 912H563Q573 912 573 903Q573 903 573 900T570 883T562
838Q561 826 548 826H537ZM329 826Q319 826 319 836Q319 837 319 839T322 855T329 900Q331 912 344 912H355Q365 912 365 903Q365 903 365 900T362 883T354 838Q353 826 340 826H329Z" />
<glyph unicode="&#xc5;" horiz-adv-x="660" d="M45 0L435 732H469L615 0H590L539 254H206L70 0H45ZM218 276H535L448 706L218 276ZM456 780Q421 780 394 798T366 863Q366 895 380 922T421 967T487 985Q520 985 546 967T573 903Q573 854 544 817T456 780ZM456 796Q509
796 533 827T557 901Q557 941 535 955T486 969Q433 969 408 938T382 863Q382 824 405 810T456 796Z" />
<glyph unicode="&#xc6;" horiz-adv-x="896" d="M622 -3Q598 -4 573 -1T529 15T500 53T497 121L518 252H259L60 0H30L499 590Q539 640 568 671T631 718T720 732Q787 731 853 730T986 726L983 710H716Q673 710 650 702T617 679T604 642T596 592L561 374L890 371L887
355L558 352L521 123Q514 77 527 55T565 26T617 19H874L871 3Q846 2 821 2T772 1T722 0T672 -1T622 -3ZM277 274H521L583 661L277 274Z" />
<glyph unicode="&#xc7;" horiz-adv-x="589" d="M302 -6Q202 -6 158 48T114 210Q114 250 119 295T130 376Q148 491 183 572T275 695T418 738Q488 738 539 731T632 716L628 700Q577 708 528 712T416 716Q359 716 317 695T243 630T191 520T154 366Q148 331 144 288T139
211Q139 108 177 62T307 16Q386 16 433 19T521 30L518 14Q470 4 413 -1T302 -6ZM221 -193L223 -183L249 -181Q275 -179 291 -168T316 -142T325 -118Q325 -101 310 -90T249 -78L265 -68Q307 -68 323 -80T340 -115Q340 -129 329 -147T296 -179T241 -193H221ZM249
-78L315 0H329L263 -78H249Z" />
<glyph unicode="&#xc8;" horiz-adv-x="565" d="M216 -6Q191 -6 168 -1T127 18T101 59T100 128L176 607Q184 656 206 683T259 722T322 732Q396 731 470 730T619 726L616 710H319Q273 710 241 687T199 602L163 375L522 369L519 353L159 351L124 123Q117 77 128 54T164
24T220 16H508L505 0Q433 -1 361 -2T216 -6ZM438 791L326 924H352L452 791H438Z" />
<glyph unicode="&#xc9;" horiz-adv-x="565" d="M216 -6Q191 -6 168 -1T127 18T101 59T100 128L176 607Q184 656 206 683T259 722T322 732Q396 731 470 730T619 726L616 710H319Q273 710 241 687T199 602L163 375L522 369L519 353L159 351L124 123Q117 77 128 54T164
24T220 16H508L505 0Q433 -1 361 -2T216 -6ZM405 791L547 924H573L419 791H405Z" />
<glyph unicode="&#xca;" horiz-adv-x="565" d="M216 -6Q191 -6 168 -1T127 18T101 59T100 128L176 607Q184 656 206 683T259 722T322 732Q396 731 470 730T619 726L616 710H319Q273 710 241 687T199 602L163 375L522 369L519 353L159 351L124 123Q117 77 128 54T164
24T220 16H508L505 0Q433 -1 361 -2T216 -6ZM279 791L432 921H452L551 791H533L439 906L297 791H279Z" />
<glyph unicode="&#xcb;" horiz-adv-x="565" d="M216 -6Q191 -6 168 -1T127 18T101 59T100 128L176 607Q184 656 206 683T259 722T322 732Q396 731 470 730T619 726L616 710H319Q273 710 241 687T199 602L163 375L522 369L519 353L159 351L124 123Q117 77 128 54T164
24T220 16H508L505 0Q433 -1 361 -2T216 -6ZM507 826Q497 826 497 836Q497 837 497 839T500 855T507 900Q509 912 522 912H533Q543 912 543 903Q543 903 543 900T540 883T532 838Q531 826 518 826H507ZM299 826Q289 826 289 836Q289 837 289 839T292 855T299 900Q301
912 314 912H325Q335 912 335 903Q335 903 335 900T332 883T324 838Q323 826 310 826H299Z" />
<glyph unicode="&#xcc;" horiz-adv-x="184" d="M80 0L196 732H220L104 0H80ZM229 791L117 924H143L243 791H229Z" />
<glyph unicode="&#xcd;" horiz-adv-x="184" d="M80 0L196 732H220L104 0H80ZM196 791L338 924H364L210 791H196Z" />
<glyph unicode="&#xce;" horiz-adv-x="184" d="M80 0L196 732H220L104 0H80ZM70 791L223 921H243L342 791H324L230 906L88 791H70Z" />
<glyph unicode="&#xcf;" horiz-adv-x="184" d="M80 0L196 732H220L104 0H80ZM298 826Q288 826 288 836Q288 837 288 839T291 855T298 900Q300 912 313 912H324Q334 912 334 903Q334 903 334 900T331 883T323 838Q322 826 309 826H298ZM90 826Q80 826 80 836Q80
837 80 839T83 855T90 900Q92 912 105 912H116Q126 912 126 903Q126 903 126 900T123 883T115 838Q114 826 101 826H90Z" />
<glyph unicode="&#xd0;" horiz-adv-x="663" d="M62 362L66 384H390L386 362H62ZM80 0L196 732H448Q528 732 574 704T641 619T661 478Q661 447 658 416T649 355Q638 283 615 219T555 106T465 28T339 0H80ZM107 22H338Q406 22 455 49T539 125T595 234T626 364Q631
396 634 426T637 481Q637 555 621 606T562 683T443 710H216L107 22Z" />
<glyph unicode="&#xd1;" horiz-adv-x="649" d="M80 0L196 732H218L551 41L661 732H685L569 0H547L214 692L104 0H80ZM305 821Q313 871 344 890T407 910Q430 910 449 899T486 874T522 848T562 837Q593 837 616 855T645 910H659Q653 871 627 846T558 821Q536 821
518 832T482 857T445 883T402 894Q374 894 350 878T319 821H305Z" />
<glyph unicode="&#xd2;" horiz-adv-x="678" d="M336 -6Q282 -6 241 2T171 33T127 95T112 199Q112 234 116 275T128 368Q146 482 173 555T240 667T333 722T457 738Q509 738 550 729T621 695T665 630T680 524Q680 490 676 448T664 354Q646 240 618 169T550 60T457
8T336 -6ZM342 16Q406 16 454 29T537 77T597 181T640 361Q648 411 651 451T655 525Q655 606 631 647T561 702T452 716Q389 716 341 702T257 651T196 543T152 361Q145 312 141 272T136 199Q136 122 158 83T226 30T342 16ZM480 791L368 924H394L494 791H480Z" />
<glyph unicode="&#xd3;" horiz-adv-x="678" d="M336 -6Q282 -6 241 2T171 33T127 95T112 199Q112 234 116 275T128 368Q146 482 173 555T240 667T333 722T457 738Q509 738 550 729T621 695T665 630T680 524Q680 490 676 448T664 354Q646 240 618 169T550 60T457
8T336 -6ZM342 16Q406 16 454 29T537 77T597 181T640 361Q648 411 651 451T655 525Q655 606 631 647T561 702T452 716Q389 716 341 702T257 651T196 543T152 361Q145 312 141 272T136 199Q136 122 158 83T226 30T342 16ZM447 791L589 924H615L461 791H447Z" />
<glyph unicode="&#xd4;" horiz-adv-x="678" d="M336 -6Q282 -6 241 2T171 33T127 95T112 199Q112 234 116 275T128 368Q146 482 173 555T240 667T333 722T457 738Q509 738 550 729T621 695T665 630T680 524Q680 490 676 448T664 354Q646 240 618 169T550 60T457
8T336 -6ZM342 16Q406 16 454 29T537 77T597 181T640 361Q648 411 651 451T655 525Q655 606 631 647T561 702T452 716Q389 716 341 702T257 651T196 543T152 361Q145 312 141 272T136 199Q136 122 158 83T226 30T342 16ZM321 791L474 921H494L593 791H575L481 906L339
791H321Z" />
<glyph unicode="&#xd5;" horiz-adv-x="678" d="M336 -6Q282 -6 241 2T171 33T127 95T112 199Q112 234 116 275T128 368Q146 482 173 555T240 667T333 722T457 738Q509 738 550 729T621 695T665 630T680 524Q680 490 676 448T664 354Q646 240 618 169T550 60T457
8T336 -6ZM342 16Q406 16 454 29T537 77T597 181T640 361Q648 411 651 451T655 525Q655 606 631 647T561 702T452 716Q389 716 341 702T257 651T196 543T152 361Q145 312 141 272T136 199Q136 122 158 83T226 30T342 16ZM327 821Q335 871 366 890T429 910Q452 910
471 899T508 874T544 848T584 837Q615 837 638 855T667 910H681Q675 871 649 846T580 821Q558 821 540 832T504 857T467 883T424 894Q396 894 372 878T341 821H327Z" />
<glyph unicode="&#xd6;" horiz-adv-x="678" d="M336 -6Q282 -6 241 2T171 33T127 95T112 199Q112 234 116 275T128 368Q146 482 173 555T240 667T333 722T457 738Q509 738 550 729T621 695T665 630T680 524Q680 490 676 448T664 354Q646 240 618 169T550 60T457
8T336 -6ZM342 16Q406 16 454 29T537 77T597 181T640 361Q648 411 651 451T655 525Q655 606 631 647T561 702T452 716Q389 716 341 702T257 651T196 543T152 361Q145 312 141 272T136 199Q136 122 158 83T226 30T342 16ZM549 826Q539 826 539 836Q539 837 539 839T542
855T549 900Q551 912 564 912H575Q585 912 585 903Q585 903 585 900T582 883T574 838Q573 826 560 826H549ZM341 826Q331 826 331 836Q331 837 331 839T334 855T341 900Q343 912 356 912H367Q377 912 377 903Q377 903 377 900T374 883T366 838Q365 826 352 826H341Z"
/>
<glyph unicode="&#xd7;" horiz-adv-x="609" d="M185 189L170 206L537 523L552 506L185 189ZM485 189L218 506L237 523L504 206L485 189Z" />
<glyph unicode="&#xd8;" horiz-adv-x="678" d="M65 0L704 732H729L90 0H65ZM336 -6Q282 -6 241 2T171 33T127 95T112 199Q112 234 116 275T128 368Q146 482 173 555T240 667T333 722T457 738Q509 738 550 729T621 695T665 630T680 524Q680 490 676 448T664 354Q646
240 618 169T550 60T457 8T336 -6ZM342 16Q406 16 454 29T537 77T597 181T640 361Q648 411 651 451T655 525Q655 606 631 647T561 702T452 716Q389 716 341 702T257 651T196 543T152 361Q145 312 141 272T136 199Q136 122 158 83T226 30T342 16Z" />
<glyph unicode="&#xd9;" horiz-adv-x="667" d="M333 -6Q230 -6 175 36T119 186Q119 212 122 248T131 320L196 732H220L155 320Q149 283 146 247T142 185Q142 88 191 52T331 16Q387 16 432 26T512 67T572 158T614 320L679 732H703L638 320Q621 214 593 149T527
51T440 6T333 -6ZM458 791L346 924H372L472 791H458Z" />
<glyph unicode="&#xda;" horiz-adv-x="667" d="M333 -6Q230 -6 175 36T119 186Q119 212 122 248T131 320L196 732H220L155 320Q149 283 146 247T142 185Q142 88 191 52T331 16Q387 16 432 26T512 67T572 158T614 320L679 732H703L638 320Q621 214 593 149T527
51T440 6T333 -6ZM425 791L567 924H593L439 791H425Z" />
<glyph unicode="&#xdb;" horiz-adv-x="667" d="M333 -6Q230 -6 175 36T119 186Q119 212 122 248T131 320L196 732H220L155 320Q149 283 146 247T142 185Q142 88 191 52T331 16Q387 16 432 26T512 67T572 158T614 320L679 732H703L638 320Q621 214 593 149T527
51T440 6T333 -6ZM299 791L452 921H472L571 791H553L459 906L317 791H299Z" />
<glyph unicode="&#xdc;" horiz-adv-x="667" d="M333 -6Q230 -6 175 36T119 186Q119 212 122 248T131 320L196 732H220L155 320Q149 283 146 247T142 185Q142 88 191 52T331 16Q387 16 432 26T512 67T572 158T614 320L679 732H703L638 320Q621 214 593 149T527
51T440 6T333 -6ZM527 826Q517 826 517 836Q517 837 517 839T520 855T527 900Q529 912 542 912H553Q563 912 563 903Q563 903 563 900T560 883T552 838Q551 826 538 826H527ZM319 826Q309 826 309 836Q309 837 309 839T312 855T319 900Q321 912 334 912H345Q355
912 355 903Q355 903 355 900T352 883T344 838Q343 826 330 826H319Z" />
<glyph unicode="&#xdd;" horiz-adv-x="590" d="M273 0L314 260L146 732H173L329 292L647 732H676L338 260L297 0H273ZM383 791L525 924H551L397 791H383Z" />
<glyph unicode="&#xde;" horiz-adv-x="535" d="M80 0L196 732H218L104 0H80ZM303 183Q260 183 217 184T125 188L129 205H305Q349 205 389 218T460 268T501 372Q503 387 505 405T507 436Q507 504 470 532T368 560H183L184 582H372Q417 582 453 569T510 524T531
437Q531 425 529 406T525 372Q516 313 493 276T439 218T373 191T303 183Z" />
<glyph unicode="&#xdf;" horiz-adv-x="566" d="M382 -6Q331 -6 284 -2T211 7L213 21Q242 20 288 18T386 16Q438 16 466 34T508 77T524 122Q527 140 528 152T530 174Q530 203 511 219T464 246T408 269T361 300T342 354Q342 385 360 411T407 463T462 513T508 567T527
631Q527 686 492 716T396 747Q311 747 261 706T195 566L105 0H81L171 566Q182 636 210 681T285 747T398 769Q452 769 485 751T535 701T551 632Q551 594 533 563T487 505T431 454T385 406T366 354Q366 325 385 310T432 284T488 263T535 231T554 174Q554 169 554
159T548 122Q542 91 528 67T493 27T443 2T382 -6Z" />
<glyph unicode="&#xe0;" horiz-adv-x="559" d="M259 -6Q212 -6 174 12T114 69T92 171Q92 194 95 220T102 268Q116 361 147 420T232 508T369 537Q398 537 432 532T499 515T555 481L479 0H463L465 59Q451 50 417 35T340 7T259 -6ZM258 16Q318 16 367 34T467 75L530
476Q510 488 468 501T367 515Q287 515 239 489T165 406T125 258Q121 230 119 210T116 172Q116 90 156 53T258 16ZM402 631L290 764H316L416 631H402Z" />
<glyph unicode="&#xe1;" horiz-adv-x="559" d="M259 -6Q212 -6 174 12T114 69T92 171Q92 194 95 220T102 268Q116 361 147 420T232 508T369 537Q398 537 432 532T499 515T555 481L479 0H463L465 59Q451 50 417 35T340 7T259 -6ZM258 16Q318 16 367 34T467 75L530
476Q510 488 468 501T367 515Q287 515 239 489T165 406T125 258Q121 230 119 210T116 172Q116 90 156 53T258 16ZM369 631L511 764H537L383 631H369Z" />
<glyph unicode="&#xe2;" horiz-adv-x="559" d="M259 -6Q212 -6 174 12T114 69T92 171Q92 194 95 220T102 268Q116 361 147 420T232 508T369 537Q398 537 432 532T499 515T555 481L479 0H463L465 59Q451 50 417 35T340 7T259 -6ZM258 16Q318 16 367 34T467 75L530
476Q510 488 468 501T367 515Q287 515 239 489T165 406T125 258Q121 230 119 210T116 172Q116 90 156 53T258 16ZM253 631L406 761H426L525 631H507L413 746L271 631H253Z" />
<glyph unicode="&#xe3;" horiz-adv-x="559" d="M259 -6Q212 -6 174 12T114 69T92 171Q92 194 95 220T102 268Q116 361 147 420T232 508T369 537Q398 537 432 532T499 515T555 481L479 0H463L465 59Q451 50 417 35T340 7T259 -6ZM258 16Q318 16 367 34T467 75L530
476Q510 488 468 501T367 515Q287 515 239 489T165 406T125 258Q121 230 119 210T116 172Q116 90 156 53T258 16ZM239 661Q247 711 278 730T341 750Q364 750 383 739T420 714T456 688T496 677Q527 677 550 695T579 750H593Q587 711 561 686T492 661Q470 661 452
672T416 697T379 723T336 734Q308 734 284 718T253 661H239Z" />
<glyph unicode="&#xe4;" horiz-adv-x="559" d="M259 -6Q212 -6 174 12T114 69T92 171Q92 194 95 220T102 268Q116 361 147 420T232 508T369 537Q398 537 432 532T499 515T555 481L479 0H463L465 59Q451 50 417 35T340 7T259 -6ZM258 16Q318 16 367 34T467 75L530
476Q510 488 468 501T367 515Q287 515 239 489T165 406T125 258Q121 230 119 210T116 172Q116 90 156 53T258 16ZM471 666Q461 666 461 676Q461 677 461 679T464 695T471 740Q473 752 486 752H497Q507 752 507 743Q507 743 507 740T504 723T496 678Q495 666 482
666H471ZM263 666Q253 666 253 676Q253 677 253 679T256 695T263 740Q265 752 278 752H289Q299 752 299 743Q299 743 299 740T296 723T288 678Q287 666 274 666H263Z" />
<glyph unicode="&#xe5;" horiz-adv-x="559" d="M259 -6Q212 -6 174 12T114 69T92 171Q92 194 95 220T102 268Q116 361 147 420T232 508T369 537Q398 537 432 532T499 515T555 481L479 0H463L465 59Q451 50 417 35T340 7T259 -6ZM258 16Q318 16 367 34T467 75L530
476Q510 488 468 501T367 515Q287 515 239 489T165 406T125 258Q121 230 119 210T116 172Q116 90 156 53T258 16ZM390 600Q355 600 328 618T300 683Q300 715 314 742T355 787T421 805Q454 805 480 787T507 723Q507 674 478 637T390 600ZM390 616Q443 616 467 647T491
721Q491 761 469 775T420 789Q367 789 342 758T316 683Q316 644 339 630T390 616Z" />
<glyph unicode="&#xe6;" horiz-adv-x="915" d="M252 -6Q205 -6 170 12T115 69T95 171Q95 236 107 300T150 418T234 504T371 537Q400 537 435 531T502 512T556 481Q573 496 592 507T635 526T684 537T739 541Q826 541 871 504T917 395Q917 349 887 313T803 257T674
236Q632 236 593 239T527 247T490 255Q487 226 487 212T486 177Q486 125 498 90T541 35T628 16H840L837 0Q806 -2 772 -3T702 -5T631 -6Q586 -6 554 6T501 41T472 92Q453 74 418 51T339 11T252 -6ZM244 16Q287 16 329 30T407 67T468 112Q465 124 464 138T462 167Q462
213 469 267T495 374T544 468Q519 482 473 498T370 515Q293 515 244 484T167 401T130 291T119 174Q119 98 149 57T244 16ZM657 258Q762 258 827 290T892 392Q892 451 855 485T746 519Q676 519 631 503T559 454T518 376T492 269Q492 269 515 267T576 261T657 258Z"
/>
<glyph unicode="&#xe7;" horiz-adv-x="485" d="M275 -6Q222 -6 181 9T117 64T93 180Q93 199 96 222T103 273Q118 368 151 426T234 510T349 537Q384 537 431 535T516 531L512 515H347Q294 515 250 494T174 419T126 262Q122 238 120 218T117 180Q117 113 135 78T190
29T279 16H447L445 0Q414 -2 371 -4T275 -6ZM153 63L155 73L181 75Q207 77 223 88T248 114T257 138Q257 155 242 166T181 178L197 188Q239 188 255 176T272 141Q272 127 261 109T228 77T173 63H153ZM181 178L247 256H261L195 178H181Z" />
<glyph unicode="&#xe8;" horiz-adv-x="548" d="M315 -6Q239 -6 190 13T118 72T95 171Q95 203 98 233T106 291Q117 367 147 423T231 510T370 541Q414 541 447 534T503 510T538 468T550 406Q550 355 528 322T468 270T383 244T287 236Q232 236 188 242T124 254Q121
234 120 214T119 173Q119 91 164 54T317 16H471L468 0Q443 -1 401 -3T315 -6ZM269 258Q342 258 400 269T492 313T526 404Q526 468 487 493T368 519Q287 519 238 490T163 405T126 270Q153 265 191 262T269 258ZM400 631L288 764H314L414 631H400Z" />
<glyph unicode="&#xe9;" horiz-adv-x="548" d="M315 -6Q239 -6 190 13T118 72T95 171Q95 203 98 233T106 291Q117 367 147 423T231 510T370 541Q414 541 447 534T503 510T538 468T550 406Q550 355 528 322T468 270T383 244T287 236Q232 236 188 242T124 254Q121
234 120 214T119 173Q119 91 164 54T317 16H471L468 0Q443 -1 401 -3T315 -6ZM269 258Q342 258 400 269T492 313T526 404Q526 468 487 493T368 519Q287 519 238 490T163 405T126 270Q153 265 191 262T269 258ZM367 631L509 764H535L381 631H367Z" />
<glyph unicode="&#xea;" horiz-adv-x="548" d="M315 -6Q239 -6 190 13T118 72T95 171Q95 203 98 233T106 291Q117 367 147 423T231 510T370 541Q414 541 447 534T503 510T538 468T550 406Q550 355 528 322T468 270T383 244T287 236Q232 236 188 242T124 254Q121
234 120 214T119 173Q119 91 164 54T317 16H471L468 0Q443 -1 401 -3T315 -6ZM269 258Q342 258 400 269T492 313T526 404Q526 468 487 493T368 519Q287 519 238 490T163 405T126 270Q153 265 191 262T269 258ZM251 631L404 761H424L523 631H505L411 746L269 631H251Z"
/>
<glyph unicode="&#xeb;" horiz-adv-x="548" d="M315 -6Q239 -6 190 13T118 72T95 171Q95 203 98 233T106 291Q117 367 147 423T231 510T370 541Q414 541 447 534T503 510T538 468T550 406Q550 355 528 322T468 270T383 244T287 236Q232 236 188 242T124 254Q121
234 120 214T119 173Q119 91 164 54T317 16H471L468 0Q443 -1 401 -3T315 -6ZM269 258Q342 258 400 269T492 313T526 404Q526 468 487 493T368 519Q287 519 238 490T163 405T126 270Q153 265 191 262T269 258ZM469 666Q459 666 459 676Q459 677 459 679T462 695T469
740Q471 752 484 752H495Q505 752 505 743Q505 743 505 740T502 723T494 678Q493 666 480 666H469ZM261 666Q251 666 251 676Q251 677 251 679T254 695T261 740Q263 752 276 752H287Q297 752 297 743Q297 743 297 740T294 723T286 678Q285 666 272 666H261Z" />
<glyph unicode="&#xec;" horiz-adv-x="184" d="M80 0L164 531H188L104 0H80ZM470 631L358 764H384L484 631H470Z" />
<glyph unicode="&#xed;" horiz-adv-x="184" d="M80 0L164 531H188L104 0H80ZM181 631L323 764H349L195 631H181Z" />
<glyph unicode="&#xee;" horiz-adv-x="184" d="M80 0L164 531H188L104 0H80ZM321 631L474 761H494L593 631H575L481 746L339 631H321Z" />
<glyph unicode="&#xef;" horiz-adv-x="184" d="M80 0L164 531H188L104 0H80ZM283 666Q273 666 273 676Q273 677 273 679T276 695T283 740Q285 752 298 752H309Q319 752 319 743Q319 743 319 740T316 723T308 678Q307 666 294 666H283ZM75 666Q65 666 65 676Q65
677 65 679T68 695T75 740Q77 752 90 752H101Q111 752 111 743Q111 743 111 740T108 723T100 678Q99 666 86 666H75Z" />
<glyph unicode="&#xf0;" horiz-adv-x="560" d="M102 265Q115 345 135 397T187 480T261 524T365 537Q426 537 464 517T521 456T540 356Q540 333 542 309T542 266Q526 161 495 102T412 19T279 -6Q226 -6 184 10T118 64T94 170Q94 192 96 215T102 265ZM126 258Q122
233 120 211T118 170Q118 106 139 73T198 28T284 16Q333 16 371 25T437 61T485 136T517 264Q521 288 523 311T525 356Q525 442 486 478T360 515Q308 515 270 504T204 466T158 388T126 258ZM260 763Q346 762 413 729T518 624T556 440Q556 402 553 359T542 266L522
264Q529 312 532 355T535 435Q535 547 500 613T402 710T256 741L260 763ZM618 755L621 741L295 620L292 634L618 755Z" />
<glyph unicode="&#xf1;" horiz-adv-x="564" d="M80 0L164 531H180L178 469Q227 500 286 520T406 540Q459 540 489 523T533 476T546 411Q546 401 545 386T537 332L484 0H460L512 331Q518 370 520 384T522 409Q522 455 496 486T402 518Q336 518 286 502T176 453L104
0H80ZM241 661Q249 711 280 730T343 750Q366 750 385 739T422 714T458 688T498 677Q529 677 552 695T581 750H595Q589 711 563 686T494 661Q472 661 454 672T418 697T381 723T338 734Q310 734 286 718T255 661H241Z" />
<glyph unicode="&#xf2;" horiz-adv-x="560" d="M279 -6Q226 -6 184 10T118 64T94 170Q94 192 96 215T102 265Q115 345 135 397T187 480T261 524T365 537Q431 537 471 517T531 456T550 356Q550 333 547 307T540 251Q525 154 495 98T412 18T279 -6ZM284 16Q333 16
371 25T437 60T484 134T516 258Q521 287 523 311T525 356Q525 442 488 478T360 515Q308 515 270 504T204 466T158 388T126 258Q122 233 120 211T118 170Q118 106 139 73T198 28T284 16ZM396 631L284 764H310L410 631H396Z" />
<glyph unicode="&#xf3;" horiz-adv-x="560" d="M279 -6Q226 -6 184 10T118 64T94 170Q94 192 96 215T102 265Q115 345 135 397T187 480T261 524T365 537Q431 537 471 517T531 456T550 356Q550 333 547 307T540 251Q525 154 495 98T412 18T279 -6ZM284 16Q333 16
371 25T437 60T484 134T516 258Q521 287 523 311T525 356Q525 442 488 478T360 515Q308 515 270 504T204 466T158 388T126 258Q122 233 120 211T118 170Q118 106 139 73T198 28T284 16ZM363 631L505 764H531L377 631H363Z" />
<glyph unicode="&#xf4;" horiz-adv-x="560" d="M279 -6Q226 -6 184 10T118 64T94 170Q94 192 96 215T102 265Q115 345 135 397T187 480T261 524T365 537Q431 537 471 517T531 456T550 356Q550 333 547 307T540 251Q525 154 495 98T412 18T279 -6ZM284 16Q333 16
371 25T437 60T484 134T516 258Q521 287 523 311T525 356Q525 442 488 478T360 515Q308 515 270 504T204 466T158 388T126 258Q122 233 120 211T118 170Q118 106 139 73T198 28T284 16ZM247 631L400 761H420L519 631H501L407 746L265 631H247Z" />
<glyph unicode="&#xf5;" horiz-adv-x="560" d="M279 -6Q226 -6 184 10T118 64T94 170Q94 192 96 215T102 265Q115 345 135 397T187 480T261 524T365 537Q431 537 471 517T531 456T550 356Q550 333 547 307T540 251Q525 154 495 98T412 18T279 -6ZM284 16Q333 16
371 25T437 60T484 134T516 258Q521 287 523 311T525 356Q525 442 488 478T360 515Q308 515 270 504T204 466T158 388T126 258Q122 233 120 211T118 170Q118 106 139 73T198 28T284 16ZM233 661Q241 711 272 730T335 750Q358 750 377 739T414 714T450 688T490 677Q521
677 544 695T573 750H587Q581 711 555 686T486 661Q464 661 446 672T410 697T373 723T330 734Q302 734 278 718T247 661H233Z" />
<glyph unicode="&#xf6;" horiz-adv-x="560" d="M279 -6Q226 -6 184 10T118 64T94 170Q94 192 96 215T102 265Q115 345 135 397T187 480T261 524T365 537Q431 537 471 517T531 456T550 356Q550 333 547 307T540 251Q525 154 495 98T412 18T279 -6ZM284 16Q333 16
371 25T437 60T484 134T516 258Q521 287 523 311T525 356Q525 442 488 478T360 515Q308 515 270 504T204 466T158 388T126 258Q122 233 120 211T118 170Q118 106 139 73T198 28T284 16ZM465 666Q455 666 455 676Q455 677 455 679T458 695T465 740Q467 752 480 752H491Q501
752 501 743Q501 743 501 740T498 723T490 678Q489 666 476 666H465ZM257 666Q247 666 247 676Q247 677 247 679T250 695T257 740Q259 752 272 752H283Q293 752 293 743Q293 743 293 740T290 723T282 678Q281 666 268 666H257Z" />
<glyph unicode="&#xf7;" horiz-adv-x="609" d="M317 124Q294 124 297 147L301 174Q306 199 329 199H341Q367 199 362 174L358 147Q356 134 348 129T329 124H317ZM379 513Q369 513 363 519T359 536L363 563Q366 588 391 588H403Q427 588 424 563L420 536Q418 523
410 518T391 513H379ZM135 344L139 368H587L583 344H135Z" />
<glyph unicode="&#xf8;" horiz-adv-x="560" d="M70 0L552 531H574L92 0H70ZM279 -6Q226 -6 184 10T118 64T94 170Q94 192 96 215T102 265Q115 345 135 397T187 480T261 524T365 537Q431 537 471 517T531 456T550 356Q550 333 547 307T540 251Q525 154 495 98T412
18T279 -6ZM284 16Q333 16 371 25T437 60T484 134T516 258Q521 287 523 311T525 356Q525 442 488 478T360 515Q308 515 270 504T204 466T158 388T126 258Q122 233 120 211T118 170Q118 106 139 73T198 28T284 16Z" />
<glyph unicode="&#xf9;" horiz-adv-x="564" d="M243 -6Q173 -6 138 27T102 116Q102 131 103 144T106 167L164 531H188L130 162Q129 153 128 143T126 121Q126 72 153 44T246 16Q311 16 361 32T472 78L544 531H568L484 0H468L470 62Q438 43 404 28T330 3T243 -6ZM402
631L290 764H316L416 631H402Z" />
<glyph unicode="&#xfa;" horiz-adv-x="564" d="M243 -6Q173 -6 138 27T102 116Q102 131 103 144T106 167L164 531H188L130 162Q129 153 128 143T126 121Q126 72 153 44T246 16Q311 16 361 32T472 78L544 531H568L484 0H468L470 62Q438 43 404 28T330 3T243 -6ZM369
631L511 764H537L383 631H369Z" />
<glyph unicode="&#xfb;" horiz-adv-x="564" d="M243 -6Q173 -6 138 27T102 116Q102 131 103 144T106 167L164 531H188L130 162Q129 153 128 143T126 121Q126 72 153 44T246 16Q311 16 361 32T472 78L544 531H568L484 0H468L470 62Q438 43 404 28T330 3T243 -6ZM253
631L406 761H426L525 631H507L413 746L271 631H253Z" />
<glyph unicode="&#xfc;" horiz-adv-x="564" d="M243 -6Q173 -6 138 27T102 116Q102 131 103 144T106 167L164 531H188L130 162Q129 153 128 143T126 121Q126 72 153 44T246 16Q311 16 361 32T472 78L544 531H568L484 0H468L470 62Q438 43 404 28T330 3T243 -6ZM471
666Q461 666 461 676Q461 677 461 679T464 695T471 740Q473 752 486 752H497Q507 752 507 743Q507 743 507 740T504 723T496 678Q495 666 482 666H471ZM263 666Q253 666 253 676Q253 677 253 679T256 695T263 740Q265 752 278 752H289Q299 752 299 743Q299 743
299 740T296 723T288 678Q287 666 274 666H263Z" />
<glyph unicode="&#xfd;" horiz-adv-x="543" d="M97 -237V-215Q136 -205 189 -157T293 0Q274 3 253 9T215 38T187 110L104 531H128L210 116Q218 78 232 59T265 34T305 25L510 454Q518 471 527 494T538 539H554Q554 517 550 495T533 446L320 1Q281 -81 245 -130T172
-204T97 -237ZM329 631L471 764H497L343 631H329Z" />
<glyph unicode="&#xfe;" horiz-adv-x="560" d="M42 -237L201 763H225L188 531Q223 534 272 535T385 537Q463 537 507 495T551 361Q551 335 548 309T541 261Q529 182 502 122T424 28T293 -6Q241 -6 198 2T109 33L66 -237H42ZM294 16Q366 16 410 45T479 131T517
268Q520 287 523 311T527 360Q527 436 493 476T384 515L185 513L112 49Q150 37 177 30T230 19T294 16Z" />
<glyph unicode="&#xff;" horiz-adv-x="543" d="M97 -237V-215Q136 -205 189 -157T293 0Q274 3 253 9T215 38T187 110L104 531H128L210 116Q218 78 232 59T265 34T305 25L510 454Q518 471 527 494T538 539H554Q554 517 550 495T533 446L320 1Q281 -81 245 -130T172
-204T97 -237ZM431 666Q421 666 421 676Q421 677 421 679T424 695T431 740Q433 752 446 752H457Q467 752 467 743Q467 743 467 740T464 723T456 678Q455 666 442 666H431ZM223 666Q213 666 213 676Q213 677 213 679T216 695T223 740Q225 752 238 752H249Q259 752
259 743Q259 743 259 740T256 723T248 678Q247 666 234 666H223Z" />
<glyph unicode="&#x2013;" horiz-adv-x="527" d="M71 277L75 302H548L544 277H71Z" />
<glyph unicode="&#x2014;" horiz-adv-x="750" d="M71 277L75 302H771L767 277H71Z" />
<glyph unicode="&#x2018;" horiz-adv-x="155" d="M156 551Q149 551 149 561Q149 563 149 564T150 567L171 701Q174 718 179 726T191 737T202 740Q204 740 205 740T210 739L209 732Q199 732 194 728T187 713L176 646H183Q195 646 195 634Q195 633 195 632T195 630L185
567Q182 551 168 551H156Z" />
<glyph unicode="&#x2019;" horiz-adv-x="155" d="M157 551Q156 551 154 551T149 552L151 559Q161 559 166 563T173 578L183 645H176Q164 645 164 657Q164 659 164 659T165 661L175 724Q176 740 191 740H203Q210 740 210 730Q210 729 210 728T210 724L188 590Q186
573 180 565T168 554T157 551Z" />
<glyph unicode="&#x201a;" horiz-adv-x="155" d="M54 -100Q53 -100 51 -100T46 -99L47 -92Q57 -92 62 -88T69 -73L80 -6H73Q61 -6 61 6Q61 8 61 8T62 10L72 73Q73 89 88 89H100Q107 89 107 79Q107 78 107 77T107 73L85 -61Q83 -78 77 -86T65 -97T54 -100Z" />
<glyph unicode="&#x201c;" horiz-adv-x="235" d="M156 551Q149 551 149 561Q149 563 149 564T150 567L171 701Q174 718 179 726T191 737T202 740Q204 740 205 740T210 739L209 732Q199 732 194 728T187 713L176 646H183Q195 646 195 634Q195 633 195 632T195 630L185
567Q182 551 168 551H156ZM236 551Q229 551 229 561Q229 563 229 564T230 567L251 701Q254 718 259 726T271 737T282 740Q284 740 285 740T290 739L289 732Q279 732 274 728T267 713L256 646H263Q275 646 275 634Q275 633 275 632T275 630L265 567Q262 551 248
551H236Z" />
<glyph unicode="&#x201d;" horiz-adv-x="235" d="M157 551Q156 551 154 551T149 552L151 559Q161 559 166 563T173 578L183 645H176Q164 645 164 657Q164 659 164 659T165 661L175 724Q176 740 191 740H203Q210 740 210 730Q210 729 210 728T210 724L188 590Q186
573 180 565T168 554T157 551ZM237 551Q236 551 234 551T229 552L231 559Q241 559 246 563T253 578L263 645H256Q244 645 244 657Q244 659 244 659T245 661L255 724Q256 740 271 740H283Q290 740 290 730Q290 729 290 728T290 724L268 590Q266 573 260 565T248
554T237 551Z" />
<glyph unicode="&#x201e;" horiz-adv-x="235" d="M54 -100Q53 -100 51 -100T46 -99L47 -92Q57 -92 62 -88T69 -73L80 -6H73Q61 -6 61 6Q61 8 61 8T62 10L72 73Q73 89 88 89H100Q107 89 107 79Q107 78 107 77T107 73L85 -61Q83 -78 77 -86T65 -97T54 -100ZM134
-100Q133 -100 131 -100T126 -99L127 -92Q137 -92 142 -88T149 -73L160 -6H153Q141 -6 141 6Q141 8 141 8T142 10L152 73Q153 89 168 89H180Q187 89 187 79Q187 78 187 77T187 73L165 -61Q163 -78 157 -86T145 -97T134 -100Z" />
<glyph unicode="&#x2022;" horiz-adv-x="337" d="M166 334Q134 334 139 366L144 396Q146 412 156 421T183 431H207Q242 431 236 396L231 366Q228 348 217 341T190 334H166Z" />
<glyph unicode="&#x2039;" horiz-adv-x="354" d="M278 70L101 278L339 481L353 465L131 276L295 85L278 70Z" />
<glyph unicode="&#x203a;" horiz-adv-x="354" d="M80 70L67 86L288 274L124 468L141 481L318 273L80 70Z" />
</font>
</defs>
</svg>
