<?xml version="1.0" standalone="no"?>
<!DOCTYPE svg PUBLIC "-//W3C//DTD SVG 1.1//EN" "http://www.w3.org/Graphics/SVG/1.1/DTD/svg11.dtd">
<svg xmlns="http://www.w3.org/2000/svg">
<defs >
<font id="Exo" horiz-adv-x="531" ><font-face
    font-family="Exo SemiBold"
    units-per-em="1000"
    panose-1="0 0 0 0 0 0 0 0 0 0"
    ascent="1002"
    descent="-327"
    alphabetic="0" />
<glyph unicode=" " horiz-adv-x="243" />
<glyph unicode="!" horiz-adv-x="270" d="M119 202L189 737H313L210 202H119ZM98 -1Q82 -1 82 14Q82 15 82 15T82 17L97 112Q99 131 119 131H190Q207 131 207 117Q207 116 207 115T207 112L191 17Q190 7 184 3T169 -1H98Z" />
<glyph unicode="&quot;" horiz-adv-x="359" d="M125 501L145 684L155 751H274L264 684L227 501H125ZM287 501L307 684L317 751H436L426 684L389 501H287Z" />
<glyph unicode="#" horiz-adv-x="710" d="M137 0L208 215H52L77 297H237L282 433H120L147 515H311L384 732H466L393 515H522L594 732H676L604 515H776L751 433H578L534 297H706L681 215H502L431 0H348L420 215H291L219 0H137ZM320 297H451L496 433H364L320 297Z" />
<glyph unicode="$" horiz-adv-x="609" d="M386 724L388 786L458 824L455 762L386 724ZM249 -89L265 8H336L320 -89H249ZM304 -6Q256 -6 211 -3T129 5T65 16L80 113Q125 109 185 107T303 105Q347 105 378 112T428 138T451 192L456 226Q458 232 458 238T458 249Q458
281 437 295T367 309H297Q217 309 173 348T129 456Q129 476 132 497L142 558Q153 630 186 670T273 727T396 744Q418 744 446 743T504 738T563 731T618 721L603 624Q570 627 529 628T449 631T382 632Q347 632 322 625T280 599T258 544L253 511Q252 504 251 498T250
486Q250 454 268 441T326 427H399Q489 427 534 387T579 279Q579 261 576 239L565 170Q556 107 525 69T440 12T304 -6Z" />
<glyph unicode="%" horiz-adv-x="962" d="M213 0L776 732H858L298 0H213ZM225 349Q164 349 138 373T111 443Q111 461 114 480L133 601Q143 665 177 698T288 732H389Q452 732 478 708T505 638Q505 630 505 621T502 601L483 480Q473 416 438 383T326 349H225ZM253
429H325Q364 429 382 444T405 498L419 583Q420 590 420 596T421 607Q421 632 407 642T362 652H290Q256 652 237 639T210 583L196 498Q196 491 195 485T194 474Q194 450 208 440T253 429ZM689 3Q628 3 602 27T575 97Q575 114 578 134L597 255Q607 319 641 352T752
386H854Q916 386 942 362T969 292Q969 284 969 275T966 255L947 134Q937 70 902 37T791 3H689ZM717 83H788Q828 83 846 98T870 152L883 237Q884 244 884 250T885 261Q885 286 871 296T826 306H755Q721 306 701 293T674 237L661 152Q660 145 660 139T659 128Q659
104 672 94T717 83Z" />
<glyph unicode="&amp;" horiz-adv-x="689" d="M229 -6Q152 -6 106 39T59 161Q59 215 73 256T116 330T193 391L264 432L252 455Q234 489 228 517T222 570Q222 618 245 655T314 714T431 736Q466 736 496 733T551 726T594 717L580 627H437Q392 627 369 610T345 558Q345
539 352 517T378 465L503 246L670 379L706 324L627 217L556 158L650 0H522L462 96L421 64Q371 25 326 10T229 -6ZM266 108Q292 108 319 117T378 152L410 179L310 347L269 324Q235 305 217 285T192 242T185 191Q185 153 206 131T266 108Z" />
<glyph unicode="&apos;" horiz-adv-x="197" d="M125 501L145 684L155 751H274L264 684L227 501H125Z" />
<glyph unicode="(" horiz-adv-x="373" d="M210 -210Q179 -161 156 -104T119 22T105 170Q105 244 119 321T158 475T218 621T293 752T379 860H491Q436 794 389 713T306 542T250 360T229 178Q229 72 253 -23T322 -210H210Z" />
<glyph unicode=")" horiz-adv-x="372" d="M-15 -210Q41 -140 88 -58T171 114T226 296T246 476Q246 581 223 672T154 860H265Q297 809 320 752T357 629T370 483Q370 409 357 332T318 180T259 35T184 -98T96 -210H-15Z" />
<glyph unicode="*" horiz-adv-x="444" d="M365 512L332 563L461 645L482 607L365 512ZM380 406L267 474L312 530L413 443L380 406ZM204 400L162 414L212 551L274 535L204 400ZM126 577L133 624L276 636L269 571L126 577ZM308 588L282 722L329 737L373 612L308 588Z" />
<glyph unicode="+" horiz-adv-x="609" d="M275 132L345 580H446L376 132H275ZM129 306L144 406H592L577 306H129Z" />
<glyph unicode="," horiz-adv-x="222" d="M86 -85Q70 -85 59 -83T48 -80L54 -41Q67 -41 73 -37T82 -22L86 8H77Q61 8 61 24Q61 26 61 30T63 39L75 110Q77 131 97 131H167Q183 131 183 116Q183 114 183 110T181 99L161 -22Q157 -48 145 -62T117 -80T86 -85Z" />
<glyph unicode="-" horiz-adv-x="344" d="M60 240L76 340H377L361 240H60Z" />
<glyph unicode="." horiz-adv-x="222" d="M76 -1Q59 -1 59 14Q59 15 59 15T59 17L75 112Q77 131 97 131H168Q184 131 184 117Q184 116 184 115T184 112L169 17Q167 7 161 3T147 -1H76Z" />
<glyph unicode="/" horiz-adv-x="441" d="M7 -72L421 770H545L131 -72H7Z" />
<glyph unicode="0" horiz-adv-x="650" d="M252 -4Q201 -4 164 12T108 59T88 139Q88 149 89 159T91 182L150 553Q160 616 190 658T267 722T371 744H522Q602 744 640 706T679 599Q679 589 678 577T675 553L616 182Q602 90 546 43T402 -4H252ZM298 108H388Q436 108
462 131T495 200L549 541Q551 548 551 554T551 566Q551 601 532 617T476 633H377Q334 633 307 610T272 541L218 200Q217 194 217 189T216 177Q216 142 237 125T298 108Z" />
<glyph unicode="1" horiz-adv-x="369" d="M174 0L273 625L130 594L142 674L304 738H415L298 0H174Z" />
<glyph unicode="2" horiz-adv-x="589" d="M49 0L64 100L352 351Q419 409 449 460T480 552Q480 575 470 592T438 618T378 627H168L184 724Q229 731 285 737T406 744Q479 744 522 724T585 668T604 586Q604 515 568 443T446 295L238 112H567L549 0H49Z" />
<glyph unicode="3" horiz-adv-x="581" d="M316 -6Q237 -6 167 -2T42 12L56 105H288Q330 105 359 112T407 139T432 193Q436 216 438 228T440 244Q440 270 425 286T385 311T329 321L160 328L174 416L355 425Q404 427 434 446T472 505Q475 525 476 535T478 549T478
557Q478 597 448 615T366 633H159L174 726Q225 733 288 738T423 744Q483 744 524 730T586 684T607 603Q607 597 607 589T604 562T595 508Q590 477 578 454T550 414T514 388T476 372Q492 367 507 358T535 334T555 298T563 251Q563 242 561 224T553 173Q540 85 478
40T316 -6Z" />
<glyph unicode="4" horiz-adv-x="610" d="M380 1L407 168H75L60 229L394 738H521L214 273H424L450 436L487 515H586L548 273H633L619 188L531 168L504 1H380Z" />
<glyph unicode="5" horiz-adv-x="616" d="M321 -5Q262 -5 199 -1T81 9L97 106H344Q383 106 410 119T453 154T473 203L482 265Q483 271 483 277T484 289Q484 321 465 338T404 356H339Q301 356 279 341T246 291H128L219 738H654L636 627H320L278 423Q294 439 320
450T380 462H463Q539 462 575 424T612 325Q612 316 612 307T610 287L592 178Q583 115 548 75T455 15T321 -5Z" />
<glyph unicode="6" horiz-adv-x="613" d="M272 -4Q219 -4 181 14T122 79T101 208Q101 298 113 378T150 526T217 641T315 717T449 744Q496 744 545 741T633 730L617 633H441Q391 633 352 610T286 539T248 420Q275 426 305 429T367 434T431 435Q492 435 531 422T589
381T608 312Q608 303 607 293T604 271L587 166Q578 104 549 67T477 13T382 -4H272ZM314 107H373Q398 107 417 114T450 140T468 189L477 248Q478 255 478 260T479 272Q479 296 468 308T435 325T381 330H234Q229 297 227 271T224 222Q224 178 234 153T264 118T314
107Z" />
<glyph unicode="7" horiz-adv-x="550" d="M126 0L462 615H128L148 738H607L632 683L271 0H126Z" />
<glyph unicode="8" horiz-adv-x="633" d="M249 -4Q187 -4 151 12T101 54T87 112Q87 122 88 131T90 149L107 255Q112 287 127 311T165 353T212 375Q181 391 169 414T157 463Q157 473 158 484T161 505L174 591Q184 650 212 683T281 730T368 744H516Q582 744 616
718T650 633Q650 623 649 613T646 590L633 505Q631 491 625 473T607 437T581 405T545 387Q582 379 596 352T611 292Q611 283 611 275T609 259L591 152Q582 92 554 58T486 10T396 -4H249ZM292 102H379Q424 102 444 120T471 174L483 249Q484 254 484 259T485 268Q485
297 468 310T412 324H327Q313 324 297 320T267 307T243 283T230 249L218 174Q217 169 217 165T216 156Q216 127 237 115T292 102ZM344 430H428Q457 430 474 440T500 468T512 506L520 561Q522 568 522 574T523 586Q523 617 508 628T464 639H378Q339 639 319 622T290
561L282 506Q281 500 281 495T280 484Q280 458 295 444T344 430Z" />
<glyph unicode="9" horiz-adv-x="613" d="M457 743Q511 743 549 725T607 661T628 531Q628 442 616 362T579 214T512 98T414 22T280 -5Q234 -5 185 -1T96 9L112 106H289Q340 106 378 129T443 201T481 319Q454 314 424 310T362 305T298 304Q238 304 199 318T140
359T121 427Q121 437 122 447T125 469L142 574Q151 635 180 672T252 726T347 743H457ZM415 632H356Q332 632 313 625T280 600T261 550L252 491Q251 485 251 479T250 467Q250 444 261 432T295 415T348 410H495Q500 442 502 468T505 517Q505 562 495 587T465 622T415
632Z" />
<glyph unicode=":" horiz-adv-x="222" d="M76 -1Q59 -1 59 14Q59 15 59 15T59 17L75 112Q77 131 97 131H168Q184 131 184 117Q184 116 184 115T184 112L169 17Q167 7 161 3T147 -1H76ZM141 405Q124 405 124 420Q124 421 124 421T124 423L140 518Q142 537 162 537H233Q249
537 249 523Q249 522 249 521T249 518L234 423Q232 413 226 409T212 405H141Z" />
<glyph unicode=";" horiz-adv-x="222" d="M141 405Q124 405 124 420Q124 421 124 421T124 423L140 518Q142 537 162 537H233Q249 537 249 523Q249 522 249 521T249 518L234 423Q232 413 226 409T212 405H141ZM86 -85Q70 -85 59 -83T48 -80L54 -41Q67 -41 73 -37T82
-22L86 8H77Q61 8 61 24Q61 26 61 30T63 39L75 110Q77 131 97 131H167Q183 131 183 116Q183 114 183 110T181 99L161 -22Q157 -48 145 -62T117 -80T86 -85Z" />
<glyph unicode="&lt;" horiz-adv-x="609" d="M527 159L133 295L151 405L587 537L570 429L262 351L544 267L527 159Z" />
<glyph unicode="=" horiz-adv-x="609" d="M366 442L382 542H830L814 442H366ZM148 426L164 526H612L596 426H148Z" />
<glyph unicode="&gt;" horiz-adv-x="609" d="M127 159L144 267L452 351L170 429L187 537L581 405L563 295L127 159Z" />
<glyph unicode="?" horiz-adv-x="530" d="M188 201L217 385H279Q321 385 349 393T394 422T416 477L423 519Q424 528 424 535T425 550Q425 592 399 610T319 628Q273 628 230 619T138 593L152 683Q201 709 257 724T375 739Q467 739 510 697T554 586Q554 563 550
538L539 475Q525 383 466 337T295 291L282 201H188ZM170 -1Q154 -1 154 14Q154 15 154 15T154 17L169 112Q172 131 191 131H262Q279 131 279 117Q279 116 279 115T279 112L263 17Q262 7 256 3T241 -1H170Z" />
<glyph unicode="@" horiz-adv-x="925" d="M246 -191Q175 -191 132 -167T70 -102T51 -13Q51 0 52 12T55 38L132 521Q141 577 161 615T214 677T290 712T390 723H761Q822 723 862 701T921 640T941 550Q941 519 936 486L891 185Q886 149 871 116T830 56T765 15T675
0H596L577 57Q568 46 551 35T511 15T462 0T411 -6Q371 -6 336 12T281 72T260 184Q260 298 298 377T399 498T535 540Q598 540 648 522T734 473L675 84Q693 84 711 87T747 102T778 135T796 196L841 497Q843 509 844 519T845 540Q845 591 814 612T735 633H372Q319
633 289 614T246 563T226 497L151 27Q148 10 148 -5Q148 -48 174 -75T255 -102H640L629 -171Q604 -175 560 -180T458 -188T338 -191H246ZM442 90Q478 90 517 101T587 138L630 426Q600 437 576 442T528 447Q478 447 440 417T379 330T356 198Q356 160 367 136T397
101T442 90Z" />
<glyph unicode="A" horiz-adv-x="689" d="M27 0L387 738H543L663 0H535L507 174H239L155 0H27ZM286 285H495L447 631L286 285Z" />
<glyph unicode="B" horiz-adv-x="628" d="M66 0L182 738H458Q529 738 570 720T627 668T644 590Q644 577 643 565T640 539Q631 479 595 438T504 385Q535 377 559 360T597 312T612 237Q612 227 612 213T606 177Q590 84 526 42T349 0H66ZM207 111H365Q406 111 432
123T472 159T493 217Q494 226 494 234T495 249Q495 289 470 310T399 332H242L207 111ZM257 427H413Q460 427 484 452T517 517Q519 529 520 539T522 558Q522 595 499 611T433 627H289L257 427Z" />
<glyph unicode="C" horiz-adv-x="591" d="M329 -6Q210 -6 154 58T98 238Q98 274 101 313T111 390Q129 506 166 585T265 704T419 744Q503 744 560 732T653 707L637 610Q592 620 542 626T440 633Q397 633 365 621T308 580T265 498T234 366Q228 332 225 298T221 237Q221
168 252 137T362 105Q431 105 474 108T559 118L543 21Q494 5 438 0T329 -6Z" />
<glyph unicode="D" horiz-adv-x="682" d="M65 0L182 738H457Q552 738 604 707T678 619T699 481Q699 449 696 416T688 349Q674 262 647 197T577 88T475 22T340 0H65ZM207 111H352Q400 111 436 129T497 181T538 263T564 370Q569 404 572 431T575 477Q575 529 562
562T516 611T427 627H288L207 111Z" />
<glyph unicode="E" horiz-adv-x="588" d="M237 -6Q210 -6 181 0T129 23T93 72T89 154L157 577Q166 639 193 674T260 724T344 738Q419 738 494 735T645 727L629 624H361Q324 624 303 606T275 546L256 425L549 417L534 320L238 313L219 185Q215 156 221 140T244
117T285 110H549L532 7Q461 3 389 -1T237 -6Z" />
<glyph unicode="F" horiz-adv-x="560" d="M65 0L157 577Q168 643 196 678T264 726T343 738Q426 738 499 735T644 727L628 624H359Q321 624 302 605T275 547L253 407L547 399L531 302L236 295L189 0H65Z" />
<glyph unicode="G" horiz-adv-x="654" d="M287 -6Q183 -6 140 50T96 225Q96 266 100 309T112 396Q131 509 170 587T273 705T430 745Q519 745 576 736T678 712L663 616Q628 623 574 629T443 635Q375 635 335 607T272 520T234 368Q221 285 221 233Q221 171 246 140T330
108Q350 108 374 111T422 118T465 127T497 136L524 307H375L390 404Q417 407 459 409T558 412Q573 412 592 412T629 411T659 410L594 0H502L492 51Q478 43 454 33T400 15T342 0T287 -6Z" />
<glyph unicode="H" horiz-adv-x="682" d="M65 0L182 738H306L255 419H565L616 738H740L623 0H499L548 308H238L189 0H65Z" />
<glyph unicode="I" horiz-adv-x="255" d="M65 0L182 738H306L189 0H65Z" />
<glyph unicode="J" horiz-adv-x="377" d="M146 -6Q114 -6 83 0T33 17L49 114Q68 110 88 109T126 107Q173 107 198 131T232 204L317 738H441L352 179Q336 80 287 37T146 -6Z" />
<glyph unicode="K" horiz-adv-x="626" d="M65 0L182 738H306L257 426H365L585 738H712L457 368L611 0H487L355 315H239L189 0H65Z" />
<glyph unicode="L" horiz-adv-x="529" d="M230 0Q165 0 127 29T89 126Q89 137 90 147T92 169L182 738H306L219 185Q218 179 218 174T217 163Q217 133 234 122T281 111H524L507 0H230Z" />
<glyph unicode="M" horiz-adv-x="850" d="M47 0L252 738H368L458 150L734 738H849L819 0H699L722 516L491 0H375L308 512L170 0H47Z" />
<glyph unicode="N" horiz-adv-x="684" d="M65 0L182 738H282L534 210L618 738H742L625 0H525L273 529L189 0H65Z" />
<glyph unicode="O" horiz-adv-x="693" d="M344 -6Q288 -6 242 3T163 37T113 106T95 223Q95 257 99 299T110 386Q127 492 155 562T225 671T327 727T465 744Q520 744 565 735T644 699T695 626T713 505Q713 473 709 431T698 343Q681 235 653 166T582 60T481 9T344
-6ZM364 106Q412 106 447 118T506 159T546 237T575 361Q582 404 585 441T589 504Q589 558 573 585T526 623T447 633Q400 633 366 622T307 582T264 501T234 368Q227 327 223 290T219 228Q219 179 234 153T281 116T364 106Z" />
<glyph unicode="P" horiz-adv-x="606" d="M65 0L182 738H472Q524 738 565 722T632 665T657 551Q657 536 654 515T648 476Q638 408 615 364T559 293T490 256T416 245Q368 245 317 250T231 260L189 0H65ZM245 356H401Q432 356 457 369T500 412T525 489Q527 502 529
517T531 539Q531 588 510 607T448 627H288L245 356Z" />
<glyph unicode="Q" horiz-adv-x="693" d="M493 -187Q445 -187 407 -172T346 -123T321 -38H407Q412 -71 433 -85T492 -99Q512 -99 532 -96T570 -89L556 -180Q529 -187 493 -187ZM344 -6Q288 -6 242 3T163 37T113 106T95 223Q95 257 99 299T110 386Q127 492 155
562T225 671T327 727T465 744Q520 744 565 735T644 699T695 626T713 505Q713 473 709 431T698 343Q681 235 653 166T582 60T481 9T344 -6ZM364 106Q412 106 447 118T506 159T546 237T575 361Q582 404 585 441T589 504Q589 558 573 585T526 623T447 633Q400 633
366 622T307 582T264 501T234 368Q227 327 223 290T219 228Q219 179 234 153T281 116T364 106Z" />
<glyph unicode="R" horiz-adv-x="628" d="M65 0L182 738H460Q501 738 536 729T597 700T637 645T652 560Q652 546 651 531T647 497Q638 442 620 407T580 351T534 320T493 304L587 0H461L379 284Q366 284 348 284T309 285T269 286T235 287L189 0H65ZM250 384H397Q432
384 456 394T497 431T522 506Q524 516 524 525T524 542Q524 576 513 594T481 619T435 627H288L250 384Z" />
<glyph unicode="S" horiz-adv-x="571" d="M304 -6Q256 -6 211 -3T129 5T65 16L80 113Q125 109 185 107T303 105Q347 105 378 112T428 138T451 192L456 226Q458 232 458 238T458 249Q458 281 437 295T367 309H297Q217 309 173 348T129 456Q129 476 132 497L142
558Q153 630 186 670T273 727T396 744Q418 744 446 743T504 738T563 731T618 721L603 624Q570 627 529 628T449 631T382 632Q347 632 322 625T280 599T258 544L253 511Q252 504 251 498T250 486Q250 454 268 441T326 427H399Q489 427 534 387T579 279Q579 261 576
239L565 170Q556 107 525 69T440 12T304 -6Z" />
<glyph unicode="T" horiz-adv-x="608" d="M237 0L336 627H123L141 738H691L673 627H460L361 0H237Z" />
<glyph unicode="U" horiz-adv-x="684" d="M343 -6Q226 -6 166 44T106 211Q106 237 109 270T119 338L182 738H306L240 320Q236 292 233 266T230 220Q230 159 261 132T359 105Q397 105 427 113T479 144T518 209T546 320L612 738H736L667 302Q651 203 623 142T555
49T462 6T343 -6Z" />
<glyph unicode="V" horiz-adv-x="689" d="M264 0L144 738H272L364 135L653 738H780L420 0H264Z" />
<glyph unicode="W" horiz-adv-x="1021" d="M223 0L145 738H273L330 181L558 738H674L720 182L959 738H1088L770 0H642L587 556L351 0H223Z" />
<glyph unicode="X" horiz-adv-x="641" d="M486 0L335 325L138 738H274L428 406L621 0H486ZM24 0L331 400L380 292L163 0H24ZM427 332L379 437L604 738H743L427 332Z" />
<glyph unicode="Y" horiz-adv-x="631" d="M246 0L282 225L135 738H271L364 360L589 738H730L406 225L370 0H246Z" />
<glyph unicode="Z" horiz-adv-x="565" d="M36 0L53 105L476 627H135L153 738H636L619 633L196 111H546L529 0H36Z" />
<glyph unicode="[" horiz-adv-x="337" d="M214 -210Q156 -210 125 -189T81 -134T69 -65Q69 -51 71 -37T74 -9L179 652Q185 691 198 725T236 785T295 827T380 842H453L438 742H400Q363 742 337 718T300 635L199 -3Q198 -11 197 -19T196 -36Q196 -72 213 -91T264
-110H303L287 -210H214Z" />
<glyph unicode="\" horiz-adv-x="441" d="M288 -72L140 770H264L412 -72H288Z" />
<glyph unicode="]" horiz-adv-x="337" d="M-15 -210L0 -110H38Q67 -110 87 -98T120 -61T138 -3L239 635Q241 645 241 653T242 669Q242 709 224 725T174 742H135L151 842H224Q278 842 310 825T356 776T370 705Q370 692 369 679T365 652L261 -9Q256 -39 245 -74T211
-140T151 -190T58 -210H-15Z" />
<glyph unicode="^" horiz-adv-x="390" d="M128 531L263 667H349L430 531H357L294 608L202 531H128Z" />
<glyph unicode="_" horiz-adv-x="609" d="M-28 -182L-13 -82H596L581 -182H-28Z" />
<glyph unicode="`" horiz-adv-x="226" d="M236 631L140 770H241L309 631H236Z" />
<glyph unicode="a" horiz-adv-x="568" d="M226 -6Q185 -6 151 13T97 72T76 177Q76 205 80 235T87 286Q101 373 134 429T224 514T368 542Q410 542 451 535T528 513T587 480L511 0H402L396 55Q382 44 354 30T293 5T226 -6ZM284 94Q322 94 352 107T408 136L453 421Q442
427 418 434T362 442Q313 442 283 423T235 368T208 276Q204 252 202 232T200 199Q200 151 221 123T284 94Z" />
<glyph unicode="b" horiz-adv-x="577" d="M358 -6Q327 -6 296 1T238 22T192 52L168 0H59L180 763H304L262 497Q300 519 343 530T418 542Q494 542 539 495T584 357Q584 334 581 303T572 236Q561 160 532 106T459 23T358 -6ZM322 94Q376 94 408 135T454 268Q457
288 459 305T461 338Q461 396 437 419T378 442Q347 442 313 433T248 408L204 131Q226 115 254 105T322 94Z" />
<glyph unicode="c" horiz-adv-x="477" d="M272 -6Q214 -6 170 12T103 73T79 194Q79 212 81 236T88 289Q103 382 137 437T222 517T337 542Q379 542 427 535T518 518L506 446H364Q320 446 290 428T240 371T209 267Q205 246 204 231T202 205Q202 161 214 136T251
99T311 88H459L448 18Q415 7 373 1T272 -6Z" />
<glyph unicode="d" horiz-adv-x="572" d="M231 -6Q158 -6 118 41T78 177Q78 233 89 290Q104 367 131 423T212 511T358 542Q390 542 418 538T472 523L509 763H633L512 0H403L397 55Q377 39 350 25T293 3T231 -6ZM283 94Q321 94 352 106T410 136L455 421Q437 431
415 436T363 442Q319 442 289 426T240 373T209 268Q206 249 204 232T202 198Q202 159 213 137T242 104T283 94Z" />
<glyph unicode="e" horiz-adv-x="548" d="M293 -6Q216 -6 169 16T101 83T79 190Q79 218 82 244T89 296Q102 381 137 435T229 516T366 543Q407 543 443 536T506 512T550 465T566 388Q566 333 547 298T495 243T418 217T328 209Q288 209 255 212T204 221Q202 210
202 199T201 176Q201 129 233 108T341 86H509L497 13Q461 6 407 0T293 -6ZM294 280Q346 280 380 289T433 319T451 375Q451 413 428 430T358 448Q312 448 283 430T237 375T212 287Q229 284 250 282T294 280Z" />
<glyph unicode="f" horiz-adv-x="384" d="M96 0L165 435H88L101 515L181 536L194 616Q200 651 212 679T246 727T299 758T378 769Q411 769 443 767T498 760L484 670H399Q369 670 352 661T325 632T312 583L305 536H447L431 435H289L220 0H96Z" />
<glyph unicode="g" horiz-adv-x="573" d="M179 -234L41 -226L55 -140H221Q263 -140 296 -132T352 -101T381 -41L397 55Q373 37 343 23T281 2T220 -6Q175 -6 143 18T95 83T78 175Q78 201 82 234T90 297Q100 365 124 412T184 487T266 529T369 542Q443 542 501 533T593
513L502 -60Q493 -114 467 -150T398 -207T301 -233T179 -234ZM281 94Q316 94 346 105T409 136L456 435Q434 438 411 439T363 442Q321 443 290 427T240 376T211 283Q206 252 204 234T201 196Q201 144 223 119T281 94Z" />
<glyph unicode="h" horiz-adv-x="585" d="M59 0L180 763H304L258 480Q294 505 344 524T454 543Q519 543 553 511T588 410Q588 385 584 352L527 0H404L456 337Q458 344 458 351T459 364Q459 402 439 417T386 432Q344 432 311 419T244 383L183 0H59Z" />
<glyph unicode="i" horiz-adv-x="240" d="M173 621Q165 621 160 626T157 639L171 730Q175 750 193 750H287Q296 750 299 744T301 730L287 639Q284 621 267 621H173ZM59 0L143 536H267L183 0H59Z" />
<glyph unicode="j" horiz-adv-x="240" d="M173 621Q165 621 160 626T157 639L171 730Q175 750 193 750H287Q296 750 299 744T301 730L287 639Q284 621 267 621H173ZM21 -237L143 536H267L182 -4Q172 -65 153 -125T112 -237H21Z" />
<glyph unicode="k" horiz-adv-x="550" d="M59 0L180 763H304L236 338Q288 344 329 366T401 430T450 536H573Q553 463 525 415T463 337T398 292L544 0H416L293 254Q276 250 256 247T221 244L183 0H59Z" />
<glyph unicode="l" horiz-adv-x="312" d="M231 0Q158 0 121 31T83 115Q83 135 84 152T88 185L180 763H304L218 225Q217 218 215 204T212 176T210 151Q210 121 224 110T265 95L308 89L293 0H231Z" />
<glyph unicode="m" horiz-adv-x="930" d="M59 0L143 536H245L258 480Q298 506 345 524T454 543Q505 543 535 524T584 463Q630 504 685 523T790 543Q865 543 898 510T932 414Q932 396 931 378T926 342L872 0H748L802 339Q803 345 803 351T804 363Q804 432 727 432Q687
432 653 418T583 379Q584 370 584 359T580 333L527 0H404L456 334Q458 344 458 350T459 364Q459 397 441 414T383 432Q340 432 309 418T244 383L183 0H59Z" />
<glyph unicode="n" horiz-adv-x="585" d="M59 0L143 536H245L258 480Q296 506 345 524T452 543Q498 543 528 527T573 484T588 420Q588 405 587 385T578 316L527 0H404L453 312Q456 336 457 347T459 365Q459 394 442 413T383 432Q343 432 310 419T244 383L183 0H59Z" />
<glyph unicode="o" horiz-adv-x="571" d="M285 -6Q219 -6 173 14T103 74T79 179Q79 206 81 230T87 279Q100 360 122 411T178 490T259 530T371 542Q452 542 496 521T558 457T576 349Q576 325 574 298T567 242Q552 144 518 90T428 15T285 -6ZM299 94Q331 94 355
101T395 125T423 176T444 260Q448 289 450 311T453 354Q453 404 430 424T354 444Q320 444 297 436T256 409T228 353T208 260Q205 238 203 220T201 184Q201 148 213 129T246 102T299 94Z" />
<glyph unicode="p" horiz-adv-x="569" d="M21 -237L141 518Q202 529 264 535T401 542Q494 542 535 495T576 353Q576 328 574 301T566 247Q553 164 520 108T436 23T317 -6Q279 -6 246 0T185 19L145 -237H21ZM303 99Q346 99 374 117T420 174T448 272Q450 286 452
301T454 332Q454 388 434 415T368 442L252 441L200 117Q219 111 234 107T265 101T303 99Z" />
<glyph unicode="q" horiz-adv-x="568" d="M349 -237L395 55Q359 27 311 11T221 -6Q150 -6 114 41T78 174Q78 200 81 227T88 284Q99 355 122 404T181 484T262 528T367 542Q432 542 494 534T592 513L473 -237H349ZM280 94Q315 94 346 106T408 136L456 435Q433 438
412 439T370 442Q318 443 286 425T236 369T208 274Q204 250 202 231T200 197Q200 146 222 120T280 94Z" />
<glyph unicode="r" horiz-adv-x="411" d="M59 0L144 536H253L257 468Q287 497 325 519T410 542Q428 542 442 541T468 535L450 412Q435 413 419 414T384 415Q339 415 303 401T242 369L183 0H59Z" />
<glyph unicode="s" horiz-adv-x="510" d="M269 -6Q239 -6 209 -5T150 -1T97 6T55 15L66 88H296Q330 88 351 99T377 138L381 166Q382 171 382 173T382 178Q382 217 330 217H244Q200 217 167 227T115 260T97 319Q97 329 97 340T100 364L107 403Q115 444 136 475T201
524T317 542Q347 542 385 539T459 532T520 520L508 447H294Q257 447 240 435T217 395L214 374Q212 365 212 360T211 349Q211 332 223 325T268 317H362Q423 317 460 290T498 212Q498 203 498 193T495 173L488 125Q477 53 419 24T269 -6Z" />
<glyph unicode="t" horiz-adv-x="400" d="M276 0Q200 0 162 29T124 119Q124 138 126 160T133 210L174 436H89L102 516L193 536L234 686H331L307 536H443L428 436H292L256 209Q254 198 252 182T249 152Q249 125 263 113T306 97L368 91L353 0H276Z" />
<glyph unicode="u" horiz-adv-x="585" d="M215 -6Q146 -6 114 27T81 120Q81 139 82 153T86 181L142 536H266L213 195Q212 189 212 183T211 169Q211 136 230 121T285 105Q327 105 360 118T426 153L487 536H611L526 0H417L411 56Q382 37 354 23T292 2T215 -6Z" />
<glyph unicode="v" horiz-adv-x="545" d="M190 0L87 536H214L281 117L423 398Q439 434 449 468T464 544H577Q576 492 558 442T515 345L332 0H190Z" />
<glyph unicode="w" horiz-adv-x="840" d="M178 0L87 536H214L272 118L443 536H526L600 118L719 415Q724 428 731 450T744 498T752 544H872Q872 515 865 483T847 421T825 368L650 0H519L456 336L310 0H178Z" />
<glyph unicode="x" horiz-adv-x="547" d="M404 0L273 227L93 536H220L364 290L532 0H404ZM15 0L271 302L305 189L143 0H15ZM357 226L313 327L476 536H610L357 226Z" />
<glyph unicode="y" horiz-adv-x="569" d="M96 -237V-148Q153 -136 200 -103T281 0Q239 4 212 18T169 61T146 137L93 536H221L256 164Q260 139 269 126T292 108T320 102L455 419Q466 446 475 478T487 544H602Q602 496 590 445T549 335L393 6Q353 -80 308 -131T211
-206T96 -237Z" />
<glyph unicode="z" horiz-adv-x="500" d="M45 0L59 90L380 436H102L117 536H538L524 446L203 100H477Q477 100 476 90T472 65T467 35T463 10T461 0H45Z" />
<glyph unicode="{" horiz-adv-x="315" d="M281 -210Q212 -210 172 -196T114 -153T96 -86Q96 -69 101 -36T113 38T126 118T138 187T143 225Q143 252 128 264T79 276L97 391Q114 393 131 398T162 416T179 452L211 656Q222 724 249 765T324 824T448 842L432 742Q401
742 382 734T350 701T331 631L300 432Q293 385 263 362T189 334Q229 327 249 306T270 253Q270 244 267 221T259 167T248 102T237 36T229 -19T225 -51Q225 -86 242 -101T296 -116L281 -210Z" />
<glyph unicode="|" horiz-adv-x="252" d="M65 -72L198 770H298L165 -72H65Z" />
<glyph unicode="}" horiz-adv-x="315" d="M-15 -210L0 -116Q32 -116 52 -105T83 -72T99 -18L138 219Q144 258 172 282T246 314Q210 317 188 335T166 391Q166 402 169 431T179 498T191 573T201 639T205 675Q205 714 188 728T136 742L152 842Q216 842 256 825T315
777T333 702Q333 698 330 677T323 627T313 564T304 500T296 449T293 421Q293 403 302 393T327 378T357 371L339 256Q308 256 286 243T258 195L221 -38Q214 -82 199 -114T158 -168T89 -199T-15 -210Z" />
<glyph unicode="~" horiz-adv-x="432" d="M364 535Q348 535 334 543T306 560T279 578T252 586Q223 586 200 575T148 545L138 587Q163 613 195 634T264 655Q279 655 293 647T322 630T349 612T374 604Q393 604 411 611T445 628T473 649L484 603Q460 578 430 557T364 535Z" />
<glyph unicode="&#xa0;" horiz-adv-x="243" />
<glyph unicode="&#xa1;" horiz-adv-x="270" d="M236 336L166 -199H42L145 336H236ZM257 539Q274 539 274 524Q274 523 274 523T274 521L258 426Q256 407 236 407H165Q149 407 149 421Q149 423 149 424T149 426L164 521Q166 531 172 535T186 539H257Z" />
<glyph unicode="&#xa2;" horiz-adv-x="486" d="M214 -90L227 -5Q183 -1 147 15T90 70T69 185Q69 262 87 326T140 437T218 509T316 536L330 627H401L387 534Q419 532 455 524T524 504L512 431Q496 435 455 438T354 442Q316 442 286 422T235 367T205 286T194 188Q194
147 205 126T240 97T296 89Q339 89 372 91T428 97T466 103L455 29Q414 12 377 5T298 -5L285 -90H214Z" />
<glyph unicode="&#xa3;" horiz-adv-x="609" d="M60 0L75 94L176 111L209 322L112 331L122 393L224 411L238 504Q252 593 286 645T375 719T507 742Q554 742 595 738T662 730L647 631H494Q457 631 431 622T388 589T364 517L348 411L539 399L528 331L333 322L300
111H571L554 0H60Z" />
<glyph unicode="&#xa4;" horiz-adv-x="609" d="M338 183Q296 183 262 203T207 258T187 334Q187 387 213 431T283 502T384 529Q427 529 461 508T515 453T536 378Q536 326 510 282T439 210T338 183ZM142 121L97 174L222 282L270 229L142 121ZM506 121L417 227L478
280L567 174L506 121ZM344 249Q379 249 407 263T453 305T470 372Q470 411 444 437T378 463Q344 463 316 448T271 406T254 340Q254 302 279 276T344 249ZM242 434L155 538L216 591L304 487L242 434ZM502 432L458 485L580 591L625 538L502 432Z" />
<glyph unicode="&#xa5;" horiz-adv-x="609" d="M105 261L115 326H567L557 261H105ZM84 126L94 192H546L536 126H84ZM228 0L264 225L117 738H252L346 360L571 738H712L388 225L352 0H228Z" />
<glyph unicode="&#xa6;" horiz-adv-x="252" d="M144 429L198 770H298L244 429H144ZM65 -72L117 256H217L165 -72H65Z" />
<glyph unicode="&#xa7;" horiz-adv-x="543" d="M314 -6Q290 -6 260 -6T197 -4T137 0T87 6L100 94H305Q339 94 357 100T383 117T394 143Q398 168 400 181T402 198Q402 212 391 217T346 223H238Q170 223 133 242T96 310Q96 316 97 323T99 341L105 380Q113 425 133
446T191 478Q165 490 156 510T146 557Q146 565 146 574T148 594L157 647Q165 691 187 721T250 768T352 784Q374 784 405 783T470 781T533 777T580 770L567 684H354Q331 684 314 680T286 663T272 628Q269 607 268 597T266 583Q266 565 279 558T320 551H435Q506 551
539 532T572 466Q572 452 569 436L562 392Q556 356 537 331T479 295Q505 287 515 270T526 226Q526 218 526 210T522 187L514 139Q506 84 480 52T411 7T314 -6ZM281 316H361Q390 316 406 319T429 332T439 366L447 408Q447 413 447 416T448 423Q448 443 435 450T391
457H304Q265 457 249 446T228 406L221 365Q221 362 221 360T220 354Q220 336 234 326T281 316Z" />
<glyph unicode="&#xa8;" horiz-adv-x="404" d="M368 643Q352 643 352 658Q352 659 352 663T356 687T367 752Q370 772 388 772H446Q462 772 462 757Q462 757 462 752T458 728T447 662Q444 643 425 643H368ZM166 643Q150 643 150 658Q150 659 151 663T155 687T165
752Q168 772 187 772H244Q260 772 260 757Q260 757 260 752T256 728T245 662Q243 643 223 643H166Z" />
<glyph unicode="&#xa9;" horiz-adv-x="822" d="M329 0Q271 0 228 21T156 79T113 164T98 267Q98 331 110 397T149 524T215 631T307 705T427 732H632Q706 732 752 702T822 619T845 500Q845 403 821 314T755 153T656 41T534 0H329ZM403 147Q369 147 340 159T294 202T276
291Q276 348 291 400T333 494T395 559T472 583Q492 583 522 581T584 575T642 562L632 504Q604 509 576 511T525 515T486 516Q454 516 429 499T387 451T360 384T351 307Q351 259 371 237T436 214Q482 214 522 219T595 230L586 172Q541 155 496 151T403 147ZM321
67H538Q585 67 627 99T703 189T756 323T776 490Q776 540 763 579T719 642T639 665H416Q364 665 319 634T239 550T186 426T166 277Q166 233 175 195T202 128T250 83T321 67Z" />
<glyph unicode="&#xaa;" horiz-adv-x="410" d="M76 257L86 317H433L424 257H76ZM209 356Q164 356 131 387T98 491Q98 511 101 534T107 572Q122 665 171 710T316 756Q366 756 411 744T484 710L428 360H337L331 399Q321 391 301 381T257 363T209 356ZM258 441Q284
441 304 450T341 469L372 659Q364 662 348 666T311 671Q279 671 259 659T227 623T209 564Q202 530 202 507Q202 478 216 460T258 441Z" />
<glyph unicode="&#xab;" horiz-adv-x="617" d="M267 62L79 282L331 496L385 434L205 281L338 126L267 62ZM517 62L329 282L581 496L635 434L455 281L588 126L517 62Z" />
<glyph unicode="&#xac;" horiz-adv-x="609" d="M457 186L503 476H604L558 186H457ZM148 426L164 526H612L596 426H148Z" />
<glyph unicode="&#xad;" horiz-adv-x="344" d="M60 240L76 340H377L361 240H60Z" />
<glyph unicode="&#xae;" horiz-adv-x="822" d="M329 0Q271 0 228 21T156 79T113 164T98 267Q98 331 110 397T149 524T215 631T307 705T427 732H632Q706 732 752 702T822 619T845 500Q845 403 821 314T755 153T656 41T534 0H329ZM281 153L349 580H532Q561 580 586
572T627 543T643 482Q643 446 630 413T594 356T538 325L605 153H533L470 327L382 329L354 153H281ZM321 67H538Q585 67 627 99T703 189T756 323T776 490Q776 540 763 579T719 642T639 665H416Q364 665 319 634T239 550T186 426T166 277Q166 233 175 195T202 128T250
83T321 67ZM390 383H500Q520 383 535 395T560 427T569 467Q569 493 556 503T521 513H411L390 383Z" />
<glyph unicode="&#xaf;" horiz-adv-x="364" d="M148 656L160 729H436L424 656H148Z" />
<glyph unicode="&#xb0;" horiz-adv-x="322" d="M239 486Q185 486 152 519T119 606Q119 650 138 686T193 745T284 767Q338 767 369 734T401 647Q401 603 383 567T329 508T239 486ZM248 543Q290 543 317 570T344 643Q344 673 326 691T274 710Q231 710 204 682T176
611Q176 580 196 562T248 543Z" />
<glyph unicode="&#xb1;" horiz-adv-x="609" d="M97 106L113 206H561L545 106H97ZM299 282L369 730H470L400 282H299ZM153 456L168 556H616L601 456H153Z" />
<glyph unicode="&#xb2;" horiz-adv-x="417" d="M100 355L112 433L297 595Q337 630 355 659T373 712Q373 732 359 743T309 754H175L187 830Q219 836 258 841T344 846Q418 846 448 821T479 748Q479 698 455 650T366 545L248 443H448L434 355H100Z" />
<glyph unicode="&#xb3;" horiz-adv-x="417" d="M286 351Q232 351 184 355T97 365L110 443H263Q290 443 308 447T336 461T349 488L352 508Q353 511 353 513T353 518Q353 532 345 540T324 553T295 557L173 562L185 637L304 644Q334 646 352 655T374 685L378 706Q378
709 378 711T378 716Q378 735 362 744T308 754H169L182 831Q224 838 269 842T363 846Q420 846 450 822T482 751Q482 746 482 740T480 726L474 689Q470 664 459 646T432 617T397 600Q412 595 424 585T444 559T452 521Q452 515 452 509T450 495L445 468Q436 410 394
381T286 351Z" />
<glyph unicode="&#xb4;" horiz-adv-x="226" d="M118 631L224 770H331L196 631H118Z" />
<glyph unicode="&#xb5;" horiz-adv-x="593" d="M260 -6Q228 -6 197 4T142 34T103 83T89 149Q89 158 89 167T91 186L147 536H271L216 193Q216 187 216 181T215 168Q215 131 237 118T294 104Q333 104 365 115T430 147L492 536H615L531 0H430L422 56Q389 28 349 11T260
-6ZM20 -269L100 240H224L144 -269H20Z" />
<glyph unicode="&#xb6;" horiz-adv-x="573" d="M215 -270L309 321Q300 316 280 312T232 307Q163 307 132 341T101 426Q101 433 101 442T105 467L126 598Q134 646 160 677T225 723T308 738H685L672 654H606L502 0H419L523 656H444L297 -270H215ZM259 390H319L361
656H301Q257 656 234 636T205 578L189 477Q188 467 187 460T186 448Q186 423 196 411T224 394T259 390Z" />
<glyph unicode="&#xb7;" horiz-adv-x="266" d="M132 329Q124 329 119 334T115 348L127 421Q130 441 150 441H221Q241 441 237 421L225 348Q224 338 218 334T203 329H132Z" />
<glyph unicode="&#xb8;" horiz-adv-x="250" d="M14 -195L22 -144L42 -142Q61 -139 72 -132T89 -114T94 -97Q94 -85 85 -76T47 -64L99 -52Q133 -52 153 -65T173 -110Q173 -130 161 -149T123 -182T57 -195H14ZM47 -64L111 16H168L103 -64H47Z" />
<glyph unicode="&#xb9;" horiz-adv-x="417" d="M223 355L287 758L182 742L192 805L311 846H400L322 355H223ZM114 355L128 443H445L431 355H114Z" />
<glyph unicode="&#xba;" horiz-adv-x="429" d="M76 257L86 317H433L424 257H76ZM257 356Q206 356 171 370T119 415T100 492Q100 513 102 531T106 566Q119 645 144 685T213 741T320 756Q382 756 415 741T462 694T476 613Q476 596 474 576T469 535Q458 464 433 425T364
371T257 356ZM269 441Q298 441 317 450T347 482T366 550Q370 571 371 586T372 616Q371 646 356 659T305 672Q275 672 256 663T227 629T209 558Q205 536 205 524T204 498Q205 476 212 464T233 446T269 441Z" />
<glyph unicode="&#xbb;" horiz-adv-x="617" d="M110 62L59 126L239 280L107 435L180 496L365 279L110 62ZM360 62L309 126L489 280L357 435L430 496L615 279L360 62Z" />
<glyph unicode="&#xbc;" horiz-adv-x="1152" d="M313 0L809 770H895L398 0H313ZM958 -44L975 59H757L746 106L961 443H1063L871 142H987L1002 237L1031 293H1111L1087 142H1139L1127 75L1074 59L1057 -44H958ZM227 355L291 758L186 742L196 805L315 846H404L326
355H227ZM118 355L132 443H449L435 355H118Z" />
<glyph unicode="&#xbd;" horiz-adv-x="1152" d="M313 0L809 770H895L398 0H313ZM757 -44L769 34L954 196Q994 231 1012 260T1030 313Q1030 333 1016 344T966 355H832L844 431Q876 437 915 442T1001 447Q1075 447 1105 422T1136 349Q1136 299 1112 251T1023 146L905
44H1105L1091 -44H757ZM227 355L291 758L186 742L196 805L315 846H404L326 355H227ZM118 355L132 443H449L435 355H118Z" />
<glyph unicode="&#xbe;" horiz-adv-x="1151" d="M313 0L809 770H895L398 0H313ZM958 -38L975 65H757L746 112L961 449H1063L871 148H987L1002 243L1031 299H1111L1087 148H1139L1127 81L1074 65L1057 -38H958ZM296 351Q242 351 194 355T107 365L120 443H273Q300
443 318 447T346 461T359 488L362 508Q363 511 363 513T363 518Q363 532 355 540T334 553T305 557L183 562L195 637L314 644Q344 646 362 655T384 685L388 706Q388 709 388 711T388 716Q388 735 372 744T318 754H179L192 831Q234 838 279 842T373 846Q430 846 460
822T492 751Q492 746 492 740T490 726L484 689Q480 664 469 646T442 617T407 600Q422 595 434 585T454 559T462 521Q462 515 462 509T460 495L455 468Q446 410 404 381T296 351Z" />
<glyph unicode="&#xbf;" horiz-adv-x="530" d="M419 337L391 153H328Q287 153 259 145T214 117T191 61L184 19Q183 10 183 3T182 -12Q182 -54 209 -72T288 -90Q334 -90 377 -81T470 -55L456 -145Q407 -171 351 -186T232 -201Q141 -201 97 -159T53 -48Q53 -25 58
0L68 63Q83 155 141 201T312 248L326 337H419ZM437 539Q454 539 454 524Q454 523 454 523T454 521L438 426Q436 407 416 407H345Q329 407 329 421Q329 423 329 424T329 426L344 521Q346 531 352 535T366 539H437Z" />
<glyph unicode="&#xc0;" horiz-adv-x="689" d="M27 0L387 738H543L663 0H535L507 174H239L155 0H27ZM286 285H495L447 631L286 285ZM450 791L354 930H455L523 791H450Z" />
<glyph unicode="&#xc1;" horiz-adv-x="689" d="M27 0L387 738H543L663 0H535L507 174H239L155 0H27ZM286 285H495L447 631L286 285ZM421 791L527 930H634L499 791H421Z" />
<glyph unicode="&#xc2;" horiz-adv-x="689" d="M27 0L387 738H543L663 0H535L507 174H239L155 0H27ZM286 285H495L447 631L286 285ZM306 791L442 930H527L608 791H535L474 874L380 791H306Z" />
<glyph unicode="&#xc3;" horiz-adv-x="689" d="M27 0L387 738H543L663 0H535L507 174H239L155 0H27ZM286 285H495L447 631L286 285ZM295 800Q310 866 343 891T415 917Q438 917 457 910T493 894T527 877T559 870Q581 870 595 883T614 921H676Q662 860 633 831T558
801Q536 801 517 808T479 824T445 841T412 848Q391 848 377 835T357 800H295Z" />
<glyph unicode="&#xc4;" horiz-adv-x="689" d="M27 0L387 738H543L663 0H535L507 174H239L155 0H27ZM286 285H495L447 631L286 285ZM532 803Q516 803 516 818Q516 819 516 823T520 847T531 912Q534 932 552 932H610Q626 932 626 917Q626 917 626 912T622 888T611
822Q608 803 589 803H532ZM330 803Q314 803 314 818Q314 819 315 823T319 847T329 912Q332 932 351 932H408Q424 932 424 917Q424 917 424 912T420 888T409 822Q407 803 387 803H330Z" />
<glyph unicode="&#xc5;" horiz-adv-x="689" d="M27 0L387 738H543L663 0H535L507 174H239L155 0H27ZM286 285H495L447 631L286 285ZM469 768Q420 768 391 789T361 863Q361 898 377 926T423 973T498 991Q547 991 575 970T604 897Q604 843 570 806T469 768ZM474
815Q511 815 528 839T545 894Q545 922 530 933T493 944Q455 944 438 920T420 865Q420 837 435 826T474 815Z" />
<glyph unicode="&#xc6;" horiz-adv-x="964" d="M641 -5Q606 -5 577 -1T527 17T496 52T489 110L497 173H272L139 0H16L427 568Q476 636 526 673T633 724T752 738Q811 738 885 735T1037 727L1020 624H758Q729 624 712 619T687 603T674 576T667 536L649 423L942 416L926
319L631 312L611 185Q606 150 617 135T648 115T688 111H939L923 9Q894 7 861 5T793 1T728 -2T675 -3T641 -5ZM345 279H514L562 582L345 279Z" />
<glyph unicode="&#xc7;" horiz-adv-x="591" d="M329 -6Q210 -6 154 58T98 238Q98 274 101 313T111 390Q129 506 166 585T265 704T419 744Q503 744 560 732T653 707L637 610Q592 620 542 626T440 633Q397 633 365 621T308 580T265 498T234 366Q228 332 225 298T221
237Q221 168 252 137T362 105Q431 105 474 108T559 118L543 21Q494 5 438 0T329 -6ZM206 -199L214 -148L234 -146Q253 -143 264 -136T281 -118T286 -101Q286 -89 277 -80T239 -68L291 -56Q325 -56 345 -69T365 -114Q365 -134 353 -153T315 -186T249 -199H206ZM239
-68L303 12H360L295 -68H239Z" />
<glyph unicode="&#xc8;" horiz-adv-x="588" d="M237 -6Q210 -6 181 0T129 23T93 72T89 154L157 577Q166 639 193 674T260 724T344 738Q419 738 494 735T645 727L629 624H361Q324 624 303 606T275 546L256 425L549 417L534 320L238 313L219 185Q215 156 221 140T244
117T285 110H549L532 7Q461 3 389 -1T237 -6ZM409 791L313 930H414L482 791H409Z" />
<glyph unicode="&#xc9;" horiz-adv-x="588" d="M237 -6Q210 -6 181 0T129 23T93 72T89 154L157 577Q166 639 193 674T260 724T344 738Q419 738 494 735T645 727L629 624H361Q324 624 303 606T275 546L256 425L549 417L534 320L238 313L219 185Q215 156 221 140T244
117T285 110H549L532 7Q461 3 389 -1T237 -6ZM379 791L485 930H592L457 791H379Z" />
<glyph unicode="&#xca;" horiz-adv-x="588" d="M237 -6Q210 -6 181 0T129 23T93 72T89 154L157 577Q166 639 193 674T260 724T344 738Q419 738 494 735T645 727L629 624H361Q324 624 303 606T275 546L256 425L549 417L534 320L238 313L219 185Q215 156 221 140T244
117T285 110H549L532 7Q461 3 389 -1T237 -6ZM264 791L400 930H485L566 791H493L432 874L338 791H264Z" />
<glyph unicode="&#xcb;" horiz-adv-x="588" d="M237 -6Q210 -6 181 0T129 23T93 72T89 154L157 577Q166 639 193 674T260 724T344 738Q419 738 494 735T645 727L629 624H361Q324 624 303 606T275 546L256 425L549 417L534 320L238 313L219 185Q215 156 221 140T244
117T285 110H549L532 7Q461 3 389 -1T237 -6ZM490 803Q474 803 474 818Q474 819 474 823T478 847T489 912Q492 932 510 932H568Q584 932 584 917Q584 917 584 912T580 888T569 822Q566 803 547 803H490ZM288 803Q272 803 272 818Q272 819 273 823T277 847T287 912Q290
932 309 932H366Q382 932 382 917Q382 917 382 912T378 888T367 822Q365 803 345 803H288Z" />
<glyph unicode="&#xcc;" horiz-adv-x="255" d="M65 0L182 738H306L189 0H65ZM234 791L138 930H239L307 791H234Z" />
<glyph unicode="&#xcd;" horiz-adv-x="255" d="M65 0L182 738H306L189 0H65ZM205 791L311 930H418L283 791H205Z" />
<glyph unicode="&#xce;" horiz-adv-x="255" d="M65 0L182 738H306L189 0H65ZM90 791L226 930H311L392 791H319L258 874L164 791H90Z" />
<glyph unicode="&#xcf;" horiz-adv-x="255" d="M65 0L182 738H306L189 0H65ZM315 803Q299 803 299 818Q299 819 299 823T303 847T314 912Q317 932 335 932H393Q409 932 409 917Q409 917 409 912T405 888T394 822Q391 803 372 803H315ZM113 803Q97 803 97 818Q97
819 98 823T102 847T112 912Q115 932 134 932H191Q207 932 207 917Q207 917 207 912T203 888T192 822Q190 803 170 803H113Z" />
<glyph unicode="&#xd0;" horiz-adv-x="682" d="M57 332L71 414H395L381 332H57ZM65 0L182 738H457Q552 738 604 707T678 619T699 481Q699 449 696 416T688 349Q674 262 647 197T577 88T475 22T340 0H65ZM207 111H352Q400 111 436 129T497 181T538 263T564 370Q569
404 572 431T575 477Q575 529 562 562T516 611T427 627H288L207 111Z" />
<glyph unicode="&#xd1;" horiz-adv-x="684" d="M65 0L182 738H282L534 210L618 738H742L625 0H525L273 529L189 0H65ZM281 800Q296 866 329 891T401 917Q424 917 443 910T479 894T513 877T545 870Q567 870 581 883T600 921H662Q648 860 619 831T544 801Q522 801
503 808T465 824T431 841T398 848Q377 848 363 835T343 800H281Z" />
<glyph unicode="&#xd2;" horiz-adv-x="693" d="M344 -6Q288 -6 242 3T163 37T113 106T95 223Q95 257 99 299T110 386Q127 492 155 562T225 671T327 727T465 744Q520 744 565 735T644 699T695 626T713 505Q713 473 709 431T698 343Q681 235 653 166T582 60T481
9T344 -6ZM364 106Q412 106 447 118T506 159T546 237T575 361Q582 404 585 441T589 504Q589 558 573 585T526 623T447 633Q400 633 366 622T307 582T264 501T234 368Q227 327 223 290T219 228Q219 179 234 153T281 116T364 106ZM456 791L360 930H461L529 791H456Z"
/>
<glyph unicode="&#xd3;" horiz-adv-x="693" d="M344 -6Q288 -6 242 3T163 37T113 106T95 223Q95 257 99 299T110 386Q127 492 155 562T225 671T327 727T465 744Q520 744 565 735T644 699T695 626T713 505Q713 473 709 431T698 343Q681 235 653 166T582 60T481
9T344 -6ZM364 106Q412 106 447 118T506 159T546 237T575 361Q582 404 585 441T589 504Q589 558 573 585T526 623T447 633Q400 633 366 622T307 582T264 501T234 368Q227 327 223 290T219 228Q219 179 234 153T281 116T364 106ZM426 791L532 930H639L504 791H426Z"
/>
<glyph unicode="&#xd4;" horiz-adv-x="693" d="M344 -6Q288 -6 242 3T163 37T113 106T95 223Q95 257 99 299T110 386Q127 492 155 562T225 671T327 727T465 744Q520 744 565 735T644 699T695 626T713 505Q713 473 709 431T698 343Q681 235 653 166T582 60T481
9T344 -6ZM364 106Q412 106 447 118T506 159T546 237T575 361Q582 404 585 441T589 504Q589 558 573 585T526 623T447 633Q400 633 366 622T307 582T264 501T234 368Q227 327 223 290T219 228Q219 179 234 153T281 116T364 106ZM312 791L448 930H533L614 791H541L480
874L386 791H312Z" />
<glyph unicode="&#xd5;" horiz-adv-x="693" d="M344 -6Q288 -6 242 3T163 37T113 106T95 223Q95 257 99 299T110 386Q127 492 155 562T225 671T327 727T465 744Q520 744 565 735T644 699T695 626T713 505Q713 473 709 431T698 343Q681 235 653 166T582 60T481
9T344 -6ZM364 106Q412 106 447 118T506 159T546 237T575 361Q582 404 585 441T589 504Q589 558 573 585T526 623T447 633Q400 633 366 622T307 582T264 501T234 368Q227 327 223 290T219 228Q219 179 234 153T281 116T364 106ZM301 800Q316 866 349 891T421 917Q444
917 463 910T499 894T533 877T565 870Q587 870 601 883T620 921H682Q668 860 639 831T564 801Q542 801 523 808T485 824T451 841T418 848Q397 848 383 835T363 800H301Z" />
<glyph unicode="&#xd6;" horiz-adv-x="693" d="M344 -6Q288 -6 242 3T163 37T113 106T95 223Q95 257 99 299T110 386Q127 492 155 562T225 671T327 727T465 744Q520 744 565 735T644 699T695 626T713 505Q713 473 709 431T698 343Q681 235 653 166T582 60T481
9T344 -6ZM364 106Q412 106 447 118T506 159T546 237T575 361Q582 404 585 441T589 504Q589 558 573 585T526 623T447 633Q400 633 366 622T307 582T264 501T234 368Q227 327 223 290T219 228Q219 179 234 153T281 116T364 106ZM537 803Q521 803 521 818Q521 819
521 823T525 847T536 912Q539 932 557 932H615Q631 932 631 917Q631 917 631 912T627 888T616 822Q613 803 594 803H537ZM335 803Q319 803 319 818Q319 819 320 823T324 847T334 912Q337 932 356 932H413Q429 932 429 917Q429 917 429 912T425 888T414 822Q412
803 392 803H335Z" />
<glyph unicode="&#xd7;" horiz-adv-x="609" d="M209 162L149 233L516 550L576 479L209 162ZM455 162L188 479L270 550L537 233L455 162Z" />
<glyph unicode="&#xd8;" horiz-adv-x="696" d="M47 0L693 738H765L119 0H47ZM344 -6Q288 -6 242 3T163 37T113 106T95 223Q95 257 99 299T110 386Q127 492 155 562T225 671T327 727T465 744Q520 744 565 735T644 699T695 626T713 505Q713 473 709 431T698 343Q681
235 653 166T582 60T481 9T344 -6ZM364 106Q412 106 447 118T506 159T546 237T575 361Q582 404 585 441T589 504Q589 558 573 585T526 623T447 633Q400 633 366 622T307 582T264 501T234 368Q227 327 223 290T219 228Q219 179 234 153T281 116T364 106Z" />
<glyph unicode="&#xd9;" horiz-adv-x="684" d="M343 -6Q226 -6 166 44T106 211Q106 237 109 270T119 338L182 738H306L240 320Q236 292 233 266T230 220Q230 159 261 132T359 105Q397 105 427 113T479 144T518 209T546 320L612 738H736L667 302Q651 203 623 142T555
49T462 6T343 -6ZM442 791L346 930H447L515 791H442Z" />
<glyph unicode="&#xda;" horiz-adv-x="684" d="M343 -6Q226 -6 166 44T106 211Q106 237 109 270T119 338L182 738H306L240 320Q236 292 233 266T230 220Q230 159 261 132T359 105Q397 105 427 113T479 144T518 209T546 320L612 738H736L667 302Q651 203 623 142T555
49T462 6T343 -6ZM412 791L518 930H625L490 791H412Z" />
<glyph unicode="&#xdb;" horiz-adv-x="684" d="M343 -6Q226 -6 166 44T106 211Q106 237 109 270T119 338L182 738H306L240 320Q236 292 233 266T230 220Q230 159 261 132T359 105Q397 105 427 113T479 144T518 209T546 320L612 738H736L667 302Q651 203 623 142T555
49T462 6T343 -6ZM297 791L433 930H518L599 791H526L465 874L371 791H297Z" />
<glyph unicode="&#xdc;" horiz-adv-x="684" d="M343 -6Q226 -6 166 44T106 211Q106 237 109 270T119 338L182 738H306L240 320Q236 292 233 266T230 220Q230 159 261 132T359 105Q397 105 427 113T479 144T518 209T546 320L612 738H736L667 302Q651 203 623 142T555
49T462 6T343 -6ZM523 803Q507 803 507 818Q507 819 507 823T511 847T522 912Q525 932 543 932H601Q617 932 617 917Q617 917 617 912T613 888T602 822Q599 803 580 803H523ZM321 803Q305 803 305 818Q305 819 306 823T310 847T320 912Q323 932 342 932H399Q415
932 415 917Q415 917 415 912T411 888T400 822Q398 803 378 803H321Z" />
<glyph unicode="&#xdd;" horiz-adv-x="631" d="M246 0L282 225L135 738H271L364 360L589 738H730L406 225L370 0H246ZM388 791L494 930H601L466 791H388Z" />
<glyph unicode="&#xde;" horiz-adv-x="563" d="M65 0L182 738H306L189 0H65ZM354 148Q311 148 268 154T187 166L202 260H338Q370 260 395 271T439 305T463 368Q465 382 466 396T468 418Q468 462 444 479T376 497H233L250 608H400Q455 608 498 593T568 538T594
430Q594 416 592 394T586 355Q577 295 554 255T498 191T428 158T354 148Z" />
<glyph unicode="&#xdf;" horiz-adv-x="598" d="M398 -6Q352 -6 311 -2T247 9L259 92Q290 90 320 89T383 88Q417 88 435 96T462 117T472 142Q474 152 474 158T475 170Q475 188 462 200T431 224T393 248T361 281T348 332Q348 362 362 389T398 440T440 487T475 534T489
583Q489 620 464 639T393 659Q336 659 304 624T257 504L177 0H53L142 557Q151 620 183 667T271 742T404 769Q476 769 519 746T583 684T603 603Q603 569 590 541T557 489T518 445T485 406T472 367Q472 349 484 336T515 311T552 284T583 249T596 197Q596 191 595
179T588 134Q581 92 562 65T516 22T458 0T398 -6Z" />
<glyph unicode="&#xe0;" horiz-adv-x="568" d="M226 -6Q185 -6 151 13T97 72T76 177Q76 205 80 235T87 286Q101 373 134 429T224 514T368 542Q410 542 451 535T528 513T587 480L511 0H402L396 55Q382 44 354 30T293 5T226 -6ZM284 94Q322 94 352 107T408 136L453
421Q442 427 418 434T362 442Q313 442 283 423T235 368T208 276Q204 252 202 232T200 199Q200 151 221 123T284 94ZM364 631L268 770H369L437 631H364Z" />
<glyph unicode="&#xe1;" horiz-adv-x="568" d="M226 -6Q185 -6 151 13T97 72T76 177Q76 205 80 235T87 286Q101 373 134 429T224 514T368 542Q410 542 451 535T528 513T587 480L511 0H402L396 55Q382 44 354 30T293 5T226 -6ZM284 94Q322 94 352 107T408 136L453
421Q442 427 418 434T362 442Q313 442 283 423T235 368T208 276Q204 252 202 232T200 199Q200 151 221 123T284 94ZM341 631L447 770H554L419 631H341Z" />
<glyph unicode="&#xe2;" horiz-adv-x="568" d="M226 -6Q185 -6 151 13T97 72T76 177Q76 205 80 235T87 286Q101 373 134 429T224 514T368 542Q410 542 451 535T528 513T587 480L511 0H402L396 55Q382 44 354 30T293 5T226 -6ZM284 94Q322 94 352 107T408 136L453
421Q442 427 418 434T362 442Q313 442 283 423T235 368T208 276Q204 252 202 232T200 199Q200 151 221 123T284 94ZM230 631L366 770H451L532 631H459L398 714L304 631H230Z" />
<glyph unicode="&#xe3;" horiz-adv-x="568" d="M226 -6Q185 -6 151 13T97 72T76 177Q76 205 80 235T87 286Q101 373 134 429T224 514T368 542Q410 542 451 535T528 513T587 480L511 0H402L396 55Q382 44 354 30T293 5T226 -6ZM284 94Q322 94 352 107T408 136L453
421Q442 427 418 434T362 442Q313 442 283 423T235 368T208 276Q204 252 202 232T200 199Q200 151 221 123T284 94ZM205 640Q220 706 253 731T325 757Q348 757 367 750T403 734T437 717T469 710Q491 710 505 723T524 761H586Q572 700 543 671T468 641Q446 641 427
648T389 664T355 681T322 688Q301 688 287 675T267 640H205Z" />
<glyph unicode="&#xe4;" horiz-adv-x="568" d="M226 -6Q185 -6 151 13T97 72T76 177Q76 205 80 235T87 286Q101 373 134 429T224 514T368 542Q410 542 451 535T528 513T587 480L511 0H402L396 55Q382 44 354 30T293 5T226 -6ZM284 94Q322 94 352 107T408 136L453
421Q442 427 418 434T362 442Q313 442 283 423T235 368T208 276Q204 252 202 232T200 199Q200 151 221 123T284 94ZM450 643Q434 643 434 658Q434 659 434 663T438 687T449 752Q452 772 470 772H528Q544 772 544 757Q544 757 544 752T540 728T529 662Q526 643 507
643H450ZM248 643Q232 643 232 658Q232 659 233 663T237 687T247 752Q250 772 269 772H326Q342 772 342 757Q342 757 342 752T338 728T327 662Q325 643 305 643H248Z" />
<glyph unicode="&#xe5;" horiz-adv-x="568" d="M226 -6Q185 -6 151 13T97 72T76 177Q76 205 80 235T87 286Q101 373 134 429T224 514T368 542Q410 542 451 535T528 513T587 480L511 0H402L396 55Q382 44 354 30T293 5T226 -6ZM284 94Q322 94 352 107T408 136L453
421Q442 427 418 434T362 442Q313 442 283 423T235 368T208 276Q204 252 202 232T200 199Q200 151 221 123T284 94ZM389 588Q340 588 311 609T281 683Q281 718 297 746T343 793T418 811Q467 811 495 790T524 717Q524 663 490 626T389 588ZM394 635Q431 635 448
659T465 714Q465 742 450 753T413 764Q375 764 358 740T340 685Q340 657 355 646T394 635Z" />
<glyph unicode="&#xe6;" horiz-adv-x="883" d="M227 -6Q186 -6 152 12T99 70T79 176Q79 268 98 337T155 451T244 519T362 542Q388 542 419 538T480 524T535 500Q548 511 568 519T612 533T656 540T693 543Q796 543 848 504T900 381Q900 328 875 290T799 230T672
209Q644 209 616 211T566 216T536 222Q535 207 535 198T534 178Q534 149 543 129T579 97T650 86H843L831 13Q801 7 763 3T683 -3T602 -6Q563 -6 530 4T473 32T438 75Q408 53 374 35T304 5T227 -6ZM278 95Q305 95 331 104T379 128T415 158Q414 166 414 176T413 196Q413
233 418 272T435 350T465 419Q451 426 426 434T372 442Q324 442 291 422T238 368T211 291T202 199Q202 151 220 123T278 95ZM641 280Q714 280 749 303T784 368Q784 407 762 427T697 448Q657 448 631 438T588 406T562 355T545 287Q548 286 562 285T597 282T641 280Z"
/>
<glyph unicode="&#xe7;" horiz-adv-x="477" d="M272 -6Q214 -6 170 12T103 73T79 194Q79 212 81 236T88 289Q103 382 137 437T222 517T337 542Q379 542 427 535T518 518L506 446H364Q320 446 290 428T240 371T209 267Q205 246 204 231T202 205Q202 161 214 136T251
99T311 88H459L448 18Q415 7 373 1T272 -6ZM136 57L144 108L164 110Q183 113 194 120T211 138T216 155Q216 167 207 176T169 188L221 200Q255 200 275 187T295 142Q295 122 283 103T245 70T179 57H136ZM169 188L233 268H290L225 188H169Z" />
<glyph unicode="&#xe8;" horiz-adv-x="548" d="M293 -6Q216 -6 169 16T101 83T79 190Q79 218 82 244T89 296Q102 381 137 435T229 516T366 543Q407 543 443 536T506 512T550 465T566 388Q566 333 547 298T495 243T418 217T328 209Q288 209 255 212T204 221Q202
210 202 199T201 176Q201 129 233 108T341 86H509L497 13Q461 6 407 0T293 -6ZM294 280Q346 280 380 289T433 319T451 375Q451 413 428 430T358 448Q312 448 283 430T237 375T212 287Q229 284 250 282T294 280ZM363 631L267 770H368L436 631H363Z" />
<glyph unicode="&#xe9;" horiz-adv-x="548" d="M293 -6Q216 -6 169 16T101 83T79 190Q79 218 82 244T89 296Q102 381 137 435T229 516T366 543Q407 543 443 536T506 512T550 465T566 388Q566 333 547 298T495 243T418 217T328 209Q288 209 255 212T204 221Q202
210 202 199T201 176Q201 129 233 108T341 86H509L497 13Q461 6 407 0T293 -6ZM294 280Q346 280 380 289T433 319T451 375Q451 413 428 430T358 448Q312 448 283 430T237 375T212 287Q229 284 250 282T294 280ZM339 631L445 770H552L417 631H339Z" />
<glyph unicode="&#xea;" horiz-adv-x="548" d="M293 -6Q216 -6 169 16T101 83T79 190Q79 218 82 244T89 296Q102 381 137 435T229 516T366 543Q407 543 443 536T506 512T550 465T566 388Q566 333 547 298T495 243T418 217T328 209Q288 209 255 212T204 221Q202
210 202 199T201 176Q201 129 233 108T341 86H509L497 13Q461 6 407 0T293 -6ZM294 280Q346 280 380 289T433 319T451 375Q451 413 428 430T358 448Q312 448 283 430T237 375T212 287Q229 284 250 282T294 280ZM228 631L364 770H449L530 631H457L396 714L302 631H228Z"
/>
<glyph unicode="&#xeb;" horiz-adv-x="548" d="M293 -6Q216 -6 169 16T101 83T79 190Q79 218 82 244T89 296Q102 381 137 435T229 516T366 543Q407 543 443 536T506 512T550 465T566 388Q566 333 547 298T495 243T418 217T328 209Q288 209 255 212T204 221Q202
210 202 199T201 176Q201 129 233 108T341 86H509L497 13Q461 6 407 0T293 -6ZM294 280Q346 280 380 289T433 319T451 375Q451 413 428 430T358 448Q312 448 283 430T237 375T212 287Q229 284 250 282T294 280ZM449 643Q433 643 433 658Q433 659 433 663T437 687T448
752Q451 772 469 772H527Q543 772 543 757Q543 757 543 752T539 728T528 662Q525 643 506 643H449ZM247 643Q231 643 231 658Q231 659 232 663T236 687T246 752Q249 772 268 772H325Q341 772 341 757Q341 757 341 752T337 728T326 662Q324 643 304 643H247Z" />
<glyph unicode="&#xec;" horiz-adv-x="241" d="M59 0L144 536H268L183 0H59ZM462 631L366 770H467L535 631H462Z" />
<glyph unicode="&#xed;" horiz-adv-x="241" d="M59 0L144 536H268L183 0H59ZM183 631L289 770H396L261 631H183Z" />
<glyph unicode="&#xee;" horiz-adv-x="241" d="M59 0L144 536H268L183 0H59ZM328 631L464 770H549L630 631H557L496 714L402 631H328Z" />
<glyph unicode="&#xef;" horiz-adv-x="241" d="M59 0L144 536H268L183 0H59ZM292 643Q276 643 276 658Q276 659 276 663T280 687T291 752Q294 772 312 772H370Q386 772 386 757Q386 757 386 752T382 728T371 662Q368 643 349 643H292ZM90 643Q74 643 74 658Q74
659 75 663T79 687T89 752Q92 772 111 772H168Q184 772 184 757Q184 757 184 752T180 728T169 662Q167 643 147 643H90Z" />
<glyph unicode="&#xf0;" horiz-adv-x="571" d="M85 267Q98 348 119 399T170 479T243 518T341 530Q396 530 437 510T502 454T525 367Q536 337 547 307T568 248Q553 147 519 92T428 16T285 -6Q219 -6 173 14T103 74T79 179Q79 203 80 224T85 267ZM206 249Q204 230
203 214T201 184Q201 148 213 129T246 102T299 94Q331 94 355 101T395 125T424 176T444 263Q448 287 450 308T452 347Q452 394 429 413T352 432Q319 432 295 425T254 397T227 341T206 249ZM232 763Q348 763 427 731T546 630T586 447Q586 404 582 354T568 248L473
312Q479 351 482 386T485 451Q485 539 455 589T366 660T218 681L232 763ZM609 759L619 719L253 574L241 615L609 759Z" />
<glyph unicode="&#xf1;" horiz-adv-x="585" d="M59 0L143 536H245L258 480Q296 506 345 524T452 543Q498 543 528 527T573 484T588 420Q588 405 587 385T578 316L527 0H404L453 312Q456 336 457 347T459 365Q459 394 442 413T383 432Q343 432 310 419T244 383L183
0H59ZM213 640Q228 706 261 731T333 757Q356 757 375 750T411 734T445 717T477 710Q499 710 513 723T532 761H594Q580 700 551 671T476 641Q454 641 435 648T397 664T363 681T330 688Q309 688 295 675T275 640H213Z" />
<glyph unicode="&#xf2;" horiz-adv-x="571" d="M285 -6Q219 -6 173 14T103 74T79 179Q79 206 81 230T87 279Q100 360 122 411T178 490T259 530T371 542Q452 542 496 521T558 457T576 349Q576 325 574 298T567 242Q552 144 518 90T428 15T285 -6ZM299 94Q331 94
355 101T395 125T423 176T444 260Q448 289 450 311T453 354Q453 404 430 424T354 444Q320 444 297 436T256 409T228 353T208 260Q205 238 203 220T201 184Q201 148 213 129T246 102T299 94ZM361 631L265 770H366L434 631H361Z" />
<glyph unicode="&#xf3;" horiz-adv-x="571" d="M285 -6Q219 -6 173 14T103 74T79 179Q79 206 81 230T87 279Q100 360 122 411T178 490T259 530T371 542Q452 542 496 521T558 457T576 349Q576 325 574 298T567 242Q552 144 518 90T428 15T285 -6ZM299 94Q331 94
355 101T395 125T423 176T444 260Q448 289 450 311T453 354Q453 404 430 424T354 444Q320 444 297 436T256 409T228 353T208 260Q205 238 203 220T201 184Q201 148 213 129T246 102T299 94ZM338 631L444 770H551L416 631H338Z" />
<glyph unicode="&#xf4;" horiz-adv-x="571" d="M285 -6Q219 -6 173 14T103 74T79 179Q79 206 81 230T87 279Q100 360 122 411T178 490T259 530T371 542Q452 542 496 521T558 457T576 349Q576 325 574 298T567 242Q552 144 518 90T428 15T285 -6ZM299 94Q331 94
355 101T395 125T423 176T444 260Q448 289 450 311T453 354Q453 404 430 424T354 444Q320 444 297 436T256 409T228 353T208 260Q205 238 203 220T201 184Q201 148 213 129T246 102T299 94ZM227 631L363 770H448L529 631H456L395 714L301 631H227Z" />
<glyph unicode="&#xf5;" horiz-adv-x="571" d="M285 -6Q219 -6 173 14T103 74T79 179Q79 206 81 230T87 279Q100 360 122 411T178 490T259 530T371 542Q452 542 496 521T558 457T576 349Q576 325 574 298T567 242Q552 144 518 90T428 15T285 -6ZM299 94Q331 94
355 101T395 125T423 176T444 260Q448 289 450 311T453 354Q453 404 430 424T354 444Q320 444 297 436T256 409T228 353T208 260Q205 238 203 220T201 184Q201 148 213 129T246 102T299 94ZM202 640Q217 706 250 731T322 757Q345 757 364 750T400 734T434 717T466
710Q488 710 502 723T521 761H583Q569 700 540 671T465 641Q443 641 424 648T386 664T352 681T319 688Q298 688 284 675T264 640H202Z" />
<glyph unicode="&#xf6;" horiz-adv-x="571" d="M285 -6Q219 -6 173 14T103 74T79 179Q79 206 81 230T87 279Q100 360 122 411T178 490T259 530T371 542Q452 542 496 521T558 457T576 349Q576 325 574 298T567 242Q552 144 518 90T428 15T285 -6ZM299 94Q331 94
355 101T395 125T423 176T444 260Q448 289 450 311T453 354Q453 404 430 424T354 444Q320 444 297 436T256 409T228 353T208 260Q205 238 203 220T201 184Q201 148 213 129T246 102T299 94ZM447 643Q431 643 431 658Q431 659 431 663T435 687T446 752Q449 772 467
772H525Q541 772 541 757Q541 757 541 752T537 728T526 662Q523 643 504 643H447ZM245 643Q229 643 229 658Q229 659 230 663T234 687T244 752Q247 772 266 772H323Q339 772 339 757Q339 757 339 752T335 728T324 662Q322 643 302 643H245Z" />
<glyph unicode="&#xf7;" horiz-adv-x="609" d="M285 95Q262 95 265 118L276 186Q281 211 304 211H374Q400 211 395 186L385 118Q383 105 375 100T356 95H285ZM350 501Q340 501 334 507T330 524L341 592Q344 617 369 617H439Q463 617 460 592L449 524Q447 511 440
506T421 501H350ZM129 306L145 406H593L577 306H129Z" />
<glyph unicode="&#xf8;" horiz-adv-x="568" d="M38 0L556 536H615L97 0H38ZM285 -6Q219 -6 173 14T103 74T79 179Q79 206 81 230T87 279Q100 360 122 411T178 490T259 530T371 542Q452 542 496 521T558 457T576 349Q576 325 574 298T567 242Q552 144 518 90T428
15T285 -6ZM299 94Q331 94 355 101T395 125T423 176T444 260Q448 289 450 311T453 354Q453 404 430 424T354 444Q320 444 297 436T256 409T228 353T208 260Q205 238 203 220T201 184Q201 148 213 129T246 102T299 94Z" />
<glyph unicode="&#xf9;" horiz-adv-x="585" d="M215 -6Q146 -6 114 27T81 120Q81 139 82 153T86 181L142 536H266L213 195Q212 189 212 183T211 169Q211 136 230 121T285 105Q327 105 360 118T426 153L487 536H611L526 0H417L411 56Q382 37 354 23T292 2T215 -6ZM378
631L282 770H383L451 631H378Z" />
<glyph unicode="&#xfa;" horiz-adv-x="585" d="M215 -6Q146 -6 114 27T81 120Q81 139 82 153T86 181L142 536H266L213 195Q212 189 212 183T211 169Q211 136 230 121T285 105Q327 105 360 118T426 153L487 536H611L526 0H417L411 56Q382 37 354 23T292 2T215 -6ZM354
631L460 770H567L432 631H354Z" />
<glyph unicode="&#xfb;" horiz-adv-x="585" d="M215 -6Q146 -6 114 27T81 120Q81 139 82 153T86 181L142 536H266L213 195Q212 189 212 183T211 169Q211 136 230 121T285 105Q327 105 360 118T426 153L487 536H611L526 0H417L411 56Q382 37 354 23T292 2T215 -6ZM243
631L379 770H464L545 631H472L411 714L317 631H243Z" />
<glyph unicode="&#xfc;" horiz-adv-x="585" d="M215 -6Q146 -6 114 27T81 120Q81 139 82 153T86 181L142 536H266L213 195Q212 189 212 183T211 169Q211 136 230 121T285 105Q327 105 360 118T426 153L487 536H611L526 0H417L411 56Q382 37 354 23T292 2T215 -6ZM464
643Q448 643 448 658Q448 659 448 663T452 687T463 752Q466 772 484 772H542Q558 772 558 757Q558 757 558 752T554 728T543 662Q540 643 521 643H464ZM262 643Q246 643 246 658Q246 659 247 663T251 687T261 752Q264 772 283 772H340Q356 772 356 757Q356 757
356 752T352 728T341 662Q339 643 319 643H262Z" />
<glyph unicode="&#xfd;" horiz-adv-x="569" d="M96 -237V-148Q153 -136 200 -103T281 0Q239 4 212 18T169 61T146 137L93 536H221L256 164Q260 139 269 126T292 108T320 102L455 419Q466 446 475 478T487 544H602Q602 496 590 445T549 335L393 6Q353 -80 308 -131T211
-206T96 -237ZM326 631L432 770H539L404 631H326Z" />
<glyph unicode="&#xfe;" horiz-adv-x="572" d="M20 -237L179 763H304L268 537Q295 539 328 540T401 542Q494 542 535 495T576 353Q576 328 574 301T566 247Q553 164 520 108T436 23T317 -6Q279 -6 246 -1T185 19L145 -237H20ZM302 99Q345 99 374 117T420 174T448
272Q450 286 452 301T454 332Q454 387 434 414T367 442L252 441L201 117Q219 111 234 107T265 101T302 99Z" />
<glyph unicode="&#xff;" horiz-adv-x="569" d="M96 -237V-148Q153 -136 200 -103T281 0Q239 4 212 18T169 61T146 137L93 536H221L256 164Q260 139 269 126T292 108T320 102L455 419Q466 446 475 478T487 544H602Q602 496 590 445T549 335L393 6Q353 -80 308 -131T211
-206T96 -237ZM436 643Q420 643 420 658Q420 659 420 663T424 687T435 752Q438 772 456 772H514Q530 772 530 757Q530 757 530 752T526 728T515 662Q512 643 493 643H436ZM234 643Q218 643 218 658Q218 659 219 663T223 687T233 752Q236 772 255 772H312Q328 772
328 757Q328 757 328 752T324 728T313 662Q311 643 291 643H234Z" />
<glyph unicode="&#x2013;" horiz-adv-x="519" d="M61 239L77 340H550L534 239H61Z" />
<glyph unicode="&#x2014;" horiz-adv-x="742" d="M61 239L77 340H773L757 239H61Z" />
<glyph unicode="&#x2018;" horiz-adv-x="211" d="M144 505Q128 505 128 520Q128 522 128 523T129 527L153 676Q158 709 174 725T210 746T247 752Q258 752 264 752T275 749L268 704Q251 704 246 696T238 678L232 641H241Q258 641 258 625Q258 624 258 623T258 620L244
527Q240 505 220 505H144Z" />
<glyph unicode="&#x2019;" horiz-adv-x="211" d="M158 505Q147 505 141 505T129 507L137 553Q155 553 160 561T167 579L172 615H163Q146 615 146 632Q146 633 146 634T146 636L161 729Q164 752 185 752H261Q276 752 276 736Q276 735 276 733T275 729L251 580Q247
548 231 532T194 510T158 505Z" />
<glyph unicode="&#x201a;" horiz-adv-x="211" d="M59 -116Q48 -116 40 -115T31 -114L38 -68Q56 -68 61 -60T68 -42L74 -6H65Q47 -6 47 11Q47 12 47 13T48 15L63 108Q66 131 86 131H162Q178 131 178 115Q178 114 178 112T177 108L153 -41Q148 -73 132 -89T96 -111T59
-116Z" />
<glyph unicode="&#x201c;" horiz-adv-x="361" d="M144 505Q128 505 128 520Q128 522 128 523T129 527L153 676Q158 709 174 725T210 746T247 752Q258 752 264 752T275 749L268 704Q251 704 246 696T238 678L232 641H241Q258 641 258 625Q258 624 258 623T258 620L244
527Q240 505 220 505H144ZM295 505Q279 505 279 520Q279 522 279 523T280 527L304 676Q309 709 325 725T361 746T398 752Q409 752 415 752T426 749L419 704Q402 704 397 696T389 678L383 641H392Q409 641 409 625Q409 624 409 623T409 620L395 527Q391 505 371
505H295Z" />
<glyph unicode="&#x201d;" horiz-adv-x="361" d="M158 505Q147 505 141 505T129 507L137 553Q155 553 160 561T167 579L172 615H163Q146 615 146 632Q146 633 146 634T146 636L161 729Q164 752 185 752H261Q276 752 276 736Q276 735 276 733T275 729L251 580Q247
548 231 532T194 510T158 505ZM309 505Q298 505 292 505T280 507L288 553Q306 553 311 561T318 579L323 615H314Q297 615 297 632Q297 633 297 634T297 636L312 729Q315 752 336 752H412Q427 752 427 736Q427 735 427 733T426 729L402 580Q398 548 382 532T345
510T309 505Z" />
<glyph unicode="&#x201e;" horiz-adv-x="361" d="M59 -116Q48 -116 40 -115T31 -114L38 -68Q56 -68 61 -60T68 -42L74 -6H65Q47 -6 47 11Q47 12 47 13T48 15L63 108Q66 131 86 131H162Q178 131 178 115Q178 114 178 112T177 108L153 -41Q148 -73 132 -89T96 -111T59
-116ZM210 -116Q199 -116 191 -115T182 -114L189 -68Q207 -68 212 -60T219 -42L225 -6H216Q198 -6 198 11Q198 12 198 13T199 15L214 108Q217 131 237 131H313Q329 131 329 115Q329 114 329 112T328 108L304 -41Q299 -73 283 -89T247 -111T210 -116Z" />
<glyph unicode="&#x2022;" horiz-adv-x="319" d="M141 299Q109 299 114 331L130 431Q132 447 142 456T169 466H263Q298 466 292 431L276 331Q273 313 262 306T235 299H141Z" />
<glyph unicode="&#x2039;" horiz-adv-x="367" d="M267 62L79 282L331 496L385 434L205 281L338 126L267 62Z" />
<glyph unicode="&#x203a;" horiz-adv-x="367" d="M110 62L59 126L239 280L107 435L180 496L365 279L110 62Z" />
</font>
</defs>
</svg>
