<?xml version="1.0" encoding="UTF-8"?>
<svg width="242px" height="40px" viewBox="0 0 242 40" version="1.1" xmlns="http://www.w3.org/2000/svg" xmlns:xlink="http://www.w3.org/1999/xlink">
    <title>Slice</title>
    <g id="Home-Page" stroke="none" stroke-width="1" fill="none" fill-rule="evenodd">
        <g id="Thundra-Logo" fill="#404090" fill-rule="nonzero">
            <path d="M11.5660606,39.8593939 L11.5660606,39.3430303 L14.5042424,38.3878788 L11.5951515,38.7054545 L11.6412121,37.6848485 C11.6412121,37.6848485 16.2472727,37.9515152 17.7866667,37.1151515 C19.3260606,36.2787879 28.6424242,30.7515152 28.6424242,30.7515152 C28.6424242,30.7515152 23.5927273,30.9333333 19.2387879,28.2763636 L21.5321212,24.3975758 L17.4109091,27.4375758 C15.3400227,26.6110538 13.4200014,25.4479009 11.7284848,23.9951515 L11.6630303,23.910303 L15.9490909,19.830303 C15.9490909,19.830303 12.4921212,21.350303 10.0921212,22.2036364 C9.97843026,22.1120195 9.86997652,22.0140874 9.76727273,21.910303 C10.9793939,21.1539394 12.6763636,20.1139394 12.6763636,20.1139394 L8.60606061,20.6424242 C8.36363636,20.5333333 7.57818182,19.7575758 6.8169697,18.5115152 C6.3809155,17.8095801 5.99919583,17.0753168 5.67515152,16.3151515 L15.1806061,13.0909091 L4.04121212,12.1793939 C4.04121212,12.1793939 3.84727273,12.0848485 3.46424242,11.3163636 C3.21401728,10.7891231 3.02138816,10.2364319 2.88969697,9.66787879 L11.7236364,8.52848485 L1.25575758,5.93939394 C1.25575758,5.93939394 0.433939394,4.57939394 0.295757576,3.34787879 C0.182175543,2.28855006 0.246082729,1.21769503 0.484848485,0.179393939 C0.484848485,0.179393939 8.65454545,0.455757576 16.8169697,3.20969697 C24.9793939,5.96363636 26.1187879,11.1248485 26.1187879,11.1248485 C26.310303,17.8666667 27.9393939,22.6884848 33.510303,26.7733333 C39.0812121,30.8581818 45.1248485,29.6266667 47.7187879,27.2581818 C49.7115152,25.430303 47.2339394,24.3781818 47.2339394,24.3781818 C47.2339394,24.3781818 50.7612121,24.0630303 53.5684848,24.569697 C56.7393939,25.1393939 58.4824242,26.8630303 58.4824242,26.8630303 L11.5660606,39.8593939 Z" id="Path"></path>
            <path d="M81.9781818,11.1151491 L61.8569697,11.1151491 C61.1681562,11.1177995 60.6100448,11.6748293 60.6060606,12.3636364 L60.6060606,15.7939394 C60.6060606,16.126987 60.7383633,16.4463939 60.9738635,16.6818941 C61.2093637,16.9173943 61.5287706,17.049697 61.8618182,17.049697 L68.2060606,17.049697 C68.4042865,17.0490502 68.5945801,17.127509 68.7347477,17.2676766 C68.8749153,17.4078442 68.953374,17.5981378 68.9527273,17.7963636 L68.9527273,35.0909091 C68.9520835,35.4237336 69.0838465,35.743147 69.3189619,35.9787171 C69.5540773,36.2142873 69.8732355,36.3466667 70.2060606,36.3466667 L73.6290909,36.3466667 C73.9621385,36.3466667 74.2815454,36.214364 74.5170456,35.9788638 C74.7525458,35.7433636 74.8848485,35.4239567 74.8848485,35.0909091 L74.8848485,17.7963636 C74.8841905,17.5972918 74.9633132,17.4062541 75.1045338,17.2659446 C75.2457544,17.1256351 75.4373002,17.0477505 75.6363636,17.049697 L81.9806061,17.049697 C82.6741418,17.049697 83.2363636,16.4874752 83.2363636,15.7939394 L83.2363636,12.3636364 C83.2323592,11.6719958 82.6698327,11.1138047 81.9781818,11.1151491 L81.9781818,11.1151491 Z" id="Path"></path>
            <path d="M106.504242,11.1151515 L103.081212,11.1151515 C102.748163,11.1132171 102.427987,11.2436681 102.191121,11.4778056 C101.954256,11.7119431 101.820105,12.030587 101.818182,12.3636364 L101.818182,19.9854545 C101.818182,20.4152325 101.469778,20.7636364 101.04,20.7636364 L94.0024242,20.7636364 C93.5722524,20.7636384 93.2231541,20.4156243 93.2218182,19.9854545 L93.2218182,12.3636364 C93.2218182,11.6701006 92.6595964,11.1078788 91.9660606,11.1078788 L88.5430303,11.1078788 C88.2102052,11.1078788 87.891047,11.2402581 87.6559316,11.4758283 C87.4208162,11.7113985 87.2890532,12.0308119 87.2896946,12.3636364 L87.2896946,35.0836364 C87.2890532,35.4164609 87.4208162,35.7358742 87.6559316,35.9714444 C87.891047,36.2070146 88.2102052,36.3393946 88.5430303,36.3393939 L91.9660606,36.3393939 C92.2991082,36.3393939 92.6185151,36.2070913 92.8540153,35.9715911 C93.0895155,35.7360908 93.2218182,35.416684 93.2218182,35.0836364 L93.2218182,27.4763636 C93.2231541,27.0461938 93.5722524,26.6981797 94.0024242,26.6981818 L101.047273,26.6981818 C101.477051,26.6981818 101.825455,27.0465857 101.825455,27.4763636 L101.825455,35.0909091 C101.825455,35.7844448 102.387676,36.3466667 103.081212,36.3466667 L106.504242,36.3466667 C107.197778,36.3466667 107.76,35.7844448 107.76,35.0909091 L107.76,12.3636364 C107.756,11.6729425 107.194948,11.1151399 106.504242,11.1151515 L106.504242,11.1151515 Z" id="Path"></path>
            <path d="M131.393939,11.1151515 L127.968485,11.1151515 C127.277576,11.1151515 126.715152,11.6 126.715152,12.2230303 L126.715152,29.1927273 C126.715152,29.8715354 126.164869,30.4218182 125.486061,30.4218182 L119.340606,30.4218182 C118.661798,30.4218182 118.111515,29.8715354 118.111515,29.1927273 L118.111515,12.2230303 C118.111515,11.6121212 117.549091,11.1151515 116.855758,11.1151515 L113.432727,11.1151515 C112.739394,11.1151515 112.17697,11.6 112.17697,12.2230303 L112.17697,31.3963636 C112.17697,34.1303405 114.393296,36.3466667 117.127273,36.3466667 L127.69697,36.3466667 C130.430947,36.3466667 132.647273,34.1303405 132.647273,31.3963636 L132.647273,12.2230303 C132.647273,11.6121212 132.087273,11.1151515 131.393939,11.1151515 Z" id="Path"></path>
            <path d="M163.878788,12.3636364 L163.878788,31.1175758 C163.878993,32.8868117 163.621753,34.6466629 163.115152,36.3418182 L179.345455,36.3418182 C182.113295,36.3404798 184.356364,34.0963259 184.356364,31.3284848 L184.356364,16.1163636 C184.356364,13.3542705 182.117245,11.1151139 179.355152,11.1151139 L165.139394,11.1151139 C164.806375,11.1125693 164.486074,11.2428874 164.249452,11.477234 C164.01283,11.7115806 163.879423,12.0306081 163.878788,12.3636364 Z M176.969697,30.4121259 L170.446061,30.4121259 C170.27976,30.4127658 170.12005,30.3471545 170.002229,30.2297891 C169.884409,30.1124237 169.818182,29.9529684 169.818182,29.7866667 L169.818182,17.6654545 C169.818182,17.4991528 169.884409,17.3396975 170.002229,17.2223321 C170.12005,17.1049667 170.27976,17.0393554 170.446061,17.0399953 L176.969697,17.0399953 C177.77302,17.0399953 178.424242,17.6912222 178.424242,18.4945455 L178.424242,28.9381818 C178.429431,29.3273005 178.278479,29.7022717 178.005134,29.9792609 C177.731789,30.2562501 177.35885,30.4121259 176.969697,30.4121259 Z" id="Shape"></path>
            <path d="M208.727283,16.1551515 C208.727283,13.3716364 206.470788,11.1151515 203.687273,11.1151515 L189.512727,11.1151515 C188.822022,11.1151515 188.26097,11.6729425 188.25697,12.3636364 L188.25697,35.0812121 C188.25697,35.7738023 188.817714,36.3356327 189.510303,36.3369697 L192.935758,36.3369697 C193.628346,36.3356327 194.189092,35.7738023 194.189091,35.0812121 L194.189091,31.8860606 C194.190427,31.4237579 194.565574,31.049695 195.027879,31.049697 L197.842424,31.049697 C198.406541,31.048424 198.920523,31.3734421 199.161212,31.8836364 L200.938182,35.6363636 C201.141452,36.0788093 201.583398,36.3627148 202.070303,36.3636364 L205.638788,36.3636364 C206.064598,36.362666 206.460906,36.1459811 206.691538,35.7880369 C206.92217,35.4300927 206.955699,34.9796612 206.780606,34.5915152 L205.534545,31.84 C205.4566,31.6705037 205.470689,31.4729279 205.571895,31.3162059 C205.673101,31.159484 205.847385,31.0653575 206.033939,31.0666667 L206.033939,31.0666667 C206.74974,31.0660256 207.435898,30.7807269 207.941136,30.2736702 C208.446373,29.7666136 208.729204,29.0794351 208.727283,28.3636364 L208.727283,16.1551515 Z M194.81697,17.0496217 L201.333333,17.0496217 C202.136657,17.0496217 202.787879,17.7009192 202.787879,18.5042424 L202.787879,23.6509091 C202.787879,24.4542324 202.136657,25.1054972 201.333333,25.1054972 L194.81697,25.1054972 C194.650443,25.1073946 194.489966,25.0430968 194.37085,24.9267082 C194.251734,24.8103196 194.183736,24.6513758 194.181818,24.4848485 L194.181818,17.6751515 C194.181818,17.5075768 194.249023,17.3470026 194.368425,17.2294244 C194.487826,17.1118461 194.649415,17.0470989 194.81697,17.0496217 Z" id="Shape"></path>
            <path d="M218.56,11.1151515 L217.672727,11.1151515 C214.885196,11.1151515 212.625455,13.3748925 212.625455,16.1624242 L212.625455,35.0909091 C212.625455,35.7844448 213.187676,36.3466667 213.881212,36.3466667 L217.304242,36.3466667 C217.997778,36.3466667 218.56,35.7844448 218.56,35.0909091 L218.56,31.8593939 C218.559356,31.6448722 218.644123,31.4389159 218.795586,31.2869981 C218.947049,31.1350804 219.15275,31.049696 219.367273,31.049697 L226.356364,31.049697 C226.570886,31.049696 226.776588,31.1350804 226.92805,31.2869981 C227.079513,31.4389159 227.164281,31.6448722 227.163636,31.8593939 L227.163636,35.0909091 C227.163636,35.4239567 227.295939,35.7433636 227.531439,35.9788638 C227.766939,36.214364 228.086346,36.3466667 228.419394,36.3466667 L231.842424,36.3466667 C232.175249,36.3466667 232.494408,36.2142873 232.729523,35.9787171 C232.964638,35.743147 233.096401,35.4237336 233.09576,35.0909091 L233.09576,16.0993939 C233.097098,13.349903 230.8707,11.119165 228.121212,11.1151515 L218.56,11.1151515 Z M218.56,23.8593939 L218.56,18.3054545 C218.56,17.6119188 219.122222,17.049697 219.815758,17.049697 L225.69697,17.049697 C226.500293,17.049697 227.151515,17.7009192 227.151515,18.5042424 L227.151515,23.6509091 C227.151515,24.4542324 226.500293,25.1054545 225.69697,25.1054545 L219.815758,25.1054545 C219.125991,25.1054545 218.565326,24.5491398 218.56,23.8593939 Z" id="Shape"></path>
            <path d="M154.031515,12.3636364 L154.031515,24.7612121 C154.025755,24.9906559 153.875119,25.1912 153.656364,25.2606546 C153.437609,25.3301093 153.198878,25.2531896 153.061818,25.0690909 L143.757576,11.6751515 C143.280063,10.9879927 142.492467,10.5828395 141.655758,10.5937171 L138.298182,10.6351515 C137.614964,10.6391574 137.063981,11.195564 137.066657,11.8787879 L137.066657,35.0957576 C137.066657,35.7883477 137.627411,36.3501781 138.32,36.3515152 L141.745455,36.3515152 C142.07828,36.3515152 142.397438,36.2191358 142.632553,35.9835656 C142.867669,35.7479955 142.999432,35.4285821 142.998788,35.0957576 L142.998788,22.2739394 C143.006452,22.045648 143.156773,21.8468096 143.374326,21.7771927 C143.591879,21.7075759 143.829709,21.7822058 143.968485,21.9636364 L153.270303,35.270303 C153.739775,35.9445308 154.509333,36.3465118 155.330909,36.3466667 L158.724848,36.3466667 C159.053173,36.3466673 159.368015,36.2160752 159.599948,35.9836875 C159.831881,35.7512997 159.961856,35.4362026 159.961215,35.1078788 L159.961215,12.3636364 C159.961856,12.0308119 159.830093,11.7113985 159.594977,11.4758283 C159.359862,11.2402581 159.040704,11.1078782 158.707879,11.1078788 L155.287273,11.1078788 C154.593737,11.1078788 154.031515,11.6701006 154.031515,12.3636364 L154.031515,12.3636364 Z" id="Path"></path>
            <polygon id="Path" points="236.363636 36.3369697 236.363636 33.7721212 235.515152 33.7721212 235.515152 33.3066667 237.818182 33.3066667 237.818182 33.7721212 236.974545 33.7721212 236.974545 36.3369697"></polygon>
            <polygon id="Path" points="238.276364 36.3369697 238.276364 33.3066667 238.947879 33.3066667 239.808485 34.7733333 240.659394 33.3066667 241.340606 33.3066667 241.340606 36.3369697 240.770909 36.3369697 240.770909 34.0969697 240.014545 35.4545455 239.604848 35.4545455 238.846061 34.1066667 238.846061 36.3369697"></polygon>
        </g>
    </g>
</svg>