<svg width="82" height="83" viewBox="0 0 82 83" fill="none" xmlns="http://www.w3.org/2000/svg">
<path fill-rule="evenodd" clip-rule="evenodd" d="M71.1818 57.5936C72.11 57.5936 72.5749 58.7158 71.9185 59.3721L49.3425 81.9465C48.6861 82.6028 47.5638 82.138 47.5638 81.2098L47.5638 58.6354C47.5638 58.06 48.0303 57.5936 48.6057 57.5936L71.1818 57.5936ZM1.56578 36.3218C0.637539 36.3218 0.17268 35.1996 0.829045 34.5433L23.4051 11.9689C24.0615 11.3126 25.1837 11.7774 25.1837 12.7056L25.1837 35.28C25.1837 35.8554 24.7173 36.3218 24.1418 36.3218L1.56578 36.3218Z" fill="url(#paint0_linear_21_62)"/>
<path d="M50.7103 32.6168L80.9527 32.6168C81.5281 32.6168 81.9946 32.1504 81.9946 31.575L81.9946 1.33484C81.9946 0.759451 81.5281 0.293011 80.9527 0.293011L50.7103 0.293008C50.1349 0.293008 49.6684 0.759448 49.6684 1.33483L49.6684 31.575C49.6684 32.1504 50.1349 32.6168 50.7103 32.6168Z" fill="url(#paint1_linear_21_62)"/>
<path d="M73.1113 52.3844L31.4351 52.3844C30.8597 52.3844 30.3932 51.918 30.3932 51.3426L30.3932 9.66945C30.3932 9.09407 30.8597 8.62763 31.4351 8.62763L43.417 8.62763C43.9924 8.62763 44.4589 9.09407 44.4589 9.66945L44.4589 36.757C44.4589 37.3324 44.9254 37.7988 45.5008 37.7988L73.1113 37.7988C73.6867 37.7988 74.1532 38.2653 74.1532 38.8407L74.1532 51.3426C74.1532 51.918 73.6867 52.3844 73.1113 52.3844Z" fill="url(#paint2_linear_21_62)"/>
<defs>
<linearGradient id="paint0_linear_21_62" x1="72.298" y1="11.4474" x2="13.4424" y2="69.7212" gradientUnits="userSpaceOnUse">
<stop stop-color="#4D29B4"/>
<stop offset="1" stop-color="#836FFF"/>
</linearGradient>
<linearGradient id="paint1_linear_21_62" x1="46.8368" y1="34.2412" x2="87.572" y2="-5.77184" gradientUnits="userSpaceOnUse">
<stop stop-color="#70FFE5"/>
<stop offset="1" stop-color="#6295E1"/>
</linearGradient>
<linearGradient id="paint2_linear_21_62" x1="68.903" y1="18.2371" x2="30.5927" y2="54.613" gradientUnits="userSpaceOnUse">
<stop offset="0.00747511" stop-color="#654FEC"/>
<stop offset="1" stop-color="#71B2FF"/>
</linearGradient>
</defs>
</svg>
