<?xml version="1.0" encoding="UTF-8" standalone="no"?>
<svg
   xmlns:dc="http://purl.org/dc/elements/1.1/"
   xmlns:cc="http://creativecommons.org/ns#"
   xmlns:rdf="http://www.w3.org/1999/02/22-rdf-syntax-ns#"
   xmlns:svg="http://www.w3.org/2000/svg"
   xmlns="http://www.w3.org/2000/svg"
   xmlns:sodipodi="http://sodipodi.sourceforge.net/DTD/sodipodi-0.dtd"
   xmlns:inkscape="http://www.inkscape.org/namespaces/inkscape"
   viewBox="0 0 316.52972 165.08374"
   version="1.1"
   id="svg112"
   inkscape:version="0.92.5 (2060ec1f9f, 2020-04-08)"
   sodipodi:docname="localstack.svg"
   width="316.52972"
   height="165.08374">
  <defs
     id="defs106" />
  <sodipodi:namedview
     id="base"
     pagecolor="#ffffff"
     bordercolor="#666666"
     borderopacity="1.0"
     inkscape:pageopacity="0.0"
     inkscape:pageshadow="2"
     inkscape:zoom="1.4"
     inkscape:cx="170.72144"
     inkscape:cy="-17.44876"
     inkscape:document-units="mm"
     inkscape:current-layer="layer1"
     inkscape:document-rotation="0"
     showgrid="false"
     fit-margin-top="0"
     fit-margin-left="0"
     fit-margin-right="0"
     fit-margin-bottom="0"
     inkscape:window-width="1920"
     inkscape:window-height="1028"
     inkscape:window-x="1920"
     inkscape:window-y="203"
     inkscape:window-maximized="1" />
  <metadata
     id="metadata109">
    <rdf:RDF>
      <cc:Work
         rdf:about="">
        <dc:format>image/svg+xml</dc:format>
        <dc:type
           rdf:resource="http://purl.org/dc/dcmitype/StillImage" />
        <dc:title></dc:title>
      </cc:Work>
    </rdf:RDF>
  </metadata>
  <g
     inkscape:label="Layer 1"
     inkscape:groupmode="layer"
     id="layer1"
     transform="translate(52.738631,-121.51052)">
    <g
       id="g176"
       transform="translate(0,57.731311)">
      <path
         style="clip-rule:evenodd;fill:#ffffff;fill-opacity:1;fill-rule:evenodd;stroke:none;stroke-width:7.42143011;stroke-linecap:round;stroke-linejoin:round;stroke-miterlimit:4;stroke-dasharray:none;stroke-opacity:1;image-rendering:optimizeQuality;shape-rendering:geometricPrecision;text-rendering:geometricPrecision"
         d="m -52.720752,220.5092 316.511842,0.4325 -3.19199,3.12456 -310.250997,0.0504 z"
         id="rect849"
         inkscape:connector-curvature="0"
         sodipodi:nodetypes="ccccc" />
      <g
         id="g4"
         transform="matrix(0.26458333,0,0,0.26458333,-53.576623,-15.198916)"
         style="clip-rule:evenodd;fill-rule:evenodd;image-rendering:optimizeQuality;shape-rendering:geometricPrecision;text-rendering:geometricPrecision">
        <path
           style="opacity:0.98200001;fill:#000000"
           d="m 1199.5,887.5 v 5 c -23.63,1.553 -47.3,2.386 -71,2.5 H 74.5 c -22.0173,-0.196 -44.0173,-0.863 -66,-2 -1.66667,-0.333 -3.33333,-0.667 -5,-1 -1.10997,-3.916 0.5567,-5.916 5,-6 37.6351,-1.989 76.5517,-2.822 114.25,-2.5 V 309.75 c -0.04,-6.6885 3.1055,-9.7305 9.75,-9.75 l 947,-1.5 c 7.3614,0.12608 7.2097,3.82062 7.5,9.25 l 1.5,573.75 c 32.66,0.99 65.33,2.157 98,3.5 4.47,0.265 8.8,1.099 13,2.5 z"
           id="path2"
           inkscape:connector-curvature="0"
           sodipodi:nodetypes="ccccccccccccccc" />
      </g>
      <rect
         style="clip-rule:evenodd;fill:#f2f2f2;fill-opacity:1;fill-rule:evenodd;stroke:none;stroke-width:3.73213005;stroke-linecap:round;stroke-linejoin:round;stroke-miterlimit:4;stroke-dasharray:none;stroke-opacity:1;image-rendering:optimizeQuality;shape-rendering:geometricPrecision;text-rendering:geometricPrecision"
         id="rect828"
         width="228.24132"
         height="133.6264"
         x="-8.5944328"
         y="77.649414" />
      <g
         id="g8"
         transform="matrix(0.26458333,0,0,0.26458333,-53.576623,-15.198916)"
         style="clip-rule:evenodd;fill-rule:evenodd;image-rendering:optimizeQuality;shape-rendering:geometricPrecision;text-rendering:geometricPrecision" />
      <g
         id="g12"
         transform="matrix(0.26458333,0,0,0.26458333,-54.229541,-9.9072564)"
         style="clip-rule:evenodd;fill:#ffffff;fill-rule:evenodd;stroke:#000000;stroke-width:15.11810017;stroke-miterlimit:4;stroke-dasharray:none;image-rendering:optimizeQuality;shape-rendering:geometricPrecision;text-rendering:geometricPrecision">
        <path
           style="opacity:0.93199989;fill:#ffffff;stroke:#000000;stroke-width:15.11810017;stroke-miterlimit:4;stroke-dasharray:none"
           d="m 495.5,376.5 c 60.781,-1.864 107.614,22.469 140.5,73 21.52,-2.759 43.02,-2.592 64.5,0.5 25.105,5.551 47.105,16.884 66,34 10.018,10.418 20.018,20.751 30,31 45.148,-4.501 85.148,7.499 120,36 48.038,47.186 60.205,102.353 36.5,165.5 -19.361,40.693 -50.527,67.86 -93.5,81.5 -5.617,1.052 -11.284,1.718 -17,2 l -447,1 c -15.382,-0.28 -30.715,-1.28 -46,-3 -13.855,-2.061 -26.521,-7.061 -38,-15 -58.123,-41.126 -79.29,-96.626 -63.5,-166.5 14.085,-41.423 40.918,-71.589 80.5,-90.5 13.98737,-6.81937 23.112,-7.777 35,-10.5 5.245,-53.345 30.579,-93.845 76,-121.5 17.69,-9.399 36.357,-15.233 56,-17.5 z"
           id="path10"
           inkscape:connector-curvature="0"
           sodipodi:nodetypes="ccccccccccccccccc" />
      </g>
      <g
         id="g36"
         transform="matrix(0.26458333,0,0,0.26458333,-54.811272,-15.198916)"
         style="clip-rule:evenodd;fill-rule:evenodd;image-rendering:optimizeQuality;shape-rendering:geometricPrecision;text-rendering:geometricPrecision">
        <path
           style="opacity:0.947;fill:#000000"
           d="m 1094.5,902.85355 c 36.05,0.026 62.05,-0.16155 98,1.14645 -2.39,1.861 -5.05,3.194 -8,4 -24.21,6.792 -48.88,10.792 -74,12 -311.997,2.874 -623.997,3.208 -936,1 -31.348,-0.147 -62.682,-0.814 -94,-2 C 62.2602,916.485 52.83387,915.47065 35.07367,910.65165 32.46137,910.01265 21.5543,906.194 19.5,904.5 c 12.019293,-1.00178 62.256885,-1.55984 107.86396,-1.64645 z"
           id="path34"
           inkscape:connector-curvature="0"
           sodipodi:nodetypes="cccccccccc" />
      </g>
      <g
         id="g843"
         transform="matrix(0.26458333,0,0,0.26458333,-57.712197,62.314814)"
         style="clip-rule:evenodd;fill-rule:evenodd;image-rendering:optimizeQuality;shape-rendering:geometricPrecision;text-rendering:geometricPrecision">
        <rect
           transform="matrix(0.88450881,0.4665235,-0.88450881,0.4665235,0,0)"
           y="-103.65459"
           x="595.69012"
           height="142.05777"
           width="142.05777"
           id="rect858"
           style="fill:none;fill-opacity:0.72361797;stroke:#4d4d4d;stroke-width:10.40100002;stroke-linecap:round;stroke-linejoin:round;stroke-miterlimit:4;stroke-dasharray:none;stroke-opacity:1" />
        <path
           inkscape:connector-curvature="0"
           id="rect858-3"
           d="m 712.79775,341.47217 26.4242,13.93713 -125.65134,66.27329 -125.65135,-66.27329 31.42905,-16.57687"
           style="clip-rule:evenodd;fill:none;fill-opacity:0.72361797;fill-rule:evenodd;stroke:#4d4d4d;stroke-width:9.44882011;stroke-linecap:round;stroke-linejoin:round;stroke-miterlimit:4;stroke-dasharray:none;stroke-opacity:1;image-rendering:optimizeQuality;shape-rendering:geometricPrecision;text-rendering:geometricPrecision" />
        <path
           inkscape:connector-curvature="0"
           style="clip-rule:evenodd;fill:none;fill-opacity:0.72361797;fill-rule:evenodd;stroke:#4d4d4d;stroke-width:9.44882011;stroke-linecap:round;stroke-linejoin:round;stroke-miterlimit:4;stroke-dasharray:none;stroke-opacity:1;image-rendering:optimizeQuality;shape-rendering:geometricPrecision;text-rendering:geometricPrecision"
           d="m 712.79775,403.47217 26.4242,13.93713 -125.65134,66.27329 -125.65135,-66.27329 31.42905,-16.57687"
           id="path895" />
      </g>
      <circle
         style="clip-rule:evenodd;fill:#e6e6e6;fill-opacity:0.72361797;fill-rule:evenodd;stroke:none;stroke-width:2.46213007;stroke-linecap:round;stroke-linejoin:round;stroke-miterlimit:4;stroke-dasharray:none;stroke-opacity:1;image-rendering:optimizeQuality;shape-rendering:geometricPrecision;text-rendering:geometricPrecision"
         id="path897"
         cx="105.52623"
         cy="70.32399"
         r="3.3732591" />
    </g>
  </g>
</svg>
