<?xml version="1.0" standalone="no"?>
<!DOCTYPE svg PUBLIC "-//W3C//DTD SVG 1.1//EN" "http://www.w3.org/Graphics/SVG/1.1/DTD/svg11.dtd">
<svg xmlns="http://www.w3.org/2000/svg">
<defs >
<font id="Exo" horiz-adv-x="533" ><font-face
    font-family="Exo"
    units-per-em="1000"
    panose-1="0 0 0 0 0 0 0 0 0 0"
    ascent="1002"
    descent="-327"
    alphabetic="0" />
<glyph unicode=" " horiz-adv-x="258" />
<glyph unicode="!" horiz-adv-x="272" d="M79 203L61 739H209L189 203H79ZM90 -1Q69 -1 69 19V121Q69 142 90 142H176Q197 142 197 121V19Q197 7 191 3T176 -1H90Z" />
<glyph unicode="&quot;" horiz-adv-x="400" d="M44 497L34 687V754H176V687L168 497H44ZM226 497L216 687V754H358V687L350 497H226Z" />
<glyph unicode="#" horiz-adv-x="723" d="M129 0L167 207H16L31 306H186L206 425H49L65 524H226L264 732H364L326 524H440L477 732H577L540 524H710L695 425H524L504 306H675L661 207H482L444 0H344L382 207H267L229 0H129ZM286 306H404L425 425H306L286 306Z" />
<glyph unicode="$" horiz-adv-x="609" d="M251 722L246 800L325 824L330 746L251 722ZM246 -89V10L330 9V-89H246ZM287 -6Q258 -6 228 -5T166 0T106 8T55 19V136Q85 133 123 131T202 128T280 127Q318 127 345 133T388 156T403 202V229Q403 262 384 279T328 297H265Q159
297 103 343T46 502V538Q46 646 108 696T285 746Q326 746 366 742T444 733T509 721V604Q463 607 407 610T302 613Q268 613 242 607T201 582T187 531V511Q187 472 209 455T274 438H347Q414 438 457 414T522 346T544 248V206Q544 119 512 73T422 11T287 -6Z" />
<glyph unicode="%" horiz-adv-x="964" d="M205 0L655 732H751L307 0H205ZM167 349Q94 349 64 383T33 481V600Q33 664 63 698T169 732H270Q344 732 374 698T404 600V481Q404 417 374 383T268 349H167ZM185 445H250Q284 445 296 459T309 503V578Q309 612 296 624T252
636H187Q160 636 145 626T129 578V503Q129 474 140 460T185 445ZM694 3Q621 3 591 37T561 135V254Q561 318 590 352T696 386H798Q872 386 902 352T932 254V135Q932 71 902 37T796 3H694ZM713 99H777Q812 99 824 113T837 157V232Q837 266 824 278T779 290H715Q688
290 672 280T656 232V157Q656 128 667 114T713 99Z" />
<glyph unicode="&amp;" horiz-adv-x="698" d="M229 -5Q174 -5 130 20T60 89T35 193Q35 247 58 294T125 380L185 431L172 451Q141 499 134 531T126 590Q126 644 151 676T219 722T314 737Q352 737 389 734T456 726T508 714V606H342Q310 606 293 594T275 556Q275
538 286 516T322 461L460 271L603 400L657 333L590 231L533 176L665 0H512L439 92L402 60Q361 24 321 10T229 -5ZM255 130Q276 130 295 137T336 166L361 191L256 330L219 296Q194 273 185 253T176 210Q176 175 197 153T255 130Z" />
<glyph unicode="&apos;" horiz-adv-x="218" d="M44 497L34 687V754H176V687L168 497H44Z" />
<glyph unicode="(" horiz-adv-x="387" d="M239 -210Q190 -148 149 -73T83 101T58 326Q58 448 84 545T151 721T239 860H371Q328 789 291 707T230 531T206 326Q206 217 226 127T284 -44T371 -210H239Z" />
<glyph unicode=")" horiz-adv-x="386" d="M15 -210Q60 -137 97 -56T157 120T180 325Q180 434 161 523T104 694T15 860H148Q198 798 239 722T304 549T329 325Q329 203 304 106T237 -69T148 -210H15Z" />
<glyph unicode="*" horiz-adv-x="432" d="M292 507L244 566L361 647L393 603L292 507ZM148 399L95 416L122 553L196 534L148 399ZM182 568L39 573V628L179 643L182 568ZM316 401L193 469L233 533L349 445L316 401ZM214 586L170 722L223 739L285 614L214 586Z" />
<glyph unicode="+" horiz-adv-x="609" d="M244 132V580H364V132H244ZM80 296V416H528V296H80Z" />
<glyph unicode="," horiz-adv-x="234" d="M105 -89Q86 -89 72 -86T58 -83V-36Q72 -36 78 -32T85 -16V10H75Q66 10 60 15T54 32V119Q54 142 75 142H159Q171 142 175 136T180 119V-18Q180 -47 168 -63T139 -84T105 -89Z" />
<glyph unicode="-" horiz-adv-x="350" d="M22 230V350H328V230H22Z" />
<glyph unicode="." horiz-adv-x="234" d="M74 -1Q54 -1 54 19V121Q54 142 74 142H160Q182 142 182 121V19Q182 7 176 3T160 -1H74Z" />
<glyph unicode="/" horiz-adv-x="462" d="M15 -72L296 770H447L166 -72H15Z" />
<glyph unicode="0" horiz-adv-x="647" d="M249 -4Q187 -4 144 17T78 82T55 187V547Q55 612 78 656T145 723T250 746H404Q467 746 508 723T571 655T592 547V187Q592 94 543 45T404 -4H249ZM284 129H364Q405 129 424 149T444 209V533Q444 577 424 595T370 613H279Q242
613 223 593T203 533V210Q203 168 224 149T284 129Z" />
<glyph unicode="1" horiz-adv-x="372" d="M162 0V605L31 588V683L178 747H310V0H162Z" />
<glyph unicode="2" horiz-adv-x="586" d="M46 0V119L293 364Q323 393 342 418T370 467T380 520Q380 547 370 566T336 596T271 606H63V722Q111 731 169 738T300 746Q387 746 436 722T507 653T528 544Q528 494 515 453T475 375T409 299L243 134H551V0H46Z" />
<glyph unicode="3" horiz-adv-x="579" d="M321 -6Q241 -6 169 -1T38 15V134H265Q306 134 332 140T370 161T383 203V234Q383 261 370 276T336 299T286 308L104 315V429L280 439Q325 441 350 455T375 503V528Q375 568 349 587T260 606H54V724Q111 733 178 740T319
746Q384 745 429 725T497 664T521 563V508Q521 480 515 457T495 418T465 390T429 372Q450 367 468 353T501 320T523 273T532 214V176Q532 87 476 41T321 -6Z" />
<glyph unicode="4" horiz-adv-x="619" d="M375 1V157H51L23 227L263 740H414L199 283H375V427L404 512H523V283H599V181L523 157V1H375Z" />
<glyph unicode="5" horiz-adv-x="607" d="M314 -5Q253 -5 186 0T59 11V128H320Q356 128 376 140T405 171T414 212V263Q414 298 397 318T338 339H280Q247 339 231 326T209 284H69L90 740H534V607H217L209 431Q224 447 250 455T310 464H391Q449 464 487 441T544
379T563 290V181Q563 116 534 75T450 15T314 -5Z" />
<glyph unicode="6" horiz-adv-x="607" d="M272 -5Q218 -5 177 11T107 68T65 180T51 360Q51 469 69 543T124 662T212 726T330 746Q379 746 429 742T519 730V613H344Q269 613 234 567T199 429Q223 436 248 439T303 444T366 446Q439 446 482 426T544 367T563 276V170Q563
107 540 69T475 13T380 -5H272ZM302 128H346Q368 128 383 135T406 158T415 199V248Q415 277 406 292T376 314T325 320H199Q199 263 205 226T224 167T256 137T302 128Z" />
<glyph unicode="7" horiz-adv-x="554" d="M118 0L338 592H23V740H490L529 677L284 0H118Z" />
<glyph unicode="8" horiz-adv-x="628" d="M253 -4Q215 -4 180 3T117 27T74 76T58 157V258Q58 287 68 311T96 354T140 377Q109 392 95 412T77 457T73 507V591Q73 648 96 682T160 731T246 746H386Q434 746 472 731T533 682T556 591V507Q556 494 553 476T543 439T522
407T490 389Q524 382 541 360T564 310T570 261V157Q570 91 546 57T480 9T388 -4H253ZM279 121H353Q394 121 408 137T422 184V250Q422 282 406 298T353 315H278Q265 315 252 311T229 299T213 279T206 250V184Q206 150 225 136T279 121ZM278 441H351Q376 441 388
450T406 474T411 509V556Q411 596 395 608T353 620H279Q247 620 232 607T217 556V509Q217 471 231 456T278 441Z" />
<glyph unicode="9" horiz-adv-x="607" d="M279 -5Q230 -5 181 -1T91 11V128H265Q340 128 375 174T410 312Q388 305 362 301T306 296T243 295Q170 295 127 315T66 374T47 465V571Q47 633 70 671T134 727T230 745H337Q391 745 432 729T502 672T544 561T559 380Q559
272 540 198T485 79T397 15T279 -5ZM285 421H410Q410 478 404 515T386 573T354 603T308 612H263Q242 612 227 605T203 583T195 541V493Q195 464 204 449T234 427T285 421Z" />
<glyph unicode=":" horiz-adv-x="234" d="M74 -1Q54 -1 54 19V121Q54 142 74 142H160Q182 142 182 121V19Q182 7 176 3T160 -1H74ZM74 395Q54 395 54 415V517Q54 538 74 538H160Q182 538 182 517V415Q182 403 176 399T160 395H74Z" />
<glyph unicode=";" horiz-adv-x="234" d="M74 395Q54 395 54 415V517Q54 538 74 538H160Q182 538 182 517V415Q182 403 176 399T160 395H74ZM105 -89Q86 -89 72 -86T58 -83V-36Q72 -36 78 -32T85 -16V10H75Q66 10 60 15T54 32V119Q54 142 75 142H159Q171 142 175
136T180 119V-18Q180 -47 168 -63T139 -84T105 -89Z" />
<glyph unicode="&lt;" horiz-adv-x="609" d="M511 149L96 285V416L511 547V417L240 352L511 279V149Z" />
<glyph unicode="=" horiz-adv-x="609" d="M80 432V552H528V432H80ZM80 416V536H528V416H80Z" />
<glyph unicode="&gt;" horiz-adv-x="609" d="M98 149V279L369 351L98 417V547L513 416V285L98 149Z" />
<glyph unicode="?" horiz-adv-x="529" d="M148 203V401H218Q269 401 296 417T323 481V513Q323 564 295 585T210 606Q167 606 127 597T43 573V682Q82 706 135 722T255 739Q327 739 375 714T447 642T471 537V478Q471 385 420 337T259 289V203H148ZM161 -1Q140 -1
140 19V121Q140 142 161 142H246Q268 142 268 121V19Q268 7 262 3T246 -1H161Z" />
<glyph unicode="@" horiz-adv-x="882" d="M270 -185Q226 -185 187 -173T117 -135T69 -67T51 37V327Q51 358 57 387T77 443T117 490T180 523T270 535H450Q484 535 516 530T575 509T616 460T632 373V23H542L522 79Q521 79 509 70T476 47T426 24T362 14Q318 14 290
34T248 87T234 153V191Q234 259 274 292T385 326H521V363Q521 398 504 410T453 423H270Q241 423 217 415T177 385T162 319V52Q162 3 179 -24T221 -61T270 -72H589Q655 -72 680 -39T705 52V491Q705 552 674 587T589 622H189V711Q213 716 262 721T374 730T499 734H589Q631
734 671 722T745 681T797 606T817 491V52Q817 -30 792 -82T718 -159T596 -185H270ZM409 125Q428 125 449 130T489 145T521 167V248L410 241Q395 240 382 237T362 224T354 195V174Q354 150 367 138T409 125Z" />
<glyph unicode="A" horiz-adv-x="685" d="M17 0L249 740H436L668 0H514L467 155H215L169 0H17ZM250 288H432L341 613L250 288Z" />
<glyph unicode="B" horiz-adv-x="627" d="M64 0V740H355Q465 740 515 690T566 546Q566 502 554 469T518 414T463 384Q487 378 509 365T550 330T579 277T590 204Q590 129 565 84T490 20T368 0H64ZM212 133H364Q390 133 409 143T438 174T449 230Q449 259 438 279T408
310T364 321H212V133ZM212 435H356Q388 435 406 458T425 520Q426 569 405 588T354 607H212V435Z" />
<glyph unicode="C" horiz-adv-x="586" d="M313 -6Q248 -6 199 9T115 64T63 178T45 372Q45 487 63 560T117 674T202 731T315 747Q365 747 408 742T487 729T546 712V597Q528 601 498 605T428 611T346 614Q304 614 275 605T228 570T202 496T193 371Q193 297 200 249T225
175T271 138T346 127Q422 127 469 130T546 137V23Q519 14 484 8T407 -2T313 -6Z" />
<glyph unicode="D" horiz-adv-x="680" d="M64 0V740H377Q452 740 502 714T581 638T623 520T635 370Q635 245 607 163T521 41T377 0H64ZM212 133H362Q408 133 435 159T474 239T487 370Q487 442 479 488T456 561T417 597T362 607H212V133Z" />
<glyph unicode="E" horiz-adv-x="597" d="M244 -5Q220 -5 189 -1T130 20T83 68T64 158V571Q64 620 79 653T119 705T174 732T233 740Q308 740 365 738T469 734T553 727V603H277Q246 603 229 588T212 542V435L505 427V310L212 302V200Q212 174 220 160T243 140T274
134H553V10Q509 5 456 2T348 -3T244 -5Z" />
<glyph unicode="F" horiz-adv-x="583" d="M64 0V571Q64 620 79 653T119 705T174 732T233 740Q269 740 322 740T436 736T553 727V603H274Q243 603 228 587T212 543V417L505 409V292L212 284V0H64Z" />
<glyph unicode="G" horiz-adv-x="666" d="M274 -5Q204 -5 160 21T90 97T55 216T45 370Q45 459 56 529T97 647T180 721T318 747Q369 747 411 743T492 732T568 714V600Q547 603 512 606T434 611T345 614Q282 614 250 592T205 516T193 369Q193 297 199 251T221 179T260
142T321 131Q362 131 399 138T460 152V296H327V413Q348 416 377 418T437 421T498 423Q530 423 555 423T602 420V0H491L471 50Q442 33 389 14T274 -5Z" />
<glyph unicode="H" horiz-adv-x="703" d="M64 0V740H212V432H491V740H640V0H491V299H212V0H64Z" />
<glyph unicode="I" horiz-adv-x="276" d="M64 0V740H212V0H64Z" />
<glyph unicode="J" horiz-adv-x="404" d="M148 -6Q115 -6 82 0T26 14V132Q47 130 70 129T114 127Q140 127 157 135T183 159T192 204V740H340V182Q340 119 321 77T259 15T148 -6Z" />
<glyph unicode="K" horiz-adv-x="645" d="M64 0V740H212V434H310L462 740H620L428 368L626 0H468L310 300H212V0H64Z" />
<glyph unicode="L" horiz-adv-x="535" d="M239 0Q182 0 143 17T84 73T64 175V740H212V199Q212 175 220 160T244 140T278 134H512V0H239Z" />
<glyph unicode="M" horiz-adv-x="883" d="M44 0L130 740H272L442 173L611 740H752L839 0H696L632 545L655 543L510 0H371L224 543L249 544L187 0H44Z" />
<glyph unicode="N" horiz-adv-x="704" d="M69 0V740H188L498 252V740H646V0H527L218 488V0H69Z" />
<glyph unicode="O" horiz-adv-x="699" d="M350 -6Q274 -6 217 8T122 62T64 176T45 369Q45 488 64 562T122 677T217 732T350 747Q426 747 483 732T578 677T635 563T654 369Q654 250 635 176T578 63T483 9T350 -6ZM350 127Q395 127 425 137T472 172T498 245T506
369Q506 449 498 497T473 570T425 605T350 614Q307 614 277 605T229 571T202 497T193 369Q193 293 200 246T226 173T274 137T350 127Z" />
<glyph unicode="P" horiz-adv-x="621" d="M64 0V740H376Q412 740 449 732T518 698T569 621T589 486Q589 402 570 350T519 271T452 235T382 226Q364 226 340 227T292 232T246 237T212 242V0H64ZM212 359H359Q385 359 403 371T431 411T440 485Q440 530 431 556T404
595T362 607H212V359Z" />
<glyph unicode="Q" horiz-adv-x="699" d="M514 -197Q466 -197 422 -180T349 -128T318 -37H420Q427 -66 452 -78T507 -91Q523 -91 539 -88T568 -81V-190Q555 -192 542 -194T514 -197ZM350 -6Q274 -6 217 8T122 62T64 176T45 369Q45 488 64 562T122 677T217 732T350
747Q426 747 483 732T578 677T635 563T654 369Q654 250 635 176T578 63T483 9T350 -6ZM350 127Q395 127 425 137T472 172T498 245T506 369Q506 449 498 497T473 570T425 605T350 614Q307 614 277 605T229 571T202 497T193 369Q193 293 200 246T226 173T274 137T350
127Z" />
<glyph unicode="R" horiz-adv-x="627" d="M64 0V740H370Q414 740 452 730T519 693T564 621T581 503Q581 452 571 416T545 357T507 320T464 297L602 0H451L332 274Q320 274 305 274T273 275T241 275T212 276V0H64ZM212 393H344Q364 393 380 398T408 415T426 449T433
503Q433 534 427 554T408 586T380 602T344 607H212V393Z" />
<glyph unicode="S" horiz-adv-x="589" d="M287 -6Q258 -6 228 -5T166 0T106 8T55 19V136Q85 133 123 131T202 128T280 127Q318 127 345 133T388 156T403 202V229Q403 262 384 279T328 297H265Q159 297 103 343T46 502V538Q46 646 108 696T285 746Q326 746 366
742T444 733T509 721V604Q463 607 407 610T302 613Q268 613 242 607T201 582T187 531V511Q187 472 209 455T274 438H347Q414 438 457 414T522 346T544 248V206Q544 119 512 73T422 11T287 -6Z" />
<glyph unicode="T" horiz-adv-x="587" d="M219 0V607H16V740H571V607H367V0H219Z" />
<glyph unicode="U" horiz-adv-x="686" d="M343 -5Q282 -5 229 5T137 42T76 116T54 238V740H202V239Q202 198 218 174T266 139T343 128Q387 128 418 139T466 174T483 239V740H632V238Q632 164 610 117T549 43T458 6T343 -5Z" />
<glyph unicode="V" horiz-adv-x="685" d="M249 0L17 740H170L343 160L516 740H668L436 0H249Z" />
<glyph unicode="W" horiz-adv-x="991" d="M194 0L17 740H170L289 218L428 740H564L702 218L821 740H974L797 0H646L496 522L345 0H194Z" />
<glyph unicode="X" horiz-adv-x="663" d="M479 0L17 740H181L643 0H479ZM20 0L268 404L344 279L184 0H20ZM394 327L319 452L483 740H646L394 327Z" />
<glyph unicode="Y" horiz-adv-x="628" d="M240 0V224L17 740H171L317 375L462 740H610L388 224V0H240Z" />
<glyph unicode="Z" horiz-adv-x="574" d="M38 0V119L357 607H38V740H538V622L219 133H538V0H38Z" />
<glyph unicode="[" horiz-adv-x="339" d="M246 -210Q188 -210 152 -190T98 -139T73 -71T66 -1V648Q66 691 75 726T105 787T161 827T246 842H325V723H290Q256 723 235 702T214 626V6Q214 -27 222 -48T248 -80T290 -91H325V-210H246Z" />
<glyph unicode="\" horiz-adv-x="462" d="M296 -72L15 770H166L447 -72H296Z" />
<glyph unicode="]" horiz-adv-x="339" d="M15 -210V-91H51Q76 -91 92 -81T117 -49T126 6V626Q126 681 106 702T51 723H15V842H95Q145 842 179 828T235 787T265 726T274 648V-1Q274 -34 268 -70T244 -138T189 -190T95 -210H15Z" />
<glyph unicode="^" horiz-adv-x="386" d="M39 531L147 668H249L347 531H261L195 599L125 531H39Z" />
<glyph unicode="_" horiz-adv-x="609" d="M0 -192V-73H609V-192H0Z" />
<glyph unicode="`" horiz-adv-x="232" d="M130 631L15 771H135L217 631H130Z" />
<glyph unicode="a" horiz-adv-x="550" d="M171 -6Q110 -6 72 30T34 130V178Q34 239 77 278T211 318H348V355Q348 380 339 396T306 420T231 428H70V514Q109 526 160 535T285 544Q352 544 399 528T471 473T496 365V0H379L355 57Q348 49 331 39T290 19T235 1T171
-6ZM246 97Q256 97 268 99T294 105T319 112T338 119T348 123V248L258 242Q219 239 201 222T182 176V154Q182 134 190 121T213 103T246 97Z" />
<glyph unicode="b" horiz-adv-x="585" d="M361 -6Q326 -6 298 2T248 23T205 51L181 0H57V763H205V500Q237 517 277 531T354 545Q423 545 464 516T525 426T544 263Q544 173 525 113T465 24T361 -6ZM306 115Q332 115 352 128T384 176T396 270Q396 340 384 372T351
415T306 426Q276 426 251 417T205 396V141Q224 131 248 123T306 115Z" />
<glyph unicode="c" horiz-adv-x="490" d="M266 -6Q217 -6 176 7T104 50T58 133T41 266Q41 348 56 402T100 487T173 532T270 545Q319 545 363 540T457 520V435H316Q270 435 242 422T202 372T189 267Q189 200 201 165T242 118T318 106H465V22Q440 14 407 8T338 -2T266 -6Z" />
<glyph unicode="d" horiz-adv-x="583" d="M233 -6Q170 -6 127 20T63 106T41 263Q41 363 59 425T122 516T243 545Q280 545 316 538T380 520V763H529V0H404L380 51Q363 35 339 22T287 2T233 -6ZM285 113Q315 113 339 123T380 143V413Q360 420 338 427T291 434Q254
434 232 421T199 373T189 270Q189 208 198 174T229 126T285 113Z" />
<glyph unicode="e" horiz-adv-x="537" d="M283 -5Q194 -5 141 18T65 102T41 268Q41 377 63 437T137 521T278 545Q358 545 406 529T475 473T497 360Q497 306 476 275T415 230T323 216H188Q190 175 200 151T239 116T322 105H479V18Q440 10 394 3T283 -5ZM186 304H308Q338
304 352 316T366 359Q366 388 357 405T329 430T278 438Q244 438 224 427T195 386T186 304Z" />
<glyph unicode="f" horiz-adv-x="393" d="M94 0V418H18V513L94 537V573Q94 641 112 684T170 748T273 769Q308 769 336 764T384 754V648H302Q279 648 266 641T248 620T243 581V537H379V418H243V0H94Z" />
<glyph unicode="g" horiz-adv-x="582" d="M196 -248Q145 -248 106 -233T43 -190T20 -119V-103Q20 -60 44 -30T108 17T191 33L235 -13Q213 -13 196 -20T170 -40T160 -74V-85Q160 -114 180 -129T237 -144H339Q376 -144 398 -130T421 -86V-70Q421 -52 413 -40T388
-20T343 -13H224Q134 -13 91 20T47 103Q47 144 70 171T136 208Q104 225 85 249T58 302T50 362Q50 421 74 460T148 518T273 537H564V456L482 441Q491 431 500 418T515 383T522 329Q522 283 503 246T441 187T328 165H233Q206 165 189 157T172 128Q172 111 186 105T219
98H367Q429 98 472 82T538 31T561 -63V-78Q561 -157 511 -202T357 -248H196ZM254 276H311Q342 276 358 285T381 311T388 350Q388 378 380 395T355 419T315 426H259Q221 426 202 410T183 352Q183 313 201 295T254 276Z" />
<glyph unicode="h" horiz-adv-x="595" d="M57 0V762H205V482Q234 506 280 526T376 546Q437 546 473 522T525 455T541 355V0H393V336Q393 362 383 379T356 404T316 413Q295 413 276 408T239 393T205 373V0H57Z" />
<glyph unicode="i" horiz-adv-x="262" d="M75 616Q54 616 54 636V734Q54 755 75 755H189Q198 755 203 749T208 734V636Q208 616 189 616H75ZM57 0V537H205V0H57Z" />
<glyph unicode="j" horiz-adv-x="262" d="M74 616Q53 616 53 636V734Q53 755 74 755H188Q198 755 202 749T207 734V636Q207 616 188 616H74ZM57 -237V537H205V4Q205 -59 196 -124T169 -237H57Z" />
<glyph unicode="k" horiz-adv-x="554" d="M57 0V763H205V351H268L386 537H536L378 284L552 0H402L266 217H205V0H57Z" />
<glyph unicode="l" horiz-adv-x="313" d="M225 -2Q168 -2 131 16T75 73T57 173V763H205V195Q205 165 211 148T229 122T261 111L302 105V-2H225Z" />
<glyph unicode="m" horiz-adv-x="931" d="M57 0V537H179L205 482Q240 508 281 527T384 546Q435 546 468 525T519 470Q542 488 572 505T638 534T707 546Q772 546 809 522T862 453T877 348V0H729V335Q729 361 720 378T693 404T652 413Q622 413 592 401T537 371Q539
361 540 352T541 332V0H393V335Q393 361 384 378T357 404T316 413Q295 413 276 408T239 394T205 373V0H57Z" />
<glyph unicode="n" horiz-adv-x="595" d="M57 0V537H179L205 482Q235 507 280 526T374 546Q440 546 476 520T526 451T541 354V0H393V335Q393 361 384 378T357 404T316 413Q295 413 276 408T239 394T205 373V0H57Z" />
<glyph unicode="o" horiz-adv-x="575" d="M287 -5Q221 -5 174 8T98 54T55 139T41 270Q41 352 54 405T97 489T174 532T287 545Q354 545 401 532T477 489T520 405T534 270Q534 190 521 137T479 52T403 8T287 -5ZM287 113Q314 113 332 118T362 138T380 186T386 270Q386
323 380 354T363 401T333 422T287 427Q261 427 243 422T212 402T195 355T189 270Q189 218 194 186T212 139T242 118T287 113Z" />
<glyph unicode="p" horiz-adv-x="585" d="M57 -237V537H181L205 486Q224 501 247 514T297 536T354 545Q403 545 439 526T499 471T533 384T544 268Q544 182 527 120T469 26T354 -7Q316 -7 277 2T205 28V-237H57ZM306 115Q329 115 350 127T383 173T396 268Q396 328
385 362T353 411T306 426Q275 426 249 416T205 396V141Q225 129 252 122T306 115Z" />
<glyph unicode="q" horiz-adv-x="583" d="M380 -237V51Q352 28 313 11T237 -6Q164 -6 121 23T59 113T41 268Q41 371 63 432T130 519T246 545Q294 545 346 542T445 534T529 524V-237H380ZM280 113Q304 113 332 122T380 143V434H291Q253 434 231 417T199 364T189
273Q189 209 198 175T227 127T280 113Z" />
<glyph unicode="r" horiz-adv-x="423" d="M57 0V537H171L205 455Q234 492 270 518T357 544Q368 544 379 543T401 539V387Q386 389 370 390T338 392Q309 392 286 386T243 367T205 334V0H57Z" />
<glyph unicode="s" horiz-adv-x="505" d="M252 -6Q227 -6 198 -5T140 0T86 7T44 18V105H282Q303 105 316 108T336 121T343 149V166Q343 186 330 197T282 208H198Q152 208 115 222T57 268T35 354V385Q35 436 55 471T122 524T251 542Q284 542 321 539T392 530T446
517V430H221Q192 430 177 421T162 385V369Q162 351 169 343T190 331T227 327H313Q395 327 432 290T470 186V138Q470 84 445 53T371 8T252 -6Z" />
<glyph unicode="t" horiz-adv-x="389" d="M261 0Q199 0 161 18T105 78T90 191L95 418H11V513L100 537L120 687H237V537H363V418H237V192Q237 170 241 156T252 134T270 121T290 116L358 110V0H261Z" />
<glyph unicode="u" horiz-adv-x="595" d="M209 -6Q137 -6 96 36T55 157V537H203V201Q203 156 224 141T281 125Q309 125 338 135T391 164V537H540V0H417L391 55Q355 31 308 13T209 -6Z" />
<glyph unicode="v" horiz-adv-x="564" d="M192 0L12 537H165L281 137L400 537H551L363 0H192Z" />
<glyph unicode="w" horiz-adv-x="826" d="M154 0L12 537H165L250 137L356 537H478L584 137L661 537H814L674 0H510L414 327L315 0H154Z" />
<glyph unicode="x" horiz-adv-x="541" d="M383 0L9 537H158L533 0H383ZM9 0L216 315L270 176L159 0H9ZM325 220L262 344L383 537H533L325 220Z" />
<glyph unicode="y" horiz-adv-x="569" d="M225 -237L283 0Q238 0 204 17T148 65T113 144L12 537H166L251 174Q256 155 264 144T281 129T297 123T309 121L406 537H556L396 -138L348 -237H225Z" />
<glyph unicode="z" horiz-adv-x="505" d="M45 0V107L298 418H35V537H470V430L216 119H470V0H45Z" />
<glyph unicode="{" horiz-adv-x="317" d="M302 -210Q239 -210 197 -199T129 -166T93 -112T82 -38V207Q82 226 74 239T50 260T15 265V402Q32 404 47 409T73 426T83 460V656Q83 713 105 754T176 819T302 842V723Q275 723 260 713T238 675T232 597V435Q232 385 205
362T133 334Q178 326 204 301T231 236V13Q231 -46 245 -72T302 -99V-210Z" />
<glyph unicode="|" horiz-adv-x="251" d="M66 -72V770H185V-72H66Z" />
<glyph unicode="}" horiz-adv-x="317" d="M15 -210V-99Q59 -99 72 -73T86 13V236Q86 276 112 301T184 334Q139 338 112 361T85 435V597Q85 648 79 675T58 712T15 723V842Q93 842 141 819T211 755T234 656V460Q234 439 244 427T270 409T302 402V265Q282 267 267
260T244 240T235 207V-38Q235 -79 224 -111T188 -166T121 -199T15 -210Z" />
<glyph unicode="~" horiz-adv-x="423" d="M274 534Q257 534 240 541T206 556T174 572T148 579Q124 579 104 569T60 540L39 591Q60 617 89 639T157 661Q174 661 190 654T221 638T251 623T276 616Q300 616 323 629T363 659L384 603Q366 578 338 556T274 534Z" />
<glyph unicode="&#xa0;" horiz-adv-x="258" />
<glyph unicode="&#xa1;" horiz-adv-x="272" d="M193 334L211 -202H63L84 334H193ZM182 538Q203 538 203 518V416Q203 395 182 395H97Q75 395 75 416V518Q75 530 81 534T97 538H182Z" />
<glyph unicode="&#xa2;" horiz-adv-x="486" d="M223 -92V-5Q182 -4 148 8T87 51T46 133T31 266Q31 347 45 399T86 482T147 524T226 536V630H309V534Q341 532 377 524T448 503V416Q437 418 395 421T288 425Q260 425 239 419T205 396T185 347T179 263Q179 215 185
184T204 136T239 113T290 106Q334 106 367 108T423 113T454 118V31Q418 12 382 4T307 -5V-92H223Z" />
<glyph unicode="&#xa3;" horiz-adv-x="609" d="M58 0V113L151 133V316L58 326V400L151 420V496Q151 587 176 641T255 720T392 744Q442 744 485 740T555 731V612H398Q364 612 342 604T310 575T299 512V420L481 407V326L299 316V133H559V0H58Z" />
<glyph unicode="&#xa4;" horiz-adv-x="609" d="M304 179Q255 179 216 203T152 267T128 356Q128 405 152 445T215 509T304 533Q353 533 393 509T457 445T481 356Q481 308 457 268T393 203T304 179ZM126 117L65 178L173 286L234 225L126 117ZM169 430L65 534L126
595L230 491L169 430ZM482 117L376 223L437 284L543 178L482 117ZM304 254Q332 254 355 268T392 305T406 356Q406 384 392 407T355 444T304 458Q277 458 254 444T218 407T204 356Q204 328 217 305T254 268T304 254ZM437 428L376 489L482 595L543 534L437 428Z"
/>
<glyph unicode="&#xa5;" horiz-adv-x="609" d="M78 261V336H530V261H78ZM78 122V197H530V122H78ZM220 0V224L-3 740H151L297 375L443 740H591L368 224V0H220Z" />
<glyph unicode="&#xa6;" horiz-adv-x="251" d="M66 429V770H185V429H66ZM66 -72V256H185V-72H66Z" />
<glyph unicode="&#xa7;" horiz-adv-x="539" d="M315 -6Q289 -6 258 -6T194 -4T133 1T80 8V113H284Q311 113 325 117T345 130T350 152V180Q350 193 347 200T333 211T300 215H202Q151 215 115 225T60 260T41 331V371Q41 415 58 437T112 472Q76 487 63 519T50 590V644Q50
686 69 717T127 766T229 784Q253 784 284 783T348 780T411 776T460 768V665H251Q231 665 218 661T198 647T191 621V597Q191 580 201 570T240 560H336Q394 560 430 548T484 510T501 441V401Q501 367 485 341T432 302Q455 296 468 281T488 245T495 198V147Q495 88
473 55T410 8T315 -6ZM238 326H300Q324 326 337 328T355 340T360 369V406Q360 422 355 431T336 444T300 448H238Q206 448 194 438T182 404V368Q182 355 187 346T205 331T238 326Z" />
<glyph unicode="&#xa8;" horiz-adv-x="399" d="M264 637Q243 637 243 658V755Q243 777 264 777H333Q342 777 347 771T353 755V658Q353 637 333 637H264ZM68 637Q47 637 47 658V755Q47 777 68 777H136Q146 777 151 771T156 755V658Q156 637 136 637H68Z" />
<glyph unicode="&#xa9;" horiz-adv-x="811" d="M310 0Q253 0 209 19T134 72T82 153T53 254T43 368Q43 438 54 503T94 620T175 702T310 732H525Q585 732 627 713T698 659T741 578T763 479T770 368Q770 278 753 209T704 94T627 24T525 0H310ZM379 147Q338 147 302
164T244 229T221 365Q221 446 241 493T296 562T380 583Q400 583 429 581T491 575T551 561V491Q523 495 496 497T447 501T409 503Q374 503 352 491T319 448T309 362Q309 290 332 259T407 227Q452 227 489 232T557 243V173Q517 155 472 151T379 147ZM310 80H518Q566
80 603 108T661 199T682 368Q682 420 677 470T655 562T608 627T525 652H310Q274 652 242 640T185 597T145 511T130 368Q129 308 140 256T173 165T229 103T310 80Z" />
<glyph unicode="&#xaa;" horiz-adv-x="410" d="M25 254V324H381V254H25ZM140 475Q140 461 145 454T160 443T182 439Q191 439 201 441T222 446T238 451T245 454V535L186 530Q162 529 151 518T140 489V475ZM22 493Q22 537 53 560T148 584H245V614Q245 638 231 648T165
659H47V731Q77 742 116 749T213 757Q263 757 299 746T356 705T376 623V360H272L252 400Q245 395 233 387T203 372T166 361T124 356Q79 356 51 381T22 449V493Z" />
<glyph unicode="&#xab;" horiz-adv-x="620" d="M264 60L39 282L259 500L335 426L188 282L337 136L264 60ZM514 60L289 282L509 500L585 426L438 282L587 136L514 60Z" />
<glyph unicode="&#xac;" horiz-adv-x="609" d="M409 176V467H528V176H409ZM80 416V536H528V416H80Z" />
<glyph unicode="&#xad;" horiz-adv-x="350" d="M22 230V350H328V230H22Z" />
<glyph unicode="&#xae;" horiz-adv-x="811" d="M310 0Q253 0 209 19T134 72T82 153T53 254T43 368Q43 438 54 503T94 620T175 702T310 732H525Q585 732 627 713T698 659T741 578T763 479T770 368Q770 278 753 209T704 94T627 24T525 0H310ZM310 80H518Q566 80
603 108T661 199T682 368Q682 420 677 470T655 562T608 627T525 652H310Q274 652 242 640T185 597T145 511T130 368Q129 308 140 256T173 165T229 103T310 80ZM250 153V580H434Q467 580 497 569T547 529T566 445Q566 412 560 390T543 355T519 333T489 320L580 153H492L406
323L337 324V153H250ZM337 388H433Q455 388 466 398T478 444Q478 477 466 488T433 500H337V388Z" />
<glyph unicode="&#xaf;" horiz-adv-x="358" d="M39 647V735H320V647H39Z" />
<glyph unicode="&#xb0;" horiz-adv-x="318" d="M160 481Q98 481 57 521T16 625Q16 668 35 700T86 751T160 770Q224 770 263 730T302 625Q302 561 263 521T160 481ZM160 548Q194 548 214 569T235 625Q235 659 215 680T160 702Q126 702 105 681T83 625Q83 590 105
569T160 548Z" />
<glyph unicode="&#xb1;" horiz-adv-x="609" d="M80 96V216H528V96H80ZM244 282V730H364V282H244ZM80 446V566H528V446H80Z" />
<glyph unicode="&#xb2;" horiz-adv-x="452" d="M43 280V375L210 550Q237 578 252 604T268 655Q268 671 262 682T241 699T203 705H54V804Q88 811 130 817T228 824Q293 824 330 807T383 756T399 674Q399 638 391 610T362 554T309 491L215 393H415V280H43Z" />
<glyph unicode="&#xb3;" horiz-adv-x="452" d="M239 276Q183 276 133 280T39 293V394H196Q225 394 242 398T268 412T277 437V452Q277 468 269 477T246 491T212 497L86 503V599L207 607Q238 609 254 617T270 645V661Q270 684 253 694T193 705H48V806Q93 815 140
820T243 824Q315 823 356 790T398 689V651Q398 624 391 605T369 572T333 552Q356 545 372 530T396 492T405 441V417Q405 349 361 313T239 276Z" />
<glyph unicode="&#xb4;" horiz-adv-x="232" d="M15 631L98 771H217L102 631H15Z" />
<glyph unicode="&#xb5;" horiz-adv-x="595" d="M263 -6Q227 -6 191 6T123 44T74 105T55 188V537H203V201Q203 171 213 155T241 132T281 125Q315 125 341 135T391 164V537H540V0H417L399 55Q374 27 341 11T263 -6ZM55 -269V245H203V-269H55Z" />
<glyph unicode="&#xb6;" horiz-adv-x="573" d="M249 -270V321Q242 316 224 311T176 305Q125 305 92 325T44 379T28 452V600Q28 648 49 679T105 725T187 740H574V641H513V0H416V643H346V-270H249ZM194 403H249V643H194Q153 643 139 627T125 575V467Q125 445 131
432T149 413T172 405T194 403Z" />
<glyph unicode="&#xb7;" horiz-adv-x="259" d="M87 292Q66 292 66 312V400Q66 422 87 422H172Q194 422 194 400V312Q194 301 188 297T172 292H87Z" />
<glyph unicode="&#xb8;" horiz-adv-x="246" d="M39 -198V-137L57 -134Q78 -132 88 -124T98 -100Q98 -87 89 -77T52 -64L111 -50Q146 -50 170 -66T194 -118Q194 -155 168 -176T87 -198H39ZM52 -64L103 17H170L119 -64H52Z" />
<glyph unicode="&#xb9;" horiz-adv-x="452" d="M170 280V703L64 691V784L184 825H300V280H170ZM56 280V393H414V280H56Z" />
<glyph unicode="&#xba;" horiz-adv-x="427" d="M34 254V324H393V254H34ZM156 557Q156 509 161 486T180 457T213 450Q233 450 246 456T265 486T271 557Q271 606 265 628T246 657T213 664Q193 664 180 658T162 629T156 557ZM26 557Q26 637 44 680T103 741T213 758Q282
758 323 740T382 678T401 557Q401 481 384 437T325 375T213 357Q145 357 104 376T44 439T26 557Z" />
<glyph unicode="&#xbb;" horiz-adv-x="620" d="M110 60L38 136L185 281L37 426L113 500L334 281L110 60ZM360 60L288 136L435 281L287 426L363 500L584 281L360 60Z" />
<glyph unicode="&#xbc;" horiz-adv-x="1275" d="M401 0L771 770H873L503 0H401ZM1060 0V106H831L815 187L970 540H1100L959 213H1060V281L1091 371H1183V213H1233V126L1183 106V0H1060ZM173 280V703L67 691V784L187 825H303V280H173ZM59 280V393H417V280H59Z" />
<glyph unicode="&#xbd;" horiz-adv-x="1275" d="M401 0L771 770H873L503 0H401ZM838 0V95L1005 270Q1032 298 1047 324T1063 375Q1063 391 1057 402T1036 419T998 425H849V524Q883 531 925 537T1023 544Q1088 544 1125 527T1178 476T1194 394Q1194 358 1186 330T1157
274T1104 211L1010 113H1210V0H838ZM173 280V703L67 691V784L187 825H303V280H173ZM59 280V393H417V280H59Z" />
<glyph unicode="&#xbe;" horiz-adv-x="1275" d="M401 0L771 770H873L503 0H401ZM1060 0V106H831L815 187L970 540H1100L959 213H1060V281L1091 371H1183V213H1233V126L1183 106V0H1060ZM249 276Q193 276 143 280T49 293V394H206Q235 394 252 398T278 412T287 437V452Q287
468 279 477T256 491T222 497L96 503V599L217 607Q248 609 264 617T280 645V661Q280 684 263 694T203 705H58V806Q103 815 150 820T253 824Q325 823 366 790T408 689V651Q408 624 401 605T379 572T343 552Q366 545 382 530T406 492T415 441V417Q415 349 371 313T249
276Z" />
<glyph unicode="&#xbf;" horiz-adv-x="529" d="M381 334V136H311Q261 136 234 120T206 56V24Q206 -27 234 -48T319 -69Q362 -69 402 -60T486 -36V-145Q447 -169 394 -185T274 -202Q202 -202 154 -177T82 -106T58 0V59Q58 152 109 200T270 248V334H381ZM369 538Q389
538 389 518V416Q389 395 369 395H283Q261 395 261 416V518Q261 530 267 534T283 538H369Z" />
<glyph unicode="&#xc0;" horiz-adv-x="685" d="M17 0L249 740H436L668 0H514L467 155H215L169 0H17ZM250 288H432L341 613L250 288ZM315 791L200 931H320L402 791H315Z" />
<glyph unicode="&#xc1;" horiz-adv-x="685" d="M17 0L249 740H436L668 0H514L467 155H215L169 0H17ZM250 288H432L341 613L250 288ZM303 791L386 931H505L390 791H303Z" />
<glyph unicode="&#xc2;" horiz-adv-x="685" d="M17 0L249 740H436L668 0H514L467 155H215L169 0H17ZM250 288H432L341 613L250 288ZM185 791L293 933H395L493 791H407L341 867L271 791H185Z" />
<glyph unicode="&#xc3;" horiz-adv-x="685" d="M17 0L249 740H436L668 0H514L467 155H215L169 0H17ZM250 288H432L341 613L250 288ZM153 789Q156 837 170 865T208 906T258 919Q283 919 302 912T339 896T371 879T404 872Q423 872 434 885T447 924H521Q518 857 492
824T418 790Q393 790 373 797T336 813T302 830T271 837Q251 837 240 824T227 789H153Z" />
<glyph unicode="&#xc4;" horiz-adv-x="685" d="M17 0L249 740H436L668 0H514L467 155H215L169 0H17ZM250 288H432L341 613L250 288ZM406 797Q386 797 386 818V915Q386 937 406 937H475Q485 937 490 931T495 915V818Q495 797 475 797H406ZM194 797Q173 797 173
818V915Q173 937 194 937H263Q273 937 278 931T283 915V818Q283 797 263 797H194Z" />
<glyph unicode="&#xc5;" horiz-adv-x="685" d="M17 0L249 740H436L668 0H514L467 155H215L169 0H17ZM250 288H432L341 613L250 288ZM342 767Q282 767 250 791T218 880Q218 944 250 969T342 994Q403 994 433 970T464 880Q464 816 434 792T342 767ZM342 822Q370
822 383 834T396 880Q396 914 383 927T342 940Q314 940 300 927T286 880Q286 847 300 835T342 822Z" />
<glyph unicode="&#xc6;" horiz-adv-x="981" d="M650 -5Q567 -5 523 19T470 114V154H253L162 0H17L317 549Q356 621 399 663T500 722T636 740Q724 740 802 736T936 727V603H663Q630 603 617 589T603 548V435L889 427V310L603 302V200Q603 171 613 157T641 139T679
134H936V11Q873 5 803 0T650 -5ZM319 280H470V562L319 280Z" />
<glyph unicode="&#xc7;" horiz-adv-x="586" d="M313 -6Q248 -6 199 9T115 64T63 178T45 372Q45 487 63 560T117 674T202 731T315 747Q365 747 408 742T487 729T546 712V597Q528 601 498 605T428 611T346 614Q304 614 275 605T228 570T202 496T193 371Q193 297
200 249T225 175T271 138T346 127Q422 127 469 130T546 137V23Q519 14 484 8T407 -2T313 -6ZM262 -198V-137L280 -134Q301 -132 311 -124T321 -100Q321 -87 312 -77T275 -64L334 -50Q369 -50 393 -66T417 -118Q417 -155 391 -176T310 -198H262ZM275 -64L326 17H393L342
-64H275Z" />
<glyph unicode="&#xc8;" horiz-adv-x="597" d="M244 -5Q220 -5 189 -1T130 20T83 68T64 158V571Q64 620 79 653T119 705T174 732T233 740Q308 740 365 738T469 734T553 727V603H277Q246 603 229 588T212 542V435L505 427V310L212 302V200Q212 174 220 160T243
140T274 134H553V10Q509 5 456 2T348 -3T244 -5ZM287 791L172 931H292L374 791H287Z" />
<glyph unicode="&#xc9;" horiz-adv-x="597" d="M244 -5Q220 -5 189 -1T130 20T83 68T64 158V571Q64 620 79 653T119 705T174 732T233 740Q308 740 365 738T469 734T553 727V603H277Q246 603 229 588T212 542V435L505 427V310L212 302V200Q212 174 220 160T243
140T274 134H553V10Q509 5 456 2T348 -3T244 -5ZM275 791L358 931H477L362 791H275Z" />
<glyph unicode="&#xca;" horiz-adv-x="597" d="M244 -5Q220 -5 189 -1T130 20T83 68T64 158V571Q64 620 79 653T119 705T174 732T233 740Q308 740 365 738T469 734T553 727V603H277Q246 603 229 588T212 542V435L505 427V310L212 302V200Q212 174 220 160T243
140T274 134H553V10Q509 5 456 2T348 -3T244 -5ZM157 791L265 933H367L465 791H379L313 867L243 791H157Z" />
<glyph unicode="&#xcb;" horiz-adv-x="597" d="M244 -5Q220 -5 189 -1T130 20T83 68T64 158V571Q64 620 79 653T119 705T174 732T233 740Q308 740 365 738T469 734T553 727V603H277Q246 603 229 588T212 542V435L505 427V310L212 302V200Q212 174 220 160T243
140T274 134H553V10Q509 5 456 2T348 -3T244 -5ZM378 797Q358 797 358 818V915Q358 937 378 937H447Q457 937 462 931T467 915V818Q467 797 447 797H378ZM166 797Q145 797 145 818V915Q145 937 166 937H235Q245 937 250 931T255 915V818Q255 797 235 797H166Z"
/>
<glyph unicode="&#xcc;" horiz-adv-x="276" d="M64 0V740H212V0H64ZM112 791L-3 931H117L199 791H112Z" />
<glyph unicode="&#xcd;" horiz-adv-x="276" d="M64 0V740H212V0H64ZM100 791L183 931H302L187 791H100Z" />
<glyph unicode="&#xce;" horiz-adv-x="276" d="M64 0V740H212V0H64ZM-18 791L90 933H192L290 791H204L138 867L68 791H-18Z" />
<glyph unicode="&#xcf;" horiz-adv-x="276" d="M64 0V740H212V0H64ZM203 797Q183 797 183 818V915Q183 937 203 937H272Q282 937 287 931T292 915V818Q292 797 272 797H203ZM-9 797Q-30 797 -30 818V915Q-30 937 -9 937H60Q70 937 75 931T80 915V818Q80 797 60 797H-9Z" />
<glyph unicode="&#xd0;" horiz-adv-x="680" d="M12 324V421H331V324H12ZM64 0V740H377Q452 740 502 714T581 638T623 520T635 370Q635 245 607 163T521 41T377 0H64ZM212 133H362Q408 133 435 159T474 239T487 370Q487 442 479 488T456 561T417 597T362 607H212V133Z" />
<glyph unicode="&#xd1;" horiz-adv-x="704" d="M69 0V740H188L498 252V740H646V0H527L218 488V0H69ZM154 789Q157 837 171 865T209 906T259 919Q284 919 303 912T340 896T372 879T405 872Q424 872 435 885T448 924H522Q519 857 493 824T419 790Q394 790 374 797T337
813T303 830T272 837Q252 837 241 824T228 789H154Z" />
<glyph unicode="&#xd2;" horiz-adv-x="699" d="M350 -6Q274 -6 217 8T122 62T64 176T45 369Q45 488 64 562T122 677T217 732T350 747Q426 747 483 732T578 677T635 563T654 369Q654 250 635 176T578 63T483 9T350 -6ZM350 127Q395 127 425 137T472 172T498 245T506
369Q506 449 498 497T473 570T425 605T350 614Q307 614 277 605T229 571T202 497T193 369Q193 293 200 246T226 173T274 137T350 127ZM323 791L208 931H328L410 791H323Z" />
<glyph unicode="&#xd3;" horiz-adv-x="699" d="M350 -6Q274 -6 217 8T122 62T64 176T45 369Q45 488 64 562T122 677T217 732T350 747Q426 747 483 732T578 677T635 563T654 369Q654 250 635 176T578 63T483 9T350 -6ZM350 127Q395 127 425 137T472 172T498 245T506
369Q506 449 498 497T473 570T425 605T350 614Q307 614 277 605T229 571T202 497T193 369Q193 293 200 246T226 173T274 137T350 127ZM312 791L395 931H514L399 791H312Z" />
<glyph unicode="&#xd4;" horiz-adv-x="699" d="M350 -6Q274 -6 217 8T122 62T64 176T45 369Q45 488 64 562T122 677T217 732T350 747Q426 747 483 732T578 677T635 563T654 369Q654 250 635 176T578 63T483 9T350 -6ZM350 127Q395 127 425 137T472 172T498 245T506
369Q506 449 498 497T473 570T425 605T350 614Q307 614 277 605T229 571T202 497T193 369Q193 293 200 246T226 173T274 137T350 127ZM194 791L302 933H404L502 791H416L350 867L280 791H194Z" />
<glyph unicode="&#xd5;" horiz-adv-x="699" d="M350 -6Q274 -6 217 8T122 62T64 176T45 369Q45 488 64 562T122 677T217 732T350 747Q426 747 483 732T578 677T635 563T654 369Q654 250 635 176T578 63T483 9T350 -6ZM350 127Q395 127 425 137T472 172T498 245T506
369Q506 449 498 497T473 570T425 605T350 614Q307 614 277 605T229 571T202 497T193 369Q193 293 200 246T226 173T274 137T350 127ZM162 789Q165 837 179 865T217 906T267 919Q292 919 311 912T348 896T380 879T413 872Q432 872 443 885T456 924H530Q527 857
501 824T427 790Q402 790 382 797T345 813T311 830T280 837Q260 837 249 824T236 789H162Z" />
<glyph unicode="&#xd6;" horiz-adv-x="699" d="M350 -6Q274 -6 217 8T122 62T64 176T45 369Q45 488 64 562T122 677T217 732T350 747Q426 747 483 732T578 677T635 563T654 369Q654 250 635 176T578 63T483 9T350 -6ZM350 127Q395 127 425 137T472 172T498 245T506
369Q506 449 498 497T473 570T425 605T350 614Q307 614 277 605T229 571T202 497T193 369Q193 293 200 246T226 173T274 137T350 127ZM415 797Q395 797 395 818V915Q395 937 415 937H484Q494 937 499 931T504 915V818Q504 797 484 797H415ZM203 797Q182 797 182
818V915Q182 937 203 937H272Q282 937 287 931T292 915V818Q292 797 272 797H203Z" />
<glyph unicode="&#xd7;" horiz-adv-x="609" d="M420 155L103 472L188 557L505 240L420 155ZM188 155L103 240L420 557L505 472L188 155Z" />
<glyph unicode="&#xd8;" horiz-adv-x="699" d="M56 0L546 740H644L154 0H56ZM350 -6Q274 -6 217 8T122 62T64 176T45 369Q45 488 64 562T122 677T217 732T350 747Q426 747 483 732T578 677T635 563T654 369Q654 250 635 176T578 63T483 9T350 -6ZM350 127Q395
127 425 137T472 172T498 245T506 369Q506 449 498 497T473 570T425 605T350 614Q307 614 277 605T229 571T202 497T193 369Q193 293 200 246T226 173T274 137T350 127Z" />
<glyph unicode="&#xd9;" horiz-adv-x="686" d="M343 -5Q282 -5 229 5T137 42T76 116T54 238V740H202V239Q202 198 218 174T266 139T343 128Q387 128 418 139T466 174T483 239V740H632V238Q632 164 610 117T549 43T458 6T343 -5ZM308 791L193 931H313L395 791H308Z" />
<glyph unicode="&#xda;" horiz-adv-x="686" d="M343 -5Q282 -5 229 5T137 42T76 116T54 238V740H202V239Q202 198 218 174T266 139T343 128Q387 128 418 139T466 174T483 239V740H632V238Q632 164 610 117T549 43T458 6T343 -5ZM296 791L379 931H498L383 791H296Z" />
<glyph unicode="&#xdb;" horiz-adv-x="686" d="M343 -5Q282 -5 229 5T137 42T76 116T54 238V740H202V239Q202 198 218 174T266 139T343 128Q387 128 418 139T466 174T483 239V740H632V238Q632 164 610 117T549 43T458 6T343 -5ZM178 791L286 933H388L486 791H400L334
867L264 791H178Z" />
<glyph unicode="&#xdc;" horiz-adv-x="686" d="M343 -5Q282 -5 229 5T137 42T76 116T54 238V740H202V239Q202 198 218 174T266 139T343 128Q387 128 418 139T466 174T483 239V740H632V238Q632 164 610 117T549 43T458 6T343 -5ZM399 797Q379 797 379 818V915Q379
937 399 937H468Q478 937 483 931T488 915V818Q488 797 468 797H399ZM187 797Q166 797 166 818V915Q166 937 187 937H256Q266 937 271 931T276 915V818Q276 797 256 797H187Z" />
<glyph unicode="&#xdd;" horiz-adv-x="628" d="M240 0V224L17 740H171L317 375L462 740H610L388 224V0H240ZM279 791L362 931H481L366 791H279Z" />
<glyph unicode="&#xde;" horiz-adv-x="586" d="M64 0V740H212V620H341Q377 620 414 612T483 579T534 507T554 379Q554 298 535 249T484 175T417 140T346 131Q332 131 314 133T276 138T239 143T212 147V0H64ZM212 264H324Q350 264 368 275T395 312T405 378Q405
418 395 442T368 476T326 487H212V264Z" />
<glyph unicode="&#xdf;" horiz-adv-x="605" d="M403 -7Q358 -7 318 -3T254 9V109Q277 108 306 107T365 105Q397 105 414 112T438 130T446 150V162Q446 176 435 186T407 206T371 227T334 252T306 287T295 337Q295 367 305 391T332 437T363 479T389 519T400 563Q400
610 375 628T301 646Q245 646 220 616T195 520V0H47V535Q47 601 73 653T156 735T302 765Q388 765 440 741T516 672T541 573Q541 540 530 514T504 466T473 428T447 395T436 364Q436 350 447 339T475 317T511 295T548 267T576 229T587 175V147Q587 102 570 73T524
26T464 1T403 -7Z" />
<glyph unicode="&#xe0;" horiz-adv-x="550" d="M171 -6Q110 -6 72 30T34 130V178Q34 239 77 278T211 318H348V355Q348 380 339 396T306 420T231 428H70V514Q109 526 160 535T285 544Q352 544 399 528T471 473T496 365V0H379L355 57Q348 49 331 39T290 19T235 1T171
-6ZM246 97Q256 97 268 99T294 105T319 112T338 119T348 123V248L258 242Q219 239 201 222T182 176V154Q182 134 190 121T213 103T246 97ZM249 631L134 771H254L336 631H249Z" />
<glyph unicode="&#xe1;" horiz-adv-x="550" d="M171 -6Q110 -6 72 30T34 130V178Q34 239 77 278T211 318H348V355Q348 380 339 396T306 420T231 428H70V514Q109 526 160 535T285 544Q352 544 399 528T471 473T496 365V0H379L355 57Q348 49 331 39T290 19T235 1T171
-6ZM246 97Q256 97 268 99T294 105T319 112T338 119T348 123V248L258 242Q219 239 201 222T182 176V154Q182 134 190 121T213 103T246 97ZM227 631L310 771H429L314 631H227Z" />
<glyph unicode="&#xe2;" horiz-adv-x="550" d="M171 -6Q110 -6 72 30T34 130V178Q34 239 77 278T211 318H348V355Q348 380 339 396T306 420T231 428H70V514Q109 526 160 535T285 544Q352 544 399 528T471 473T496 365V0H379L355 57Q348 49 331 39T290 19T235 1T171
-6ZM246 97Q256 97 268 99T294 105T319 112T338 119T348 123V248L258 242Q219 239 201 222T182 176V154Q182 134 190 121T213 103T246 97ZM114 631L222 773H324L422 631H336L270 707L200 631H114Z" />
<glyph unicode="&#xe3;" horiz-adv-x="550" d="M171 -6Q110 -6 72 30T34 130V178Q34 239 77 278T211 318H348V355Q348 380 339 396T306 420T231 428H70V514Q109 526 160 535T285 544Q352 544 399 528T471 473T496 365V0H379L355 57Q348 49 331 39T290 19T235 1T171
-6ZM246 97Q256 97 268 99T294 105T319 112T338 119T348 123V248L258 242Q219 239 201 222T182 176V154Q182 134 190 121T213 103T246 97ZM91 629Q94 677 108 705T146 746T196 759Q221 759 240 752T277 736T309 719T342 712Q361 712 372 725T385 764H459Q456 697
430 664T356 630Q331 630 311 637T274 653T240 670T209 677Q189 677 178 664T165 629H91Z" />
<glyph unicode="&#xe4;" horiz-adv-x="550" d="M171 -6Q110 -6 72 30T34 130V178Q34 239 77 278T211 318H348V355Q348 380 339 396T306 420T231 428H70V514Q109 526 160 535T285 544Q352 544 399 528T471 473T496 365V0H379L355 57Q348 49 331 39T290 19T235 1T171
-6ZM246 97Q256 97 268 99T294 105T319 112T338 119T348 123V248L258 242Q219 239 201 222T182 176V154Q182 134 190 121T213 103T246 97ZM330 637Q309 637 309 658V755Q309 777 330 777H399Q408 777 413 771T419 755V658Q419 637 399 637H330ZM134 637Q113 637
113 658V755Q113 777 134 777H202Q212 777 217 771T222 755V658Q222 637 202 637H134Z" />
<glyph unicode="&#xe5;" horiz-adv-x="550" d="M171 -6Q110 -6 72 30T34 130V178Q34 239 77 278T211 318H348V355Q348 380 339 396T306 420T231 428H70V514Q109 526 160 535T285 544Q352 544 399 528T471 473T496 365V0H379L355 57Q348 49 331 39T290 19T235 1T171
-6ZM246 97Q256 97 268 99T294 105T319 112T338 119T348 123V248L258 242Q219 239 201 222T182 176V154Q182 134 190 121T213 103T246 97ZM271 585Q211 585 179 609T147 698Q147 762 179 787T271 812Q332 812 362 788T393 698Q393 634 363 610T271 585ZM271 640Q299
640 312 652T325 698Q325 732 312 745T271 758Q243 758 229 745T215 698Q215 665 229 653T271 640Z" />
<glyph unicode="&#xe6;" horiz-adv-x="852" d="M178 -6Q127 -6 96 13T50 64T36 132V176Q36 216 54 247T111 297T214 316H351V358Q351 382 341 397T308 420T245 428H73V514Q117 528 160 536T260 544Q317 544 361 527T429 481Q454 511 494 528T595 545Q668 545 714
529T782 471T804 354Q804 278 757 249T622 220H495Q496 184 506 161T535 126T581 110T643 105H786V18Q737 4 681 -1T570 -6Q528 -6 493 5T431 37T389 83Q368 61 337 41T265 7T178 -6ZM248 97Q279 97 308 110T360 145Q356 159 353 185T349 245L243 236Q211 234 198
216T185 177V157Q185 133 194 120T217 102T248 97ZM495 313H618Q636 313 648 318T665 333T671 358Q671 387 662 404T633 427T583 434Q548 434 529 423T503 386T495 313Z" />
<glyph unicode="&#xe7;" horiz-adv-x="490" d="M266 -6Q217 -6 176 7T104 50T58 133T41 266Q41 348 56 402T100 487T173 532T270 545Q319 545 363 540T457 520V435H316Q270 435 242 422T202 372T189 267Q189 200 201 165T242 118T318 106H465V22Q440 14 407 8T338
-2T266 -6ZM195 -198V-137L213 -134Q234 -132 244 -124T254 -100Q254 -87 245 -77T208 -64L267 -50Q302 -50 326 -66T350 -118Q350 -155 324 -176T243 -198H195ZM208 -64L259 17H326L275 -64H208Z" />
<glyph unicode="&#xe8;" horiz-adv-x="537" d="M283 -5Q194 -5 141 18T65 102T41 268Q41 377 63 437T137 521T278 545Q358 545 406 529T475 473T497 360Q497 306 476 275T415 230T323 216H188Q190 175 200 151T239 116T322 105H479V18Q440 10 394 3T283 -5ZM186
304H308Q338 304 352 316T366 359Q366 388 357 405T329 430T278 438Q244 438 224 427T195 386T186 304ZM249 631L134 771H254L336 631H249Z" />
<glyph unicode="&#xe9;" horiz-adv-x="537" d="M283 -5Q194 -5 141 18T65 102T41 268Q41 377 63 437T137 521T278 545Q358 545 406 529T475 473T497 360Q497 306 476 275T415 230T323 216H188Q190 175 200 151T239 116T322 105H479V18Q440 10 394 3T283 -5ZM186
304H308Q338 304 352 316T366 359Q366 388 357 405T329 430T278 438Q244 438 224 427T195 386T186 304ZM227 631L310 771H429L314 631H227Z" />
<glyph unicode="&#xea;" horiz-adv-x="537" d="M283 -5Q194 -5 141 18T65 102T41 268Q41 377 63 437T137 521T278 545Q358 545 406 529T475 473T497 360Q497 306 476 275T415 230T323 216H188Q190 175 200 151T239 116T322 105H479V18Q440 10 394 3T283 -5ZM186
304H308Q338 304 352 316T366 359Q366 388 357 405T329 430T278 438Q244 438 224 427T195 386T186 304ZM114 631L222 773H324L422 631H336L270 707L200 631H114Z" />
<glyph unicode="&#xeb;" horiz-adv-x="537" d="M283 -5Q194 -5 141 18T65 102T41 268Q41 377 63 437T137 521T278 545Q358 545 406 529T475 473T497 360Q497 306 476 275T415 230T323 216H188Q190 175 200 151T239 116T322 105H479V18Q440 10 394 3T283 -5ZM186
304H308Q338 304 352 316T366 359Q366 388 357 405T329 430T278 438Q244 438 224 427T195 386T186 304ZM330 637Q309 637 309 658V755Q309 777 330 777H399Q408 777 413 771T419 755V658Q419 637 399 637H330ZM134 637Q113 637 113 658V755Q113 777 134 777H202Q212
777 217 771T222 755V658Q222 637 202 637H134Z" />
<glyph unicode="&#xec;" horiz-adv-x="261" d="M57 0V537H205V0H57ZM366 631L251 771H371L453 631H366Z" />
<glyph unicode="&#xed;" horiz-adv-x="261" d="M57 0V537H205V0H57ZM87 631L170 771H289L174 631H87Z" />
<glyph unicode="&#xee;" horiz-adv-x="261" d="M57 0V537H205V0H57ZM231 631L339 773H441L539 631H453L387 707L317 631H231Z" />
<glyph unicode="&#xef;" horiz-adv-x="261" d="M57 0V537H205V0H57ZM191 637Q170 637 170 658V755Q170 777 191 777H260Q269 777 274 771T280 755V658Q280 637 260 637H191ZM-5 637Q-26 637 -26 658V755Q-26 777 -5 777H63Q73 777 78 771T83 755V658Q83 637 63 637H-5Z" />
<glyph unicode="&#xf0;" horiz-adv-x="575" d="M287 -5Q221 -5 174 8T98 52T55 135T41 262Q41 342 56 394T100 476T172 516T267 528Q309 528 342 520T399 493T434 448Q455 421 478 398T518 344T534 270Q534 190 521 137T479 52T403 8T287 -5ZM287 113Q314 113
332 118T362 138T380 183T386 263Q386 314 380 343T363 387T333 407T287 412Q261 412 243 407T212 388T195 344T189 263Q189 213 194 183T212 138T242 118T287 113ZM534 270L401 323Q401 423 386 490T337 597T252 655T127 676V765Q238 762 315 736T441 653T512
502T534 270ZM156 555L138 602L508 745L527 697L156 555Z" />
<glyph unicode="&#xf1;" horiz-adv-x="595" d="M57 0V537H179L205 482Q235 507 280 526T374 546Q440 546 476 520T526 451T541 354V0H393V335Q393 361 384 378T357 404T316 413Q295 413 276 408T239 394T205 373V0H57ZM119 629Q122 677 136 705T174 746T224 759Q249
759 268 752T305 736T337 719T370 712Q389 712 400 725T413 764H487Q484 697 458 664T384 630Q359 630 339 637T302 653T268 670T237 677Q217 677 206 664T193 629H119Z" />
<glyph unicode="&#xf2;" horiz-adv-x="575" d="M287 -5Q221 -5 174 8T98 54T55 139T41 270Q41 352 54 405T97 489T174 532T287 545Q354 545 401 532T477 489T520 405T534 270Q534 190 521 137T479 52T403 8T287 -5ZM287 113Q314 113 332 118T362 138T380 186T386
270Q386 323 380 354T363 401T333 422T287 427Q261 427 243 422T212 402T195 355T189 270Q189 218 194 186T212 139T242 118T287 113ZM266 631L151 771H271L353 631H266Z" />
<glyph unicode="&#xf3;" horiz-adv-x="575" d="M287 -5Q221 -5 174 8T98 54T55 139T41 270Q41 352 54 405T97 489T174 532T287 545Q354 545 401 532T477 489T520 405T534 270Q534 190 521 137T479 52T403 8T287 -5ZM287 113Q314 113 332 118T362 138T380 186T386
270Q386 323 380 354T363 401T333 422T287 427Q261 427 243 422T212 402T195 355T189 270Q189 218 194 186T212 139T242 118T287 113ZM244 631L327 771H446L331 631H244Z" />
<glyph unicode="&#xf4;" horiz-adv-x="575" d="M287 -5Q221 -5 174 8T98 54T55 139T41 270Q41 352 54 405T97 489T174 532T287 545Q354 545 401 532T477 489T520 405T534 270Q534 190 521 137T479 52T403 8T287 -5ZM287 113Q314 113 332 118T362 138T380 186T386
270Q386 323 380 354T363 401T333 422T287 427Q261 427 243 422T212 402T195 355T189 270Q189 218 194 186T212 139T242 118T287 113ZM131 631L239 773H341L439 631H353L287 707L217 631H131Z" />
<glyph unicode="&#xf5;" horiz-adv-x="575" d="M287 -5Q221 -5 174 8T98 54T55 139T41 270Q41 352 54 405T97 489T174 532T287 545Q354 545 401 532T477 489T520 405T534 270Q534 190 521 137T479 52T403 8T287 -5ZM287 113Q314 113 332 118T362 138T380 186T386
270Q386 323 380 354T363 401T333 422T287 427Q261 427 243 422T212 402T195 355T189 270Q189 218 194 186T212 139T242 118T287 113ZM109 629Q112 677 126 705T164 746T214 759Q239 759 258 752T295 736T327 719T360 712Q379 712 390 725T403 764H477Q474 697
448 664T374 630Q349 630 329 637T292 653T258 670T227 677Q207 677 196 664T183 629H109Z" />
<glyph unicode="&#xf6;" horiz-adv-x="575" d="M287 -5Q221 -5 174 8T98 54T55 139T41 270Q41 352 54 405T97 489T174 532T287 545Q354 545 401 532T477 489T520 405T534 270Q534 190 521 137T479 52T403 8T287 -5ZM287 113Q314 113 332 118T362 138T380 186T386
270Q386 323 380 354T363 401T333 422T287 427Q261 427 243 422T212 402T195 355T189 270Q189 218 194 186T212 139T242 118T287 113ZM347 637Q326 637 326 658V755Q326 777 347 777H416Q425 777 430 771T436 755V658Q436 637 416 637H347ZM151 637Q130 637 130
658V755Q130 777 151 777H219Q229 777 234 771T239 755V658Q239 637 219 637H151Z" />
<glyph unicode="&#xf7;" horiz-adv-x="609" d="M261 498Q237 498 237 521V600Q237 625 261 625H347Q372 625 372 600V521Q372 508 365 503T347 498H261ZM261 87Q237 87 237 110V189Q237 214 261 214H347Q372 214 372 189V110Q372 97 365 92T347 87H261ZM80 296V416H528V296H80Z"
/>
<glyph unicode="&#xf8;" horiz-adv-x="575" d="M28 0L478 537H547L97 0H28ZM287 -5Q221 -5 174 8T98 54T55 139T41 270Q41 352 54 405T97 489T174 532T287 545Q354 545 401 532T477 489T520 405T534 270Q534 190 521 137T479 52T403 8T287 -5ZM287 113Q314 113
332 118T362 138T380 186T386 270Q386 323 380 354T363 401T333 422T287 427Q261 427 243 422T212 402T195 355T189 270Q189 218 194 186T212 139T242 118T287 113Z" />
<glyph unicode="&#xf9;" horiz-adv-x="595" d="M209 -6Q137 -6 96 36T55 157V537H203V201Q203 156 224 141T281 125Q309 125 338 135T391 164V537H540V0H417L391 55Q355 31 308 13T209 -6ZM272 631L157 771H277L359 631H272Z" />
<glyph unicode="&#xfa;" horiz-adv-x="595" d="M209 -6Q137 -6 96 36T55 157V537H203V201Q203 156 224 141T281 125Q309 125 338 135T391 164V537H540V0H417L391 55Q355 31 308 13T209 -6ZM250 631L333 771H452L337 631H250Z" />
<glyph unicode="&#xfb;" horiz-adv-x="595" d="M209 -6Q137 -6 96 36T55 157V537H203V201Q203 156 224 141T281 125Q309 125 338 135T391 164V537H540V0H417L391 55Q355 31 308 13T209 -6ZM137 631L245 773H347L445 631H359L293 707L223 631H137Z" />
<glyph unicode="&#xfc;" horiz-adv-x="595" d="M209 -6Q137 -6 96 36T55 157V537H203V201Q203 156 224 141T281 125Q309 125 338 135T391 164V537H540V0H417L391 55Q355 31 308 13T209 -6ZM353 637Q332 637 332 658V755Q332 777 353 777H422Q431 777 436 771T442
755V658Q442 637 422 637H353ZM157 637Q136 637 136 658V755Q136 777 157 777H225Q235 777 240 771T245 755V658Q245 637 225 637H157Z" />
<glyph unicode="&#xfd;" horiz-adv-x="569" d="M225 -237L283 0Q238 0 204 17T148 65T113 144L12 537H166L251 174Q256 155 264 144T281 129T297 123T309 121L406 537H556L396 -138L348 -237H225ZM231 631L314 771H433L318 631H231Z" />
<glyph unicode="&#xfe;" horiz-adv-x="585" d="M57 -237V763H205V486Q224 501 247 514T297 536T354 545Q401 545 436 526T496 471T532 384T544 268Q544 182 526 120T465 26T354 -7Q316 -7 277 2T205 28V-237H57ZM306 115Q329 115 350 127T383 170T396 261Q396
324 385 360T353 411T306 426Q275 426 249 416T205 396V141Q225 129 252 122T306 115Z" />
<glyph unicode="&#xff;" horiz-adv-x="569" d="M225 -237L283 0Q238 0 204 17T148 65T113 144L12 537H166L251 174Q256 155 264 144T281 129T297 123T309 121L406 537H556L396 -138L348 -237H225ZM335 637Q314 637 314 658V755Q314 777 335 777H404Q413 777 418
771T424 755V658Q424 637 404 637H335ZM139 637Q118 637 118 658V755Q118 777 139 777H207Q217 777 222 771T227 755V658Q227 637 207 637H139Z" />
<glyph unicode="&#x2013;" horiz-adv-x="517" d="M22 229V350H495V229H22Z" />
<glyph unicode="&#x2014;" horiz-adv-x="740" d="M22 229V350H718V229H22Z" />
<glyph unicode="&#x2018;" horiz-adv-x="224" d="M69 499Q58 499 54 506T49 523V676Q49 712 65 730T103 754T145 760Q159 760 166 760T179 757V703Q160 703 156 694T151 675V646H161Q170 646 176 641T183 623V523Q183 499 161 499H69Z" />
<glyph unicode="&#x2019;" horiz-adv-x="224" d="M80 493Q66 493 60 494T46 496V551Q65 551 69 561T74 579V608H64Q55 608 49 613T42 630V731Q42 755 64 755H155Q167 755 171 748T175 731V578Q175 542 160 524T122 500T80 493Z" />
<glyph unicode="&#x201a;" horiz-adv-x="224" d="M80 -120Q66 -120 57 -119T46 -117V-63Q65 -63 69 -53T74 -35V-6H64Q55 -6 49 -1T42 17V117Q42 141 64 141H155Q167 141 171 134T175 117V-36Q175 -72 160 -90T122 -114T80 -120Z" />
<glyph unicode="&#x201c;" horiz-adv-x="392" d="M69 499Q58 499 54 506T49 523V676Q49 712 65 730T103 754T145 760Q159 760 166 760T179 757V703Q160 703 156 694T151 675V646H161Q170 646 176 641T183 623V523Q183 499 161 499H69ZM237 499Q226 499 222 506T217
523V676Q217 712 233 730T271 754T313 760Q327 760 334 760T347 757V703Q328 703 324 694T319 675V646H329Q338 646 344 641T351 623V523Q351 499 329 499H237Z" />
<glyph unicode="&#x201d;" horiz-adv-x="392" d="M80 493Q66 493 60 494T46 496V551Q65 551 69 561T74 579V608H64Q55 608 49 613T42 630V731Q42 755 64 755H155Q167 755 171 748T175 731V578Q175 542 160 524T122 500T80 493ZM248 493Q234 493 228 494T214 496V551Q233
551 237 561T242 579V608H232Q223 608 217 613T210 630V731Q210 755 232 755H323Q335 755 339 748T343 731V578Q343 542 328 524T290 500T248 493Z" />
<glyph unicode="&#x201e;" horiz-adv-x="392" d="M80 -120Q66 -120 57 -119T46 -117V-63Q65 -63 69 -53T74 -35V-6H64Q55 -6 49 -1T42 17V117Q42 141 64 141H155Q167 141 171 134T175 117V-36Q175 -72 160 -90T122 -114T80 -120ZM248 -120Q234 -120 225 -119T214
-117V-63Q233 -63 237 -53T242 -35V-6H232Q223 -6 217 -1T210 17V117Q210 141 232 141H323Q335 141 339 134T343 117V-36Q343 -72 328 -90T290 -114T248 -120Z" />
<glyph unicode="&#x2022;" horiz-adv-x="311" d="M99 290Q66 290 66 322V440Q66 456 74 465T99 475H211Q246 475 246 440V322Q246 304 236 297T211 290H99Z" />
<glyph unicode="&#x2039;" horiz-adv-x="370" d="M264 60L39 282L259 500L335 426L188 282L337 136L264 60Z" />
<glyph unicode="&#x203a;" horiz-adv-x="370" d="M110 60L38 136L185 281L37 426L113 500L334 281L110 60Z" />
</font>
</defs>
</svg>
