<?xml version="1.0" standalone="no"?>
<!DOCTYPE svg PUBLIC "-//W3C//DTD SVG 20010904//EN"
 "http://www.w3.org/TR/2001/REC-SVG-20010904/DTD/svg10.dtd">
<svg version="1.0" xmlns="http://www.w3.org/2000/svg"
 width="664.000000pt" height="664.000000pt" viewBox="0 0 664.000000 664.000000"
 preserveAspectRatio="xMidYMid meet">
<metadata>
Created by potrace 1.14, written by Peter Selinger 2001-2017
</metadata>
<g transform="translate(0.000000,664.000000) scale(0.100000,-0.100000)"
fill="#000000" stroke="none">
<path d="M4068 6611 c-7 -2 -22 -13 -33 -25 -20 -20 -20 -34 -20 -1264 l0
-1244 28 -24 28 -24 1229 0 c879 0 1236 3 1253 11 14 6 30 22 36 36 8 17 11
374 11 1253 l0 1229 -24 28 -24 28 -1235 0 c-679 0 -1241 -1 -1249 -4z"/>
<path d="M2502 5925 l-30 -25 -1 -1692 c0 -1208 3 -1698 11 -1712 6 -12 18
-26 27 -33 20 -16 3374 -19 3415 -3 14 5 30 19 36 30 8 16 12 173 12 547 l0
525 -26 27 -26 26 -1128 0 c-832 1 -1132 4 -1148 12 -51 28 -48 -33 -49 1160
l0 1115 -28 24 -28 24 -504 0 -503 0 -30 -25z"/>
<path d="M1935 5698 c-24 -14 -1819 -1809 -1839 -1840 -22 -33 -11 -84 22
-106 24 -16 101 -17 942 -18 556 0 926 3 944 9 16 6 33 21 40 37 13 31 15
1838 2 1878 -13 38 -74 60 -111 40z"/>
<path d="M3919 2032 c-15 -2 -37 -14 -50 -28 l-24 -25 0 -927 c0 -914 0 -927
20 -957 16 -23 29 -30 59 -33 l39 -3 923 923 c535 535 926 933 929 947 8 32
-11 75 -40 91 -18 10 -221 13 -927 14 -497 0 -915 0 -929 -2z"/>
</g>
</svg>
