<?xml version="1.0" encoding="utf-8"?>
<svg viewBox="152.322 142.26 200 200" xmlns="http://www.w3.org/2000/svg" xmlnsBx="https://boxy-svg.com">
  <defs>
    <linearGradient gradientUnits="userSpaceOnUse" x1="250" y1="180.147" x2="250" y2="319.853" id="gradient-0" gradientTransform="matrix(0.803722, 1.184674, -1.011225, 0.686048, 287.748566, -196.073364)">
      <stop offset="0" style="stop-color: rgba(62, 49, 116, 1)"/>
      <stop offset="1" style="stop-color: rgba(24, 19, 44, 1)"/>
    </linearGradient>
    <linearGradient id="paint0_linear_21_62" x1="72.298" y1="11.4474" x2="13.4424" y2="69.7212" gradientUnits="userSpaceOnUse" gradientTransform="matrix(1, 0, 0, 1, 195.583908, 152.999076)">
      <stop stop-color="#4D29B4"/>
      <stop offset="1" stop-color="#836FFF"/>
    </linearGradient>
    <linearGradient id="paint1_linear_21_62" x1="46.8368" y1="34.2412" x2="87.572" y2="-5.77184" gradientUnits="userSpaceOnUse" gradientTransform="matrix(1, 0, 0, 1, 195.583908, 152.999076)">
      <stop stop-color="#70FFE5"/>
      <stop offset="1" stop-color="#6295E1"/>
    </linearGradient>
    <linearGradient id="paint2_linear_21_62" x1="68.903" y1="18.2371" x2="30.5927" y2="54.613" gradientUnits="userSpaceOnUse" gradientTransform="matrix(1, 0, 0, 1, 195.583908, 152.999076)">
      <stop offset="0.0075" stop-color="#654FEC"/>
      <stop offset="1" stop-color="#71B2FF"/>
    </linearGradient>
  </defs>
  <g transform="matrix(1, 0, 0, 1, 2.321981, -7.739938)">
    <rect style="stroke: rgb(0, 0, 0); fill: url(#gradient-0); stroke-width: 0px;" x="150" y="150" width="200" height="200" rx="30" ry="30" bxOrigin="0.349265 0.349265"/>
    <g transform="matrix(1.472887, 0, 0, 1.472887, -98.841019, -29.781811)" style="">
      <path fill-rule="evenodd" clip-rule="evenodd" d="M 266.766 210.593 C 267.694 210.593 268.159 211.715 267.502 212.371 L 244.926 234.946 C 244.27 235.602 243.148 235.137 243.148 234.209 L 243.148 211.635 C 243.148 211.059 243.614 210.593 244.189 210.593 L 266.766 210.593 Z M 197.149 189.321 C 196.221 189.321 195.756 188.199 196.413 187.542 L 218.989 164.968 C 219.645 164.312 220.767 164.777 220.767 165.705 L 220.767 188.279 C 220.767 188.855 220.301 189.321 219.726 189.321 L 197.149 189.321 Z" fill="url(#paint0_linear_21_62)"/>
      <path d="M 246.294 185.616 L 276.536 185.616 C 277.112 185.616 277.578 185.15 277.578 184.574 L 277.578 154.334 C 277.578 153.759 277.112 153.292 276.536 153.292 L 246.294 153.292 C 245.719 153.292 245.252 153.759 245.252 154.334 L 245.252 184.574 C 245.252 185.15 245.719 185.616 246.294 185.616 Z" fill="url(#paint1_linear_21_62)"/>
      <path d="M 268.695 205.384 L 227.019 205.384 C 226.443 205.384 225.977 204.917 225.977 204.342 L 225.977 162.669 C 225.977 162.093 226.443 161.627 227.019 161.627 L 239.001 161.627 C 239.576 161.627 240.043 162.093 240.043 162.669 L 240.043 189.756 C 240.043 190.332 240.509 190.798 241.085 190.798 L 268.695 190.798 C 269.27 190.798 269.737 191.264 269.737 191.84 L 269.737 204.342 C 269.737 204.917 269.27 205.384 268.695 205.384 Z" fill="url(#paint2_linear_21_62)"/>
    </g>
  </g>
</svg>