<?xml version="1.0" encoding="UTF-8" standalone="no"?>
<svg
   xmlns:dc="http://purl.org/dc/elements/1.1/"
   xmlns:cc="http://creativecommons.org/ns#"
   xmlns:rdf="http://www.w3.org/1999/02/22-rdf-syntax-ns#"
   xmlns:svg="http://www.w3.org/2000/svg"
   xmlns="http://www.w3.org/2000/svg"
   xmlns:sodipodi="http://sodipodi.sourceforge.net/DTD/sodipodi-0.dtd"
   xmlns:inkscape="http://www.inkscape.org/namespaces/inkscape"
   version="1.1"
   viewbox="0 0 1200 1200"
   style="clip-rule:evenodd;fill-rule:evenodd;image-rendering:optimizeQuality;shape-rendering:geometricPrecision;text-rendering:geometricPrecision"
   id="svg38"
   sodipodi:docname="logo.svg"
   inkscape:version="0.92.5 (2060ec1f9f, 2020-04-08)"
   width="1206.3328"
   height="634.47327">
  <metadata
     id="metadata44">
    <rdf:RDF>
      <cc:Work
         rdf:about="">
        <dc:format>image/svg+xml</dc:format>
        <dc:type
           rdf:resource="http://purl.org/dc/dcmitype/StillImage" />
        <dc:title />
      </cc:Work>
    </rdf:RDF>
  </metadata>
  <defs
     id="defs42" />
  <sodipodi:namedview
     pagecolor="#ffffff"
     bordercolor="#666666"
     borderopacity="1"
     objecttolerance="10"
     gridtolerance="10"
     guidetolerance="10"
     inkscape:pageopacity="0"
     inkscape:pageshadow="2"
     inkscape:window-width="2560"
     inkscape:window-height="1388"
     id="namedview40"
     showgrid="false"
     inkscape:zoom="0.7071068"
     inkscape:cx="836.38381"
     inkscape:cy="485.00553"
     inkscape:window-x="2048"
     inkscape:window-y="588"
     inkscape:window-maximized="1"
     inkscape:current-layer="svg38"
     fit-margin-top="5"
     fit-margin-left="5"
     fit-margin-right="5"
     fit-margin-bottom="5"
     showguides="true"
     inkscape:guide-bbox="true"
     inkscape:snap-global="true" />
  <path
     style="fill:#ffffff;fill-opacity:1;stroke:none;stroke-width:28.04952812;stroke-linecap:round;stroke-linejoin:round;stroke-miterlimit:4;stroke-dasharray:none;stroke-opacity:1"
     d="M 5.0675731,597.90005 1201.3328,599.5347 1189.2686,611.34406 16.666393,611.5347 Z"
     id="rect849"
     inkscape:connector-curvature="0"
     sodipodi:nodetypes="ccccc" />
  <g
     id="g4"
     transform="translate(1.8327854,-292.9653)">
    <path
       style="opacity:0.98200001;fill:#000000"
       d="m 1199.5,887.5 v 5 c -23.63,1.553 -47.3,2.386 -71,2.5 H 74.5 c -22.0173,-0.196 -44.0173,-0.863 -66,-2 -1.66667,-0.333 -3.33333,-0.667 -5,-1 -1.10997,-3.916 0.5567,-5.916 5,-6 37.6351,-1.989 76.5517,-2.822 114.25,-2.5 V 309.75 c -0.04,-6.6885 3.1055,-9.7305 9.75,-9.75 l 947,-1.5 c 7.3614,0.12608 7.2097,3.82062 7.5,9.25 l 1.5,573.75 c 32.66,0.99 65.33,2.157 98,3.5 4.47,0.265 8.8,1.099 13,2.5 z"
       id="path2"
       inkscape:connector-curvature="0"
       sodipodi:nodetypes="ccccccccccccccc" />
  </g>
  <rect
     style="fill:#f2f2f2;fill-opacity:1;stroke:none;stroke-width:14.10571861;stroke-linecap:round;stroke-linejoin:round;stroke-miterlimit:4;stroke-dasharray:none;stroke-opacity:1"
     id="rect828"
     width="862.64435"
     height="505.04471"
     x="171.84422"
     y="57.957573" />
  <g
     id="g8"
     transform="translate(1.8327854,-292.9653)" />
  <g
     id="g12"
     transform="translate(-0.63493853,-272.9653)"
     style="fill:#ffffff;stroke:#000000;stroke-width:15.11811066;stroke-miterlimit:4;stroke-dasharray:none">
    <path
       style="opacity:0.93199978;fill:#ffffff;stroke:#000000;stroke-width:15.11811066;stroke-miterlimit:4;stroke-dasharray:none"
       d="m 495.5,376.5 c 60.781,-1.864 107.614,22.469 140.5,73 21.52,-2.759 43.02,-2.592 64.5,0.5 25.105,5.551 47.105,16.884 66,34 10.018,10.418 20.018,20.751 30,31 45.148,-4.501 85.148,7.499 120,36 48.038,47.186 60.205,102.353 36.5,165.5 -19.361,40.693 -50.527,67.86 -93.5,81.5 -5.617,1.052 -11.284,1.718 -17,2 l -447,1 c -15.382,-0.28 -30.715,-1.28 -46,-3 -13.855,-2.061 -26.521,-7.061 -38,-15 -58.123,-41.126 -79.29,-96.626 -63.5,-166.5 14.085,-41.423 40.918,-71.589 80.5,-90.5 13.98737,-6.81937 23.112,-7.777 35,-10.5 5.245,-53.345 30.579,-93.845 76,-121.5 17.69,-9.399 36.357,-15.233 56,-17.5 z"
       id="path10"
       inkscape:connector-curvature="0"
       sodipodi:nodetypes="ccccccccccccccccc" />
  </g>
  <g
     id="g36"
     transform="translate(-2.8336073,-292.9653)">
    <path
       style="opacity:0.947;fill:#000000"
       d="m 1094.5,902.85355 c 36.05,0.026 62.05,-0.16155 98,1.14645 -2.39,1.861 -5.05,3.194 -8,4 -24.21,6.792 -48.88,10.792 -74,12 -311.997,2.874 -623.997,3.208 -936,1 -31.348,-0.147 -62.682,-0.814 -94,-2 C 62.2602,916.485 52.83387,915.47065 35.07367,910.65165 32.46137,910.01265 21.5543,906.194 19.5,904.5 c 12.019293,-1.00178 62.256885,-1.55984 107.86396,-1.64645 z"
       id="path34"
       inkscape:connector-curvature="0"
       sodipodi:nodetypes="cccccccccc" />
  </g>
  <g
     id="g843"
     transform="translate(-13.797731)">
    <rect
       transform="matrix(0.88450881,0.4665235,-0.88450881,0.4665235,0,0)"
       y="-103.65459"
       x="595.69012"
       height="142.05777"
       width="142.05777"
       id="rect858"
       style="fill:none;fill-opacity:0.72361809;stroke:#4d4d4d;stroke-width:10.40099049;stroke-linecap:round;stroke-linejoin:round;stroke-miterlimit:4;stroke-dasharray:none;stroke-opacity:1" />
    <path
       inkscape:connector-curvature="0"
       id="rect858-3"
       d="m 712.79775,341.47217 26.4242,13.93713 -125.65134,66.27329 -125.65135,-66.27329 31.42905,-16.57687"
       style="clip-rule:evenodd;fill:none;fill-opacity:0.72361809;fill-rule:evenodd;stroke:#4d4d4d;stroke-width:9.44881916;stroke-linecap:round;stroke-linejoin:round;stroke-miterlimit:4;stroke-dasharray:none;stroke-opacity:1;image-rendering:optimizeQuality;shape-rendering:geometricPrecision;text-rendering:geometricPrecision" />
    <path
       inkscape:connector-curvature="0"
       style="clip-rule:evenodd;fill:none;fill-opacity:0.72361809;fill-rule:evenodd;stroke:#4d4d4d;stroke-width:9.44881916;stroke-linecap:round;stroke-linejoin:round;stroke-miterlimit:4;stroke-dasharray:none;stroke-opacity:1;image-rendering:optimizeQuality;shape-rendering:geometricPrecision;text-rendering:geometricPrecision"
       d="m 712.79775,403.47217 26.4242,13.93713 -125.65134,66.27329 -125.65135,-66.27329 31.42905,-16.57687"
       id="path895" />
  </g>
  <circle
     style="fill:#e6e6e6;fill-opacity:0.72361809;stroke:none;stroke-width:9.30569458;stroke-linecap:round;stroke-linejoin:round;stroke-miterlimit:4;stroke-dasharray:none;stroke-opacity:1"
     id="path897"
     cx="603.16638"
     cy="30.270933"
     r="12.749326" />
</svg>
