<?xml version="1.0" encoding="UTF-8" standalone="no"?>
<svg
   xmlns:dc="http://purl.org/dc/elements/1.1/"
   xmlns:cc="http://creativecommons.org/ns#"
   xmlns:rdf="http://www.w3.org/1999/02/22-rdf-syntax-ns#"
   xmlns:svg="http://www.w3.org/2000/svg"
   xmlns="http://www.w3.org/2000/svg"
   xmlns:sodipodi="http://sodipodi.sourceforge.net/DTD/sodipodi-0.dtd"
   xmlns:inkscape="http://www.inkscape.org/namespaces/inkscape"
   viewBox="0 0 991.48739 170.37541"
   version="1.1"
   id="svg112"
   inkscape:version="0.92.5 (2060ec1f9f, 2020-04-08)"
   sodipodi:docname="logo.svg">
  <defs
     id="defs106" />
  <sodipodi:namedview
     id="base"
     pagecolor="#ffffff"
     bordercolor="#666666"
     borderopacity="1.0"
     inkscape:pageopacity="0.0"
     inkscape:pageshadow="2"
     inkscape:zoom="1.4"
     inkscape:cx="727.30332"
     inkscape:cy="-61.558035"
     inkscape:document-units="mm"
     inkscape:current-layer="layer1"
     inkscape:document-rotation="0"
     showgrid="false"
     fit-margin-top="10"
     fit-margin-left="5"
     fit-margin-right="5"
     fit-margin-bottom="10"
     inkscape:window-width="1920"
     inkscape:window-height="1028"
     inkscape:window-x="1920"
     inkscape:window-y="203"
     inkscape:window-maximized="1"
     scale-x="2" />
  <metadata
     id="metadata109">
    <rdf:RDF>
      <cc:Work
         rdf:about="">
        <dc:format>image/svg+xml</dc:format>
        <dc:type
           rdf:resource="http://purl.org/dc/dcmitype/StillImage" />
        <dc:title></dc:title>
      </cc:Work>
    </rdf:RDF>
  </metadata>
  <g
     inkscape:label="Layer 1"
     inkscape:groupmode="layer"
     id="layer1"
     transform="translate(54.061547,-118.86469)">
    <g
       id="g176"
       transform="translate(0,57.731311)">
      <path
         style="clip-rule:evenodd;fill:#ffffff;fill-opacity:1;fill-rule:evenodd;stroke:none;stroke-width:7.42143011;stroke-linecap:round;stroke-linejoin:round;stroke-miterlimit:4;stroke-dasharray:none;stroke-opacity:1;image-rendering:optimizeQuality;shape-rendering:geometricPrecision;text-rendering:geometricPrecision"
         d="m -52.720752,220.5092 316.511842,0.4325 -3.19199,3.12456 -310.250997,0.0504 z"
         id="rect849"
         inkscape:connector-curvature="0"
         sodipodi:nodetypes="ccccc" />
      <g
         id="g4"
         transform="matrix(0.26458333,0,0,0.26458333,-53.576623,-15.198916)"
         style="clip-rule:evenodd;fill-rule:evenodd;image-rendering:optimizeQuality;shape-rendering:geometricPrecision;text-rendering:geometricPrecision">
        <path
           style="opacity:0.98200001;fill:#000000"
           d="m 1199.5,887.5 v 5 c -23.63,1.553 -47.3,2.386 -71,2.5 H 74.5 c -22.0173,-0.196 -44.0173,-0.863 -66,-2 -1.66667,-0.333 -3.33333,-0.667 -5,-1 -1.10997,-3.916 0.5567,-5.916 5,-6 37.6351,-1.989 76.5517,-2.822 114.25,-2.5 V 309.75 c -0.04,-6.6885 3.1055,-9.7305 9.75,-9.75 l 947,-1.5 c 7.3614,0.12608 7.2097,3.82062 7.5,9.25 l 1.5,573.75 c 32.66,0.99 65.33,2.157 98,3.5 4.47,0.265 8.8,1.099 13,2.5 z"
           id="path2"
           inkscape:connector-curvature="0"
           sodipodi:nodetypes="ccccccccccccccc" />
      </g>
      <rect
         style="clip-rule:evenodd;fill:#f2f2f2;fill-opacity:1;fill-rule:evenodd;stroke:none;stroke-width:3.73213005;stroke-linecap:round;stroke-linejoin:round;stroke-miterlimit:4;stroke-dasharray:none;stroke-opacity:1;image-rendering:optimizeQuality;shape-rendering:geometricPrecision;text-rendering:geometricPrecision"
         id="rect828"
         width="228.24132"
         height="133.6264"
         x="-8.5944328"
         y="77.649414" />
      <g
         id="g8"
         transform="matrix(0.26458333,0,0,0.26458333,-53.576623,-15.198916)"
         style="clip-rule:evenodd;fill-rule:evenodd;image-rendering:optimizeQuality;shape-rendering:geometricPrecision;text-rendering:geometricPrecision" />
      <g
         id="g12"
         transform="matrix(0.26458333,0,0,0.26458333,-54.229541,-9.9072564)"
         style="clip-rule:evenodd;fill:#ffffff;fill-rule:evenodd;stroke:#000000;stroke-width:15.11810017;stroke-miterlimit:4;stroke-dasharray:none;image-rendering:optimizeQuality;shape-rendering:geometricPrecision;text-rendering:geometricPrecision">
        <path
           style="opacity:0.93199978;fill:#ffffff;stroke:#000000;stroke-width:15.11810017;stroke-miterlimit:4;stroke-dasharray:none"
           d="m 495.5,376.5 c 60.781,-1.864 107.614,22.469 140.5,73 21.52,-2.759 43.02,-2.592 64.5,0.5 25.105,5.551 47.105,16.884 66,34 10.018,10.418 20.018,20.751 30,31 45.148,-4.501 85.148,7.499 120,36 48.038,47.186 60.205,102.353 36.5,165.5 -19.361,40.693 -50.527,67.86 -93.5,81.5 -5.617,1.052 -11.284,1.718 -17,2 l -447,1 c -15.382,-0.28 -30.715,-1.28 -46,-3 -13.855,-2.061 -26.521,-7.061 -38,-15 -58.123,-41.126 -79.29,-96.626 -63.5,-166.5 14.085,-41.423 40.918,-71.589 80.5,-90.5 13.98737,-6.81937 23.112,-7.777 35,-10.5 5.245,-53.345 30.579,-93.845 76,-121.5 17.69,-9.399 36.357,-15.233 56,-17.5 z"
           id="path10"
           inkscape:connector-curvature="0"
           sodipodi:nodetypes="ccccccccccccccccc" />
      </g>
      <g
         id="g36"
         transform="matrix(0.26458333,0,0,0.26458333,-54.811272,-15.198916)"
         style="clip-rule:evenodd;fill-rule:evenodd;image-rendering:optimizeQuality;shape-rendering:geometricPrecision;text-rendering:geometricPrecision">
        <path
           style="opacity:0.947;fill:#000000"
           d="m 1094.5,902.85355 c 36.05,0.026 62.05,-0.16155 98,1.14645 -2.39,1.861 -5.05,3.194 -8,4 -24.21,6.792 -48.88,10.792 -74,12 -311.997,2.874 -623.997,3.208 -936,1 -31.348,-0.147 -62.682,-0.814 -94,-2 C 62.2602,916.485 52.83387,915.47065 35.07367,910.65165 32.46137,910.01265 21.5543,906.194 19.5,904.5 c 12.019293,-1.00178 62.256885,-1.55984 107.86396,-1.64645 z"
           id="path34"
           inkscape:connector-curvature="0"
           sodipodi:nodetypes="cccccccccc" />
      </g>
      <g
         id="g843"
         transform="matrix(0.26458333,0,0,0.26458333,-57.712197,62.314814)"
         style="clip-rule:evenodd;fill-rule:evenodd;image-rendering:optimizeQuality;shape-rendering:geometricPrecision;text-rendering:geometricPrecision">
        <rect
           transform="matrix(0.88450881,0.4665235,-0.88450881,0.4665235,0,0)"
           y="-103.65459"
           x="595.69012"
           height="142.05777"
           width="142.05777"
           id="rect858"
           style="fill:none;fill-opacity:0.72361797;stroke:#4d4d4d;stroke-width:10.40100002;stroke-linecap:round;stroke-linejoin:round;stroke-miterlimit:4;stroke-dasharray:none;stroke-opacity:1" />
        <path
           inkscape:connector-curvature="0"
           id="rect858-3"
           d="m 712.79775,341.47217 26.4242,13.93713 -125.65134,66.27329 -125.65135,-66.27329 31.42905,-16.57687"
           style="clip-rule:evenodd;fill:none;fill-opacity:0.72361797;fill-rule:evenodd;stroke:#4d4d4d;stroke-width:9.44882011;stroke-linecap:round;stroke-linejoin:round;stroke-miterlimit:4;stroke-dasharray:none;stroke-opacity:1;image-rendering:optimizeQuality;shape-rendering:geometricPrecision;text-rendering:geometricPrecision" />
        <path
           inkscape:connector-curvature="0"
           style="clip-rule:evenodd;fill:none;fill-opacity:0.72361797;fill-rule:evenodd;stroke:#4d4d4d;stroke-width:9.44882011;stroke-linecap:round;stroke-linejoin:round;stroke-miterlimit:4;stroke-dasharray:none;stroke-opacity:1;image-rendering:optimizeQuality;shape-rendering:geometricPrecision;text-rendering:geometricPrecision"
           d="m 712.79775,403.47217 26.4242,13.93713 -125.65134,66.27329 -125.65135,-66.27329 31.42905,-16.57687"
           id="path895" />
      </g>
      <circle
         style="clip-rule:evenodd;fill:#e6e6e6;fill-opacity:0.72361797;fill-rule:evenodd;stroke:none;stroke-width:2.46213007;stroke-linecap:round;stroke-linejoin:round;stroke-miterlimit:4;stroke-dasharray:none;stroke-opacity:1;image-rendering:optimizeQuality;shape-rendering:geometricPrecision;text-rendering:geometricPrecision"
         id="path897"
         cx="105.52623"
         cy="70.32399"
         r="3.3732591" />
    </g>
    <g
       aria-label="LocalStack"
       style="font-style:normal;font-weight:normal;font-size:121.94495392px;line-height:0;font-family:sans-serif;letter-spacing:0px;word-spacing:0px;fill:#1d2d35;fill-opacity:1;stroke:none;stroke-width:0.99999994"
       id="text829-3">
      <path
         d="m 309.80715,151.7474 v 85.36147 h 51.46077 V 221.86575 H 327.24528 V 151.7474 Z"
         style="font-style:normal;font-variant:normal;font-weight:600;font-stretch:normal;font-family:Jost;-inkscape-font-specification:'Jost Semi-Bold';fill:#1d2d35;fill-opacity:1;stroke-width:0.99999994"
         id="path830" />
      <path
         d="m 366.02374,209.06153 q 0,8.65809 4.02418,15.36507 4.14613,6.58502 11.097,10.24337 7.0728,3.65835 15.97478,3.65835 8.90199,0 15.85285,-3.65835 7.07281,-3.65835 11.09699,-10.24337 4.14613,-6.70698 4.14613,-15.36507 0,-8.78003 -4.14613,-15.36506 -4.02418,-6.58503 -11.09699,-10.24338 -6.95086,-3.65835 -15.85285,-3.65835 -8.90198,0 -15.97478,3.65835 -6.95087,3.65835 -11.097,10.24338 -4.02418,6.58503 -4.02418,15.36506 z m 16.09673,0 q 0,-4.75585 1.95112,-8.4142 2.07307,-3.65835 5.48753,-5.60947 3.41446,-1.95112 7.56058,-1.95112 4.14613,0 7.56059,1.95112 3.41446,1.95112 5.36558,5.60947 2.07306,3.65835 2.07306,8.4142 0,4.75586 -2.07306,8.4142 -1.95112,3.53641 -5.36558,5.60947 -3.41446,1.95112 -7.56059,1.95112 -4.14612,0 -7.56058,-1.95112 -3.41446,-2.07306 -5.48753,-5.60947 -1.95112,-3.65834 -1.95112,-8.4142 z"
         style="font-style:normal;font-variant:normal;font-weight:600;font-stretch:normal;font-family:Jost;-inkscape-font-specification:'Jost Semi-Bold';fill:#1d2d35;fill-opacity:1;stroke-width:0.99999994"
         id="path832" />
      <path
         d="m 451.99474,209.06153 q 0,-4.75585 2.19501,-8.4142 2.19501,-3.65835 5.85335,-5.73141 3.7803,-2.19501 8.29226,-2.19501 3.41446,0 6.82892,1.0975 3.41446,1.09751 6.21919,3.17057 2.92668,1.95112 4.39002,4.63391 v -16.21868 q -2.92668,-2.56084 -7.68253,-4.02418 -4.63391,-1.58529 -10.8531,-1.58529 -8.90199,0 -16.09674,3.65835 -7.0728,3.65835 -11.21893,10.24338 -4.02419,6.58503 -4.02419,15.36506 0,8.65809 4.02419,15.36507 4.14613,6.58502 11.21893,10.24337 7.19475,3.65835 16.09674,3.65835 6.21919,0 10.8531,-1.46334 4.75585,-1.58528 7.68253,-4.26807 v -16.21868 q -1.46334,2.68279 -4.26807,4.75585 -2.68279,1.95112 -6.09725,3.17057 -3.41446,1.09751 -7.07281,1.09751 -4.51196,0 -8.29226,-2.07307 -3.65834,-2.07306 -5.85335,-5.73141 -2.19501,-3.65835 -2.19501,-8.53615 z"
         style="font-style:normal;font-variant:normal;font-weight:600;font-stretch:normal;font-family:Jost;-inkscape-font-specification:'Jost Semi-Bold';fill:#1d2d35;fill-opacity:1;stroke-width:0.99999994"
         id="path834" />
      <path
         d="m 510.89396,219.67074 q 0,-2.4389 1.0975,-4.02418 1.09751,-1.70723 3.41446,-2.56084 2.31695,-0.97556 5.9753,-0.97556 4.51197,0 8.53615,1.21945 4.14613,1.21944 7.43864,3.65834 v -7.31669 q -1.21945,-1.46334 -4.02418,-3.04863 -2.80474,-1.58528 -6.95086,-2.68279 -4.02419,-1.0975 -9.38977,-1.0975 -10.48726,0 -16.21867,4.75585 -5.73142,4.75586 -5.73142,12.92617 0,5.73141 2.68279,9.75559 2.80474,3.90224 7.3167,5.97531 4.51196,2.07306 9.7556,2.07306 5.12168,0 9.75559,-1.82917 4.75586,-1.82918 7.68253,-5.48753 3.04863,-3.65834 3.04863,-9.02392 l -1.95112,-7.3167 q 0,4.02418 -1.82918,6.95086 -1.82917,2.80474 -4.75585,4.39002 -2.92668,1.46334 -6.58503,1.46334 -2.56084,0 -4.75585,-0.85361 -2.07306,-0.97556 -3.29251,-2.68279 -1.21945,-1.82918 -1.21945,-4.26808 z m -6.09725,-22.8037 q 1.21945,-0.85362 3.78029,-2.07307 2.56085,-1.21945 6.09725,-2.07306 3.5364,-0.85362 7.43864,-0.85362 2.56085,0 4.63391,0.48778 2.07307,0.48778 3.5364,1.58529 1.58529,1.0975 2.31696,2.80473 0.73167,1.58529 0.73167,3.90224 v 36.46154 h 15.24312 v -39.75405 q 0,-5.73142 -3.17057,-9.63365 -3.17057,-4.02419 -8.78004,-6.09725 -5.60947,-2.07307 -12.80422,-2.07307 -7.80447,0 -14.14561,2.19501 -6.34114,2.07307 -10.73116,4.39002 z"
         style="font-style:normal;font-variant:normal;font-weight:600;font-stretch:normal;font-family:Jost;-inkscape-font-specification:'Jost Semi-Bold';fill:#1d2d35;fill-opacity:1;stroke-width:0.99999994"
         id="path836" />
      <path
         d="m 563.20832,141.99181 v 95.11706 h 15.85284 v -95.11706 z"
         style="font-style:normal;font-variant:normal;font-weight:600;font-stretch:normal;font-family:Jost;-inkscape-font-specification:'Jost Semi-Bold';fill:#1d2d35;fill-opacity:1;stroke-width:0.99999994"
         id="path838" />
      <path
         d="m 603.57203,208.45181 -12.43839,8.78003 q 2.80474,5.97531 7.80448,11.09699 4.99974,5.12169 11.70672,8.17032 6.82891,2.92668 14.63339,2.92668 5.85336,0 11.09699,-1.82918 5.36558,-1.70723 9.63365,-4.99974 4.26808,-3.41446 6.70698,-8.29226 2.43889,-4.8778 2.43889,-11.09699 0,-5.48752 -1.82917,-9.63365 -1.70723,-4.26807 -4.8778,-7.3167 -3.04862,-3.17057 -6.95086,-5.36558 -3.78029,-2.19501 -7.92642,-3.65834 -6.46309,-2.19501 -10.73116,-4.26808 -4.26807,-2.19501 -6.34114,-4.51196 -2.07306,-2.4389 -2.07306,-5.60947 0,-3.17057 2.56084,-5.48752 2.56085,-2.4389 7.68254,-2.4389 3.90223,0 6.95086,1.58528 3.04862,1.46334 5.36558,4.02419 2.4389,2.4389 4.14612,5.48752 l 13.65784,-7.56059 q -2.19501,-4.51196 -6.21919,-8.65809 -3.90224,-4.26807 -9.87754,-6.95086 -5.85336,-2.80474 -14.02367,-2.80474 -7.92643,0 -14.38951,2.92668 -6.34114,2.80474 -10.12143,8.17032 -3.65835,5.24363 -3.65835,12.56033 0,6.09724 2.31696,10.48726 2.31695,4.26807 5.85335,7.3167 3.53641,2.92668 7.43865,4.8778 4.02418,1.82917 7.0728,2.92668 5.73142,2.195 9.63365,4.14612 4.02419,1.82918 5.97531,4.26808 2.07306,2.4389 2.07306,6.46308 0,4.63391 -3.29251,7.3167 -3.29252,2.68279 -8.53615,2.68279 -4.51196,0 -8.4142,-1.95112 -3.90224,-1.95112 -7.19475,-5.48753 -3.17057,-3.5364 -5.85336,-8.29225 z"
         style="font-style:normal;font-variant:normal;font-weight:600;font-stretch:normal;font-family:Jost;-inkscape-font-specification:'Jost Semi-Bold';fill:#1d2d35;fill-opacity:1;stroke-width:0.99999994"
         id="path840" />
      <path
         d="m 660.7642,181.01419 v 13.292 h 34.63237 v -13.292 z m 9.63366,-19.51119 v 75.60587 h 15.24312 V 161.503 Z"
         style="font-style:normal;font-variant:normal;font-weight:600;font-stretch:normal;font-family:Jost;-inkscape-font-specification:'Jost Semi-Bold';fill:#1d2d35;fill-opacity:1;stroke-width:0.99999994"
         id="path842" />
      <path
         d="m 715.02955,219.67074 q 0,-2.4389 1.0975,-4.02418 1.09751,-1.70723 3.41446,-2.56084 2.31695,-0.97556 5.9753,-0.97556 4.51197,0 8.53615,1.21945 4.14613,1.21944 7.43864,3.65834 v -7.31669 q -1.21945,-1.46334 -4.02418,-3.04863 -2.80474,-1.58528 -6.95086,-2.68279 -4.02419,-1.0975 -9.38977,-1.0975 -10.48726,0 -16.21867,4.75585 -5.73142,4.75586 -5.73142,12.92617 0,5.73141 2.68279,9.75559 2.80474,3.90224 7.3167,5.97531 4.51196,2.07306 9.7556,2.07306 5.12168,0 9.75559,-1.82917 4.75585,-1.82918 7.68253,-5.48753 3.04863,-3.65834 3.04863,-9.02392 l -1.95112,-7.3167 q 0,4.02418 -1.82918,6.95086 -1.82917,2.80474 -4.75585,4.39002 -2.92668,1.46334 -6.58503,1.46334 -2.56084,0 -4.75585,-0.85361 -2.07306,-0.97556 -3.29251,-2.68279 -1.21945,-1.82918 -1.21945,-4.26808 z m -6.09725,-22.8037 q 1.21945,-0.85362 3.78029,-2.07307 2.56085,-1.21945 6.09725,-2.07306 3.5364,-0.85362 7.43864,-0.85362 2.56085,0 4.63391,0.48778 2.07307,0.48778 3.5364,1.58529 1.58529,1.0975 2.31696,2.80473 0.73167,1.58529 0.73167,3.90224 v 36.46154 h 15.24312 v -39.75405 q 0,-5.73142 -3.17057,-9.63365 -3.17057,-4.02419 -8.78004,-6.09725 -5.60947,-2.07307 -12.80422,-2.07307 -7.80448,0 -14.14561,2.19501 -6.34114,2.07307 -10.73116,4.39002 z"
         style="font-style:normal;font-variant:normal;font-weight:600;font-stretch:normal;font-family:Jost;-inkscape-font-specification:'Jost Semi-Bold';fill:#1d2d35;fill-opacity:1;stroke-width:0.99999994"
         id="path844" />
      <path
         d="m 779.29451,209.06153 q 0,-4.75585 2.19501,-8.4142 2.19501,-3.65835 5.85336,-5.73141 3.78029,-2.19501 8.29226,-2.19501 3.41445,0 6.82891,1.0975 3.41446,1.09751 6.2192,3.17057 2.92667,1.95112 4.39001,4.63391 v -16.21868 q -2.92668,-2.56084 -7.68253,-4.02418 -4.63391,-1.58529 -10.8531,-1.58529 -8.90198,0 -16.09673,3.65835 -7.07281,3.65835 -11.21894,10.24338 -4.02418,6.58503 -4.02418,15.36506 0,8.65809 4.02418,15.36507 4.14613,6.58502 11.21894,10.24337 7.19475,3.65835 16.09673,3.65835 6.21919,0 10.8531,-1.46334 4.75585,-1.58528 7.68253,-4.26807 v -16.21868 q -1.46334,2.68279 -4.26807,4.75585 -2.68279,1.95112 -6.09725,3.17057 -3.41446,1.09751 -7.0728,1.09751 -4.51197,0 -8.29226,-2.07307 -3.65835,-2.07306 -5.85336,-5.73141 -2.19501,-3.65835 -2.19501,-8.53615 z"
         style="font-style:normal;font-variant:normal;font-weight:600;font-stretch:normal;font-family:Jost;-inkscape-font-specification:'Jost Semi-Bold';fill:#1d2d35;fill-opacity:1;stroke-width:0.99999994"
         id="path846" />
      <path
         d="m 826.60896,141.99181 v 95.11706 h 15.24312 v -95.11706 z m 35.85182,39.02238 -24.1451,23.16954 26.70594,32.92514 h 18.77952 l -26.584,-32.92514 24.14511,-23.16954 z"
         style="font-style:normal;font-variant:normal;font-weight:600;font-stretch:normal;font-family:Jost;-inkscape-font-specification:'Jost Semi-Bold';fill:#1d2d35;fill-opacity:1;stroke-width:0.99999994"
         id="path848" />
    </g>
    <path
       style="fill:#000000;fill-opacity:1;stroke:#666666;stroke-width:14;stroke-linecap:round;stroke-linejoin:round;stroke-miterlimit:4;stroke-dasharray:none;stroke-opacity:1"
       d="M 929.10217,140.68845 V 250.75684"
       id="path882"
       inkscape:connector-curvature="0" />
  </g>
</svg>
